<?xml version="1.0" standalone="no"?>
<!DOCTYPE svg PUBLIC "-//W3C//DTD SVG 20010904//EN"
 "http://www.w3.org/TR/2001/REC-SVG-20010904/DTD/svg10.dtd">
<svg version="1.0" xmlns="http://www.w3.org/2000/svg"
 width="500.000000pt" height="469.000000pt" viewBox="0 0 500.000000 469.000000"
 preserveAspectRatio="xMidYMid meet">

<g transform="translate(0.000000,469.000000) scale(0.100000,-0.100000)"
fill="#000000" stroke="none">
<path d="M2409 4480 c-217 -26 -431 -131 -576 -283 -73 -76 -80 -109 -38 -171
l24 -36 -32 0 c-45 0 -128 -41 -180 -90 -91 -83 -112 -210 -53 -316 14 -25 26
-48 26 -49 0 -1 -18 -5 -41 -8 -62 -8 -126 -54 -186 -132 -72 -95 -97 -161
-89 -242 8 -80 29 -139 66 -185 17 -20 30 -39 30 -41 0 -3 -18 -7 -39 -11 -58
-9 -121 -61 -154 -126 -32 -65 -58 -187 -59 -282 -1 -88 29 -141 112 -199 l58
-42 -48 -24 c-63 -31 -144 -118 -178 -190 -22 -48 -27 -72 -27 -138 0 -68 5
-90 31 -145 39 -83 99 -142 189 -187 119 -60 184 -80 416 -127 286 -57 242
-51 614 -87 537 -53 718 -46 1060 41 276 71 336 99 397 186 39 54 69 180 71
289 2 104 -10 146 -60 211 -19 25 -33 47 -31 48 2 2 23 11 48 20 56 22 147 73
157 89 3 6 -9 1 -28 -10 -43 -27 -147 -78 -176 -87 -13 -4 -28 -4 -34 0 -6 3
29 26 78 50 101 50 173 106 173 135 0 29 -27 77 -49 89 -11 5 -36 10 -55 10
-33 0 -36 2 -36 30 0 21 5 30 16 30 12 0 15 -7 12 -25 -3 -14 -1 -25 3 -25 5
0 9 14 9 30 0 22 5 30 17 30 24 0 118 -66 138 -96 8 -13 58 -129 111 -257 52
-127 103 -240 113 -250 28 -28 82 -26 130 6 23 15 41 33 41 39 0 6 -13 -1 -29
-16 -34 -33 -77 -46 -113 -34 -31 11 -34 17 -148 297 -46 112 -94 216 -107
231 -28 34 -114 90 -136 90 -13 0 -17 10 -18 38 -1 20 -5 51 -9 67 -5 21 -7 9
-6 -40 1 -56 -2 -70 -14 -70 -9 0 -16 11 -18 25 -7 70 -14 111 -18 108 -2 -2
0 -36 5 -74 6 -48 5 -71 -3 -76 -30 -21 -35 -10 -48 125 -1 9 -6 17 -11 17 -5
0 -6 -12 -1 -27 4 -16 9 -53 10 -83 1 -30 5 -63 9 -72 7 -19 -1 -38 -16 -38
-5 0 -9 12 -8 28 4 81 -49 262 -93 323 -27 37 -104 89 -131 89 -17 0 -15 5 15
38 82 91 105 163 88 281 -24 171 -83 283 -169 318 -32 14 -33 16 -16 25 11 6
26 18 33 26 29 37 0 217 -51 319 -45 88 -135 163 -196 163 -18 0 -19 3 -10 27
23 62 -24 168 -111 245 -62 56 -206 131 -294 153 -126 32 -234 39 -357 25z
m329 -31 c259 -60 470 -254 420 -388 -11 -30 -24 -42 -76 -67 -35 -17 -114
-48 -175 -68 -371 -121 -706 -112 -985 27 -99 49 -142 92 -142 143 0 31 9 45
68 103 232 231 568 326 890 250z m498 -445 c45 -21 111 -95 137 -152 30 -69
57 -180 57 -239 0 -43 -4 -55 -25 -71 -48 -38 -436 -128 -680 -158 -183 -22
-478 -23 -641 -1 -135 19 -329 65 -395 94 -98 44 -148 114 -157 220 -4 54 -1
70 22 118 45 91 155 164 247 165 31 0 62 -9 100 -29 70 -38 205 -84 294 -102
113 -23 376 -17 504 10 130 28 330 93 396 131 58 32 94 36 141 14z m-1621
-494 c14 -23 112 -62 227 -90 193 -47 329 -63 548 -63 275 0 498 29 775 100
184 47 204 49 251 25 73 -38 111 -98 140 -227 35 -157 21 -237 -58 -337 -37
-48 -144 -118 -233 -153 -64 -25 -74 -27 -115 -16 -90 25 -170 25 -255 2 -44
-12 -96 -32 -115 -45 -45 -30 -170 -37 -426 -25 -277 13 -484 48 -704 121
-207 68 -292 123 -341 223 -27 56 -32 78 -33 143 -1 70 2 83 34 142 46 85 133
177 185 195 47 17 111 19 120 5z m-193 -621 c80 -57 317 -136 523 -174 184
-33 340 -47 567 -49 108 0 194 -4 190 -7 -23 -19 -172 -119 -197 -132 -16 -8
-66 -20 -110 -27 -170 -25 -207 -47 -225 -137 -13 -60 -11 -71 41 -242 11 -35
18 -66 15 -68 -14 -14 -630 103 -750 143 -169 55 -304 141 -340 218 -33 70
-10 274 42 376 51 100 172 149 244 99z m2081 -48 c91 -35 161 -163 180 -329
l5 -42 -88 -44 c-106 -53 -130 -68 -130 -79 0 -5 12 0 28 11 34 24 168 92 182
92 5 0 10 -6 10 -14 0 -8 -36 -34 -81 -58 -139 -74 -179 -141 -123 -207 14
-17 22 -31 17 -31 -5 0 -72 -11 -148 -25 -76 -13 -140 -23 -142 -21 -2 1 10
21 26 43 71 98 101 193 101 317 0 75 -38 163 -99 229 l-41 44 68 26 c37 15 90
42 117 61 53 36 78 42 118 27z m-503 -90 c0 -19 -28 -31 -59 -25 -53 11 -34
28 37 33 12 0 22 -3 22 -8z m78 1 c9 -6 4 -16 -17 -36 -27 -26 -31 -27 -56
-13 l-27 14 27 21 c29 23 51 27 73 14z m73 -12 c22 0 5 -20 -37 -44 -51 -29
-64 -32 -64 -15 0 18 62 70 77 64 8 -3 19 -5 24 -5z m60 -39 c28 -22 29 -21
-38 -54 -44 -22 -53 -23 -64 -11 -16 20 -21 18 -44 -16 -16 -24 -27 -30 -57
-30 -33 0 -39 -4 -52 -34 -12 -30 -20 -35 -53 -38 -33 -3 -39 -7 -48 -35 -8
-28 -14 -33 -41 -33 -18 0 -39 -3 -48 -6 -10 -4 -24 8 -42 36 -25 37 -31 41
-57 36 -22 -5 -33 -1 -48 17 -26 31 -23 45 4 19 56 -53 141 4 90 60 -9 11 -11
18 -5 18 7 0 17 -9 24 -20 9 -13 24 -20 46 -20 26 0 34 5 43 27 7 19 7 35 0
51 -16 34 -13 38 9 14 28 -30 104 -31 120 -2 6 11 15 20 21 20 6 0 2 -14 -9
-32 l-20 -32 23 -18 c35 -28 66 -22 95 17 21 29 100 84 121 85 4 0 17 -9 30
-19z m53 -62 c10 -17 16 -32 14 -33 -1 -2 -28 -14 -59 -28 l-55 -25 -17 30
c-10 16 -16 31 -15 32 6 5 103 54 108 55 3 0 14 -14 24 -31z m47 -85 c12 -25
19 -47 17 -48 -1 -1 -31 -7 -66 -12 -59 -10 -65 -9 -78 10 -23 33 -17 42 44
69 31 14 58 26 60 26 2 1 12 -20 23 -45z m-168 -61 c-39 -5 -64 -39 -52 -70 8
-21 21 -27 79 -36 14 -3 5 -5 -20 -6 -60 -2 -85 -33 -67 -80 10 -27 16 -31 49
-31 21 0 38 -4 38 -8 0 -4 -19 -8 -42 -7 -39 1 -42 3 -57 43 -14 38 -13 43 3
61 15 17 17 25 7 52 -8 25 -8 39 1 61 11 24 18 28 53 26 36 -1 37 -2 8 -5z
m187 -53 c0 -55 0 -55 -70 -64 l-46 -5 1 52 c0 56 10 64 83 66 32 1 32 1 32
-49z m448 23 c-4 -34 -33 -43 -41 -13 -3 12 1 24 11 30 27 15 34 12 30 -17z
m97 -39 c19 -8 45 -55 45 -83 0 -51 -270 -191 -367 -191 -39 0 -83 37 -83 70
l0 22 34 -21 c59 -37 136 -21 136 27 0 21 -26 60 -55 84 -19 16 -18 17 46 48
89 41 198 61 244 44z m-558 -91 c-3 -21 -10 -50 -16 -65 -9 -25 -13 -27 -36
-18 -15 6 -38 10 -52 10 -22 0 -24 3 -19 23 4 12 9 34 12 49 7 28 20 34 83 37
33 1 34 1 28 -36z m-377 -127 c0 -63 0 -64 -31 -70 -54 -11 -287 -7 -294 5 -4
6 -4 35 0 64 l6 54 142 4 c78 1 150 4 160 5 15 2 17 -7 17 -62z m-1586 24 c36
-17 114 -44 173 -60 108 -30 459 -97 626 -120 l89 -12 43 -92 c24 -50 61 -117
81 -150 l37 -58 46 6 c41 5 263 8 429 7 l62 -1 0 -38 0 -39 -97 -6 c-54 -4
-156 -7 -227 -7 -150 0 -151 -3 -27 -76 67 -38 83 -44 136 -44 171 0 349 88
397 198 10 23 25 96 33 161 19 163 27 176 112 190 168 29 301 53 341 62 52 11
75 2 41 -17 -28 -16 -21 -18 15 -4 22 8 30 5 57 -23 53 -52 73 -109 73 -207 0
-169 -55 -315 -140 -372 -65 -43 -354 -125 -581 -165 -158 -27 -408 -22 -793
16 -347 34 -423 44 -510 66 -30 7 -108 23 -174 35 -135 24 -207 46 -323 100
-103 48 -164 104 -205 188 -29 58 -33 76 -33 147 0 102 30 172 109 251 42 41
112 88 142 94 1 0 31 -14 68 -30z m1197 9 c21 -21 22 -26 15 -228 -5 -140 -11
-208 -19 -213 -7 -4 -48 -7 -92 -6 -44 1 -60 3 -35 5 25 1 63 5 85 8 l40 5 0
58 c1 31 4 116 9 187 5 88 5 139 -3 158 -10 27 -11 27 -108 26 -54 0 -129 -3
-166 -8 -38 -4 -70 -4 -73 0 -2 4 31 10 73 14 43 3 89 7 103 9 14 2 53 4 88 5
51 1 66 -3 83 -20z m714 -3 c19 -13 18 -15 -6 -52 -26 -38 -27 -39 -82 -36
l-55 4 30 49 c27 42 36 49 63 49 17 0 40 -6 50 -14z m-45 -102 c0 -3 -8 -19
-17 -36 -16 -27 -22 -29 -56 -25 -48 7 -51 10 -43 42 6 23 11 25 61 25 30 0
55 -3 55 -6z m-390 -39 c11 -14 15 -14 29 -1 11 10 21 12 31 6 8 -5 23 -7 32
-4 13 4 16 1 12 -10 -7 -19 -9 -19 -35 -5 -15 8 -24 7 -35 -2 -13 -10 -20 -10
-36 0 -16 10 -23 10 -36 -3 -15 -12 -20 -12 -36 -1 -16 12 -22 12 -42 -2 -22
-14 -26 -14 -42 1 -14 12 -21 13 -30 4 -9 -9 -12 -9 -12 0 0 19 28 26 45 12
13 -11 20 -10 40 0 20 11 27 11 40 0 13 -11 19 -11 33 3 20 21 26 21 42 2z
m340 -45 c0 -26 -15 -40 -41 -40 -24 0 -29 4 -29 24 0 13 5 26 12 28 17 6 58
-3 58 -12z m-308 -14 c22 4 38 2 43 -5 5 -9 11 -7 21 6 15 20 19 6 4 -17 -7
-12 -12 -12 -34 -1 -20 11 -28 11 -40 2 -10 -9 -20 -9 -33 -3 -13 7 -24 6 -37
-4 -14 -10 -23 -11 -32 -3 -9 7 -19 6 -33 -3 -16 -10 -25 -10 -40 -1 -15 9
-22 8 -35 -5 -9 -9 -16 -12 -16 -6 0 6 9 19 20 29 20 18 21 18 34 -1 14 -18
15 -18 35 0 17 16 23 17 36 6 13 -11 19 -11 32 3 11 11 21 13 28 7 6 -5 27 -7
47 -4z m290 -61 c-2 -14 -8 -25 -12 -25 -5 0 -15 -3 -24 -6 -13 -5 -16 1 -16
25 0 27 3 31 29 31 25 0 28 -3 23 -25z m-6 -67 c-7 -37 -4 -33 -40 -42 -26 -6
-28 -5 -22 16 3 13 6 28 6 35 0 11 18 19 49 22 10 1 12 -7 7 -31z m-508 -35
c16 -14 19 -23 11 -42 -8 -19 -12 -21 -24 -11 -8 7 -15 9 -16 4 -1 -14 -18 29
-18 49 -1 9 5 17 13 17 8 0 23 -8 34 -17z m502 -38 c0 -22 -4 -25 -40 -25 -22
0 -40 3 -40 8 1 21 28 40 63 41 12 1 17 -7 17 -24z m-10 -44 c0 -5 -7 -25 -15
-45 l-15 -36 -37 15 c-48 20 -47 19 -28 49 14 21 25 26 56 26 22 0 39 -4 39
-9z m-73 -73 c15 -7 30 -13 32 -15 6 -4 -41 -53 -61 -64 -12 -6 -30 -4 -55 6
l-36 15 33 35 c37 38 46 41 87 23z m-92 -80 c33 -15 32 -20 -14 -39 -33 -14
-41 -15 -66 -2 l-28 15 29 19 c34 22 44 23 79 7z m-94 -47 l23 -18 -37 -7
c-36 -7 -77 6 -77 24 0 5 12 11 28 13 15 2 30 5 33 6 4 0 17 -7 30 -18z m-91
-21 l25 -20 -68 0 c-60 0 -127 19 -127 35 0 3 33 5 73 5 56 0 78 -5 97 -20z"/>
<path d="M1860 4099 c0 -22 36 -67 68 -83 74 -38 482 -139 498 -124 2 3 -30
11 -73 18 -136 22 -391 95 -438 126 -13 8 -30 29 -39 47 -8 18 -16 25 -16 16z"/>
<path d="M3116 3918 c-59 -13 -55 -17 11 -11 53 5 62 3 91 -22 19 -16 52 -66
78 -119 25 -50 42 -80 39 -66 -13 48 -68 145 -102 182 -40 41 -61 48 -117 36z"/>
<path d="M1722 2930 c7 -23 66 -59 122 -75 28 -8 186 -33 350 -55 312 -42 322
-43 315 -35 -3 2 -142 22 -309 45 -345 46 -395 57 -447 103 -20 17 -34 25 -31
17z"/>
<path d="M2840 2631 c-27 -51 1 -99 57 -96 32 2 39 7 51 36 12 29 12 34 -2 45
-9 6 -16 16 -16 23 0 6 -17 11 -40 11 -29 0 -42 -5 -50 -19z"/>
<path d="M2759 2573 c-9 -2 -22 -15 -30 -29 -11 -22 -11 -29 4 -52 14 -23 22
-27 58 -25 48 2 45 1 54 35 5 21 1 33 -19 52 -25 25 -34 28 -67 19z"/>
<path d="M2634 2241 c-2 -2 -4 -26 -4 -53 l0 -48 78 0 c42 0 107 3 145 7 l67
6 0 49 0 50 -141 -3 c-77 -2 -142 -6 -145 -8z"/>
<path d="M1120 1875 c0 -40 48 -121 98 -166 46 -41 69 -52 234 -107 200 -67
354 -107 445 -116 l58 -5 -50 10 c-246 49 -567 147 -646 198 -58 36 -97 87
-120 154 -10 29 -18 43 -19 32z"/>
<path d="M2513 1731 l-93 -6 26 -33 c19 -23 31 -31 43 -26 9 3 107 9 219 13
165 5 205 9 212 21 5 8 8 20 7 25 -4 11 -267 15 -414 6z"/>
<path d="M2610 1860 c0 -5 5 -10 10 -10 6 0 10 5 10 10 0 6 -4 10 -10 10 -5 0
-10 -4 -10 -10z"/>
<path d="M3098 4483 c7 -3 16 -2 19 1 4 3 -2 6 -13 5 -11 0 -14 -3 -6 -6z"/>
<path d="M3175 4480 c3 -5 18 -10 32 -10 32 0 28 5 -10 14 -19 4 -26 3 -22 -4z"/>
<path d="M3295 4450 c11 -5 27 -9 35 -9 13 -1 13 0 0 9 -8 5 -24 9 -35 9 l-20
0 20 -9z"/>
<path d="M3404 4416 c11 -9 24 -16 30 -16 12 0 7 5 -24 19 -24 11 -24 11 -6
-3z"/>
<path d="M3490 4376 c0 -2 11 -11 25 -20 14 -9 25 -13 25 -8 0 5 -11 14 -25
20 -14 6 -25 10 -25 8z"/>
<path d="M3590 4316 c0 -3 9 -10 20 -16 11 -6 20 -8 20 -6 0 3 -9 10 -20 16
-11 6 -20 8 -20 6z"/>
<path d="M3684 4251 c4 -6 16 -16 28 -22 15 -8 18 -8 14 0 -4 6 -16 16 -28 22
-15 8 -18 8 -14 0z"/>
<path d="M3770 4193 c0 -10 40 -36 46 -30 3 2 -7 12 -21 21 -14 9 -25 13 -25
9z"/>
<path d="M4413 4153 c9 -2 25 -2 35 0 9 3 1 5 -18 5 -19 0 -27 -2 -17 -5z"/>
<path d="M4523 4153 c9 -2 25 -2 35 0 9 3 1 5 -18 5 -19 0 -27 -2 -17 -5z"/>
<path d="M4296 4142 c-3 -5 8 -6 25 -4 16 2 29 6 29 8 0 8 -49 4 -54 -4z"/>
<path d="M4645 4136 c17 -8 32 -12 34 -10 7 6 -2 11 -34 17 l-30 6 30 -13z"/>
<path d="M3874 4111 c21 -23 26 -26 26 -11 0 5 -10 15 -22 21 -23 12 -23 12
-4 -10z"/>
<path d="M4205 4115 c-25 -12 -26 -14 -5 -9 14 4 29 10 35 15 12 12 5 11 -30
-6z"/>
<path d="M4741 4107 c28 -21 59 -36 59 -29 0 5 -11 14 -25 20 -24 11 -44 16
-34 9z"/>
<path d="M4110 4075 c-14 -8 -20 -14 -14 -15 5 0 19 7 30 15 24 18 16 19 -16
0z"/>
<path d="M3940 4061 c0 -5 12 -17 28 -26 l27 -18 -24 27 c-26 28 -31 31 -31
17z"/>
<path d="M4870 4025 c13 -14 26 -25 28 -25 3 0 -5 11 -18 25 -13 14 -26 25
-28 25 -3 0 5 -11 18 -25z"/>
<path d="M4004 4008 l-19 -21 28 18 c28 18 33 25 19 25 -5 0 -17 -10 -28 -22z"/>
<path d="M4020 3982 c0 -5 10 -17 22 -28 l21 -19 -18 28 c-18 28 -25 33 -25
19z"/>
<path d="M3924 3938 l-19 -23 23 19 c21 18 27 26 19 26 -2 0 -12 -10 -23 -22z"/>
<path d="M4941 3945 c0 -18 28 -61 29 -44 0 8 -7 24 -15 35 -8 10 -14 15 -14
9z"/>
<path d="M4080 3894 c0 -5 7 -19 15 -30 8 -10 15 -14 15 -8 0 5 -7 19 -15 30
-8 10 -15 14 -15 8z"/>
<path d="M3852 3859 c-19 -30 -11 -32 11 -3 10 13 14 24 10 24 -5 0 -14 -9
-21 -21z"/>
<path d="M4981 3835 c0 -11 4 -27 9 -35 9 -13 10 -13 9 0 0 8 -4 24 -9 35 l-9
20 0 -20z"/>
<path d="M4121 3793 c0 -4 4 -17 9 -28 8 -19 9 -19 9 2 1 12 -3 25 -9 28 -5 3
-10 3 -9 -2z"/>
<path d="M3791 3763 c-10 -26 -10 -27 4 -9 8 11 15 23 15 28 0 15 -7 8 -19
-19z"/>
<path d="M1250 3740 c-21 -7 -21 -8 -5 -9 11 0 27 4 35 9 18 11 5 11 -30 0z"/>
<path d="M1363 3743 c9 -2 25 -2 35 0 9 3 1 5 -18 5 -19 0 -27 -2 -17 -5z"/>
<path d="M1478 3743 c7 -3 16 -2 19 1 4 3 -2 6 -13 5 -11 0 -14 -3 -6 -6z"/>
<path d="M1125 3730 c-28 -7 -28 -8 -5 -9 14 0 32 4 40 9 17 11 8 11 -35 0z"/>
<path d="M4992 3710 c0 -19 2 -27 5 -17 2 9 2 25 0 35 -3 9 -5 1 -5 -18z"/>
<path d="M990 3710 c-11 -7 -5 -8 20 -4 43 8 51 14 19 14 -13 0 -31 -5 -39
-10z"/>
<path d="M880 3690 c-20 -6 -21 -8 -5 -8 11 0 29 3 40 8 25 11 -1 11 -35 0z"/>
<path d="M4150 3677 c0 -14 5 -29 10 -32 7 -4 8 3 4 22 -9 38 -14 42 -14 10z"/>
<path d="M3745 3670 c-4 -12 -5 -24 -2 -27 3 -2 8 5 12 17 4 12 5 24 2 27 -3
2 -8 -5 -12 -17z"/>
<path d="M768 3663 c-10 -2 -18 -8 -18 -13 0 -5 14 -4 30 1 45 16 36 25 -12
12z"/>
<path d="M650 3615 c-14 -8 -20 -14 -15 -14 6 0 21 6 35 14 14 8 21 14 15 14
-5 0 -21 -6 -35 -14z"/>
<path d="M4978 3605 c-3 -14 -1 -25 3 -25 5 0 9 11 9 25 0 14 -2 25 -4 25 -2
0 -6 -11 -8 -25z"/>
<path d="M4168 3575 c2 -14 6 -25 8 -25 2 0 4 11 4 25 0 14 -4 25 -9 25 -4 0
-6 -11 -3 -25z"/>
<path d="M3716 3575 c-3 -9 -6 -24 -5 -33 0 -9 5 -4 10 12 9 32 6 48 -5 21z"/>
<path d="M546 3565 c-11 -8 -15 -15 -10 -15 6 0 19 7 30 15 10 8 15 14 9 14
-5 0 -19 -6 -29 -14z"/>
<path d="M4952 3501 c-6 -17 -9 -31 -6 -31 7 0 25 52 20 57 -2 2 -8 -10 -14
-26z"/>
<path d="M440 3500 c-14 -11 -20 -20 -15 -20 6 0 21 9 35 20 14 11 21 20 15
20 -5 0 -21 -9 -35 -20z"/>
<path d="M4166 3484 c-4 -14 -5 -28 -3 -31 3 -2 8 8 11 23 4 14 5 28 3 31 -3
2 -8 -8 -11 -23z"/>
<path d="M3698 3455 c-3 -14 -1 -25 3 -25 5 0 9 11 9 25 0 14 -2 25 -4 25 -2
0 -6 -11 -8 -25z"/>
<path d="M349 3423 l-24 -28 28 24 c25 23 32 31 24 31 -2 0 -14 -12 -28 -27z"/>
<path d="M4911 3398 c-10 -30 -9 -31 4 -14 8 11 15 26 15 33 0 22 -8 14 -19
-19z"/>
<path d="M3700 3381 c0 -6 4 -13 10 -16 6 -3 7 1 4 9 -7 18 -14 21 -14 7z"/>
<path d="M4102 3359 c-13 -16 -20 -29 -15 -29 5 0 19 14 31 30 29 39 14 38
-16 -1z"/>
<path d="M265 3340 c-10 -11 -16 -22 -14 -24 2 -2 12 7 22 20 22 29 17 32 -8
4z"/>
<path d="M3740 3325 c7 -8 17 -15 22 -15 6 0 5 7 -2 15 -7 8 -17 15 -22 15 -6
0 -5 -7 2 -15z"/>
<path d="M4873 3318 c-20 -26 -26 -41 -15 -34 12 7 36 46 29 46 -3 0 -9 -6
-14 -12z"/>
<path d="M3990 3285 c-25 -10 -29 -14 -14 -14 11 -1 29 6 40 14 23 17 19 17
-26 0z"/>
<path d="M3830 3279 c0 -5 9 -9 19 -9 11 0 28 -3 38 -7 10 -3 15 -3 12 1 -11
12 -69 25 -69 15z"/>
<path d="M194 3245 c-9 -14 -15 -28 -12 -30 2 -2 12 9 22 25 21 36 13 40 -10
5z"/>
<path d="M4322 3243 c-18 -8 -30 -18 -28 -21 3 -3 12 0 20 7 7 6 33 16 57 20
36 7 38 9 14 10 -16 0 -45 -7 -63 -16z"/>
<path d="M4813 3218 c-20 -26 -26 -41 -15 -34 12 7 36 46 29 46 -3 0 -9 -6
-14 -12z"/>
<path d="M4335 3202 c-35 -22 -60 -50 -52 -58 3 -3 10 4 16 15 13 24 61 51 89
51 10 0 27 -9 37 -20 10 -11 20 -18 23 -15 9 9 -41 45 -62 45 -12 0 -34 -8
-51 -18z"/>
<path d="M630 3190 c-13 -9 -13 -10 0 -9 8 0 24 4 35 9 l20 9 -20 0 c-11 0
-27 -4 -35 -9z"/>
<path d="M735 3190 c7 -11 45 -20 45 -10 0 4 -11 10 -25 12 -13 3 -22 2 -20
-2z"/>
<path d="M141 3143 c-10 -26 -10 -27 4 -9 8 11 15 23 15 28 0 15 -7 8 -19 -19z"/>
<path d="M536 3155 c-11 -8 -15 -15 -10 -15 6 0 19 7 30 15 10 8 15 14 9 14
-5 0 -19 -6 -29 -14z"/>
<path d="M845 3130 c10 -11 20 -20 22 -20 2 0 -1 9 -7 20 -6 11 -16 20 -22 20
-6 0 -3 -9 7 -20z"/>
<path d="M4332 3125 c-29 -36 -47 -153 -35 -225 l9 -57 -43 -28 c-96 -60 -163
-163 -163 -249 0 -52 86 -73 166 -40 64 26 170 102 214 151 62 71 73 147 24
176 -10 6 -3 21 26 64 41 57 51 99 27 109 -19 7 -67 -13 -94 -38 l-23 -21 0
69 c0 83 -17 114 -60 114 -19 0 -35 -9 -48 -25z m89 -7 c18 -34 5 -181 -25
-275 -15 -46 -31 -83 -37 -83 -14 0 -39 63 -51 131 -11 66 4 190 28 226 20 31
69 31 85 1z m137 -121 c5 -23 -57 -113 -119 -172 -43 -42 -51 -46 -45 -25 4
14 14 50 23 80 18 67 43 102 85 123 38 19 52 17 56 -6z m-40 -179 c33 -69 -80
-199 -239 -273 -83 -38 -169 -31 -169 15 0 18 7 20 60 20 48 0 61 4 70 19 18
35 -19 94 -64 102 -17 4 -17 6 8 36 14 17 48 45 73 63 l47 31 23 -46 c13 -25
27 -45 31 -45 4 1 34 25 67 55 33 30 65 53 70 52 6 -2 16 -15 23 -29z"/>
<path d="M4745 3120 c-10 -11 -16 -22 -13 -25 3 -3 13 6 22 20 20 30 16 32 -9
5z"/>
<path d="M451 3099 c-13 -11 -22 -21 -20 -23 2 -3 15 4 28 15 13 11 22 21 20
23 -2 3 -15 -4 -28 -15z"/>
<path d="M104 3054 c-4 -10 -9 -22 -11 -26 -2 -5 0 -8 5 -8 10 0 24 41 17 48
-3 3 -8 -4 -11 -14z"/>
<path d="M891 3050 c0 -8 4 -24 9 -35 5 -13 9 -14 9 -5 0 8 -4 24 -9 35 -5 13
-9 14 -9 5z"/>
<path d="M364 3018 l-19 -23 23 19 c21 18 27 26 19 26 -2 0 -12 -10 -23 -22z"/>
<path d="M4591 2997 c0 -21 -8 -52 -18 -70 -15 -29 -15 -31 0 -18 19 15 31 67
24 102 -3 16 -5 12 -6 -14z"/>
<path d="M68 2945 c-3 -13 -2 -22 2 -20 11 7 20 45 10 45 -4 0 -10 -11 -12
-25z"/>
<path d="M297 2952 c-19 -20 -23 -37 -7 -27 10 6 33 45 27 45 -2 0 -11 -8 -20
-18z"/>
<path d="M897 2943 c-4 -3 -7 -18 -6 -32 1 -26 1 -25 10 3 9 31 7 41 -4 29z"/>
<path d="M226 2855 c-9 -14 -13 -25 -9 -25 10 0 36 40 30 46 -2 3 -12 -7 -21
-21z"/>
<path d="M39 2844 c-5 -15 -8 -29 -5 -31 2 -2 8 10 14 26 13 38 5 41 -9 5z"/>
<path d="M860 2819 c-6 -11 -10 -25 -7 -32 2 -6 9 3 15 21 12 36 8 42 -8 11z"/>
<path d="M171 2753 c-10 -26 -10 -27 4 -9 8 11 15 23 15 28 0 15 -7 8 -19 -19z"/>
<path d="M16 2755 c-3 -9 -6 -24 -5 -33 0 -9 5 -4 10 12 9 32 6 48 -5 21z"/>
<path d="M805 2714 c-9 -14 -15 -27 -13 -30 2 -2 12 10 22 26 21 37 15 40 -9
4z"/>
<path d="M130 2661 c-12 -24 -13 -34 -1 -27 9 6 22 46 15 46 -2 0 -8 -9 -14
-19z"/>
<path d="M2 2635 c0 -16 2 -22 5 -12 2 9 2 23 0 30 -3 6 -5 -1 -5 -18z"/>
<path d="M735 2620 c-10 -11 -14 -20 -9 -20 5 0 15 9 22 20 7 11 11 20 9 20
-2 0 -12 -9 -22 -20z"/>
<path d="M101 2568 c0 -9 -4 -25 -7 -35 -5 -17 -5 -17 6 0 6 10 9 25 7 35 -4
15 -5 15 -6 0z"/>
<path d="M22 2535 c6 -14 13 -24 14 -22 6 6 -9 47 -17 47 -5 0 -3 -11 3 -25z"/>
<path d="M655 2540 c-10 -11 -14 -20 -8 -20 5 0 18 9 28 20 10 11 14 20 8 20
-5 0 -18 -9 -28 -20z"/>
<path d="M569 2469 c-23 -19 -23 -20 -2 -10 12 6 25 16 28 21 10 16 -1 12 -26
-11z"/>
<path d="M79 2438 c3 -20 6 -26 9 -15 2 9 8 14 13 11 6 -3 5 3 -3 15 -18 30
-25 26 -19 -11z"/>
<path d="M483 2428 c-31 -15 -29 -30 2 -16 14 6 25 15 25 20 0 9 1 10 -27 -4z"/>
<path d="M150 2407 c0 -3 15 -10 32 -16 18 -6 28 -7 23 -2 -12 10 -55 25 -55
18z"/>
<path d="M380 2390 l-25 -8 28 -1 c15 -1 27 4 27 9 0 6 -1 10 -2 9 -2 -1 -14
-5 -28 -9z"/>
<path d="M263 2373 c9 -2 25 -2 35 0 9 3 1 5 -18 5 -19 0 -27 -2 -17 -5z"/>
<path d="M72 2330 c0 -19 2 -27 5 -17 2 9 2 25 0 35 -3 9 -5 1 -5 -18z"/>
<path d="M78 2220 c2 -16 6 -30 8 -30 2 0 4 14 4 30 0 17 -4 30 -8 30 -5 0 -7
-13 -4 -30z"/>
<path d="M90 2126 c0 -14 4 -27 8 -30 5 -3 6 8 4 25 -5 35 -12 38 -12 5z"/>
<path d="M111 2030 c0 -8 4 -24 9 -35 l9 -20 0 20 c0 11 -4 27 -9 35 -9 13
-10 13 -9 0z"/>
<path d="M145 1918 c4 -13 11 -27 16 -33 5 -5 4 5 -2 23 -12 36 -24 44 -14 10z"/>
<path d="M180 1824 c0 -6 7 -19 16 -30 14 -18 14 -18 3 6 -14 31 -19 36 -19
24z"/>
<path d="M232 1705 c6 -14 15 -25 19 -25 5 0 3 11 -3 25 -6 14 -15 25 -19 25
-5 0 -3 -11 3 -25z"/>
<path d="M281 1625 c0 -5 6 -19 14 -29 8 -11 15 -15 15 -10 0 6 -7 19 -15 30
-8 10 -14 15 -14 9z"/>
<path d="M347 1516 c10 -13 19 -23 21 -21 5 5 -22 45 -31 45 -4 0 0 -11 10
-24z"/>
<path d="M415 1427 c10 -15 20 -25 23 -22 3 3 -5 16 -17 28 l-23 22 17 -28z"/>
<path d="M1349 1393 c-12 -15 -12 -16 1 -8 8 5 33 12 55 16 l40 6 -41 2 c-28
1 -46 -5 -55 -16z"/>
<path d="M470 1363 c0 -5 9 -18 20 -28 11 -10 20 -14 20 -8 0 5 -9 18 -20 28
-11 10 -20 14 -20 8z"/>
<path d="M1361 1347 c-14 -6 -26 -19 -28 -27 -3 -9 2 -8 12 5 13 16 28 20 76
20 34 -1 52 2 42 6 -28 12 -76 10 -102 -4z"/>
<path d="M1392 1300 c-22 -9 -72 -98 -72 -129 0 -11 -3 -11 -17 2 -50 44 -123
24 -123 -35 0 -41 30 -103 76 -156 57 -67 70 -70 114 -27 l37 36 36 -21 37
-22 -32 -38 c-37 -47 -45 -112 -15 -118 34 -7 68 8 113 50 l45 41 26 -24 c31
-29 62 -94 63 -131 0 -16 -10 -38 -21 -49 -20 -20 -29 -21 -109 -16 -118 9
-203 37 -287 96 -86 60 -138 119 -151 171 -12 50 -1 65 58 79 l45 11 -45 -5
c-101 -12 -100 -92 2 -195 101 -102 226 -157 380 -167 83 -6 87 -5 112 20 30
30 34 72 10 122 -23 49 -102 124 -154 147 -25 11 -59 28 -76 38 l-31 20 35 69
c43 87 56 189 27 221 -19 21 -46 24 -83 10z m73 -13 c15 -12 17 -24 13 -78 -7
-78 -43 -162 -93 -218 -21 -22 -40 -41 -44 -41 -3 0 -4 25 -3 55 2 30 -1 74
-6 99 -7 36 -6 56 9 98 27 81 79 117 124 85z m-170 -117 c29 -24 47 -185 25
-220 -20 -32 -130 123 -130 183 0 38 27 60 63 53 17 -3 36 -11 42 -16z"/>
<path d="M550 1283 c0 -5 9 -18 20 -28 11 -10 20 -14 20 -8 0 5 -9 18 -20 28
-11 10 -20 14 -20 8z"/>
<path d="M1082 1200 c-6 -11 -12 -30 -11 -42 1 -20 2 -19 9 5 5 16 14 35 21
43 6 8 7 14 3 14 -5 0 -15 -9 -22 -20z"/>
<path d="M1141 1194 c-20 -26 -30 -94 -13 -94 5 0 7 13 4 29 -3 20 3 40 18 60
26 38 19 41 -9 5z"/>
<path d="M647 1189 c12 -12 25 -20 28 -17 3 3 -7 13 -22 23 l-28 17 22 -23z"/>
<path d="M724 1131 c4 -6 16 -16 28 -22 15 -8 18 -8 14 0 -4 6 -16 16 -28 22
-15 8 -18 8 -14 0z"/>
<path d="M810 1070 c35 -24 54 -31 30 -11 -14 11 -29 21 -35 21 -5 0 -3 -5 5
-10z"/>
<path d="M2190 1058 c0 -2 13 -35 30 -73 37 -87 37 -95 2 -95 -26 0 -31 6 -57
75 -16 41 -31 73 -33 70 -2 -2 8 -33 22 -69 32 -80 32 -86 1 -86 -14 0 -25 6
-25 13 0 29 -31 117 -42 117 -7 0 -7 -4 0 -12 5 -7 16 -38 24 -69 l14 -56 -27
-10 c-15 -6 -34 -24 -42 -39 -23 -44 -83 -296 -122 -514 -20 -107 -43 -208
-53 -224 -43 -73 -130 -87 -292 -47 -47 11 -94 21 -105 20 -39 -1 191 -51 245
-52 77 -3 135 25 161 75 11 21 36 125 55 230 61 334 111 520 144 538 34 18 50
12 50 -19 0 -16 4 -41 10 -55 8 -22 6 -27 -13 -37 -44 -23 -67 -52 -67 -85 0
-64 86 -101 260 -110 188 -11 325 40 376 139 18 33 11 62 -19 82 -38 24 -167
47 -279 49 -104 1 -107 2 -122 28 -30 50 -31 50 181 47 108 -2 184 -1 167 2
-16 4 -106 7 -200 8 l-171 1 -28 75 c-15 41 -31 78 -36 81 -5 3 -9 4 -9 2z
m86 -217 l21 -39 -34 -10 c-37 -11 -42 -6 -59 63 -5 22 -3 25 22 25 23 0 33
-8 50 -39z m-73 -16 c15 -43 15 -45 -5 -56 -28 -15 -48 11 -48 63 0 31 4 38
19 38 14 0 23 -13 34 -45z m248 -70 c-3 -63 12 -105 38 -105 11 0 45 28 79 66
l61 66 35 -17 c44 -21 50 -38 29 -82 -49 -104 -247 -156 -455 -120 -112 19
-158 46 -158 91 0 41 17 57 103 96 92 41 162 60 222 57 l49 -2 -3 -50z"/>
<path d="M900 1016 c0 -2 7 -7 16 -10 8 -3 12 -2 9 4 -6 10 -25 14 -25 6z"/>
<path d="M2615 546 c-76 -35 -183 -56 -292 -57 -78 -1 -90 -3 -58 -9 49 -10
201 4 271 25 57 17 144 53 144 60 0 8 -13 4 -65 -19z"/>
</g>
</svg>
