<?xml version="1.0" standalone="no"?>
<!DOCTYPE svg PUBLIC "-//W3C//DTD SVG 20010904//EN"
 "http://www.w3.org/TR/2001/REC-SVG-20010904/DTD/svg10.dtd">
<svg version="1.0" xmlns="http://www.w3.org/2000/svg"
 width="1600.000000pt" height="615.000000pt" viewBox="0 0 1600.000000 615.000000"
 preserveAspectRatio="xMidYMid meet">

<g transform="translate(0.000000,615.000000) scale(0.100000,-0.100000)"
fill="#000000" stroke="none">
<path d="M9615 6134 c-27 -8 -140 -21 -250 -29 -375 -28 -557 -56 -652 -100
-63 -28 -166 -100 -210 -147 -33 -35 -73 -123 -73 -162 0 -13 -6 -41 -14 -63
-21 -59 -64 -317 -81 -488 -9 -82 -17 -155 -19 -161 -3 -8 -19 -9 -58 -2 -59
11 -196 5 -278 -13 -29 -6 -81 -24 -114 -40 -74 -35 -144 -39 -170 -10 -55 61
-245 104 -368 83 -65 -11 -182 -59 -230 -94 -22 -16 -24 -13 -33 48 -6 48 -5
52 16 57 12 3 29 2 37 -2 9 -5 28 -4 44 1 16 6 38 8 49 5 13 -4 36 4 58 18 36
24 37 24 115 9 64 -12 95 -13 170 -4 63 8 92 8 94 0 2 -6 14 -4 32 7 24 14 34
15 55 5 35 -16 76 -15 99 3 26 19 46 19 46 0 0 -13 7 -15 35 -9 26 5 44 1 70
-15 45 -26 50 -26 74 0 15 16 26 20 47 15 18 -5 32 -2 45 10 13 12 26 14 46 9
40 -10 106 -7 113 6 4 6 10 50 14 97 3 48 13 129 22 179 19 117 14 127 -67
113 -51 -8 -55 -7 -75 17 -16 21 -25 24 -51 19 -25 -6 -31 -4 -36 13 -4 16
-17 21 -66 27 -33 3 -66 13 -72 20 -19 24 -37 16 -68 -30 -17 -24 -36 -46 -42
-48 -6 -2 -38 1 -71 6 -50 9 -64 7 -92 -8 -32 -17 -35 -17 -59 -2 -15 10 -34
15 -49 11 -19 -5 -25 -1 -35 25 l-12 32 -31 -19 c-18 -10 -49 -33 -70 -50 -21
-18 -46 -33 -55 -33 -18 0 -54 37 -55 57 0 6 -4 15 -10 18 -11 7 -130 -23
-148 -37 -7 -6 -29 -8 -52 -4 -34 5 -40 4 -40 -12 0 -31 -23 -68 -53 -86 -22
-12 -28 -21 -23 -36 3 -11 9 -29 12 -40 4 -13 2 -20 -6 -20 -25 0 -80 -51 -80
-74 0 -13 -9 -31 -20 -41 -27 -24 -25 -45 3 -45 12 -1 33 -10 46 -21 22 -18
23 -20 7 -38 -20 -22 -12 -30 38 -40 30 -6 31 -9 37 -66 4 -44 2 -64 -9 -77
-8 -9 -11 -21 -8 -26 3 -5 -3 -12 -13 -15 -21 -5 -35 -71 -25 -123 3 -19 3
-34 -1 -34 -4 0 -45 23 -90 52 -79 49 -83 53 -82 87 0 20 6 45 14 56 19 28 16
55 -9 82 -20 22 -21 26 -9 56 8 18 16 51 18 75 4 35 0 49 -22 78 -35 46 -76
70 -131 79 -27 4 -54 16 -69 31 -13 13 -30 24 -38 24 -8 0 -19 17 -25 39 -16
52 -46 87 -94 112 -26 13 -38 25 -34 35 7 19 -3 44 -18 44 -7 0 -16 15 -21 33
-6 18 -20 36 -32 42 -14 6 -23 19 -23 31 0 27 -36 73 -66 84 -14 6 -34 6 -47
1 -18 -7 -26 -5 -35 10 -7 10 -19 19 -27 19 -8 0 -15 8 -15 18 0 23 -19 42
-41 42 -13 0 -16 9 -15 38 0 24 -9 54 -27 85 -32 53 -67 69 -96 43 -10 -9 -29
-16 -44 -16 -16 0 -30 -8 -37 -20 -6 -11 -17 -20 -25 -20 -8 0 -28 -18 -46
-40 -30 -37 -33 -38 -53 -25 -28 20 -43 19 -63 -5 -10 -11 -27 -20 -40 -20
-12 0 -28 -9 -37 -21 -13 -19 -17 -20 -49 -9 -42 16 -76 8 -116 -26 -17 -14
-31 -21 -31 -14 0 6 -11 22 -25 35 -25 26 -78 34 -90 15 -3 -5 -18 -10 -33
-10 -32 0 -46 -9 -55 -32 -3 -10 -16 -18 -27 -18 -49 0 -90 -50 -90 -110 0
-23 -4 -30 -20 -30 -12 0 -20 -7 -20 -16 0 -12 -6 -15 -27 -10 -39 10 -79 -11
-98 -51 -14 -28 -16 -58 -13 -149 l3 -114 -27 -9 c-24 -9 -28 -15 -28 -49 0
-26 -5 -42 -15 -46 -8 -3 -15 -12 -15 -21 0 -11 -10 -15 -36 -15 -47 0 -94
-45 -94 -89 0 -20 -7 -34 -20 -41 -18 -9 -27 -6 -56 20 -31 27 -42 31 -82 28
-38 -2 -49 -8 -57 -25 -6 -14 -18 -23 -33 -23 -13 0 -34 -12 -49 -26 -21 -21
-24 -32 -20 -60 4 -25 2 -34 -9 -34 -7 0 -19 -8 -25 -18 -10 -16 -22 -18 -94
-14 -113 6 -182 -15 -245 -74 -57 -53 -80 -110 -80 -194 0 -55 -1 -57 -24 -53
-16 3 -34 -5 -58 -26 -41 -36 -54 -86 -35 -134 11 -26 10 -36 -6 -66 -25 -49
-18 -129 18 -182 21 -32 23 -43 15 -60 -10 -17 -17 -19 -56 -13 -30 4 -44 3
-44 -5 0 -6 -7 -11 -15 -11 -31 0 -34 -34 -10 -94 l23 -58 -23 6 c-27 7 -55
-1 -55 -16 0 -20 -34 -37 -48 -26 -9 8 -16 8 -24 0 -7 -7 -20 -12 -29 -12 -9
0 -20 -7 -23 -16 -5 -14 -9 -14 -22 -3 -14 11 -18 11 -28 -3 -7 -9 -25 -18
-41 -20 -24 -2 -31 -9 -33 -28 -5 -40 -35 -53 -77 -36 -34 14 -36 14 -77 -17
-26 -20 -46 -45 -52 -66 -7 -26 -19 -37 -51 -51 -44 -19 -65 -54 -65 -106 0
-15 -6 -24 -15 -24 -9 0 -19 -8 -22 -17 -4 -9 -15 -25 -26 -36 -15 -15 -18
-29 -15 -68 4 -41 2 -49 -12 -49 -25 0 -62 -40 -57 -61 3 -12 -2 -20 -14 -24
-24 -8 -53 -50 -44 -64 3 -6 -3 -19 -15 -31 -20 -20 -28 -60 -11 -60 6 0 3
-16 -5 -36 -20 -48 -15 -88 12 -92 17 -2 20 -8 16 -33 -3 -21 1 -35 14 -45 18
-15 18 -15 -6 -8 -14 4 -48 8 -76 10 -28 1 -64 9 -80 16 -18 9 -38 12 -54 7
-42 -12 -97 -10 -109 5 -8 10 -8 21 -1 40 16 42 12 65 -14 91 -13 13 -26 39
-30 59 -4 20 -11 36 -16 36 -6 0 -10 12 -10 27 0 14 -7 34 -16 44 -12 14 -13
24 -6 53 13 45 6 71 -24 91 -13 8 -24 21 -24 29 0 13 -80 69 -117 80 -11 4
-27 13 -33 21 -7 8 -26 15 -42 15 -16 0 -41 6 -56 13 -62 31 -189 14 -205 -27
-7 -17 4 -27 56 -51 22 -10 43 -28 47 -39 5 -13 9 -15 9 -6 1 24 -11 37 -61
62 -28 14 -44 28 -40 34 20 31 143 40 191 15 11 -6 33 -11 50 -11 16 0 33 -5
37 -11 3 -6 23 -19 43 -28 62 -29 111 -62 111 -76 0 -7 12 -20 26 -30 24 -16
26 -21 20 -68 -5 -39 -3 -57 8 -72 9 -11 16 -32 16 -47 0 -16 4 -28 9 -28 11
0 22 -43 13 -51 -4 -4 -46 -9 -95 -11 -70 -4 -87 -2 -87 9 0 24 -51 83 -72 83
-12 0 -24 11 -32 31 -7 16 -27 39 -44 49 -18 11 -32 26 -32 35 0 8 -16 30 -35
49 -19 20 -35 31 -35 26 0 -5 11 -17 24 -28 13 -10 31 -34 39 -54 9 -22 24
-38 38 -42 14 -3 30 -20 39 -38 9 -21 23 -34 38 -36 13 -2 27 -14 32 -28 5
-13 14 -24 20 -24 13 0 13 -36 -2 -76 -9 -25 -9 -42 0 -70 17 -57 4 -67 -81
-59 -61 6 -71 5 -90 -13 -32 -30 -67 -41 -119 -35 -65 8 -86 0 -142 -52 -26
-25 -55 -45 -63 -45 -8 0 -36 -23 -64 -50 -27 -27 -56 -50 -63 -50 -7 0 -31
-13 -54 -29 -37 -27 -41 -35 -48 -87 -5 -43 -16 -71 -42 -108 -31 -41 -36 -57
-34 -96 1 -36 -4 -54 -23 -80 -29 -40 -48 -100 -39 -125 4 -9 -2 -41 -12 -70
-17 -52 -17 -56 0 -92 15 -32 16 -44 5 -98 -11 -55 -10 -65 4 -86 11 -15 17
-44 17 -80 0 -47 5 -63 25 -87 14 -17 25 -37 25 -47 0 -28 20 -55 40 -55 10 0
22 -9 25 -20 3 -11 12 -20 18 -20 7 0 34 -20 60 -45 27 -25 54 -45 61 -45 14
0 66 -51 66 -66 0 -25 63 -173 89 -209 l30 -41 -20 -30 c-10 -16 -19 -36 -19
-45 0 -9 -7 -23 -16 -30 -10 -8 -36 -55 -60 -106 l-43 -93 -878 -3 c-483 -1
249 -3 1627 -5 l2506 -2 54 -55 c34 -34 70 -60 93 -67 20 -6 37 -17 37 -25 0
-8 11 -25 25 -38 23 -24 29 -25 152 -25 164 1 356 15 383 30 11 6 25 23 31 36
8 23 13 25 42 18 59 -13 72 -20 72 -45 0 -20 14 -31 80 -64 43 -22 81 -45 83
-52 5 -18 -38 -41 -115 -63 -180 -50 -283 -107 -283 -158 0 -35 45 -77 102
-95 67 -21 164 -22 283 -2 92 15 211 20 239 9 8 -3 12 -12 10 -19 -7 -16 18
-30 68 -39 53 -10 267 13 308 32 45 22 47 51 5 65 -16 5 -46 16 -65 25 -35 15
-35 15 -10 22 14 5 51 8 83 9 75 1 112 21 127 66 l12 35 64 0 c70 0 81 -9 70
-55 -4 -16 -19 -30 -41 -39 -44 -19 -45 -43 -2 -54 44 -11 40 -33 -8 -52 -91
-35 -110 -66 -50 -81 30 -9 226 14 271 31 33 13 40 36 19 60 -18 20 -17 20 18
20 33 0 36 -2 42 -39 3 -22 12 -46 18 -55 17 -21 161 -33 487 -41 283 -6 595
11 639 35 23 12 24 15 17 99 -4 47 -9 101 -12 118 l-6 33 478 0 c264 0 484 4
490 8 17 11 34 48 34 74 0 29 -35 82 -113 173 -33 39 -68 79 -78 90 -9 11 -19
32 -23 48 l-6 27 3437 2 c1891 2 3126 5 2744 8 l-694 5 -13 61 c-6 33 -29 93
-49 133 l-36 73 20 122 c11 66 29 189 40 271 11 83 25 182 30 220 15 100 14
198 -3 220 -13 18 -39 18 -102 0 -20 -6 -21 -4 -13 47 4 29 11 68 15 87 7 31
6 33 -16 26 -20 -6 -22 -5 -16 11 4 11 9 27 11 37 2 10 11 32 20 49 8 17 15
36 15 43 0 7 9 20 20 30 11 10 20 25 20 34 0 8 11 27 25 41 27 29 25 60 -4 60
-9 -1 -50 -27 -91 -60 -41 -32 -77 -57 -81 -54 -9 5 14 123 29 152 7 12 10 22
7 22 -4 0 3 13 14 29 25 34 27 61 6 61 -19 0 -123 -80 -155 -119 -30 -37 -56
-42 -45 -8 8 24 20 98 30 187 8 60 28 128 47 159 9 15 9 23 -1 35 -17 21 -41
8 -104 -55 -26 -27 -53 -52 -60 -56 -6 -4 -31 -34 -55 -65 -74 -96 -156 -178
-170 -169 -16 10 -18 95 -3 134 6 16 11 43 11 60 0 18 4 38 9 45 10 17 -10 82
-26 82 -16 0 -77 -62 -108 -110 -13 -19 -44 -57 -69 -85 -25 -27 -46 -53 -46
-57 0 -19 -19 -5 -30 23 -10 24 -11 38 -2 63 6 17 14 51 18 76 4 25 14 57 22
71 8 15 12 34 9 44 -9 22 -42 12 -87 -29 -95 -85 -90 -83 -105 -63 -11 15 -7
38 20 145 19 70 39 153 45 185 6 31 15 57 20 57 5 0 12 9 15 21 4 12 12 18 21
15 18 -7 42 29 50 75 3 18 11 50 19 69 25 66 34 115 33 170 -1 30 4 72 11 93
7 21 10 45 7 53 -3 8 6 38 19 67 14 28 28 69 32 89 3 21 21 61 39 90 19 29 33
60 32 68 -6 27 -64 21 -104 -11 -35 -28 -38 -28 -56 -13 -17 16 -19 16 -36 1
-26 -23 -31 -21 -43 13 -14 39 -37 38 -78 -4 -21 -22 -46 -36 -70 -40 -20 -3
-48 -8 -62 -11 -20 -3 -31 2 -48 25 -12 17 -28 30 -36 30 -8 0 -31 -18 -52
-41 -37 -40 -38 -40 -54 -20 -10 12 -26 21 -36 21 -10 0 -23 8 -30 19 -6 10
-23 21 -38 25 -21 5 -34 -1 -68 -29 l-42 -36 -18 26 c-24 33 -35 32 -76 -10
-38 -39 -43 -41 -61 -20 -15 19 -44 19 -59 2 -9 -11 -19 -7 -51 24 -22 21 -40
45 -40 52 0 8 -6 20 -14 26 -11 9 -19 5 -40 -21 l-27 -33 -22 28 c-30 36 -50
34 -70 -8 -9 -19 -23 -35 -31 -35 -9 0 -19 -16 -26 -38 -9 -35 -13 -39 -42
-39 -20 0 -38 7 -45 17 -10 15 -95 50 -119 50 -3 0 -3 -21 1 -47 4 -27 9 -77
10 -113 2 -36 9 -87 15 -115 6 -27 13 -79 15 -115 13 -222 13 -250 5 -255 -6
-4 -10 -2 -10 4 0 28 -61 488 -70 524 -5 23 -17 102 -25 176 -16 142 -26 170
-95 280 -22 35 -49 89 -60 119 -23 60 -45 238 -56 454 l-7 134 39 16 c22 9 62
22 89 28 28 6 66 21 85 33 19 12 62 25 95 29 153 18 234 42 315 95 23 14 59
25 100 30 53 5 70 12 100 39 39 35 129 74 172 74 15 0 45 6 65 14 21 8 69 20
106 26 69 13 115 38 104 57 -4 6 -33 19 -65 28 -31 9 -70 21 -87 27 -33 13
-70 13 -245 4 -133 -8 -252 -10 -365 -8 -261 6 -371 3 -433 -14 -54 -15 -74
-16 -140 -6 -83 13 -96 11 -197 -32 -33 -14 -76 -26 -95 -26 -19 -1 -60 -14
-90 -30 -30 -17 -70 -30 -88 -30 -36 0 -102 -24 -102 -37 0 -5 -18 -33 -40
-62 -22 -29 -42 -63 -44 -75 -3 -11 -16 -79 -30 -151 -49 -244 -86 -467 -86
-511 0 -38 3 -44 25 -50 24 -6 25 -9 25 -84 0 -111 -7 -135 -56 -188 -38 -41
-43 -44 -44 -24 0 15 -6 22 -19 22 -11 0 -23 5 -27 11 -3 6 -15 9 -25 6 -10
-3 -22 -1 -25 5 -4 6 -24 7 -50 3 -30 -4 -44 -3 -44 5 0 8 -16 11 -47 8 l-48
-3 -5 250 c-3 138 -8 255 -12 260 -7 12 -33 341 -48 630 -12 209 -22 280 -52
370 -22 62 -158 286 -236 386 -41 54 -45 57 -99 63 -32 4 -149 36 -263 72
-197 62 -209 65 -323 68 -71 2 -123 8 -130 15 -13 13 -18 13 -82 -5z m-3583
-181 c29 -33 41 -67 39 -110 -1 -35 2 -43 17 -43 25 0 42 -19 42 -48 0 -19 4
-22 21 -17 15 5 22 2 26 -14 4 -18 11 -20 47 -15 56 8 90 -18 90 -69 0 -31 3
-36 26 -39 20 -2 27 -11 34 -40 5 -21 15 -38 23 -38 13 0 17 -11 14 -42 -1
-11 10 -22 31 -31 49 -21 87 -65 99 -113 9 -36 16 -44 41 -49 17 -4 33 -15 35
-25 3 -13 19 -20 51 -25 67 -10 110 -33 138 -74 27 -41 32 -97 9 -127 -20 -27
-18 -61 5 -84 25 -25 25 -52 0 -75 -13 -12 -17 -23 -11 -34 9 -17 6 -32 -11
-67 -8 -18 -6 -26 11 -43 18 -18 19 -24 9 -46 -9 -19 -9 -28 0 -37 18 -18 15
-43 -8 -63 -12 -11 -18 -26 -15 -39 8 -34 -29 -83 -71 -95 -24 -7 -43 -7 -55
-1 -14 8 -24 4 -43 -15 -23 -23 -42 -30 -73 -26 -6 1 -13 -9 -15 -21 -5 -34
-61 -59 -100 -46 -16 6 -32 17 -35 24 -4 11 -15 13 -40 8 -27 -5 -41 -2 -63
14 -24 18 -30 19 -40 7 -16 -19 -54 -19 -70 0 -7 8 -18 32 -25 52 -9 26 -20
39 -35 41 -11 2 -25 14 -30 28 -7 19 -17 24 -43 24 -44 0 -62 15 -86 72 l-20
46 -37 -13 c-41 -14 -74 -7 -106 22 -15 13 -20 12 -47 -8 -27 -20 -33 -21 -61
-9 -28 12 -32 10 -56 -14 -19 -18 -37 -26 -61 -26 -27 0 -34 -4 -32 -17 5 -50
-3 -77 -29 -101 -24 -23 -28 -33 -24 -64 3 -31 -1 -42 -26 -68 -17 -16 -37
-30 -44 -30 -10 0 -13 -16 -13 -58 0 -82 -35 -134 -106 -159 -38 -13 -54 -26
-65 -48 -7 -16 -18 -37 -23 -45 -5 -8 -12 -26 -15 -40 -9 -39 -23 -54 -52 -55
-22 -1 -27 -7 -29 -31 -3 -42 -31 -91 -55 -99 -24 -7 -24 -13 -5 -39 19 -25
19 -69 0 -106 -9 -18 -11 -31 -5 -35 13 -8 13 -51 0 -76 -12 -22 -52 -27 -44
-5 3 8 1 17 -5 21 -6 3 -11 21 -11 40 0 19 -6 38 -13 42 -21 13 -36 57 -26 76
12 21 -4 53 -30 62 -10 3 -22 17 -25 30 -3 13 -15 26 -26 30 -10 3 -22 15 -25
26 -4 10 -11 19 -16 19 -5 0 -7 11 -3 24 6 27 -25 56 -62 56 -13 0 -24 8 -27
20 -4 15 -14 20 -41 20 -20 0 -36 4 -36 10 0 5 -12 12 -27 16 -48 10 -81 25
-87 40 -4 10 -25 13 -78 13 -75 -1 -118 7 -118 22 0 4 -16 16 -36 25 -28 13
-40 14 -60 5 -18 -8 -29 -8 -44 1 -16 10 -24 9 -50 -11 -18 -12 -34 -20 -37
-17 -3 3 -18 -3 -32 -13 -19 -13 -41 -17 -83 -15 -49 3 -59 0 -68 -16 -9 -17
-14 -18 -30 -7 -16 9 -24 9 -40 -1 -21 -13 -26 -6 -11 17 7 10 2 23 -14 43
-24 28 -45 85 -45 122 0 11 10 39 21 64 16 32 19 46 10 55 -14 14 -14 92 -1
117 14 26 49 44 81 42 26 -2 26 -1 31 77 4 62 10 88 32 125 33 56 97 100 170
117 52 11 158 9 187 -5 12 -5 18 -1 22 14 3 12 15 24 27 27 19 5 21 11 15 39
-5 28 -1 39 18 58 15 15 32 23 43 20 13 -3 24 4 36 26 13 23 24 30 48 30 39 0
82 -22 109 -56 17 -22 22 -24 27 -10 3 9 12 16 20 16 9 0 14 11 14 28 0 68 34
102 100 102 20 0 30 5 30 15 0 9 7 18 15 21 10 4 15 20 15 45 0 40 24 65 53
53 12 -4 13 2 6 38 -20 102 -6 241 26 268 17 14 51 17 83 6 18 -6 22 -4 22 13
0 14 6 21 20 21 16 0 20 7 20 30 0 60 41 110 90 110 13 0 24 9 30 26 9 22 15
25 40 22 18 -3 35 1 41 9 25 30 74 10 105 -43 10 -18 13 -17 48 14 40 35 75
40 116 17 34 -19 37 -19 44 11 6 23 11 26 36 21 23 -5 30 -2 35 12 8 27 28 32
60 15 15 -8 29 -14 30 -14 2 0 13 16 25 35 12 19 33 38 46 41 14 4 29 15 35
26 8 15 17 18 35 14 17 -5 26 -2 30 9 8 21 57 19 76 -2z m4147 -57 c-3 -3 -18
12 -33 32 l-29 37 34 -32 c18 -18 31 -35 28 -37z m-632 -8 c-2 -13 -4 -5 -4
17 -1 22 1 32 4 23 2 -10 2 -28 0 -40z m-508 -33 c-33 -66 -46 -83 -30 -43 16
43 52 110 56 106 2 -2 -9 -30 -26 -63z m827 24 c24 -47 45 -111 34 -104 -6 3
-10 12 -10 19 0 7 -11 35 -25 62 -27 53 -27 54 -20 54 2 0 12 -14 21 -31z
m-1219 -98 c-12 -27 -23 -45 -25 -41 -3 9 35 90 43 90 2 0 -6 -22 -18 -49z
m1837 -58 c14 -29 24 -53 21 -53 -5 0 -55 95 -55 106 0 12 6 2 34 -53z m-1265
0 c-15 -56 -20 -63 -13 -18 6 39 11 55 19 55 2 0 -1 -17 -6 -37z m927 -35 c35
-69 94 -228 85 -228 -4 0 -15 26 -25 58 -10 31 -34 91 -54 132 -20 41 -38 78
-40 83 -2 4 -1 7 2 7 3 0 18 -24 32 -52z m-467 -218 c0 -37 -17 31 -22 90 l-6
65 14 -70 c8 -38 14 -77 14 -85z m-970 60 c-11 -41 -17 -57 -14 -35 6 46 25
119 30 113 2 -1 -5 -37 -16 -78z m1668 -42 c-3 -8 -6 -5 -6 6 -1 11 2 17 5 13
3 -3 4 -12 1 -19z m-1466 -79 c-5 -30 -9 -42 -10 -28 -1 30 10 92 15 86 3 -2
0 -28 -5 -58z m1476 39 c-3 -8 -6 -5 -6 6 -1 11 2 17 5 13 3 -3 4 -12 1 -19z
m261 -19 c-3 -20 -5 -19 -9 9 -3 20 -2 29 4 23 5 -5 7 -19 5 -32z m-1961 -26
c-3 -10 -5 -2 -5 17 0 19 2 27 5 18 2 -10 2 -26 0 -35z m780 -30 c-2 -16 -4
-5 -4 22 0 28 2 40 4 28 2 -13 2 -35 0 -50z m1196 -28 c4 -32 3 -43 -3 -30 -8
19 -14 93 -6 84 2 -2 6 -26 9 -54z m-2186 -77 c-3 -7 -5 -2 -5 12 0 14 2 19 5
13 2 -7 2 -19 0 -25z m780 -155 c-2 -37 -3 -9 -3 62 0 72 1 102 3 68 2 -34 2
-93 0 -130z m1210 165 c-3 -8 -6 -5 -6 6 -1 11 2 17 5 13 3 -3 4 -12 1 -19z
m10 -55 c-3 -10 -5 -4 -5 12 0 17 2 24 5 18 2 -7 2 -21 0 -30z m-2010 -35 c-2
-13 -4 -3 -4 22 0 25 2 35 4 23 2 -13 2 -33 0 -45z m1540 40 c-3 -8 -6 -5 -6
6 -1 11 2 17 5 13 3 -3 4 -12 1 -19z m10 -55 c-3 -10 -5 -4 -5 12 0 17 2 24 5
18 2 -7 2 -21 0 -30z m481 -93 c-1 -29 -2 -26 -8 15 -11 69 -10 126 1 65 4
-25 7 -61 7 -80z m-2041 43 c-3 -10 -5 -4 -5 12 0 17 2 24 5 18 2 -7 2 -21 0
-30z m1576 -38 c3 -37 2 -51 -3 -35 -8 25 -13 107 -6 99 2 -2 6 -31 9 -64z
m-1052 -15 c-5 -25 -9 -35 -10 -24 -1 28 11 92 16 79 1 -6 -1 -30 -6 -55z
m796 -7 c-3 -10 -5 -2 -5 17 0 19 2 27 5 18 2 -10 2 -26 0 -35z m-1180 -15
c-3 -7 -5 -2 -5 12 0 14 2 19 5 13 2 -7 2 -19 0 -25z m950 -85 c-2 -16 -4 -3
-4 27 0 30 2 43 4 28 2 -16 2 -40 0 -55z m960 15 c-2 -13 -4 -3 -4 22 0 25 2
35 4 23 2 -13 2 -33 0 -45z m-1762 -93 l-14 -140 5 110 c5 107 13 179 20 173
1 -2 -3 -66 -11 -143z m-158 83 c-2 -13 -4 -5 -4 17 -1 22 1 32 4 23 2 -10 2
-28 0 -40z m-1016 3 c36 -12 84 -34 107 -51 55 -39 118 -41 187 -5 26 14 78
33 114 42 82 20 287 23 316 5 17 -11 14 -12 -25 -6 -93 15 -232 7 -300 -16
-100 -34 -103 -38 -98 -150 3 -52 8 -103 13 -112 5 -13 3 -18 -9 -18 -9 0 -16
3 -17 8 -9 113 -18 175 -26 183 -11 11 -118 18 -127 8 -4 -3 -16 -39 -27 -78
-22 -80 -59 -160 -83 -180 -9 -7 -14 -17 -11 -21 3 -5 0 -12 -6 -16 -8 -5 -9
-3 -4 6 4 7 4 11 -1 8 -82 -39 -93 -42 -174 -43 -73 0 -93 4 -141 27 -67 33
-131 114 -155 194 -9 31 -24 58 -35 64 -21 12 -27 60 -7 60 6 0 42 18 78 40
131 79 281 97 431 51z m3879 -21 c11 -6 28 -6 42 -1 17 7 28 4 45 -11 21 -20
21 -20 98 1 71 20 79 20 95 6 10 -9 25 -15 34 -13 10 2 24 -9 34 -27 23 -41
30 -45 80 -45 31 0 42 -4 42 -15 0 -9 11 -20 25 -25 14 -5 25 -16 25 -24 0 -9
12 -16 28 -18 l27 -3 12 -180 c21 -329 34 -385 131 -543 55 -90 66 -128 81
-287 6 -55 17 -132 25 -170 7 -39 26 -173 42 -299 l28 -228 -28 -114 c-26
-107 -33 -122 -101 -222 -81 -119 -136 -178 -158 -169 -20 8 -56 120 -64 199
-4 44 0 96 12 160 30 160 8 167 -101 36 -84 -103 -102 -117 -115 -97 -9 15 -4
124 11 244 25 190 22 235 -14 222 -8 -3 -27 -28 -40 -56 -44 -86 -53 -81 -62
43 -4 47 -12 94 -19 103 -10 13 -40 18 -153 25 -158 9 -192 18 -192 48 0 26
14 32 190 76 135 34 220 62 143 48 -29 -6 -33 -3 -39 22 -6 22 -2 31 16 46 12
10 34 18 49 18 14 0 33 5 41 10 11 6 2 9 -30 7 -41 -2 -45 0 -48 24 -6 55 70
79 258 79 113 0 120 -1 134 -23 29 -43 56 -194 81 -452 24 -251 41 -385 51
-394 7 -7 5 21 -6 80 -5 30 -21 173 -35 317 -31 323 -57 446 -99 474 -17 12
-249 9 -307 -3 -67 -15 -93 -40 -86 -85 5 -27 2 -36 -15 -45 -17 -9 -19 -18
-15 -48 l5 -37 -131 -34 c-146 -38 -187 -62 -168 -97 14 -27 40 -32 201 -42
72 -5 136 -13 142 -19 6 -6 14 -49 19 -97 11 -130 37 -144 88 -49 14 27 31 48
36 46 11 -3 9 -68 -6 -197 -9 -68 -16 -93 -30 -103 -10 -7 -51 -51 -89 -98
-81 -95 -65 -91 -247 -78 l-90 7 4 56 c7 90 7 105 2 120 -3 11 15 17 76 26
151 23 235 57 235 95 0 36 -39 49 -185 61 -198 16 -183 9 -190 77 -16 155 -34
177 -81 95 -35 -60 -39 -63 -94 -63 -25 0 -62 -5 -84 -9 l-39 -9 7 46 c4 26
16 114 27 195 11 82 24 171 30 197 12 58 72 154 141 227 61 66 74 97 82 203 7
91 3 103 -31 114 -31 10 -30 32 7 241 64 352 82 431 97 422 5 -3 22 1 38 8 38
17 51 18 75 5z m-3144 -12 c3 -3 2 -39 -2 -79 -6 -64 -8 -70 -20 -53 -7 10
-18 25 -24 32 -7 7 -9 27 -5 45 l5 32 -13 -29 c-7 -16 -21 -30 -30 -32 -15 -2
-17 4 -13 34 l5 37 -10 -37 c-6 -21 -16 -38 -21 -38 -6 0 -8 15 -4 38 5 33 4
34 -5 12 -6 -14 -14 -32 -19 -40 -4 -9 -28 -18 -58 -21 -96 -12 -153 -71 -106
-110 27 -22 231 -20 267 4 15 9 27 23 27 30 0 9 -2 9 -8 0 -12 -19 -78 -43
-117 -43 -28 0 -35 4 -35 19 0 26 -31 36 -47 15 -7 -9 -14 -21 -15 -25 -2 -5
-20 -4 -40 2 -26 7 -38 16 -38 28 0 45 73 71 198 71 l83 0 15 -36 c12 -28 13
-53 7 -117 -9 -95 -1 -92 -130 -55 -53 14 -83 28 -83 37 0 11 -3 11 -15 1 -10
-8 -28 -10 -53 -5 -20 4 -50 6 -65 6 -38 -2 -57 45 -57 142 0 88 9 99 97 128
48 16 80 19 190 16 73 -2 135 -6 139 -9z m2391 -75 c-3 -10 -5 -2 -5 17 0 19
2 27 5 18 2 -10 2 -26 0 -35z m-1267 -19 c52 -49 65 -84 31 -84 -23 0 -134
107 -126 121 13 20 49 7 95 -37z m797 9 c-3 -10 -5 -4 -5 12 0 17 2 24 5 18 2
-7 2 -21 0 -30z m-893 -8 c89 -60 147 -165 92 -165 -9 0 -45 27 -82 60 -36 33
-77 63 -90 66 -28 7 -30 20 -7 46 22 24 43 23 87 -7z m563 -17 c58 -34 97 -79
141 -163 24 -44 27 -61 27 -150 0 -55 8 -147 18 -205 10 -58 25 -146 33 -197
l14 -92 -25 -25 c-17 -17 -49 -31 -91 -41 -84 -19 -124 -40 -124 -65 0 -14
-11 -22 -42 -30 -64 -16 -88 -28 -88 -44 0 -8 -21 -22 -47 -32 -64 -23 -76
-33 -62 -50 8 -9 5 -15 -10 -23 -11 -6 -22 -11 -25 -11 -3 0 -6 80 -7 178 0
97 -5 218 -10 267 -16 153 -23 395 -11 395 6 0 29 -29 51 -65 23 -35 53 -72
67 -81 24 -16 26 -16 47 5 18 18 22 32 21 84 -1 102 -31 139 -131 166 -24 7
-43 15 -43 19 1 38 79 56 154 37 28 -7 53 -12 54 -10 8 7 -103 35 -139 35 -59
0 -64 37 -8 60 30 13 126 9 163 -6 13 -5 17 -4 12 4 -3 6 -28 14 -54 18 -69
10 -85 20 -71 46 17 32 112 20 186 -24z m-2066 -18 c4 -19 9 -61 12 -92 5 -49
3 -57 -11 -56 -20 1 -164 -47 -204 -68 l-28 -14 30 46 c29 46 47 94 70 182
l11 43 57 -3 c56 -3 56 -3 63 -38z m1224 8 c10 -23 13 -24 60 -27 32 -1 31 -9
-3 -68 -15 -26 -36 -68 -47 -93 -10 -25 -22 -49 -27 -54 -4 -6 -8 52 -8 127 0
75 3 137 8 137 4 0 12 -10 17 -22z m1652 -75 c-2 -21 -4 -6 -4 32 0 39 2 55 4
38 2 -18 2 -50 0 -70z m-3652 71 c15 -10 29 -33 36 -57 14 -53 66 -134 112
-174 65 -57 210 -81 300 -49 44 16 48 12 10 -8 -47 -24 -122 -103 -172 -181
l-47 -74 -22 68 c-27 83 -94 174 -192 262 l-70 63 0 76 c0 68 4 90 17 90 2 0
15 -7 28 -16z m3182 -31 c-3 -10 -5 -2 -5 17 0 19 2 27 5 18 2 -10 2 -26 0
-35z m-1830 -20 c-3 -10 -5 -4 -5 12 0 17 2 24 5 18 2 -7 2 -21 0 -30z m488
-160 c2 -151 1 -168 -5 -88 -10 126 -12 290 -4 282 3 -3 7 -90 9 -194z m399
165 c26 -17 59 -48 73 -69 27 -42 25 -76 -4 -65 -9 4 -35 9 -58 12 -74 10 -91
-28 -75 -167 12 -104 35 -138 82 -123 21 6 51 60 67 122 22 78 45 47 62 -85
l12 -90 -33 -67 -32 -68 11 -351 c7 -194 13 -363 14 -375 l2 -24 -294 2 c-162
0 -298 3 -303 6 -4 3 -8 58 -9 122 -1 64 -4 155 -8 202 l-6 85 72 215 c103
310 213 594 262 678 40 69 43 72 80 72 25 0 53 -10 85 -32z m780 -20 c3 -24 7
-72 10 -108 l6 -65 -23 55 c-13 30 -35 74 -50 97 -25 39 -36 65 -21 51 3 -3
17 -2 32 2 15 5 30 9 34 9 4 1 9 -18 12 -41z m-3154 -39 c130 -84 310 -261
310 -305 0 -14 -86 -58 -175 -90 -22 -8 -87 -16 -145 -18 -85 -3 -129 -11
-228 -41 -181 -53 -348 -85 -453 -85 -49 0 -89 3 -89 8 0 4 13 48 28 97 26 85
30 90 57 93 17 2 36 8 43 14 9 8 17 6 30 -4 23 -21 54 -29 71 -19 9 6 26 0 49
-16 44 -29 76 -25 113 16 15 16 38 32 50 36 13 4 34 16 46 27 16 15 29 18 52
13 44 -10 100 20 118 63 8 19 12 41 8 50 -3 8 3 23 15 34 21 20 27 62 10 73
-6 3 -5 15 2 30 10 21 8 29 -10 48 -20 21 -21 37 -3 37 4 0 49 -27 101 -61z
m3343 -108 c3 -35 2 -59 -3 -55 -4 5 -10 56 -13 114 -5 109 6 68 16 -59z
m-1866 57 c-2 -18 -4 -6 -4 27 0 33 2 48 4 33 2 -15 2 -42 0 -60z m330 20 c-2
-13 -4 -5 -4 17 -1 22 1 32 4 23 2 -10 2 -28 0 -40z m893 41 c0 -4 -7 -12 -15
-19 -28 -23 -18 -47 27 -62 l43 -15 -73 -18 c-91 -22 -106 -35 -98 -89 19
-128 27 -209 24 -252 -3 -46 -5 -50 -38 -61 -32 -11 -33 -12 -8 -12 45 -1 58
22 58 102 0 40 -7 110 -15 157 -8 46 -12 93 -9 102 3 11 26 24 62 34 31 8 70
19 85 24 46 15 78 -9 40 -28 -10 -5 -40 -15 -68 -22 -27 -7 -56 -20 -62 -28
-17 -21 -16 -100 3 -252 8 -69 17 -237 20 -374 3 -137 7 -253 9 -256 3 -4 -19
-25 -47 -46 -55 -41 -62 -57 -28 -62 11 -2 20 -8 20 -13 0 -5 13 -9 30 -9 22
0 28 -4 24 -15 -3 -8 4 -28 15 -44 25 -34 26 -76 7 -163 -9 -38 -16 -159 -20
-309 l-7 -246 26 -17 c15 -10 29 -16 31 -13 2 2 -7 10 -21 17 -24 13 -25 18
-25 94 0 45 3 97 6 117 6 36 6 37 26 17 25 -25 60 -20 75 12 6 14 17 83 25
155 15 153 2 140 180 179 116 26 522 96 556 96 23 0 49 -57 33 -73 -14 -14
-14 -54 -1 -62 6 -4 2 -21 -10 -45 -20 -38 -28 -120 -12 -120 4 0 14 6 21 13
10 10 11 6 5 -18 -4 -16 -8 -32 -10 -34 -2 -2 2 -11 10 -20 12 -13 12 -24 4
-57 -14 -51 -5 -78 21 -69 19 6 19 4 4 -59 -13 -58 -13 -69 0 -96 11 -21 13
-39 7 -60 -8 -29 8 -58 25 -42 4 4 4 -4 0 -18 -12 -41 -11 -45 13 -44 19 1 22
-3 17 -20 -11 -41 -18 -158 -9 -164 24 -18 30 -54 28 -160 -1 -62 -5 -125 -9
-141 -5 -23 -1 -32 15 -44 20 -14 21 -18 10 -78 -10 -54 -9 -65 4 -74 13 -10
13 -17 1 -60 -10 -33 -12 -52 -5 -60 7 -8 5 -24 -5 -49 -8 -20 -13 -46 -10
-59 8 -34 -8 -49 -54 -49 -40 1 -41 0 -82 -71 -22 -40 -44 -78 -47 -85 -4 -7
-22 -23 -41 -35 l-34 -21 7 34 c6 33 17 52 86 147 41 56 49 111 57 363 5 176
3 210 -10 243 -25 59 -54 49 -94 -33 l-32 -65 0 58 c-1 62 -18 114 -45 136
-26 22 -53 -10 -77 -92 -11 -38 -22 -67 -25 -65 -2 3 -8 29 -14 58 -10 55 -33
90 -56 90 -23 0 -40 -41 -58 -132 -26 -141 -50 -195 -104 -231 -25 -18 -78
-55 -118 -83 l-72 -52 -25 27 c-55 59 -56 65 -59 253 -3 168 -2 177 18 200 34
37 56 88 50 114 -4 13 -19 36 -36 51 -26 25 -31 40 -44 132 -11 71 -21 110
-33 120 -15 14 -16 14 -5 0 6 -8 19 -64 28 -123 15 -99 20 -111 50 -142 41
-40 42 -60 9 -105 -58 -79 -60 -95 -48 -318 l6 -122 39 -44 39 -45 -31 -63
c-17 -34 -33 -80 -35 -102 -5 -35 -4 -34 10 12 31 112 65 150 215 245 30 20
67 48 82 64 30 33 60 121 83 238 8 44 20 83 26 87 20 12 37 -1 48 -34 17 -54
33 -232 30 -321 -2 -46 0 -82 4 -79 5 3 7 66 7 141 -2 139 3 167 55 295 14 33
42 20 61 -29 16 -42 16 -60 6 -202 -7 -87 -11 -175 -11 -197 2 -37 2 -35 9 15
5 30 8 87 9 126 1 63 6 81 44 155 23 46 47 85 54 87 31 9 38 -41 36 -243 -2
-240 -12 -324 -47 -374 -14 -20 -39 -56 -55 -80 -17 -24 -36 -61 -41 -82 -6
-23 -18 -40 -30 -44 -11 -4 -20 -15 -20 -26 0 -16 -5 -18 -25 -13 -16 4 -35 0
-51 -11 -23 -15 -25 -22 -20 -55 8 -49 -11 -152 -31 -167 -13 -10 -17 -40 -22
-137 -3 -68 -8 -126 -11 -128 -3 -2 -14 -8 -25 -14 -17 -10 -20 -20 -17 -78
l3 -67 -255 2 c-141 0 -259 5 -262 10 -3 5 -13 5 -23 0 -10 -6 -92 -9 -182 -8
l-164 2 -3 88 -3 87 116 0 c139 0 177 12 194 61 20 56 31 260 29 534 -1 143
-3 235 -5 204 l-4 -57 -666 3 c-504 2 -667 6 -673 15 -4 7 -10 40 -14 75 -3
34 -13 85 -22 114 -25 84 -58 92 -363 91 -212 0 -274 -9 -289 -38 -5 -9 -17
-70 -27 -134 l-17 -118 -673 0 c-370 1 -677 0 -682 -1 -36 -6 -35 -17 -29 564
3 309 8 614 11 677 2 63 7 182 10 264 4 91 11 161 20 182 20 48 62 65 182 75
118 9 2356 4 2829 -7 170 -3 317 -11 326 -15 25 -13 39 -45 48 -103 l8 -51 1
43 c2 62 -41 132 -80 132 -24 0 -27 24 -39 408 l-12 342 32 67 c30 62 32 72
26 137 -9 93 -24 147 -47 169 -23 22 -23 21 -3 55 l16 27 -20 -22 c-11 -13
-23 -23 -26 -23 -4 0 -1 10 5 23 11 20 11 21 -4 8 -14 -11 -17 -11 -17 0 -1 9
-8 6 -19 -8 -14 -17 -30 -23 -60 -23 -36 0 -41 3 -41 24 0 41 23 51 84 36 58
-14 76 -9 76 20 0 13 8 20 28 22 19 2 28 9 30 25 2 12 10 23 19 25 30 6 143 3
143 -3z m-3791 -80 c22 -11 48 -18 58 -16 10 3 28 8 40 12 18 5 23 0 32 -28
15 -46 53 -79 92 -82 22 -1 35 -9 40 -22 4 -11 19 -23 33 -27 16 -4 26 -13 26
-25 0 -10 10 -30 21 -45 20 -26 21 -29 6 -69 -9 -23 -35 -109 -58 -192 -23
-82 -50 -169 -60 -192 l-18 -42 -67 6 -67 6 -46 -52 c-45 -51 -47 -51 -78 -39
-44 17 -62 1 -44 -38 14 -33 8 -41 -102 -129 -76 -60 -94 -69 -222 -104 -33
-9 -51 -23 -94 -81 -37 -48 -60 -70 -75 -70 -49 1 -101 20 -119 44 -10 15 -27
26 -38 26 -28 0 -32 20 -14 63 11 27 13 43 5 57 -7 13 -7 33 2 65 9 35 10 52
0 77 -10 28 -9 34 18 64 16 19 32 49 36 69 4 25 12 35 24 35 26 0 60 47 60 81
0 16 5 29 11 29 5 0 16 15 24 34 11 25 23 36 45 41 71 16 134 105 128 181 -3
39 0 45 23 54 32 14 59 59 59 100 0 20 10 44 25 62 14 16 28 47 31 69 4 21 10
36 15 33 10 -6 61 19 78 39 9 12 18 13 39 5 22 -9 35 -7 58 4 16 9 30 16 31
17 1 1 20 -8 42 -20z m2041 -6 c0 25 80 25 81 0 0 -11 3 -13 6 -5 8 19 80 15
92 -5 6 -10 11 -12 11 -5 0 6 9 12 20 12 14 0 20 -7 20 -22 0 -20 1 -20 13 -5
10 14 17 15 50 5 20 -6 37 -15 37 -20 0 -5 4 -7 9 -4 15 10 41 -5 41 -23 0
-12 2 -13 9 -3 6 11 15 10 44 -4 21 -10 37 -24 37 -31 0 -8 4 -12 8 -9 5 3 19
-2 31 -10 16 -11 20 -22 15 -37 -5 -18 -4 -20 7 -10 10 11 18 8 41 -14 23 -22
25 -29 15 -41 -10 -13 -9 -14 3 -10 20 7 50 -20 43 -38 -3 -9 0 -14 6 -12 7 2
22 -15 34 -37 12 -22 25 -42 28 -45 3 -3 14 -20 23 -38 14 -28 15 -36 4 -50
-11 -13 -11 -15 4 -9 12 4 21 0 28 -13 6 -11 7 -20 3 -20 -4 0 -3 -4 3 -8 6
-4 28 -39 48 -79 25 -51 40 -71 50 -67 33 13 66 -207 66 -443 l0 -113 -340 0
c-313 0 -340 1 -349 18 -10 20 -31 253 -31 352 0 92 14 107 110 125 41 8 140
21 219 29 79 9 146 18 150 22 7 7 -77 0 -254 -22 -170 -21 -181 -23 -211 -51
l-27 -25 7 -156 c3 -87 9 -185 12 -219 l7 -63 -390 0 c-214 0 -445 -3 -513 -7
l-123 -6 6 89 c8 105 35 323 43 336 3 4 13 4 24 -2 25 -13 34 1 54 90 32 136
79 271 94 265 10 -3 11 1 7 16 -8 25 53 132 72 125 7 -3 10 1 6 10 -5 13 5 32
42 79 14 17 17 18 26 5 9 -13 10 -13 6 1 -3 10 6 27 22 43 31 30 41 32 41 11
0 -8 5 -15 10 -15 7 0 7 6 1 19 -9 15 -6 22 14 35 14 9 25 13 25 9 0 -5 4 -3
8 3 4 6 35 25 69 43 57 28 63 29 72 13 9 -15 10 -15 11 4 0 17 10 24 46 34 36
10 47 11 54 1 5 -9 9 -8 14 6 7 17 8 17 22 -1 12 -17 14 -18 14 -3z m677 -20
c-3 -10 -5 -4 -5 12 0 17 2 24 5 18 2 -7 2 -21 0 -30z m1956 -98 c4 -60 3 -69
-3 -35 -9 46 -13 127 -6 119 2 -2 6 -40 9 -84z m-1143 65 c0 -5 -5 -10 -11
-10 -5 0 -7 5 -4 10 3 6 8 10 11 10 2 0 4 -4 4 -10z m-823 -77 c-2 -16 -4 -3
-4 27 0 30 2 43 4 28 2 -16 2 -40 0 -55z m1217 55 c11 -43 7 -86 -10 -92 -24
-9 -34 -7 -34 7 0 7 -6 22 -14 32 -14 19 -15 19 -34 2 -20 -18 -21 -18 -32 3
-15 27 -11 31 53 52 68 21 64 21 71 -4z m-375 -7 c12 -8 12 -15 -3 -45 -22
-46 -59 -57 -84 -26 -17 21 -19 21 -35 5 -16 -15 -17 -14 -17 29 l0 46 63 0
c34 0 68 -4 76 -9z m702 -83 c-9 -31 -9 -31 -10 -6 -1 30 11 67 16 51 2 -6 0
-26 -6 -45z m-721 -18 c0 -21 -31 -70 -50 -80 -15 -8 -24 -6 -40 10 -30 30
-26 60 8 61 15 0 36 4 47 9 28 12 35 12 35 0z m400 -9 c0 -11 -7 -27 -15 -35
-13 -13 -20 -13 -35 -3 -25 15 -33 34 -18 43 7 4 8 3 4 -4 -5 -8 1 -12 17 -12
14 0 27 7 31 15 8 21 16 19 16 -4z m762 -108 c2 -40 0 -67 -4 -60 -4 7 -7 46
-7 87 1 88 7 75 11 -27z m-1795 -105 c-2 -29 -3 -6 -3 52 0 58 1 81 3 53 2
-29 2 -77 0 -105z m-1667 28 c0 -3 -4 -8 -10 -11 -5 -3 -10 -1 -10 4 0 6 5 11
10 11 6 0 10 -2 10 -4z m173 -10 c7 -17 -20 -30 -29 -14 -4 7 -3 8 4 4 7 -4
12 -1 12 8 0 20 6 20 13 2z m3480 -46 c3 -34 2 -47 -3 -35 -8 19 -14 103 -6
94 2 -2 6 -29 9 -59z m-441 0 c3 -16 1 -30 -4 -30 -4 0 -8 14 -8 30 0 17 2 30
4 30 2 0 6 -13 8 -30z m-3562 -3 c0 -7 -4 -6 -10 3 -8 12 -10 12 -10 -5 0 -16
-2 -17 -10 -5 -6 9 -5 17 3 22 14 8 27 1 27 -15z m167 -59 c-3 -8 -6 -5 -6 6
-1 11 2 17 5 13 3 -3 4 -12 1 -19z m20 0 c-3 -8 -6 -5 -6 6 -1 11 2 17 5 13 3
-3 4 -12 1 -19z m-677 -13 c0 -8 -4 -15 -10 -15 -5 0 -7 7 -4 15 4 8 8 15 10
15 2 0 4 -7 4 -15z m17 -27 c-3 -7 -5 -2 -5 12 0 14 2 19 5 13 2 -7 2 -19 0
-25z m989 0 c-4 -13 -20 -72 -36 -133 -15 -60 -33 -111 -39 -113 -15 -5 -14
11 1 26 9 9 9 12 -1 12 -8 0 -11 6 -7 17 6 15 4 15 -14 -2 -24 -22 -27 -44 -3
-24 14 12 16 12 11 -1 -2 -8 -13 -15 -22 -15 -10 0 -24 -9 -32 -19 -7 -11 -17
-17 -20 -13 -4 3 8 24 26 47 17 22 27 40 21 40 -6 0 -11 -3 -11 -7 0 -14 -69
-89 -70 -76 0 6 11 25 25 41 14 17 25 34 25 38 0 5 -17 -11 -38 -36 -34 -38
-45 -45 -83 -47 -76 -5 -165 -41 -199 -79 -35 -40 -37 -55 -11 -78 26 -24 76
-36 154 -37 50 -1 67 -5 67 -15 0 -8 5 -14 11 -14 5 0 8 4 4 9 -3 5 -1 12 5
16 5 3 11 -2 11 -12 1 -17 2 -17 6 0 2 9 7 17 10 17 3 0 12 -8 19 -17 12 -16
12 -16 7 5 -4 16 -1 22 11 22 14 0 15 -13 10 -107 -4 -60 -10 -112 -14 -116
-4 -4 -90 -5 -192 -1 l-186 7 -7 121 c-3 67 -7 156 -8 199 -2 76 -1 80 28 104
33 27 266 182 303 202 13 7 21 15 19 18 -8 8 -264 -157 -316 -203 -45 -41 -46
-43 -46 -100 0 -33 4 -122 8 -200 l8 -141 -213 -5 c-187 -4 -219 -8 -260 -26
-73 -32 -80 -55 -88 -262 l-6 -175 -22 47 c-22 45 -53 164 -107 402 -22 95
-31 119 -46 123 -10 3 -19 8 -20 12 0 3 -8 72 -17 154 -18 144 -17 148 2 178
19 31 19 31 86 24 76 -8 93 2 105 56 6 27 10 30 34 25 14 -4 87 -9 161 -12
159 -7 285 11 525 75 105 28 171 40 220 40 39 0 95 7 125 15 83 21 94 20 86
-6z m-672 -33 c3 -9 0 -15 -9 -15 -8 0 -15 7 -15 15 0 8 4 15 9 15 5 0 11 -7
15 -15z m3866 -60 c18 11 224 14 237 3 7 -6 25 -7 40 -3 44 12 253 13 253 2 0
-6 18 -7 45 -4 27 4 47 2 51 -4 3 -6 15 -9 25 -6 10 3 22 1 25 -4 3 -5 14 -9
24 -9 33 0 27 -34 -17 -96 -24 -34 -49 -77 -57 -95 -16 -39 -37 -164 -61 -359
-9 -74 -21 -142 -26 -150 -28 -46 -41 -91 -45 -169 -3 -47 -12 -118 -20 -158
-8 -40 -14 -74 -14 -76 0 -3 -30 -15 -66 -28 -37 -13 -69 -29 -71 -36 -6 -14
17 -54 52 -93 l23 -25 -33 -280 c-19 -154 -43 -354 -55 -445 -11 -91 -24 -198
-28 -239 -5 -54 -11 -75 -22 -77 -8 -1 -23 -5 -32 -9 -20 -8 -23 2 -8 25 5 9
5 17 -1 21 -6 3 -6 16 2 35 6 16 13 52 14 79 1 28 6 67 10 88 6 30 5 37 -8 37
-13 0 -14 7 -9 38 11 61 8 107 -5 104 -12 -2 -18 11 -13 33 6 34 6 276 -1 280
-4 3 -6 12 -2 20 3 10 -1 15 -12 15 -16 0 -17 7 -12 58 3 31 9 74 13 96 7 36
6 38 -15 31 -21 -6 -22 -5 -16 29 6 30 4 36 -9 36 -15 0 -16 7 -10 45 4 30 3
45 -5 45 -14 0 -14 60 -1 118 12 51 6 66 -21 52 -23 -13 -25 3 -7 62 9 32 9
41 -1 48 -10 5 -11 20 -6 50 7 40 6 43 -14 37 -17 -4 -21 -1 -21 21 0 15 9 47
20 71 15 32 17 47 9 57 -8 9 -7 23 2 49 11 31 11 38 -1 46 -13 8 -10 13 13 32
l27 23 -28 21 c-18 13 -41 20 -61 19 -18 -1 -34 1 -37 5 -2 4 -49 5 -104 3
-83 -3 -100 -1 -100 11 0 21 -33 19 -130 -9 -61 -18 -86 -22 -91 -14 -6 9 -25
8 -76 -2 -84 -16 -240 -22 -248 -9 -4 5 -17 9 -30 9 -23 0 -37 19 -39 55 -1
14 -8 20 -26 21 -30 1 -70 14 -70 23 0 3 23 21 50 40 53 36 56 41 39 58 -9 9
-3 17 22 32 22 13 34 29 34 42 0 17 12 26 53 42 35 13 52 25 52 37 0 13 17 22
65 35 50 13 65 21 65 36 0 27 34 45 123 64 44 10 77 22 77 29 0 23 62 42 115
35 28 -3 76 -1 110 6 51 11 62 11 72 -2 6 -8 17 -12 23 -8z m-4617 -192 c9 -3
24 0 32 7 9 7 17 11 19 9 8 -10 16 -149 8 -149 -5 0 -19 11 -32 25 -13 14 -30
23 -37 21 -23 -9 -44 5 -38 25 3 10 1 28 -5 39 -13 25 -4 44 19 35 9 -4 24
-10 34 -12z m1287 -21 c0 -19 -7 -30 -22 -37 -13 -6 -29 -28 -39 -55 l-17 -45
-98 0 c-139 0 -180 21 -158 79 8 20 65 55 117 72 23 7 81 13 130 13 l87 1 0
-28z m5553 -4 l27 -33 28 34 29 34 11 -31 c6 -18 18 -32 26 -32 8 0 23 -13 33
-30 20 -34 29 -37 54 -14 16 15 20 14 50 -3 24 -13 33 -15 36 -5 3 6 11 12 18
12 7 0 21 12 30 27 l18 26 27 -33 27 -33 41 41 c40 40 42 41 71 26 16 -8 32
-22 35 -30 4 -10 12 -14 22 -10 11 4 22 -1 31 -14 21 -30 37 -25 77 23 l37 42
29 -34 c26 -30 32 -33 67 -27 21 4 50 7 64 7 18 0 39 13 63 39 42 46 52 49 62
18 12 -43 24 -50 50 -33 19 12 27 13 43 3 17 -10 26 -8 60 20 26 21 41 28 44
19 4 -9 7 -9 18 1 7 6 17 12 21 12 16 0 7 -27 -23 -68 -17 -24 -35 -59 -41
-80 -5 -20 -10 -41 -11 -47 -2 -5 -9 -20 -15 -32 -7 -13 -10 -23 -6 -23 3 0
-1 -11 -10 -25 -10 -15 -14 -34 -10 -49 3 -14 -1 -37 -10 -55 -10 -18 -14 -41
-10 -55 3 -13 0 -34 -6 -46 -9 -18 -9 -24 0 -30 9 -5 8 -20 -6 -61 -9 -30 -21
-62 -25 -71 -5 -10 -9 -29 -9 -43 0 -34 -27 -85 -45 -85 -8 0 -19 -9 -25 -21
-20 -37 -19 -16 6 96 27 128 30 171 9 182 -12 7 -13 16 -4 47 13 48 -4 90 -33
83 -10 -3 -18 -1 -18 4 0 5 -8 13 -17 16 -10 4 -23 14 -30 22 -9 13 -14 13
-24 4 -9 -9 -18 -8 -37 7 -33 26 -47 25 -71 -6 l-21 -26 -10 26 c-12 33 -39
33 -70 1 -21 -23 -24 -23 -36 -7 -12 16 -15 15 -43 -12 -24 -23 -34 -27 -43
-18 -9 9 -15 9 -26 0 -11 -10 -18 -8 -34 12 -20 24 -20 24 -34 5 -14 -19 -15
-19 -38 10 -24 29 -24 30 -45 11 -17 -16 -23 -17 -37 -5 -12 10 -20 10 -35 1
-16 -10 -21 -10 -25 3 -10 26 -38 16 -68 -25 -17 -22 -33 -40 -37 -40 -4 0
-14 12 -24 26 -13 20 -23 25 -43 21 -21 -4 -35 2 -60 26 -29 29 -35 30 -54 18
-20 -12 -24 -11 -36 8 -20 29 -39 26 -57 -9 -10 -20 -20 -27 -31 -23 -10 4
-17 -1 -21 -15 -3 -13 -10 -19 -19 -15 -8 3 -14 0 -14 -6 0 -19 32 -12 37 8 3
13 11 17 24 14 15 -4 22 2 30 26 13 37 21 39 42 9 13 -20 18 -21 36 -11 26 16
42 9 70 -28 19 -25 25 -28 43 -18 18 10 25 7 51 -21 l31 -33 15 24 c9 13 26
35 39 49 21 24 22 24 37 6 12 -16 17 -17 30 -6 13 11 19 10 36 -6 20 -18 21
-18 38 5 l18 23 21 -28 c18 -25 23 -27 41 -17 17 11 22 10 35 -8 11 -16 18
-19 32 -11 9 5 26 7 36 4 14 -3 27 4 43 24 21 25 24 27 30 12 10 -25 24 -22
56 8 29 28 49 25 49 -7 0 -27 26 -24 46 6 20 30 35 32 60 4 12 -14 25 -18 41
-14 17 4 23 1 23 -11 0 -10 5 -14 15 -10 8 3 19 -2 23 -11 6 -9 16 -14 25 -10
21 8 30 -23 22 -73 -8 -48 -8 -55 4 -55 5 0 13 -3 17 -7 8 -9 -43 -279 -92
-483 -18 -77 -40 -173 -49 -214 -18 -86 -24 -98 -37 -80 -8 11 -9 10 -4 -4 5
-16 -26 -74 -59 -108 -8 -9 -15 -21 -15 -27 0 -16 -60 -52 -86 -52 -18 0 -20
5 -18 48 4 66 9 94 23 121 11 19 10 26 -3 39 -14 14 -21 10 -75 -47 -34 -35
-58 -67 -56 -71 9 -14 -69 -110 -87 -110 -10 0 -18 6 -19 13 0 10 -2 10 -6 0
-5 -15 -43 -18 -43 -4 0 5 -8 7 -18 4 -10 -2 -34 0 -53 5 -25 6 -33 13 -31 28
2 19 2 19 -13 0 -12 -16 -18 -17 -27 -8 -9 9 -6 18 16 41 55 58 14 89 -70 52
-26 -12 -52 -21 -58 -21 -6 0 -24 18 -40 40 -16 22 -32 38 -34 35 -2 -2 10
-22 27 -43 17 -22 31 -43 31 -46 0 -13 -23 -5 -46 17 -26 24 -30 56 -13 89 8
15 8 19 0 14 -7 -4 -11 1 -11 13 0 58 131 121 264 127 120 5 182 14 200 27 22
16 35 76 36 158 0 36 3 100 6 142 l7 77 78 0 c93 0 171 15 200 39 28 23 19 65
-17 84 l-26 14 26 20 c14 12 26 24 26 27 0 4 -16 -5 -35 -20 -45 -34 -57 -26
-15 10 41 34 27 34 -17 0 -19 -14 -37 -24 -39 -21 -3 3 7 14 22 26 15 11 22
21 16 21 -6 0 -14 -4 -17 -10 -10 -17 -25 -11 -18 7 5 12 -7 6 -32 -15 -22
-17 -46 -32 -55 -32 -10 1 -5 8 13 21 15 11 27 26 27 32 0 6 -15 -4 -34 -22
l-33 -32 -76 7 c-56 5 -81 3 -92 -6 -21 -18 -30 -5 -17 24 14 31 46 40 227 61
133 16 178 25 124 25 -41 0 -272 -30 -311 -41 -26 -7 -43 -19 -53 -39 l-15
-29 -247 0 c-137 -1 -273 -4 -304 -7 l-56 -6 -6 38 c-11 62 -8 91 8 98 10 4
15 18 13 48 l-1 43 -6 -45 c-3 -25 -10 -44 -16 -43 -6 2 -10 -27 -10 -70 -1
-72 -12 -137 -24 -137 -25 1 -32 24 -37 116 -8 147 -11 184 -23 242 -5 29 -10
79 -10 110 0 31 -4 70 -10 85 -6 16 -11 37 -11 47 0 17 2 18 43 2 23 -8 54
-26 68 -40 17 -15 29 -20 34 -13 3 6 17 8 31 5 25 -6 27 -4 38 48 4 16 12 27
18 25 7 -1 21 15 31 36 10 20 22 37 25 37 4 0 19 -14 35 -32z m-2423 -313 c0
-12 17 -14 98 -13 53 1 102 -1 107 -4 6 -3 27 -4 48 -3 20 2 37 0 37 -4 0 -3
-75 -15 -167 -25 -93 -10 -204 -24 -248 -32 -173 -29 -322 -45 -377 -39 l-56
7 5 36 c7 45 9 48 26 34 9 -8 24 -9 47 -2 18 5 39 6 47 1 8 -4 57 1 110 11 73
14 98 16 104 7 5 -9 30 -6 96 14 104 30 123 32 123 12z m-4499 -69 c57 -38 78
-43 96 -25 9 9 19 8 39 -5 14 -10 35 -16 45 -13 19 5 19 0 17 -91 -2 -54 1
-109 5 -123 6 -20 4 -31 -9 -44 -12 -11 -19 -38 -22 -75 l-4 -58 -79 -6 c-43
-4 -139 -16 -211 -26 -73 -10 -136 -16 -140 -12 -4 4 -10 20 -14 36 -6 27 -6
28 15 16 28 -14 53 -6 49 17 -2 15 4 17 36 14 37 -3 38 -2 32 23 -3 14 -23 53
-43 88 -23 39 -32 63 -25 66 18 6 14 33 -9 72 -12 19 -22 48 -24 65 -1 16 -5
38 -9 48 -5 10 -4 17 3 17 6 0 11 7 11 15 0 8 5 15 10 15 6 0 10 7 10 15 0 12
14 14 83 11 77 -3 88 -6 138 -40z m3936 12 c-3 -7 -5 -2 -5 12 0 14 2 19 5 13
2 -7 2 -19 0 -25z m-4382 -29 c2 -3 27 -68 56 -145 126 -342 119 -322 103
-328 -36 -14 -66 -5 -99 29 -29 31 -32 41 -28 75 4 25 2 40 -5 40 -7 0 -9 13
-5 35 4 26 2 36 -11 41 -9 3 -16 12 -16 19 0 7 -7 18 -15 25 -11 9 -14 23 -9
45 5 26 2 36 -15 47 -13 10 -19 21 -15 31 3 10 -3 25 -18 39 -13 13 -22 32
-20 44 3 19 7 20 48 14 24 -4 46 -9 49 -11z m5983 -71 c6 -61 15 -95 25 -103
8 -6 80 -16 160 -23 162 -13 200 -23 195 -50 -7 -38 -90 -63 -333 -100 -49 -8
-53 -10 -22 -11 30 -1 39 -6 47 -27 14 -35 -3 -64 -38 -64 -15 0 -34 -5 -42
-10 -11 -8 -5 -10 25 -8 40 3 40 3 40 -32 l0 -35 -75 2 c-41 1 -127 8 -190 15
l-114 13 -9 45 c-12 64 -1 250 16 293 22 51 56 69 143 75 80 5 87 9 126 81 9
17 21 31 26 31 5 0 14 -41 20 -92z m-5231 -212 c15 -55 37 -114 48 -130 18
-28 20 -42 15 -135 l-5 -105 -75 -64 c-41 -35 -110 -95 -152 -133 -78 -70 -78
-70 -78 -41 0 19 13 47 33 74 18 24 63 82 100 131 78 103 107 155 107 196 0
42 -34 71 -83 71 l-40 0 6 56 c3 31 13 64 23 75 14 16 15 25 6 62 -16 60 -4
185 17 189 12 3 20 -13 33 -72 10 -41 30 -120 45 -174z m3655 212 c15 -26 15
-274 1 -322 -12 -41 -29 -43 -47 -7 -26 49 -20 257 9 339 7 19 23 14 37 -10z
m3688 -103 c-7 -8 -17 -15 -22 -15 -6 0 -5 7 2 15 7 8 17 15 22 15 6 0 5 -7
-2 -15z m-187 -21 c32 -6 37 -10 37 -33 0 -36 22 -64 46 -60 11 2 27 22 39 47
l20 43 50 -6 c60 -8 94 -23 109 -48 25 -41 -72 -77 -208 -77 l-73 0 -9 53 c-8
46 -13 54 -44 69 -37 19 -29 22 33 12z m-7995 -177 c69 -127 75 -131 164 -123
40 3 111 13 158 21 112 19 342 45 405 45 139 0 124 -79 -55 -310 -60 -76 -90
-123 -90 -140 0 -24 37 -409 60 -625 5 -55 21 -181 35 -280 13 -99 29 -223 35
-275 15 -126 69 -548 75 -582 l5 -28 -111 0 -110 0 -52 40 c-29 21 -71 47 -92
56 -58 24 -157 98 -183 137 -47 71 -47 87 3 339 25 128 57 291 71 362 27 136
27 187 0 64 -8 -40 -29 -149 -46 -243 -17 -93 -43 -221 -57 -284 -39 -174 -24
-222 97 -316 81 -63 170 -152 170 -172 0 -20 -35 -8 -79 26 -18 14 -44 34 -57
44 -13 10 -24 15 -24 10 1 -4 25 -27 54 -51 78 -62 106 -132 54 -132 -12 0
-43 14 -70 31 -28 16 -52 28 -55 25 -3 -2 14 -15 36 -28 22 -13 39 -27 38 -33
-4 -11 -164 -13 -318 -5 -115 7 -140 21 -223 121 -127 154 -131 167 -146 548
-5 140 -12 257 -16 260 -3 3 -4 -55 0 -129 3 -74 8 -200 12 -280 8 -201 17
-237 85 -337 16 -23 29 -44 29 -47 0 -3 -79 -6 -176 -6 l-176 0 6 32 c11 65
45 345 51 428 8 104 30 323 49 490 8 69 22 195 31 280 8 85 24 227 35 315 10
88 21 207 25 265 13 238 16 290 27 388 17 161 46 175 93 45 75 -208 105 -202
136 26 14 98 25 135 38 127 5 -4 32 -48 59 -99z m7238 47 c36 -81 35 -81 414
-114 89 -8 129 -15 142 -27 47 -42 6 -71 -124 -89 -149 -21 -171 -25 -165 -30
2 -3 54 1 115 9 132 18 162 14 162 -19 0 -32 -18 -39 -147 -59 -62 -10 -113
-20 -113 -24 0 -4 46 1 103 11 127 22 146 22 154 3 10 -27 -27 -53 -110 -80
-101 -33 -153 -59 -167 -84 -5 -11 -10 -44 -10 -74 0 -50 -2 -55 -25 -61 -13
-3 -30 -16 -36 -29 -7 -12 -23 -32 -36 -44 -12 -12 -23 -28 -23 -36 0 -8 -11
-22 -25 -31 -18 -12 -25 -25 -25 -49 0 -26 -7 -37 -35 -55 -21 -13 -35 -30
-35 -42 0 -24 18 -25 64 -6 l34 14 17 -46 c10 -26 26 -61 36 -78 22 -36 23
-70 8 -175 l-12 -76 -71 4 c-49 3 -85 12 -117 29 -35 18 -61 24 -103 23 -45
-1 -61 3 -80 20 -15 14 -35 21 -64 21 -29 0 -42 4 -42 14 0 18 -22 26 -71 26
-21 0 -39 2 -39 4 0 2 15 48 34 102 148 428 231 686 271 847 49 199 69 257 86
257 5 0 21 -25 35 -56z m-416 -43 c0 -10 -7 -54 -16 -97 -26 -126 -16 -197 60
-432 l65 -203 -35 -97 c-20 -53 -49 -137 -66 -187 -17 -49 -36 -93 -42 -97 -6
-4 -28 -8 -48 -8 -27 0 -38 4 -38 15 0 8 -6 14 -12 12 -9 -1 -13 10 -13 33 l0
35 -78 -3 c-72 -3 -78 -1 -73 15 14 45 -23 52 -141 27 -27 -5 -33 -3 -33 10 0
25 -31 19 -132 -25 -65 -28 -98 -37 -108 -31 -8 5 -24 6 -35 1 -39 -15 -65
-10 -77 16 -6 14 -17 25 -25 25 -8 0 -44 -29 -82 -64 l-67 -63 -56 4 c-54 3
-55 3 -81 -35 -14 -21 -41 -70 -60 -108 -21 -41 -50 -81 -73 -98 l-37 -29 7
79 c3 43 17 167 31 274 13 107 38 311 55 454 l32 258 -30 32 c-16 17 -35 41
-41 54 -11 21 -9 24 24 38 20 8 65 23 100 32 61 16 72 15 247 -6 101 -12 245
-25 321 -28 159 -8 143 -15 249 114 33 39 64 72 70 72 7 0 8 -22 3 -65 -13
-122 17 -137 92 -48 122 144 143 162 143 124z m-7947 -34 c-10 -16 20 -38 43
-33 13 4 26 2 29 -4 3 -5 15 -10 26 -10 10 0 28 -9 40 -21 13 -13 38 -22 66
-25 26 -3 51 -11 58 -20 9 -13 20 -15 56 -8 24 5 51 8 59 9 8 0 21 4 28 9 8 5
18 4 25 -3 14 -14 54 -14 62 -1 3 6 15 10 25 10 10 0 25 6 33 14 8 9 24 12 36
9 11 -3 28 0 36 7 13 11 18 10 29 -5 7 -10 18 -15 23 -12 6 4 13 0 17 -8 3 -8
12 -15 19 -15 8 0 19 -11 25 -25 6 -14 18 -25 27 -25 17 0 18 -16 9 -109 l-7
-61 -58 0 c-56 0 -59 1 -65 28 -11 44 -33 82 -49 82 -23 0 -38 -40 -33 -91 3
-27 1 -46 -4 -43 -4 3 -8 11 -8 17 0 7 -9 27 -20 45 -17 27 -24 32 -35 22 -15
-13 -20 -32 -64 -295 -47 -274 -51 -297 -68 -329 l-15 -30 -27 32 c-31 38 -49
41 -55 10 -7 -31 -15 -149 -26 -363 -5 -99 -16 -274 -25 -390 -8 -115 -15
-289 -15 -385 0 -96 -3 -192 -6 -213 -6 -35 -9 -37 -42 -37 l-35 0 7 207 c4
115 11 273 16 353 5 80 10 182 10 228 0 78 1 83 24 94 14 6 28 18 31 27 3 9
12 153 20 321 16 337 40 583 61 617 8 12 44 39 81 59 79 44 78 43 71 49 -7 8
-165 -93 -172 -110 -13 -36 -46 -421 -55 -656 -6 -140 -13 -263 -16 -271 -4
-9 -13 -19 -21 -22 -12 -5 -14 32 -14 243 0 137 -3 256 -6 265 -9 23 -27 20
-54 -9 -28 -29 -45 -32 -55 -7 -8 21 -8 428 1 568 5 82 4 106 -10 132 -17 33
-43 41 -64 20 -19 -19 -14 -33 6 -15 26 23 31 22 46 -15 11 -27 12 -82 4 -288
-9 -241 -6 -377 8 -414 9 -24 34 -20 66 11 21 20 31 24 36 16 9 -14 7 -534 -1
-658 -5 -67 -23 -473 -30 -680 l-2 -60 -540 0 c-474 0 -540 2 -538 15 1 8 14
119 28 245 14 127 35 291 45 365 22 152 46 401 55 565 3 61 10 166 15 235 5
69 14 217 20 330 14 259 23 328 49 353 17 17 22 18 36 7 26 -21 42 -70 79
-237 19 -85 38 -158 41 -162 9 -9 -3 55 -37 198 -32 132 -32 197 -2 222 28 23
48 -3 71 -92 30 -117 91 -288 114 -321 24 -33 51 -43 79 -28 13 7 52 76 101
178 142 295 151 308 187 286 27 -18 30 -93 11 -284 -21 -199 -21 -205 -13
-198 3 4 14 85 24 181 9 96 21 180 24 185 8 13 -12 101 -27 120 -5 6 -20 12
-33 12 -30 0 -71 -55 -110 -146 -24 -56 -31 -65 -48 -60 -12 3 -66 6 -122 6
l-100 0 -12 38 -11 37 5 -38 c4 -26 2 -37 -5 -32 -6 3 -12 18 -12 33 -1 23 -3
22 -9 -8 -7 -38 -12 -32 -29 35 -10 38 -9 40 28 75 21 19 43 44 48 54 6 11 19
21 29 22 65 10 77 14 93 28 10 9 27 16 39 16 11 0 24 5 28 11 4 8 9 8 17 0 16
-16 49 -14 75 5 13 9 29 13 37 10 8 -3 25 -2 37 3 28 10 138 9 131 -2z m6857
-78 c0 -17 -5 -29 -13 -29 -9 0 -12 11 -9 35 5 41 22 37 22 -6z m-8371 -12
c17 -43 36 -50 111 -43 55 5 76 3 94 -10 16 -10 35 -13 58 -9 44 8 101 -15 88
-35 -6 -8 -10 -30 -10 -47 0 -32 9 -39 47 -34 9 1 8 -7 -2 -33 -19 -44 -19
-66 -1 -66 8 0 17 -21 25 -57 9 -47 8 -67 -4 -108 -9 -27 -13 -60 -10 -73 3
-12 -3 -39 -15 -62 -24 -46 -26 -86 -5 -94 8 -3 15 -14 15 -25 0 -11 6 -22 13
-24 30 -13 -21 -5 -58 8 -49 18 -77 19 -92 4 -9 -9 -18 -8 -37 5 -24 15 -26
15 -61 -15 -29 -26 -38 -29 -50 -19 -8 7 -15 18 -15 25 0 27 -30 40 -63 27
-27 -10 -34 -9 -52 8 -26 24 -48 25 -66 4 -10 -12 -24 -14 -70 -9 -37 4 -59 3
-63 -4 -9 -14 -65 -14 -121 1 -40 11 -47 10 -73 -9 -24 -18 -35 -20 -81 -12
-37 6 -60 5 -75 -3 -11 -7 -34 -12 -51 -12 -26 -1 -30 -5 -33 -33 -2 -17 -10
-37 -18 -43 -8 -7 -14 -30 -14 -54 0 -23 -4 -46 -10 -52 -6 -6 -7 -40 -1 -94
5 -55 4 -94 -2 -110 -6 -14 -12 -47 -14 -75 -1 -27 -5 -81 -8 -120 -3 -38 -6
-93 -8 -121 -1 -28 -8 -58 -15 -67 -9 -10 -11 -28 -7 -50 9 -46 -8 -55 -46
-23 -17 14 -37 26 -45 26 -8 0 -14 6 -14 13 0 13 -63 67 -78 67 -6 0 -12 7
-16 15 -3 8 -16 19 -29 24 -17 7 -27 20 -31 44 -3 18 -17 44 -31 57 -21 20
-25 33 -25 82 0 36 -6 68 -16 82 -13 21 -13 32 -2 85 11 56 10 65 -6 96 -18
33 -18 37 -2 79 10 25 18 71 19 104 2 48 7 66 31 97 24 31 29 47 27 85 -2 40
3 54 32 92 26 33 36 59 41 101 8 65 19 78 90 113 28 15 62 39 74 55 13 16 38
37 55 45 18 9 51 35 75 58 42 40 45 41 115 42 102 1 102 1 136 30 28 24 36 25
94 19 67 -7 83 -1 107 45 12 22 32 27 123 29 62 1 68 -1 76 -22z m9726 -114
c-4 -10 -22 -72 -41 -138 -34 -117 -100 -314 -108 -322 -2 -3 -18 41 -35 96
-17 55 -34 107 -37 116 -4 10 0 15 15 15 23 0 90 77 160 183 45 67 59 83 46
50z m-7565 -161 c55 -203 72 -252 86 -260 12 -7 12 -25 -1 -127 -23 -192 -104
-942 -110 -1035 -6 -76 -32 -302 -51 -432 l-7 -48 -178 0 -179 0 0 183 c0 100
7 283 15 407 8 124 22 342 30 485 16 283 21 325 36 325 5 0 14 -11 21 -24 14
-31 33 -39 51 -21 20 20 40 107 83 365 39 233 47 270 62 270 11 0 41 -83 78
-214 15 -55 30 -94 32 -88 2 7 -4 34 -13 60 -20 56 -36 249 -23 275 17 33 35
1 68 -121z m1370 -538 c-10 -716 -2 -1011 27 -1089 26 -70 54 -83 200 -97 65
-5 123 -12 129 -13 9 -3 8 -20 -2 -67 -16 -75 -17 -88 -4 -68 5 8 12 38 16 66
3 28 9 55 12 61 4 6 52 8 123 5 l116 -4 -81 -79 -81 -78 -272 -1 c-150 0 -273
2 -273 5 0 3 -9 69 -19 148 -11 78 -29 219 -41 312 -11 94 -34 271 -50 395
-34 261 -53 433 -76 686 -16 169 -16 183 0 205 14 21 278 250 283 246 1 -1 -2
-286 -7 -633z m-2451 551 c7 -31 23 -67 35 -82 40 -46 69 -18 110 110 3 9 12
17 20 17 12 0 11 -8 -6 -47 -12 -27 -34 -72 -50 -100 l-30 -53 -56 6 c-32 4
-60 9 -64 13 -9 8 -58 156 -58 175 0 12 11 16 43 16 l44 0 12 -55z m10101 49
c0 -3 -6 -15 -12 -27 -7 -12 -18 -47 -24 -77 -7 -30 -19 -80 -29 -110 -25 -82
-28 -107 -16 -115 16 -9 58 20 80 56 10 16 41 54 70 84 28 30 51 59 51 63 0
15 89 106 97 98 12 -12 6 -115 -10 -176 -17 -64 -10 -128 15 -144 15 -9 27 -1
74 49 31 33 79 90 106 128 28 37 54 67 58 67 3 0 32 25 63 56 39 39 62 54 73
50 15 -6 15 -8 0 -31 -9 -13 -16 -31 -16 -40 0 -8 -4 -23 -9 -33 -10 -19 -29
-122 -35 -192 -2 -25 -7 -60 -11 -77 -6 -28 -5 -33 12 -33 11 0 38 19 61 43
72 75 142 125 142 101 0 -3 -9 -22 -19 -42 -32 -62 -40 -84 -51 -146 -6 -36
-6 -64 -1 -69 8 -8 39 7 76 36 50 38 105 77 109 77 15 0 4 -41 -14 -50 -11 -6
-20 -19 -20 -30 0 -10 -5 -22 -11 -25 -13 -8 -59 -109 -69 -150 -4 -16 -9 -37
-11 -45 -3 -10 3 -14 17 -13 20 2 21 -1 13 -40 -4 -23 -10 -59 -14 -79 -5 -33
-10 -38 -55 -53 -56 -19 -75 -14 -60 15 8 14 6 21 -4 27 -8 4 -16 19 -18 33
-2 17 -10 26 -25 28 -16 2 -23 10 -23 24 0 19 -5 20 -50 16 -41 -4 -51 -2 -55
13 -8 24 -25 28 -76 18 -64 -12 -117 -11 -121 3 -4 10 -15 10 -54 1 -68 -17
-135 -15 -156 4 -13 12 -23 13 -47 5 -16 -6 -47 -8 -68 -5 -21 3 -55 1 -75 -5
-32 -9 -41 -7 -69 14 -18 13 -36 21 -40 18 -5 -3 -19 2 -31 10 -27 19 -61 20
-91 5 -18 -10 -23 -8 -35 10 -17 24 -35 27 -51 7 -10 -12 -39 -21 -94 -29 -19
-2 -104 -91 -112 -118 -3 -9 -12 -20 -19 -22 -8 -3 -17 -20 -21 -37 -7 -30 -9
-32 -43 -25 -21 4 -41 10 -46 15 -10 10 29 146 45 155 5 4 9 16 9 29 0 12 11
37 24 55 14 19 28 48 32 65 3 17 16 42 29 56 12 14 25 37 29 52 3 14 27 57 52
95 25 37 52 79 59 93 17 31 73 90 86 90 12 0 12 -33 -1 -46 -6 -6 -12 -50 -15
-98 -3 -48 -7 -92 -10 -96 -3 -4 1 -12 8 -18 9 -8 21 -3 43 16 40 35 124 136
124 149 0 6 6 16 14 22 8 7 35 43 61 82 26 38 51 69 55 69 4 0 31 23 60 50 29
28 61 50 71 50 11 0 19 -3 19 -6z m-8965 -90 c5 -40 14 -64 31 -81 l24 -24
-31 3 c-30 3 -33 7 -50 68 -23 82 -23 90 0 90 15 0 20 -10 26 -56z m8771 -32
c-18 -16 -19 -16 -12 1 3 10 6 24 6 30 0 8 4 7 12 -1 10 -10 8 -16 -6 -30z
m-9837 -98 c6 -6 -31 -44 -42 -44 -13 0 -57 40 -57 52 0 8 89 1 99 -8z m1121
-13 c0 -31 -12 -81 -20 -81 -7 0 -30 68 -30 89 0 6 11 11 25 11 18 0 25 -5 25
-19z m8880 -51 c0 -4 -9 -15 -19 -24 -26 -23 -37 -4 -20 36 12 28 13 29 26 12
7 -10 13 -21 13 -24z m-783 14 c3 -9 -3 -24 -15 -37 -18 -18 -25 -19 -47 -9
-31 14 -32 35 -2 50 32 16 57 14 64 -4z m-202 -28 c31 -34 52 -82 40 -94 -12
-12 -135 63 -135 82 0 15 32 46 48 46 8 0 29 -15 47 -34z m108 1 c7 -17 -19
-77 -33 -77 -6 0 -8 -4 -5 -10 3 -5 2 -17 -3 -26 -6 -11 -12 -13 -16 -6 -3 6
-2 13 4 17 6 4 5 19 -5 42 -19 44 -20 40 13 57 34 19 39 19 45 3z m47 -46 c14
-28 12 -112 -4 -159 -14 -38 -13 -48 20 -169 19 -70 34 -143 34 -160 0 -32 -2
-33 -40 -33 -43 0 -60 -18 -60 -64 0 -34 -32 -43 -80 -21 -34 15 -40 16 -68 1
-28 -14 -32 -14 -53 2 -21 18 -21 21 -11 98 19 136 18 143 -21 225 -20 42 -37
81 -37 88 0 13 47 34 60 26 4 -3 15 7 25 21 12 19 23 24 38 20 25 -6 48 10 41
28 -7 18 25 29 42 15 20 -16 37 1 59 56 18 48 38 57 55 26z m-220 -11 c10 -10
28 -37 40 -60 19 -37 19 -40 3 -40 -10 0 -27 7 -37 15 -11 8 -29 15 -41 15
-27 0 -45 18 -45 45 0 45 46 59 80 25z m314 -35 c25 -4 46 -11 46 -15 0 -4 11
-5 25 -2 19 3 25 0 25 -14 1 -18 1 -18 11 -1 5 9 16 17 24 17 12 0 12 -6 0
-41 -8 -22 -26 -54 -40 -71 -14 -16 -25 -39 -25 -50 0 -12 -11 -36 -25 -54
-14 -18 -25 -41 -25 -51 0 -10 -7 -28 -15 -40 -8 -12 -19 -38 -23 -59 -7 -36
-9 -32 -41 90 -31 118 -33 133 -22 176 7 26 12 66 13 89 0 30 4 41 13 37 7 -2
33 -8 59 -11z m-244 -10 c10 -12 10 -15 -3 -15 -8 0 -17 7 -21 15 -3 8 -2 15
3 15 5 0 14 -7 21 -15z m620 7 c0 -10 -41 -35 -47 -28 -11 11 7 36 27 36 11 0
20 -3 20 -8z m-755 -43 c19 -17 35 -37 35 -45 0 -17 -1 -17 -36 1 -16 8 -37
15 -46 15 -21 0 -24 30 -6 48 15 15 12 17 53 -19z m49 -5 c20 -8 21 -24 2 -24
-8 0 -16 7 -20 15 -6 17 -4 18 18 9z m-10110 -35 c12 -15 24 -19 39 -14 43 13
61 11 65 -10 10 -50 38 -57 78 -20 30 28 44 31 62 13 8 -8 18 -9 34 -1 24 11
56 11 73 1 6 -3 24 -9 41 -12 27 -6 33 -13 39 -43 5 -29 10 -34 28 -31 20 4
23 0 23 -33 l1 -37 -111 -4 c-61 -3 -112 -5 -113 -4 0 0 -4 18 -8 39 l-7 37
43 1 c24 0 62 4 84 9 30 7 18 8 -42 3 -62 -4 -83 -2 -83 7 0 10 -3 10 -15 0
-12 -10 -15 -9 -16 6 0 18 -1 18 -8 -1 -8 -19 -8 -19 -19 0 -11 20 -11 20 -12
0 l-1 -20 -9 20 c-7 17 -9 17 -9 3 -1 -10 -5 -18 -11 -18 -5 0 -11 8 -11 18
-1 16 -2 16 -6 -1 -3 -12 -8 -15 -16 -9 -8 7 -16 5 -25 -4 -10 -11 -10 -14 0
-14 19 0 53 -113 37 -119 -19 -6 -59 -48 -59 -61 0 -27 58 -68 105 -76 49 -7
247 1 296 12 25 6 27 3 32 -38 2 -23 0 -62 -6 -86 -6 -29 -6 -47 0 -53 6 -6 8
-37 6 -73 -4 -40 -2 -66 5 -70 7 -4 8 -15 3 -29 -13 -36 -12 -166 2 -174 12
-8 18 -34 19 -85 1 -44 -98 -192 -167 -249 -33 -27 -62 -49 -65 -49 -3 0 -17
33 -33 74 -39 106 -97 177 -161 199 -5 2 -13 107 -16 235 -5 161 -10 236 -19
246 -8 9 -34 16 -64 18 -34 2 -51 7 -50 15 16 82 33 267 28 304 -10 70 -30 84
-122 82 -41 0 -108 -4 -149 -8 -73 -7 -74 -6 -75 17 l-2 23 -4 -22 c-6 -32
-23 -29 -23 5 0 19 -3 23 -9 13 -5 -7 -6 -22 -4 -32 3 -10 0 -19 -6 -19 -6 0
-12 15 -12 33 l-2 32 -6 -35 -7 -35 -11 30 -11 30 -2 -30 c-2 -30 -2 -30 -10
-5 l-8 25 -1 -27 c-1 -16 -5 -28 -11 -28 -5 0 -11 12 -11 28 l-2 27 -4 -27
c-3 -20 -12 -29 -41 -37 l-37 -10 39 2 c37 2 40 0 49 -33 6 -24 5 -36 -3 -38
-30 -10 -80 -66 -80 -89 0 -39 44 -71 108 -79 80 -10 282 11 336 35 79 34 99
103 43 145 -24 18 -45 21 -148 24 l-119 4 0 27 c0 27 2 28 68 34 95 10 225 8
241 -2 31 -20 31 -170 0 -327 l-10 -52 -76 -7 c-106 -10 -155 -26 -170 -55 -8
-15 -12 -60 -11 -115 l1 -90 6 103 c4 76 10 105 21 112 27 17 113 31 226 37
106 6 112 5 123 -15 12 -22 29 -562 18 -562 -4 0 -21 9 -39 20 -59 36 -83 18
-59 -44 5 -13 2 -25 -10 -37 -14 -14 -16 -24 -9 -48 l9 -31 -45 0 c-40 0 -44
2 -44 24 0 14 -5 28 -11 32 -6 3 -8 17 -4 31 8 34 -3 63 -25 63 -14 0 -20 9
-22 31 -5 49 -28 57 -74 25 -64 -43 -64 -42 -64 116 0 78 -2 139 -6 136 -10
-11 -5 -271 6 -282 8 -8 25 -3 61 17 54 30 69 28 69 -8 0 -36 -15 -69 -51
-109 -17 -20 -29 -39 -26 -42 4 -5 16 8 78 89 11 13 22 18 34 14 21 -9 15 -40
-21 -111 -13 -27 -22 -51 -20 -53 3 -3 14 14 26 36 40 80 56 17 17 -67 -21
-45 -23 -58 -16 -118 5 -36 6 -71 3 -75 -7 -11 -424 -12 -424 -1 0 18 50 173
89 276 56 145 86 204 129 249 20 20 31 37 25 37 -15 0 -69 -64 -91 -108 -10
-20 -34 -75 -52 -122 -18 -47 -35 -87 -37 -89 -7 -9 -95 84 -119 125 -43 74
-73 176 -69 244 2 33 8 67 14 74 7 8 12 31 12 52 0 22 2 68 4 104 2 36 6 94 8
130 2 36 9 74 15 86 8 14 8 46 2 105 -4 49 -4 91 1 101 5 9 9 34 9 56 0 22 6
45 14 52 8 6 16 24 18 38 2 22 7 26 26 24 13 -2 34 4 47 12 20 13 33 14 76 5
46 -10 54 -9 80 10 34 25 37 25 98 5 43 -14 52 -14 85 0 23 10 53 13 84 10 34
-4 53 -1 67 10 27 21 37 20 59 -5z m10047 -9 c25 0 3 -20 -50 -44 -65 -29 -71
-30 -71 -16 0 16 83 71 98 65 7 -3 18 -5 23 -5z m-9903 -155 c5 -16 13 -39 18
-49 5 -14 4 -17 -5 -12 -13 8 -27 39 -37 84 -9 35 9 18 24 -23z m37 -53 c-6
-6 -35 67 -35 87 1 9 10 -6 20 -33 11 -28 18 -52 15 -54z m12 56 c13 -47 9
-65 -5 -27 -19 50 -23 69 -15 69 5 0 14 -19 20 -42z m27 -13 l6 -40 -14 35
c-17 41 -20 68 -7 55 5 -6 12 -28 15 -50z m19 18 c9 -51 2 -53 -11 -3 -5 22
-6 40 -2 40 4 0 10 -17 13 -37z m-657 -41 c-10 -9 -15 2 -21 39 l-5 34 15 -34
c9 -18 14 -36 11 -39z m18 35 c4 -19 3 -26 -4 -22 -5 3 -10 18 -10 32 0 32 5
28 14 -10z m26 1 c0 -25 -3 -29 -10 -18 -13 20 -13 50 0 50 6 0 10 -15 10 -32z
m-103 -13 c6 -20 7 -35 2 -35 -5 0 -9 1 -9 3 0 1 -4 17 -9 35 -13 44 3 41 16
-3z m23 21 c0 -8 3 -23 6 -33 5 -12 4 -15 -3 -8 -16 15 -26 55 -14 55 6 0 11
-6 11 -14z m11303 -47 c39 11 49 11 68 -3 13 -9 32 -16 43 -16 11 0 30 -10 42
-21 20 -19 27 -20 55 -10 40 14 82 14 95 1 6 -6 21 -6 41 2 25 10 37 9 57 -1
32 -17 111 -18 160 -2 31 11 40 11 46 1 6 -10 30 -11 98 -6 86 6 91 5 97 -14
6 -18 12 -20 56 -14 42 6 49 4 49 -10 0 -9 11 -21 25 -26 18 -7 25 -17 25 -35
0 -14 4 -25 9 -25 5 0 8 -14 6 -32 -3 -41 -37 -52 -106 -35 l-49 13 22 22 c13
12 17 22 11 22 -6 0 -18 -11 -27 -25 -9 -14 -24 -25 -33 -25 -13 0 -14 3 -5
12 22 22 12 32 -11 10 -28 -26 -42 -28 -33 -5 6 16 5 16 -12 0 -12 -11 -48
-21 -100 -27 -127 -14 -178 -54 -130 -102 11 -11 17 -22 15 -25 -3 -3 -46 1
-95 8 l-90 13 26 52 c24 50 25 53 9 78 -10 14 -34 34 -55 45 -52 27 -226 76
-357 101 -60 12 -116 23 -122 25 -7 3 -13 1 -13 -4 0 -5 44 -16 98 -25 204
-36 413 -103 438 -142 15 -22 14 -27 -5 -68 -32 -65 -35 -66 -128 -49 -80 15
-82 15 -71 38 14 32 3 71 -26 90 -36 24 -199 55 -291 56 -106 1 -142 -15 -135
-60 1 -9 -4 -12 -15 -7 -9 3 -21 6 -26 6 -10 0 10 51 26 65 7 6 19 25 29 43 9
17 20 32 24 32 4 0 16 14 25 30 12 20 26 30 42 30 13 0 27 5 30 10 3 6 19 10
34 10 16 0 34 7 42 16 11 14 14 13 30 -7 16 -21 19 -22 62 -10z m-11093 -18
c0 -34 24 -63 45 -55 8 3 20 21 27 40 15 41 39 44 74 8 44 -43 14 -100 -66
-125 -56 -17 -280 -32 -329 -23 -52 11 -87 49 -76 83 15 47 156 97 283 100 40
1 42 0 42 -28z m632 -17 c17 -66 58 -67 73 -1 6 25 9 28 12 12 3 -11 9 -24 13
-30 5 -5 10 -28 11 -50 4 -38 3 -39 -36 -48 -22 -6 -102 -10 -177 -11 -124 -1
-139 1 -165 20 -66 49 -22 93 124 124 117 25 135 23 145 -16z m5210 -64 c18
-8 32 -26 38 -49 20 -69 39 -237 50 -426 5 -104 15 -275 21 -380 11 -201 53
-522 95 -733 15 -70 27 -158 28 -197 l1 -70 -35 -11 c-71 -23 -392 -35 -685
-24 -309 10 -390 17 -404 34 -25 31 -13 188 34 441 18 99 39 216 45 260 11 75
66 349 125 619 14 65 39 203 56 305 39 246 34 229 72 240 51 16 526 8 559 -9z
m5022 -94 c9 -38 35 -40 54 -5 17 30 17 31 82 24 175 -16 259 -60 231 -121
-11 -25 -15 -26 -60 -20 -41 5 -222 47 -333 77 -44 11 -53 44 -15 59 32 13 34
12 41 -14z m1456 -5 c15 -30 12 -88 -15 -296 -60 -455 -113 -735 -140 -735 -3
0 -11 16 -19 35 -23 54 -39 46 -70 -38 -12 -33 -25 -49 -40 -53 -43 -10 -949
2 -991 14 -44 12 -224 49 -325 66 l-65 11 -8 45 c-32 186 -30 168 -24 250 3
36 2 70 -3 75 -20 26 -17 65 7 87 21 20 24 29 18 64 -5 35 -2 46 25 79 34 43
37 57 25 105 -5 21 0 28 24 43 16 9 33 26 36 37 4 14 19 22 45 26 98 16 90 57
-17 89 -56 17 -87 21 -152 17 l-81 -5 0 30 c0 36 16 53 50 53 15 0 107 -20
206 -45 346 -88 640 -140 784 -139 59 1 279 63 540 153 80 27 153 50 162 50
10 1 22 -8 28 -18z m-355 -60 c22 -9 12 -13 -198 -76 -104 -31 -122 -34 -145
-23 -30 15 -39 42 -22 63 18 22 38 18 42 -7 5 -37 47 -31 67 9 13 26 23 32 56
36 73 7 180 6 200 -2z m-6777 -138 l-3 -28 -110 1 c-60 1 -370 3 -688 5 -317
2 -577 7 -577 12 0 4 0 11 0 17 0 14 72 16 748 18 l633 2 -3 -27z m1890 19
c182 -2 192 -3 192 -21 0 -18 -9 -20 -87 -23 -49 -2 -350 -2 -670 0 l-583 3 0
22 0 22 478 -1 c262 0 564 -2 670 -2z m-2278 -318 c0 -44 -12 -58 -24 -28 -8
21 -8 69 0 77 14 14 24 -6 24 -49z m-110 -4 c0 -27 -4 -50 -10 -50 -5 0 -10
23 -10 50 0 28 5 50 10 50 6 0 10 -22 10 -50z m66 -32 c-14 -136 -50 -880 -48
-978 1 -14 -4 -42 -9 -62 -7 -29 -16 -40 -37 -45 l-27 -7 29 -6 c16 -3 34 -12
39 -21 15 -24 -16 -68 -54 -76 -46 -9 -45 -23 3 -23 56 0 171 19 182 30 4 4
-3 18 -18 31 -14 12 -26 26 -26 31 0 4 33 7 73 6 l72 -1 -63 -6 -64 -6 32 -24
c28 -20 30 -25 18 -38 -31 -30 -295 -55 -300 -28 -1 6 26 23 60 40 78 37 84
52 32 72 -45 18 -50 28 -17 37 58 15 59 23 77 521 10 295 29 594 39 613 0 1 4
2 7 2 4 0 3 -28 0 -62z m-122 15 c-11 -26 -19 -96 -25 -232 -5 -108 -16 -254
-24 -326 -30 -247 -55 -420 -66 -453 -14 -43 -57 -62 -141 -62 -109 0 -119
-32 -22 -65 32 -11 59 -24 58 -30 0 -5 -17 -18 -37 -28 -54 -27 -326 -38 -346
-13 -7 9 -10 16 -6 16 4 0 2 7 -5 15 -17 20 -152 20 -284 -1 -103 -17 -189
-15 -257 5 -42 13 -89 56 -89 81 0 46 109 106 275 150 155 41 165 71 43 130
-45 22 -84 42 -86 45 -3 2 1 12 8 21 17 20 7 27 -67 43 -30 7 -53 15 -50 17 5
6 107 -16 127 -27 8 -4 15 -19 15 -33 0 -21 12 -31 75 -63 54 -27 76 -44 78
-59 4 -30 -38 -61 -107 -80 -89 -24 -224 -75 -254 -96 -61 -44 -7 -110 101
-124 34 -4 94 -2 147 6 110 15 306 24 340 16 18 -5 25 -13 25 -31 0 -29 4 -29
140 -26 90 2 180 18 180 31 0 5 -13 11 -28 15 -16 3 -43 18 -61 33 -29 24 -31
29 -18 46 11 15 33 20 106 26 50 5 98 13 105 19 15 13 16 17 55 281 34 227 48
365 60 580 8 150 20 210 40 210 6 0 3 -17 -5 -37z m4696 -8 c20 -24 112 -73
164 -87 47 -13 48 -12 73 16 17 20 27 26 32 17 4 -6 21 -14 37 -16 16 -3 44
-8 63 -11 20 -3 52 2 81 12 53 19 80 10 80 -26 0 -10 7 -23 15 -30 8 -7 15
-18 15 -25 0 -24 25 -35 57 -26 38 11 63 -3 63 -34 0 -13 5 -27 11 -30 6 -4 8
-22 4 -46 -6 -37 -5 -39 32 -56 21 -9 46 -24 55 -31 17 -14 17 -16 0 -44 -16
-28 -16 -30 3 -43 36 -25 56 -49 51 -62 -3 -7 -1 -15 5 -18 5 -4 7 -10 4 -15
-5 -8 -753 -12 -767 -4 -11 7 44 157 66 179 18 17 56 25 246 49 124 16 232 33
240 38 10 5 3 7 -20 3 -72 -10 -258 -34 -355 -47 -120 -15 -134 -25 -164 -122
-37 -118 28 -105 -524 -106 -266 0 -486 2 -489 5 -10 11 29 122 51 144 11 11
21 33 21 48 0 20 14 42 53 79 28 28 79 89 112 137 33 48 67 87 76 87 8 0 26
-11 39 -25 14 -14 33 -25 45 -24 11 2 34 -1 51 -5 44 -10 101 15 109 47 6 21
14 26 53 29 25 2 71 -1 103 -6 48 -8 61 -7 83 7 14 9 32 17 39 17 8 0 22 9 32
20 22 24 38 25 55 5z m-8910 -144 c50 -52 81 -122 135 -303 24 -79 30 -111 21
-114 -6 -2 -79 -3 -161 -2 l-150 3 3 40 c2 25 -5 59 -17 89 -31 70 -27 88 9
49 44 -48 48 -40 6 11 -39 48 -56 84 -56 122 0 31 5 30 60 -6 60 -40 72 -38
19 3 -40 30 -78 101 -63 116 3 3 28 -7 56 -22 58 -32 80 -26 60 18 -33 71 9
69 78 -4z m355 17 c-4 -13 -12 -44 -18 -71 -13 -55 -5 -68 42 -69 24 -1 30 -5
27 -17 -3 -9 -8 -49 -11 -89 -4 -41 -10 -86 -14 -100 l-8 -27 -8 25 c-7 23
-74 171 -96 213 -8 14 0 34 33 87 43 69 67 90 53 48z m-559 -200 c5 -7 7 -25
6 -39 -1 -15 2 -38 7 -52 9 -22 7 -25 -21 -31 -17 -3 -52 -6 -79 -6 -48 0 -49
1 -49 30 0 17 9 49 20 70 19 38 23 40 65 40 24 0 47 -5 51 -12z m12059 -70
c19 -40 37 -94 41 -121 l6 -48 -126 2 c-69 1 -126 5 -126 9 0 21 43 101 53 97
6 -2 16 -19 22 -38 20 -59 37 -42 63 69 14 56 27 102 29 102 2 0 19 -33 38
-72z m-6163 11 c6 -4 5 -16 -5 -35 -8 -16 -22 -53 -31 -81 -17 -50 -20 -53
-51 -53 l-33 0 -11 75 c-17 114 -21 107 55 103 36 -1 70 -5 76 -9z m650 -96
c69 -92 99 -146 86 -158 -2 -2 -44 16 -93 40 -49 25 -93 45 -97 45 -12 0 -10
-31 11 -111 19 -77 18 -149 -4 -149 -6 0 -24 23 -40 51 -32 59 -126 159 -150
159 -13 0 -14 -12 -9 -82 5 -73 3 -87 -16 -116 -17 -28 -23 -32 -35 -22 -8 7
-15 22 -15 34 0 25 -45 92 -104 154 -53 56 -76 55 -151 -8 -83 -68 -90 -67
-85 20 3 54 59 218 79 232 14 10 84 13 282 13 l263 0 78 -102z m156 92 c8 -3
12 -30 12 -90 l0 -85 -44 0 c-44 0 -45 1 -108 83 -36 45 -67 87 -71 93 -4 8
24 10 96 7 56 -3 108 -6 115 -8z m-1883 -37 c-2 -18 -16 -103 -30 -188 -14
-85 -31 -180 -38 -210 l-12 -55 -116 -2 -115 -2 4 97 c6 147 27 156 124 57 36
-36 70 -65 76 -65 20 0 30 34 42 138 12 115 5 157 -35 212 l-26 35 58 6 c32 3
62 6 66 7 4 1 5 -13 2 -30z m-465 5 c0 -10 -7 -67 -15 -128 -13 -99 -17 -112
-42 -134 -65 -55 -99 -91 -115 -120 -11 -20 -25 -31 -39 -31 -21 0 -22 3 -16
60 4 36 18 83 36 119 17 32 27 61 24 64 -3 4 -48 -16 -99 -44 -51 -28 -98 -48
-104 -44 -18 11 19 64 106 151 109 109 134 124 207 124 48 0 57 -3 57 -17z
m130 -133 l0 -150 -35 -70 c-19 -39 -42 -70 -50 -70 -37 0 -42 129 -13 347
l12 93 43 0 43 0 0 -150z m218 114 c44 -53 53 -103 41 -210 -11 -97 -18 -134
-27 -134 -3 0 -36 30 -74 66 -61 59 -72 66 -98 60 -30 -5 -30 -5 -30 42 0 26
3 84 7 130 l6 82 73 0 c71 0 73 -1 102 -36z m-1538 -65 c74 -45 120 -103 120
-154 l0 -27 -26 31 c-14 17 -30 31 -34 31 -5 0 5 -13 21 -29 36 -36 37 -65 4
-87 -21 -14 -70 -19 -261 -27 l-235 -9 -25 23 c-46 43 -36 47 129 41 206 -7
209 -7 221 9 6 8 23 13 37 11 15 -2 31 4 39 13 11 13 11 22 -4 51 -16 35 -16
35 4 29 13 -4 22 -1 26 9 6 17 -9 46 -45 84 -27 28 -16 28 29 1z m7465 -10
c88 -17 169 -35 180 -39 11 -4 -65 -7 -168 -7 l-189 0 -9 24 c-14 36 -11 53 9
53 9 0 89 -14 177 -31z m-4797 -99 c-10 -54 1 -90 28 -90 8 0 43 23 77 50 34
28 69 50 77 50 36 -1 143 -128 160 -190 19 -72 57 -63 85 19 13 39 13 57 4
100 -6 29 -9 55 -6 58 11 10 110 -93 139 -144 37 -66 51 -78 68 -58 19 23 17
102 -4 173 -11 34 -16 65 -13 69 8 8 79 -23 127 -54 19 -13 45 -23 57 -23 35
0 222 -227 207 -251 -6 -10 -382 -10 -764 0 l-245 6 -17 100 c-9 55 -20 130
-24 168 l-7 67 30 0 30 0 -9 -50z m-1823 20 c-10 -11 -22 -17 -28 -13 -5 3
-70 -55 -143 -130 -127 -129 -134 -139 -134 -176 0 -30 5 -43 19 -51 12 -6
121 -10 285 -10 219 0 266 -2 266 -14 0 -25 -26 -35 -101 -42 -41 -3 -86 -10
-101 -16 -54 -20 -43 -71 23 -98 16 -7 29 -16 29 -20 0 -12 -68 -20 -172 -20
-89 0 -98 2 -98 19 0 35 -24 43 -142 43 -62 0 -133 -5 -158 -11 -25 -6 -92
-11 -150 -11 -126 0 -190 22 -190 64 0 20 11 30 63 55 34 17 102 42 150 56
116 33 155 52 172 85 20 38 2 59 -84 99 -63 29 -70 35 -61 51 14 26 -20 47
-98 61 -53 10 -60 14 -65 37 -3 15 -9 35 -12 45 -7 16 15 17 370 17 376 0 378
0 360 -20z m165 -14 c0 -2 -12 -27 -27 -56 -34 -66 -44 -157 -18 -176 24 -18
41 -8 69 40 14 24 45 59 70 80 46 37 46 37 46 12 0 -14 -5 -59 -11 -101 l-11
-75 -142 -2 c-174 -2 -419 3 -426 9 -2 2 56 63 129 136 74 73 130 123 126 112
-28 -74 5 -80 105 -21 72 42 90 51 90 42z m302 -183 c-6 -95 -4 -93 -78 -93
-56 0 -65 2 -60 16 3 9 6 29 6 45 0 16 5 29 10 29 6 0 10 -8 10 -18 0 -24 35
-56 50 -47 7 4 23 32 36 61 13 30 25 54 26 54 2 0 2 -21 0 -47z m-192 -123
c-9 -17 -26 -19 -218 -22 -200 -3 -336 3 -348 15 -18 18 32 22 290 24 278 2
286 1 276 -17z m178 3 c-3 -15 -16 -19 -66 -21 -57 -3 -62 -1 -62 18 0 18 6
20 66 20 57 0 65 -2 62 -17z m272 -3 c0 -19 -7 -20 -115 -20 -108 0 -115 1
-115 20 0 19 7 20 115 20 108 0 115 -1 115 -20z m1798 -12 c199 -2 301 -6 299
-13 -4 -12 -478 -22 -794 -17 -198 3 -203 4 -203 24 0 21 2 21 198 14 108 -3
333 -7 500 -8z m-1812 -94 c-3 -26 -6 -55 -6 -65 0 -16 -8 -19 -59 -19 -33 0
-66 -3 -75 -6 -22 -8 -20 -31 4 -51 28 -25 25 -30 -20 -37 -22 -3 -58 -9 -80
-12 l-40 -6 30 30 c33 33 38 63 15 82 -11 9 -12 16 -5 25 5 7 13 33 16 59 l7
46 110 0 110 0 -7 -46z"/>
<path d="M7320 4974 c-45 -8 -145 -46 -172 -66 -23 -16 -28 -27 -28 -63 0
-100 75 -222 165 -267 61 -32 170 -36 222 -10 89 46 149 142 168 269 6 38 4
45 -21 68 -49 46 -242 86 -334 69z m234 -35 c37 -11 78 -30 91 -43 21 -21 22
-27 13 -81 -17 -113 -72 -196 -154 -236 -95 -45 -243 -3 -308 89 -60 84 -83
193 -48 225 28 25 123 59 187 67 77 9 133 3 219 -21z"/>
<path d="M7433 4885 c-18 -35 -22 -37 -75 -41 -97 -6 -148 -36 -148 -86 0 -46
43 -58 200 -58 157 0 189 12 190 67 0 14 -11 29 -27 40 -16 9 -30 18 -32 19
-1 2 4 13 13 26 9 12 16 27 16 33 0 5 -9 -3 -20 -20 -11 -16 -29 -31 -40 -31
-25 -2 -25 -2 0 46 11 22 16 40 11 40 -5 0 -12 -10 -15 -22 -7 -28 -34 -64
-41 -56 -3 2 2 19 11 37 9 18 14 35 11 38 -3 3 -12 -11 -20 -30 -8 -19 -20
-38 -26 -41 -15 -10 -14 0 5 35 8 17 13 33 10 36 -2 3 -13 -12 -23 -32z m92
-73 c53 -15 60 -20 63 -44 4 -38 -38 -58 -121 -58 -58 0 -65 2 -75 25 -6 14
-19 25 -27 25 -8 0 -21 -11 -27 -25 -13 -29 -34 -31 -83 -11 -54 23 -42 68 25
95 39 15 179 11 245 -7z"/>
<path d="M7529 4883 c-21 -43 -22 -50 -4 -28 25 30 37 55 27 55 -5 0 -15 -12
-23 -27z"/>
<path d="M7197 4815 c3 -8 9 -12 14 -9 12 7 11 11 -5 17 -10 4 -13 1 -9 -8z"/>
<path d="M7340 4669 c47 -4 108 -4 135 0 39 7 20 9 -85 8 -133 0 -134 0 -50
-8z"/>
<path d="M11722 4796 c-19 -52 -33 -58 -137 -62 -116 -4 -204 -19 -224 -39
-40 -40 63 -65 264 -64 124 1 153 7 169 32 9 15 7 22 -10 36 l-22 17 29 39
c16 21 26 41 23 44 -4 3 -9 0 -12 -8 -8 -23 -60 -76 -67 -69 -4 4 4 21 19 38
14 17 26 39 26 48 0 9 -13 -5 -30 -31 -33 -53 -63 -66 -33 -14 25 42 34 67 25
67 -5 0 -14 -15 -20 -34z m12 -86 c35 -8 55 -23 56 -42 0 -14 -76 -28 -150
-28 -68 0 -76 2 -85 23 -14 30 -49 34 -68 6 -14 -19 -22 -21 -64 -15 -26 3
-51 10 -56 15 -12 12 16 31 64 40 59 12 255 13 303 1z"/>
<path d="M11425 4763 c-22 -3 -44 -8 -49 -13 -6 -6 5 -7 25 -4 19 3 68 9 109
13 l75 8 -60 0 c-33 0 -78 -2 -100 -4z"/>
<path d="M11650 4610 l-75 -6 82 -2 c46 -1 85 2 88 8 3 6 0 9 -7 8 -7 -1 -47
-4 -88 -8z"/>
<path d="M8226 4894 c-4 -14 -5 -28 -3 -31 3 -2 8 8 11 23 4 14 5 28 3 31 -3
2 -8 -8 -11 -23z"/>
<path d="M7930 4809 c0 -6 5 -7 10 -4 6 3 10 1 10 -5 0 -6 5 -8 10 -5 16 10
11 21 -10 22 -11 1 -20 -3 -20 -8z"/>
<path d="M8020 4688 c0 -10 132 -9 190 1 33 6 14 8 -72 7 -65 0 -118 -4 -118
-8z"/>
<path d="M6914 4618 c4 -12 1 -15 -11 -11 -10 4 -14 2 -10 -4 8 -13 47 -24 47
-14 0 4 -7 16 -16 27 -13 15 -15 16 -10 2z"/>
<path d="M7040 4453 c0 -13 14 -28 29 -31 9 -2 11 3 7 13 -3 9 -6 19 -6 21 0
2 -7 4 -15 4 -8 0 -15 -3 -15 -7z"/>
<path d="M6870 4420 c0 -6 -4 -8 -10 -5 -5 3 -10 2 -10 -4 0 -5 5 -13 10 -16
6 -3 10 -1 10 5 0 6 5 8 10 5 6 -3 10 -2 10 4 0 5 -4 13 -10 16 -5 3 -10 1
-10 -5z"/>
<path d="M6635 4360 c-4 -13 -2 -27 5 -34 10 -8 11 -8 5 3 -4 7 -3 16 3 20 6
4 7 12 3 20 -7 10 -10 8 -16 -9z"/>
<path d="M6267 4299 c-9 -6 -17 -20 -16 -32 0 -21 1 -21 9 -2 6 14 9 15 10 5
1 -9 5 -5 11 9 11 29 9 32 -14 20z"/>
<path d="M10290 3329 c-44 -37 -74 -40 -40 -4 13 14 21 25 19 25 -3 0 -20 -11
-39 -25 -22 -16 -47 -25 -70 -25 -49 0 -178 -34 -228 -59 -76 -39 -103 -100
-62 -141 16 -16 33 -20 83 -20 74 0 216 30 286 61 52 22 101 68 101 95 0 7 11
21 26 30 14 9 23 22 20 29 -2 7 1 18 7 24 21 21 -4 11 -39 -15 -19 -15 -37
-24 -40 -21 -3 3 11 17 31 32 19 15 33 30 31 33 -3 2 -22 -10 -42 -26 -21 -17
-42 -28 -47 -25 -6 3 3 17 18 29 16 13 27 25 25 28 -3 2 -21 -9 -40 -25z m75
-49 c-10 -11 -23 -20 -28 -20 -6 0 -2 9 8 20 10 11 23 20 28 20 6 0 2 -9 -8
-20z m-56 -11 c54 -51 -26 -116 -187 -153 -92 -21 -92 -21 -92 13 0 16 -7 37
-16 45 -21 21 -46 7 -81 -45 -24 -37 -28 -38 -47 -26 -29 20 -31 48 -5 80 45
58 191 106 325 106 68 1 84 -2 103 -20z"/>
<path d="M9531 3114 c1 -65 5 -166 9 -224 5 -66 6 -24 2 115 -2 121 -6 222 -8
224 -2 2 -3 -49 -3 -115z"/>
<path d="M10340 3165 c-7 -9 -8 -15 -2 -15 5 0 12 7 16 15 3 8 4 15 2 15 -2 0
-9 -7 -16 -15z"/>
<path d="M10365 3159 c-11 -17 1 -21 15 -4 8 9 8 15 2 15 -6 0 -14 -5 -17 -11z"/>
<path d="M10180 3095 c-36 -13 -93 -27 -127 -30 -35 -4 -63 -11 -63 -16 0 -5
10 -7 23 -5 12 3 40 8 62 11 53 8 163 44 170 56 4 5 5 9 3 8 -2 0 -32 -11 -68
-24z"/>
<path d="M9554 2690 c0 -52 1 -74 3 -47 2 26 2 68 0 95 -2 26 -3 4 -3 -48z"/>
<path d="M9555 2145 c0 -214 1 -301 2 -192 2 109 2 285 0 390 -1 106 -2 17 -2
-198z"/>
<path d="M9715 1550 c-4 -23 -5 -43 -2 -46 2 -3 7 14 11 37 4 23 5 44 2 46 -2
2 -7 -14 -11 -37z"/>
<path d="M9700 1479 c0 -8 -9 -74 -20 -148 -11 -74 -18 -136 -16 -138 2 -3 9
26 15 64 24 154 32 225 27 231 -3 3 -6 -1 -6 -9z"/>
<path d="M9652 1145 c0 -16 2 -22 5 -12 2 9 2 23 0 30 -3 6 -5 -1 -5 -18z"/>
<path d="M9635 1060 c-4 -28 -5 -53 -2 -56 2 -3 7 19 11 47 4 28 5 53 3 56 -3
2 -8 -19 -12 -47z"/>
<path d="M9622 965 c0 -16 2 -22 5 -12 2 9 2 23 0 30 -3 6 -5 -1 -5 -18z"/>
<path d="M9605 875 c-3 -31 -5 -59 -2 -61 3 -3 8 20 12 51 3 31 5 59 2 61 -3
3 -8 -20 -12 -51z"/>
<path d="M9592 775 c0 -16 2 -22 5 -12 2 9 2 23 0 30 -3 6 -5 -1 -5 -18z"/>
<path d="M5656 4599 c-34 -27 -34 -65 2 -116 89 -132 235 -243 318 -243 45 0
68 30 60 76 -4 20 -3 34 1 31 5 -3 31 -2 59 2 l49 9 -70 2 -70 3 52 6 c28 4
55 10 60 15 4 5 -12 6 -37 4 -25 -3 -56 -2 -70 2 -22 7 -20 8 15 10 22 1 49 5
60 10 13 6 -4 7 -46 3 -44 -4 -69 -2 -73 6 -5 7 5 11 31 12 21 0 47 4 58 9 13
5 -2 8 -48 8 -37 -1 -70 2 -74 6 -3 3 11 6 33 7 77 2 92 16 17 17 l-72 0 -62
51 c-101 85 -151 103 -193 70z m102 -17 c90 -48 252 -214 267 -273 7 -29 -15
-59 -44 -59 -26 0 -31 9 -21 36 5 13 7 31 4 39 -9 22 -54 18 -80 -6 -22 -21
-25 -21 -48 -5 -75 48 -196 190 -196 228 0 57 52 75 118 40z"/>
<path d="M5635 4461 c4 -7 3 -16 -4 -21 -9 -5 -8 -10 4 -20 13 -11 15 -10 9 6
-4 10 16 -6 44 -36 28 -30 51 -50 51 -45 0 6 -25 37 -56 70 -31 33 -53 54 -48
46z"/>
<path d="M5911 4220 c9 -5 36 -12 60 -15 42 -5 41 -4 -11 10 -65 17 -70 17
-49 5z"/>
<path d="M5935 4190 c11 -5 29 -8 40 -8 16 0 15 2 -5 8 -34 11 -60 11 -35 0z"/>
<path d="M7765 4590 c3 -5 8 -10 11 -10 2 0 4 5 4 10 0 6 -5 10 -11 10 -5 0
-7 -4 -4 -10z"/>
<path d="M8012 4575 c0 -16 2 -22 5 -12 2 9 2 23 0 30 -3 6 -5 -1 -5 -18z"/>
<path d="M7601 4533 c0 -5 4 -17 9 -28 8 -18 9 -17 9 8 1 15 -3 27 -9 27 -5 0
-10 -3 -9 -7z"/>
<path d="M7937 4526 c-4 -10 -5 -21 -2 -24 9 -9 17 6 13 25 -3 17 -4 17 -11
-1z"/>
<path d="M8147 4513 c-4 -3 -7 -11 -7 -17 0 -6 5 -5 12 2 6 6 9 14 7 17 -3 3
-9 2 -12 -2z"/>
<path d="M7802 4475 c0 -16 2 -22 5 -12 2 9 2 23 0 30 -3 6 -5 -1 -5 -18z"/>
<path d="M8170 4449 c0 -5 5 -7 10 -4 6 3 10 8 10 11 0 2 -4 4 -10 4 -5 0 -10
-5 -10 -11z"/>
<path d="M8011 4434 c0 -11 3 -14 6 -6 3 7 2 16 -1 19 -3 4 -6 -2 -5 -13z"/>
<path d="M8286 4434 c-5 -14 -4 -15 9 -4 17 14 19 20 6 20 -5 0 -12 -7 -15
-16z"/>
<path d="M7731 4415 c0 -11 4 -27 9 -35 9 -13 10 -13 9 0 0 8 -4 24 -9 35 l-9
20 0 -20z"/>
<path d="M7525 4370 c3 -5 8 -10 11 -10 2 0 4 5 4 10 0 6 -5 10 -11 10 -5 0
-7 -4 -4 -10z"/>
<path d="M8177 4343 c-4 -3 -7 -13 -7 -22 1 -13 3 -13 11 2 11 19 8 33 -4 20z"/>
<path d="M8375 4320 c-4 -12 -5 -24 -2 -27 3 -2 8 5 12 17 4 12 5 24 2 27 -3
2 -8 -5 -12 -17z"/>
<path d="M8285 4320 c-3 -5 -1 -10 4 -10 6 0 11 5 11 10 0 6 -2 10 -4 10 -3 0
-8 -4 -11 -10z"/>
<path d="M8436 4265 c-9 -26 -7 -32 5 -12 6 10 9 21 6 23 -2 3 -7 -2 -11 -11z"/>
<path d="M7401 4254 c0 -11 3 -14 6 -6 3 7 2 16 -1 19 -3 4 -6 -2 -5 -13z"/>
<path d="M8260 4139 c0 -5 5 -7 10 -4 6 3 10 8 10 11 0 2 -4 4 -10 4 -5 0 -10
-5 -10 -11z"/>
<path d="M8578 3866 c-27 -33 -27 -33 -130 -38 -119 -5 -190 -30 -210 -73 -18
-39 5 -55 96 -66 90 -11 219 2 268 27 56 28 61 52 22 91 l-25 25 22 24 c12 13
18 24 14 24 -5 0 -19 -12 -31 -27 -12 -16 -25 -25 -28 -22 -4 3 3 18 15 33 12
15 19 29 17 31 -2 2 -16 -11 -30 -29z m26 -58 c30 -13 42 -43 26 -63 -15 -18
-102 -45 -142 -45 -24 0 -28 4 -28 28 0 33 -30 65 -57 60 -10 -1 -27 -22 -38
-46 -19 -41 -22 -43 -58 -38 -50 6 -70 22 -56 47 14 28 50 48 100 58 66 13
225 13 253 -1z"/>
<path d="M7435 3880 c5 -8 17 -25 28 -37 11 -13 17 -26 13 -30 -4 -5 -21 8
-37 27 -15 19 -29 30 -29 24 0 -6 11 -21 25 -34 l26 -24 -31 -24 c-36 -28 -40
-65 -7 -86 59 -40 336 -46 412 -10 62 29 57 87 -10 118 -63 30 -148 40 -243
27 l-87 -11 -33 37 c-19 21 -31 31 -27 23z m349 -72 c45 -11 89 -51 84 -76 -4
-24 -62 -49 -130 -57 l-58 -6 0 38 c0 44 -14 63 -45 63 -27 0 -51 -26 -61 -64
-7 -28 -7 -28 -63 -22 -59 7 -101 28 -101 49 0 19 39 53 75 67 67 27 211 30
299 8z"/>
<path d="M7826 3663 c-4 -4 -41 -10 -84 -14 l-77 -7 77 2 c46 1 82 6 90 14 6
6 10 12 7 12 -3 0 -9 -3 -13 -7z"/>
<path d="M8295 3659 c22 -4 58 -8 80 -7 l40 0 -40 9 c-22 4 -58 8 -80 7 l-40
0 40 -9z"/>
<path d="M6110 3859 c-102 -26 -175 -48 -163 -48 26 -1 341 77 363 90 28 16
-8 8 -200 -42z"/>
<path d="M6387 3865 c-16 -25 -33 -45 -39 -45 -5 0 0 15 11 34 31 49 25 55 -8
9 -25 -35 -36 -41 -78 -47 -132 -20 -228 -64 -258 -119 -18 -33 -18 -36 -1
-62 25 -38 59 -47 168 -43 91 3 98 2 101 -17 4 -18 4 -17 6 3 1 26 18 29 24 5
4 -17 5 -17 6 0 0 9 4 17 7 17 4 0 13 -8 21 -17 13 -17 14 -17 8 3 -4 17 1 23
37 33 101 31 168 80 168 124 0 29 -45 67 -80 67 -35 0 -37 11 -12 48 47 67 27
56 -24 -14 -27 -37 -43 -25 -17 13 28 39 35 53 29 53 -3 0 -19 -21 -36 -46
-39 -56 -54 -50 -16 6 14 22 23 40 19 40 -5 0 -21 -20 -36 -45z m121 -74 c36
-19 46 -48 27 -77 -16 -25 -71 -64 -90 -64 -6 0 -16 14 -22 30 -20 52 -74 30
-92 -36 -9 -34 -41 -43 -162 -43 -126 -1 -174 30 -143 91 24 47 94 82 215 108
57 12 240 6 267 -9z"/>
<path d="M6790 3621 c24 -9 127 -15 119 -7 -2 2 -35 6 -74 9 -44 4 -61 3 -45
-2z"/>
<path d="M6085 3560 c41 -10 125 -12 125 -2 0 4 -35 8 -77 9 -54 0 -69 -2 -48
-7z"/>
<path d="M12703 3253 c42 -2 112 -2 155 0 42 1 7 3 -78 3 -85 0 -120 -2 -77
-3z"/>
<path d="M13236 2785 c4 -8 8 -15 10 -15 2 0 4 7 4 15 0 8 -4 15 -10 15 -5 0
-7 -7 -4 -15z"/>
<path d="M13340 2770 c0 -5 5 -10 11 -10 5 0 7 5 4 10 -3 6 -8 10 -11 10 -2 0
-4 -4 -4 -10z"/>
<path d="M13332 2680 c0 -19 2 -27 5 -17 2 9 2 25 0 35 -3 9 -5 1 -5 -18z"/>
<path d="M13252 2680 c0 -14 2 -19 5 -12 2 6 2 18 0 25 -3 6 -5 1 -5 -13z"/>
<path d="M13471 2688 c0 -9 -4 -25 -7 -35 -5 -14 -4 -15 5 -7 7 7 11 22 8 35
-2 13 -5 16 -6 7z"/>
<path d="M13420 2655 c0 -8 4 -15 10 -15 5 0 7 7 4 15 -4 8 -8 15 -10 15 -2 0
-4 -7 -4 -15z"/>
<path d="M13201 2643 c0 -4 4 -17 9 -28 8 -19 9 -19 9 2 1 12 -3 25 -9 28 -5
3 -10 3 -9 -2z"/>
<path d="M13062 2620 c0 -14 2 -19 5 -12 2 6 2 18 0 25 -3 6 -5 1 -5 -13z"/>
<path d="M12936 2605 c-3 -8 -1 -15 4 -15 6 0 10 7 10 15 0 8 -2 15 -4 15 -2
0 -6 -7 -10 -15z"/>
<path d="M12997 2613 c-4 -3 -7 -11 -7 -17 0 -6 5 -5 12 2 6 6 9 14 7 17 -3 3
-9 2 -12 -2z"/>
<path d="M12831 2592 c-6 -12 -11 -27 -11 -34 1 -7 8 0 16 15 9 16 13 31 11
34 -3 2 -10 -4 -16 -15z"/>
<path d="M13272 2585 c0 -16 2 -22 5 -12 2 9 2 23 0 30 -3 6 -5 -1 -5 -18z"/>
<path d="M13104 2575 c1 -33 16 -33 16 0 0 14 -4 25 -9 25 -5 0 -8 -11 -7 -25z"/>
<path d="M13462 2575 c0 -16 2 -22 5 -12 2 9 2 23 0 30 -3 6 -5 -1 -5 -18z"/>
<path d="M12883 2573 c-3 -10 -8 -22 -10 -28 -3 -5 3 -1 11 9 16 20 21 36 11
36 -3 0 -8 -8 -12 -17z"/>
<path d="M13332 2570 c0 -14 2 -19 5 -12 2 6 2 18 0 25 -3 6 -5 1 -5 -13z"/>
<path d="M13361 2574 c0 -11 3 -14 6 -6 3 7 2 16 -1 19 -3 4 -6 -2 -5 -13z"/>
<path d="M13162 2550 c0 -14 2 -19 5 -12 2 6 2 18 0 25 -3 6 -5 1 -5 -13z"/>
<path d="M12947 2546 c-4 -10 -7 -25 -6 -34 0 -11 4 -9 10 7 5 13 8 29 6 35
-2 5 -6 2 -10 -8z"/>
<path d="M13006 2545 c-3 -8 -1 -15 4 -15 6 0 10 7 10 15 0 8 -2 15 -4 15 -2
0 -6 -7 -10 -15z"/>
<path d="M13412 2540 c0 -14 2 -19 5 -12 2 6 2 18 0 25 -3 6 -5 1 -5 -13z"/>
<path d="M12746 2533 c-6 -14 -5 -15 5 -6 7 7 10 15 7 18 -3 3 -9 -2 -12 -12z"/>
<path d="M13071 2524 c0 -11 3 -14 6 -6 3 7 2 16 -1 19 -3 4 -6 -2 -5 -13z"/>
<path d="M13201 2508 c-1 -16 4 -28 9 -28 12 0 12 8 0 35 -8 18 -9 17 -9 -7z"/>
<path d="M12837 2503 c-4 -3 -7 -16 -6 -27 0 -19 1 -19 10 3 10 24 8 36 -4 24z"/>
<path d="M12766 2475 c-3 -9 -6 -22 -5 -28 0 -7 5 -1 10 12 5 13 8 26 5 28 -2
2 -6 -3 -10 -12z"/>
<path d="M13142 2455 c0 -16 2 -22 5 -12 2 9 2 23 0 30 -3 6 -5 -1 -5 -18z"/>
<path d="M13431 2464 c0 -11 3 -14 6 -6 3 7 2 16 -1 19 -3 4 -6 -2 -5 -13z"/>
<path d="M12965 2440 c-4 -17 -5 -34 -2 -36 3 -3 8 9 12 26 4 17 5 34 2 36 -3
3 -8 -9 -12 -26z"/>
<path d="M13105 2460 c3 -5 8 -10 11 -10 2 0 4 5 4 10 0 6 -5 10 -11 10 -5 0
-7 -4 -4 -10z"/>
<path d="M13342 2450 c0 -14 2 -19 5 -12 2 6 2 18 0 25 -3 6 -5 1 -5 -13z"/>
<path d="M13021 2430 c0 -33 1 -34 10 -11 6 16 6 28 -1 35 -7 7 -10 -1 -9 -24z"/>
<path d="M13058 2387 c-3 -19 -2 -25 4 -19 6 6 8 18 6 28 -3 14 -5 12 -10 -9z"/>
<path d="M13101 2383 c0 -6 -4 -20 -7 -30 -5 -14 -4 -15 5 -7 7 7 11 20 8 30
-3 11 -5 14 -6 7z"/>
<path d="M13332 2360 c0 -14 2 -19 5 -12 2 6 2 18 0 25 -3 6 -5 1 -5 -13z"/>
<path d="M5510 3413 c0 -6 9 -22 20 -36 24 -30 25 -41 5 -57 -11 -9 -12 -16
-4 -26 26 -31 295 -68 337 -45 38 20 27 47 -25 65 -26 9 -56 16 -67 16 -11 0
-36 15 -55 33 -33 31 -34 31 -18 5 25 -39 10 -35 -30 10 -20 22 -30 28 -23 15
5 -12 15 -25 20 -28 6 -3 10 -12 10 -18 -1 -7 -16 6 -35 28 -19 22 -35 35 -35
29 0 -6 9 -19 20 -29 11 -10 20 -23 20 -29 -1 -6 -19 9 -40 34 -22 25 -40 40
-40 34 0 -6 7 -17 16 -24 20 -17 37 -50 26 -50 -5 0 -22 18 -37 40 -15 22 -32
40 -37 40 -5 0 5 -18 22 -40 17 -22 27 -40 22 -40 -6 0 -24 19 -41 42 -17 23
-31 37 -31 31z m233 -89 c37 -5 47 -11 49 -28 4 -27 34 -33 59 -11 17 17 19
17 25 1 4 -9 3 -20 -1 -24 -12 -12 -166 -4 -244 12 -81 17 -105 31 -81 46 17
11 125 13 193 4z"/>
<path d="M5793 3217 c-18 -6 -33 -14 -33 -18 0 -4 20 -1 45 8 25 8 45 17 45
19 0 6 -21 3 -57 -9z"/>
<path d="M5805 3190 c-13 -6 -15 -9 -5 -9 8 0 22 4 30 9 18 12 2 12 -25 0z"/>
<path d="M5160 2802 c0 -7 12 -36 26 -65 31 -61 13 -48 -27 20 -16 26 -29 44
-29 38 0 -14 57 -112 70 -120 5 -3 10 -1 10 5 0 6 4 8 10 5 6 -4 5 -11 -3 -20
-16 -17 -31 -5 -74 63 -18 28 -36 52 -39 52 -8 0 24 -56 51 -89 15 -17 25 -36
23 -43 -3 -7 -24 14 -47 45 -24 31 -45 57 -48 57 -7 0 14 -34 46 -74 17 -22
29 -42 25 -45 -6 -6 -46 36 -76 79 -9 14 -17 20 -17 14 -1 -7 16 -33 37 -59
38 -47 38 -49 20 -67 -22 -22 -23 -61 -3 -78 50 -42 446 50 490 114 59 84 -72
114 -276 62 l-90 -22 -20 27 c-11 15 -28 47 -39 71 -11 24 -20 37 -20 30z
m436 -106 c18 -14 18 -17 4 -43 -9 -15 -32 -36 -51 -45 -107 -50 -381 -104
-417 -82 -56 36 20 105 164 150 88 27 114 27 114 -3 0 -27 29 -63 50 -63 24 0
40 29 40 69 0 29 2 31 38 31 21 0 47 -6 58 -14z"/>
<path d="M5421 2529 c-14 -5 -59 -15 -100 -21 -42 -6 -70 -13 -64 -15 19 -7
150 16 186 31 36 16 16 20 -22 5z"/>
<path d="M5681 2454 c0 -11 3 -14 6 -6 3 7 2 16 -1 19 -3 4 -6 -2 -5 -13z"/>
<path d="M5733 2425 c0 -22 2 -30 4 -17 2 12 2 30 0 40 -3 9 -5 -1 -4 -23z"/>
<path d="M5583 2410 c0 -25 2 -35 4 -22 2 12 2 32 0 45 -2 12 -4 2 -4 -23z"/>
<path d="M5142 2385 c0 -16 2 -22 5 -12 2 9 2 23 0 30 -3 6 -5 -1 -5 -18z"/>
<path d="M5398 2350 c2 -16 6 -30 8 -30 2 0 4 14 4 30 0 17 -4 30 -8 30 -5 0
-7 -13 -4 -30z"/>
<path d="M5460 2330 c0 -16 4 -30 8 -30 5 0 7 14 4 30 -2 17 -6 30 -8 30 -2 0
-4 -13 -4 -30z"/>
<path d="M5682 2320 c0 -19 2 -27 5 -17 2 9 2 25 0 35 -3 9 -5 1 -5 -18z"/>
<path d="M4940 2303 c0 -20 3 -33 6 -30 11 10 13 67 3 67 -5 0 -9 -16 -9 -37z"/>
<path d="M5214 2270 c-1 -17 3 -30 7 -30 5 0 9 14 9 30 0 39 -15 39 -16 0z"/>
<path d="M5010 2245 c0 -14 4 -25 9 -25 4 0 6 11 3 25 -2 14 -6 25 -8 25 -2 0
-4 -11 -4 -25z"/>
<path d="M5312 2235 c0 -16 2 -22 5 -12 2 9 2 23 0 30 -3 6 -5 -1 -5 -18z"/>
<path d="M5582 2240 c0 -14 2 -19 5 -12 2 6 2 18 0 25 -3 6 -5 1 -5 -13z"/>
<path d="M4852 2190 c0 -19 2 -27 5 -17 2 9 2 25 0 35 -3 9 -5 1 -5 -18z"/>
<path d="M5122 2165 c0 -16 2 -22 5 -12 2 9 2 23 0 30 -3 6 -5 -1 -5 -18z"/>
<path d="M5400 2156 c0 -14 4 -27 10 -31 5 -3 8 7 7 25 -2 36 -17 41 -17 6z"/>
<path d="M5493 2145 c0 -22 2 -30 4 -17 2 12 2 30 0 40 -3 9 -5 -1 -4 -23z"/>
<path d="M5722 2155 c0 -16 2 -22 5 -12 2 9 2 23 0 30 -3 6 -5 -1 -5 -18z"/>
<path d="M4912 2120 c0 -19 2 -27 5 -17 2 9 2 25 0 35 -3 9 -5 1 -5 -18z"/>
<path d="M5652 2120 c0 -19 2 -27 5 -17 2 9 2 25 0 35 -3 9 -5 1 -5 -18z"/>
<path d="M5193 2070 c0 -25 2 -35 4 -22 2 12 2 32 0 45 -2 12 -4 2 -4 -23z"/>
<path d="M5017 2073 c-4 -3 -7 -20 -6 -37 l1 -31 9 34 c10 33 8 47 -4 34z"/>
<path d="M5300 2033 c0 -10 5 -25 10 -33 7 -11 10 -7 10 18 0 17 -4 32 -10 32
-5 0 -10 -8 -10 -17z"/>
<path d="M5731 2003 c-1 -17 4 -35 9 -38 12 -7 12 22 0 50 -7 17 -9 15 -9 -12z"/>
<path d="M5101 1994 c0 -11 3 -14 6 -6 3 7 2 16 -1 19 -3 4 -6 -2 -5 -13z"/>
<path d="M5643 1960 c0 -30 2 -43 4 -27 2 15 2 39 0 55 -2 15 -4 2 -4 -28z"/>
<path d="M5522 1960 c0 -19 2 -27 5 -17 2 9 2 25 0 35 -3 9 -5 1 -5 -18z"/>
<path d="M4920 1948 c0 -19 2 -20 10 -8 13 19 13 30 0 30 -5 0 -10 -10 -10
-22z"/>
<path d="M5427 1964 c-4 -4 -7 -23 -6 -43 l1 -36 9 33 c11 36 9 58 -4 46z"/>
<path d="M4833 1890 c0 -25 2 -35 4 -22 2 12 2 32 0 45 -2 12 -4 2 -4 -23z"/>
<path d="M5286 1908 c-3 -13 -5 -39 -5 -58 1 -28 3 -25 10 19 9 55 6 80 -5 39z"/>
<path d="M5166 1901 c-4 -7 -5 -15 -2 -18 9 -9 19 4 14 18 -4 11 -6 11 -12 0z"/>
<path d="M5592 1880 c0 -14 2 -19 5 -12 2 6 2 18 0 25 -3 6 -5 1 -5 -13z"/>
<path d="M5782 1870 c0 -14 2 -19 5 -12 2 6 2 18 0 25 -3 6 -5 1 -5 -13z"/>
<path d="M5093 1815 c0 -27 2 -38 4 -22 2 15 2 37 0 50 -2 12 -4 0 -4 -28z"/>
<path d="M4981 1810 c-1 -8 -4 -26 -7 -40 -5 -22 -4 -23 6 -7 6 10 9 28 7 40
-2 12 -5 15 -6 7z"/>
<path d="M5403 1765 c0 -22 2 -30 4 -17 2 12 2 30 0 40 -3 9 -5 -1 -4 -23z"/>
<path d="M5722 1770 c0 -19 2 -27 5 -17 2 9 2 25 0 35 -3 9 -5 1 -5 -18z"/>
<path d="M5232 1745 c0 -16 2 -22 5 -12 2 9 2 23 0 30 -3 6 -5 -1 -5 -18z"/>
<path d="M4880 1720 c0 -16 2 -30 4 -30 2 0 6 14 8 30 3 17 1 30 -4 30 -4 0
-8 -13 -8 -30z"/>
<path d="M5586 1723 c9 -38 14 -42 14 -10 0 14 -5 29 -10 32 -7 4 -8 -3 -4
-22z"/>
<path d="M4790 1711 c0 -17 2 -31 4 -31 8 0 13 51 5 56 -5 3 -9 -9 -9 -25z"/>
<path d="M5666 1690 c8 -56 14 -64 14 -19 0 19 -5 41 -10 49 -7 10 -8 1 -4
-30z"/>
<path d="M5346 1694 c-8 -22 -7 -74 2 -74 4 0 8 20 8 45 2 48 0 54 -10 29z"/>
<path d="M5787 1642 c7 -69 11 -74 12 -15 1 28 -3 54 -8 57 -5 3 -6 -16 -4
-42z"/>
<path d="M5178 1635 c-2 -25 0 -45 4 -45 5 0 8 20 8 45 0 25 -2 45 -4 45 -2 0
-6 -20 -8 -45z"/>
<path d="M5072 1640 c0 -19 2 -27 5 -17 2 9 2 25 0 35 -3 9 -5 1 -5 -18z"/>
<path d="M4828 1610 c-3 -16 -1 -30 4 -30 4 0 8 6 8 14 0 8 3 21 6 30 3 9 2
16 -4 16 -5 0 -12 -13 -14 -30z"/>
<path d="M4972 1605 c0 -16 2 -22 5 -12 2 9 2 23 0 30 -3 6 -5 -1 -5 -18z"/>
<path d="M4781 1603 c0 -12 -4 -30 -7 -40 -5 -14 -4 -15 5 -7 7 6 11 24 8 40
-3 21 -4 23 -6 7z"/>
<path d="M5742 1595 c0 -16 2 -22 5 -12 2 9 2 23 0 30 -3 6 -5 -1 -5 -18z"/>
<path d="M5622 1499 c6 -16 12 -28 15 -26 7 7 -8 57 -18 57 -4 0 -3 -14 3 -31z"/>
<path d="M5281 1508 c0 -9 -4 -25 -7 -35 -5 -14 -4 -15 5 -7 7 7 11 22 8 35
-2 13 -5 16 -6 7z"/>
<path d="M5546 1475 c8 -50 14 -58 14 -19 0 16 -5 36 -11 44 -7 11 -8 4 -3
-25z"/>
<path d="M4762 1440 c0 -19 2 -27 5 -17 2 9 2 25 0 35 -3 9 -5 1 -5 -18z"/>
<path d="M5750 1439 c5 -19 11 -43 14 -54 3 -11 3 0 0 25 -3 25 -9 49 -14 54
-6 6 -6 -4 0 -25z"/>
<path d="M5015 1447 c-4 -10 -5 -21 -1 -24 10 -10 18 4 13 24 -4 17 -4 17 -12
0z"/>
<path d="M5112 1410 c0 -19 2 -27 5 -17 2 9 2 25 0 35 -3 9 -5 1 -5 -18z"/>
<path d="M5371 1430 c-1 -8 -4 -26 -7 -40 -5 -22 -4 -23 6 -7 6 10 9 28 7 40
-2 12 -5 15 -6 7z"/>
<path d="M4831 1423 c0 -6 -4 -20 -7 -30 -5 -14 -4 -15 5 -7 7 7 11 20 8 30
-3 11 -5 14 -6 7z"/>
<path d="M5816 1333 c10 -40 14 -41 14 -5 0 18 -5 32 -10 32 -6 0 -8 -11 -4
-27z"/>
<path d="M4762 1295 c0 -16 2 -22 5 -12 2 9 2 23 0 30 -3 6 -5 -1 -5 -18z"/>
<path d="M4798 1290 c-3 -16 -1 -30 4 -30 4 0 8 14 8 30 0 17 -2 30 -4 30 -2
0 -6 -13 -8 -30z"/>
<path d="M5620 1272 c0 -23 5 -42 10 -42 7 0 8 14 4 38 -9 51 -14 53 -14 4z"/>
<path d="M5551 1284 c0 -11 3 -14 6 -6 3 7 2 16 -1 19 -3 4 -6 -2 -5 -13z"/>
<path d="M5492 1265 c0 -16 2 -22 5 -12 2 9 2 23 0 30 -3 6 -5 -1 -5 -18z"/>
<path d="M5182 1200 c0 -19 2 -27 5 -17 2 9 2 25 0 35 -3 9 -5 1 -5 -18z"/>
<path d="M5710 1189 c11 -38 26 -55 17 -19 -4 14 -7 31 -7 38 0 6 -4 12 -9 12
-6 0 -6 -12 -1 -31z"/>
<path d="M5331 1203 c0 -6 -4 -20 -7 -30 -5 -14 -4 -15 5 -7 7 7 11 20 8 30
-3 11 -5 14 -6 7z"/>
<path d="M5833 1155 c0 -22 2 -30 4 -17 2 12 2 30 0 40 -3 9 -5 -1 -4 -23z"/>
<path d="M4752 1130 c0 -19 2 -27 5 -17 2 9 2 25 0 35 -3 9 -5 1 -5 -18z"/>
<path d="M4830 1130 c0 -16 5 -30 10 -30 6 0 10 14 10 30 0 17 -4 30 -10 30
-5 0 -10 -13 -10 -30z"/>
<path d="M5523 1115 c0 -27 2 -38 4 -22 2 15 2 37 0 50 -2 12 -4 0 -4 -28z"/>
<path d="M5452 1120 c0 -14 2 -19 5 -12 2 6 2 18 0 25 -3 6 -5 1 -5 -13z"/>
<path d="M5630 1095 c0 -14 4 -25 9 -25 4 0 6 11 3 25 -2 14 -6 25 -8 25 -2 0
-4 -11 -4 -25z"/>
<path d="M5886 1053 c9 -38 14 -42 14 -10 0 14 -5 29 -10 32 -7 4 -8 -3 -4
-22z"/>
<path d="M4768 1010 c-3 -16 -1 -30 4 -30 4 0 8 14 8 30 0 17 -2 30 -4 30 -2
0 -6 -13 -8 -30z"/>
<path d="M5030 1033 c0 -4 5 -15 10 -23 8 -13 10 -13 10 2 0 9 -4 20 -10 23
-5 3 -10 3 -10 -2z"/>
<path d="M5757 1003 c8 -50 13 -55 13 -10 0 20 -4 38 -9 42 -6 3 -7 -10 -4
-32z"/>
<path d="M5262 995 c0 -16 2 -22 5 -12 2 9 2 23 0 30 -3 6 -5 -1 -5 -18z"/>
<path d="M5841 968 c0 -27 4 -48 9 -48 11 0 11 21 0 65 -7 27 -8 25 -9 -17z"/>
<path d="M5466 975 c4 -8 8 -15 10 -15 2 0 4 7 4 15 0 8 -4 15 -10 15 -5 0 -7
-7 -4 -15z"/>
<path d="M5631 965 c1 -11 5 -31 9 -45 8 -24 8 -24 9 5 0 17 -4 37 -9 45 -8
12 -10 11 -9 -5z"/>
<path d="M4833 935 c0 -22 2 -30 4 -17 2 12 2 30 0 40 -3 9 -5 -1 -4 -23z"/>
<path d="M5180 872 c0 -5 7 -15 15 -22 8 -7 15 -8 15 -2 0 5 -7 15 -15 22 -8
7 -15 8 -15 2z"/>
<path d="M4712 830 c0 -19 2 -27 5 -17 2 9 2 25 0 35 -3 9 -5 1 -5 -18z"/>
<path d="M5771 853 c0 -4 4 -17 9 -28 8 -19 9 -19 9 2 1 12 -3 25 -9 28 -5 3
-10 3 -9 -2z"/>
<path d="M5881 823 c-1 -12 4 -25 9 -28 12 -7 12 2 0 30 -8 19 -9 19 -9 -2z"/>
<path d="M4820 811 c0 -6 5 -13 10 -16 6 -3 10 1 10 9 0 9 -4 16 -10 16 -5 0
-10 -4 -10 -9z"/>
<path d="M5376 775 c4 -8 11 -15 16 -15 6 0 5 6 -2 15 -7 8 -14 15 -16 15 -2
0 -1 -7 2 -15z"/>
<path d="M10943 2794 c-7 -3 -10 -13 -7 -22 5 -14 2 -13 -10 2 -9 11 -16 16
-16 12 0 -13 71 -135 82 -143 6 -3 -3 20 -21 51 -18 31 -31 59 -28 62 2 3 23
-21 46 -53 22 -32 41 -54 41 -48 0 5 -18 35 -41 68 -23 32 -40 60 -38 62 2 2
26 -17 52 -41 65 -60 73 -56 12 6 -27 28 -52 50 -55 49 -3 0 -10 -3 -17 -5z"/>
<path d="M10901 2732 c12 -29 23 -51 25 -49 7 6 -18 71 -33 87 -8 9 -5 -6 8
-38z"/>
<path d="M11639 2693 c-41 -60 -38 -57 -45 -51 -3 3 4 21 15 39 12 19 21 39
21 44 0 6 -14 -11 -30 -37 -17 -27 -35 -48 -41 -48 -11 0 -7 9 23 53 11 15 16
27 11 27 -5 0 -19 -18 -33 -40 -30 -49 -50 -54 -21 -5 11 19 17 35 12 35 -4 0
-16 -16 -27 -35 -10 -19 -24 -35 -32 -35 -10 0 -9 7 3 30 21 41 12 38 -13 -3
-17 -30 -26 -35 -71 -40 -78 -9 -157 -37 -196 -70 -40 -33 -43 -47 -14 -73 57
-51 543 -14 608 47 28 26 27 45 -4 73 -22 21 -23 25 -10 36 8 7 15 17 15 23 0
6 -10 1 -23 -11 -35 -33 -45 -26 -12 8 16 17 24 30 19 30 -6 0 -20 -13 -32
-30 -13 -16 -27 -30 -33 -30 -6 0 0 15 15 34 39 51 32 56 -10 7 -46 -53 -58
-46 -14 9 17 22 28 40 23 40 -4 0 -21 -18 -37 -40 -17 -22 -36 -40 -44 -40
-10 0 -8 9 10 33 34 44 41 57 31 57 -4 0 -21 -20 -36 -45 -16 -25 -33 -45 -39
-45 -11 0 -5 12 29 58 14 18 23 36 20 38 -3 3 -20 -16 -38 -43z m87 -74 c89
-16 119 -52 70 -84 -59 -39 -408 -79 -529 -61 -87 13 -95 56 -17 96 54 27 64
25 79 -15 22 -61 52 -44 76 42 4 16 15 23 43 26 81 8 221 6 278 -4z"/>
<path d="M11921 2665 c0 -11 4 -29 9 -40 l9 -20 0 20 c0 11 -4 29 -9 40 l-9
20 0 -20z"/>
<path d="M11911 2535 c0 -11 4 -29 9 -40 l9 -20 0 20 c0 11 -4 29 -9 40 l-9
20 0 -20z"/>
<path d="M10900 2453 c0 -25 2 -44 4 -42 8 10 13 89 5 89 -5 0 -9 -21 -9 -47z"/>
<path d="M11996 2453 c9 -38 14 -42 14 -10 0 14 -5 29 -10 32 -7 4 -8 -3 -4
-22z"/>
<path d="M11052 2440 c0 -19 2 -27 5 -17 2 9 2 25 0 35 -3 9 -5 1 -5 -18z"/>
<path d="M11505 2440 l-110 -6 115 -1 c63 0 129 3 145 7 l30 8 -35 -1 c-19 -1
-84 -4 -145 -7z"/>
<path d="M10977 2434 c-4 -4 -7 -17 -7 -28 1 -19 1 -20 11 -3 11 19 8 43 -4
31z"/>
<path d="M11117 2416 c-4 -10 -5 -21 -2 -24 9 -9 17 6 13 25 -3 17 -4 17 -11
-1z"/>
<path d="M11821 2405 c0 -11 4 -27 9 -35 9 -13 10 -13 9 0 0 8 -4 24 -9 35
l-9 20 0 -20z"/>
<path d="M11326 2344 c-4 -14 -5 -29 -2 -31 3 -3 8 7 12 21 3 15 4 29 1 32 -2
3 -8 -7 -11 -22z"/>
<path d="M11935 2331 c5 -34 12 -48 19 -40 2 2 -3 20 -10 39 l-14 35 5 -34z"/>
<path d="M11042 2330 c0 -14 2 -19 5 -12 2 6 2 18 0 25 -3 6 -5 1 -5 -13z"/>
<path d="M10827 2310 c-3 -11 -1 -23 4 -26 5 -3 9 6 9 20 0 31 -6 34 -13 6z"/>
<path d="M11711 2310 c0 -14 4 -34 9 -45 8 -18 9 -18 9 5 0 14 -4 34 -9 45 -8
18 -9 18 -9 -5z"/>
<path d="M11201 2280 c0 -25 4 -52 9 -60 13 -19 13 56 0 85 -7 15 -9 9 -9 -25z"/>
<path d="M11610 2308 c0 -7 5 -20 10 -28 8 -12 10 -9 10 13 0 15 -4 27 -10 27
-5 0 -10 -6 -10 -12z"/>
<path d="M10927 2276 c-5 -21 -6 -41 -3 -44 12 -11 17 7 14 44 l-3 39 -8 -39z"/>
<path d="M11471 2263 c-1 -17 4 -35 9 -38 11 -7 11 9 0 45 -8 24 -8 24 -9 -7z"/>
<path d="M11941 2213 c11 -34 19 -42 19 -20 0 7 -7 22 -15 33 -13 17 -14 16
-4 -13z"/>
<path d="M11323 2175 c0 -27 2 -38 4 -22 2 15 2 37 0 50 -2 12 -4 0 -4 -28z"/>
<path d="M11780 2200 c0 -8 5 -22 10 -30 9 -13 10 -13 10 0 0 8 -5 22 -10 30
-9 13 -10 13 -10 0z"/>
<path d="M11142 2180 c0 -14 2 -19 5 -12 2 6 2 18 0 25 -3 6 -5 1 -5 -13z"/>
<path d="M11521 2190 c0 -8 4 -24 9 -35 5 -13 9 -14 9 -5 0 8 -4 24 -9 35 -5
13 -9 14 -9 5z"/>
<path d="M11601 2163 c-1 -12 4 -25 9 -28 12 -7 12 2 0 30 -8 19 -9 19 -9 -2z"/>
<path d="M12013 2166 c4 -10 7 -22 7 -27 0 -5 4 -9 9 -9 12 0 2 38 -12 47 -7
4 -8 0 -4 -11z"/>
<path d="M11718 2125 c2 -14 9 -28 15 -32 7 -4 8 0 4 11 -4 10 -7 24 -7 32 0
8 -4 14 -9 14 -4 0 -6 -11 -3 -25z"/>
<path d="M10892 2115 c0 -16 2 -22 5 -12 2 9 2 23 0 30 -3 6 -5 -1 -5 -18z"/>
<path d="M11420 2120 c0 -11 4 -20 9 -20 5 0 7 9 4 20 -3 11 -7 20 -9 20 -2 0
-4 -9 -4 -20z"/>
<path d="M11916 2115 c3 -16 11 -34 16 -40 6 -6 7 1 2 20 -3 17 -11 35 -16 40
-6 6 -7 -1 -2 -20z"/>
<path d="M10953 2053 c-1 -56 -1 -57 7 -18 11 52 12 75 2 75 -5 0 -9 -26 -9
-57z"/>
<path d="M11020 2080 c0 -11 2 -20 4 -20 2 0 6 9 9 20 3 11 1 20 -4 20 -5 0
-9 -9 -9 -20z"/>
<path d="M11840 2091 c0 -5 5 -13 10 -16 6 -3 10 -2 10 4 0 5 -4 13 -10 16 -5
3 -10 2 -10 -4z"/>
<path d="M11170 2069 c0 -11 5 -17 10 -14 6 3 10 13 10 21 0 8 -4 14 -10 14
-5 0 -10 -9 -10 -21z"/>
<path d="M10827 2073 c-4 -3 -6 -29 -6 -57 l1 -51 9 54 c9 54 8 67 -4 54z"/>
<path d="M10892 1980 c0 -14 2 -19 5 -12 2 6 2 18 0 25 -3 6 -5 1 -5 -13z"/>
<path d="M11961 1995 c1 -19 18 -51 18 -35 0 8 -4 22 -9 30 -5 8 -9 11 -9 5z"/>
<path d="M10772 1850 c0 -19 2 -27 5 -17 2 9 2 25 0 35 -3 9 -5 1 -5 -18z"/>
<path d="M3573 2833 c8 -14 186 -24 223 -13 21 6 -2 9 -83 9 -61 1 -119 4
-129 8 -11 4 -15 2 -11 -4z"/>
<path d="M4730 2775 c-22 -8 -28 -13 -15 -13 11 0 36 6 55 13 22 8 28 13 15
13 -11 0 -36 -6 -55 -13z"/>
<path d="M3650 2730 c0 -6 30 -10 73 -9 65 1 68 2 32 10 -56 11 -105 11 -105
-1z"/>
<path d="M4755 2710 c-16 -7 -13 -9 18 -9 20 -1 37 4 37 9 0 12 -27 12 -55 0z"/>
<path d="M2095 1800 l-90 -6 100 -1 c55 0 114 3 130 7 28 7 27 8 -10 7 -22 0
-80 -4 -130 -7z"/>
<path d="M2753 1803 c31 -2 83 -2 115 0 31 2 5 3 -58 3 -63 0 -89 -1 -57 -3z"/>
<path d="M2517 1664 c-12 -12 -8 -52 6 -57 22 -8 39 8 35 34 -3 23 -27 37 -41
23z"/>
<path d="M2530 1564 c0 -8 5 -12 10 -9 6 4 8 11 5 16 -9 14 -15 11 -15 -7z"/>
<path d="M13930 1850 c-20 -4 31 -7 118 -7 83 0 152 4 152 8 0 11 -219 10
-270 -1z"/>
<path d="M13870 1770 c-8 -5 -10 -10 -5 -10 6 0 17 5 25 10 8 5 11 10 5 10 -5
0 -17 -5 -25 -10z"/>
<path d="M13672 1455 c-6 -49 -16 -142 -21 -205 -11 -122 -29 -306 -36 -380
-4 -43 -4 -44 5 -10 9 36 22 145 40 360 6 69 16 164 22 211 6 48 8 93 6 100
-3 8 -10 -26 -16 -76z"/>
<path d="M13837 1470 c-57 -393 -89 -651 -83 -657 5 -6 13 35 21 112 3 33 22
169 41 303 19 134 34 253 31 265 -2 14 -6 5 -10 -23z"/>
<path d="M11090 1109 c-19 -4 48 -6 150 -6 183 1 178 4 -15 9 -55 2 -116 0
-135 -3z"/>
<path d="M11407 1053 c-21 -19 -42 -32 -45 -28 -4 4 3 14 16 22 12 9 22 20 22
25 0 5 -14 -2 -30 -16 -25 -21 -37 -24 -63 -18 -18 4 -79 7 -137 7 -120 0
-170 -17 -196 -67 -14 -27 -14 -32 0 -54 9 -13 29 -30 44 -38 44 -22 176 -39
329 -40 136 -1 142 0 167 23 14 14 26 32 26 41 0 27 -40 71 -78 87 l-34 14 28
31 29 31 -36 -26 c-48 -36 -72 -34 -29 2 19 16 33 31 30 34 -3 3 -22 -10 -43
-30z m-32 -44 c94 -24 143 -51 151 -85 14 -56 -53 -79 -206 -70 -206 13 -309
35 -332 70 -13 19 -9 49 9 68 24 27 43 23 43 -10 0 -40 21 -65 51 -60 18 2 32
18 54 61 l30 58 60 -6 c33 -4 96 -15 140 -26z"/>
<path d="M11995 1070 c-17 -5 14 -6 70 -3 55 3 102 7 104 9 8 7 -144 2 -174
-6z"/>
<path d="M11556 955 c9 -14 19 -24 21 -21 7 7 -16 46 -28 46 -5 0 -2 -11 7
-25z"/>
<path d="M11580 971 c0 -5 5 -13 10 -16 6 -3 10 -2 10 4 0 5 -4 13 -10 16 -5
3 -10 2 -10 -4z"/>
<path d="M12151 936 c-19 -20 -34 -24 -106 -28 -102 -7 -158 -31 -163 -71 -2
-19 4 -30 24 -44 41 -27 286 -32 338 -8 50 24 59 60 22 91 l-26 23 25 17 c14
9 23 19 21 21 -3 3 -18 -4 -34 -16 -17 -12 -38 -21 -48 -21 -15 0 -14 3 6 25
13 14 19 25 13 25 -5 0 -18 -9 -28 -20 -10 -11 -27 -20 -38 -20 -20 0 -20 1 3
25 13 14 21 25 18 25 -2 0 -14 -11 -27 -24z m88 -57 c31 -11 48 -40 35 -60
-23 -38 -228 -53 -334 -26 -53 14 -66 45 -28 71 31 22 58 20 58 -3 0 -10 8
-29 18 -41 l17 -21 26 20 c15 11 32 35 39 52 l13 31 63 -6 c34 -3 76 -11 93
-17z"/>
<path d="M12312 850 c0 -14 2 -19 5 -12 2 6 2 18 0 25 -3 6 -5 1 -5 -13z"/>
<path d="M12331 844 c0 -11 3 -14 6 -6 3 7 2 16 -1 19 -3 4 -6 -2 -5 -13z"/>
<path d="M7071 578 c-1 -12 -9 -18 -27 -18 -14 0 -23 -4 -19 -10 3 -5 12 -7
19 -4 8 3 17 1 20 -4 10 -17 -4 -41 -27 -45 -22 -4 -22 -4 1 -6 27 -1 31 -38
5 -43 -36 -8 20 -14 62 -7 l40 6 -37 2 c-31 1 -38 5 -38 21 0 17 7 20 43 22
l42 1 -37 4 c-30 3 -38 9 -38 24 0 10 7 19 15 19 8 0 15 5 15 10 0 6 -6 10
-14 10 -8 0 -17 8 -19 18 -4 16 -5 16 -6 0z"/>
<path d="M7170 453 c0 -30 9 -27 15 6 2 11 0 21 -6 21 -5 0 -9 -12 -9 -27z"/>
<path d="M8450 609 c-21 -4 -26 -7 -12 -8 12 0 25 -1 28 0 11 1 24 -25 24 -48
0 -21 -4 -23 -60 -23 -41 0 -60 4 -60 13 0 8 -3 9 -8 1 -4 -6 -14 -14 -22 -17
-12 -4 -11 -6 3 -6 9 -1 17 -7 17 -15 0 -8 3 -21 6 -29 4 -11 -2 -17 -18 -20
-22 -4 -22 -4 -1 -6 12 0 24 -9 26 -18 4 -17 5 -17 6 0 1 14 11 17 64 17 56 0
65 -3 76 -22 l11 -23 -6 23 c-5 20 -2 22 38 22 24 0 48 -4 54 -9 5 -6 14 -4
22 5 10 11 10 14 -2 14 -8 0 -19 14 -25 30 -7 22 -7 30 2 30 8 0 8 3 -1 9 -8
5 -34 6 -58 3 -45 -5 -49 -2 -56 43 -2 16 4 21 32 25 l35 6 -40 5 c-22 2 -56
1 -75 -2z m52 -119 l5 -30 -64 0 c-48 0 -63 3 -63 14 0 8 -3 21 -6 30 -5 14 4
16 59 16 64 0 65 0 69 -30z m97 0 l10 -30 -45 0 c-24 0 -44 3 -44 8 0 4 -3 17
-6 30 -6 20 -3 22 34 22 36 0 41 -3 51 -30z"/>
<path d="M8993 613 c15 -2 37 -2 50 0 12 2 0 4 -28 4 -27 0 -38 -2 -22 -4z"/>
<path d="M8778 603 c6 -2 18 -2 25 0 6 3 1 5 -13 5 -14 0 -19 -2 -12 -5z"/>
<path d="M9004 575 c3 -8 9 -21 12 -29 3 -9 -2 -16 -13 -19 -13 -3 -10 -5 8
-6 17 -1 30 -9 37 -26 18 -38 15 -43 -20 -48 -29 -3 -28 -4 9 -5 32 -2 45 -7
53 -23 7 -11 14 -18 17 -15 3 3 0 12 -7 21 -11 13 -7 15 33 15 25 0 49 -4 52
-10 3 -5 11 -10 16 -10 6 0 8 4 4 9 -3 5 5 12 17 14 18 3 17 5 -7 6 -21 1 -36
11 -53 34 l-22 32 22 7 c20 5 19 6 -8 7 -22 1 -34 8 -44 26 -7 14 -17 25 -22
25 -5 0 -1 -11 8 -25 l16 -25 -36 0 c-29 0 -38 5 -51 30 -16 31 -32 42 -21 15z
m144 -90 l22 -35 -45 0 c-39 0 -46 3 -60 30 -20 40 -20 40 23 40 31 0 40 -6
60 -35z"/>
<path d="M8816 538 c4 -12 -1 -18 -18 -21 -22 -4 -22 -4 3 -6 17 -1 30 -9 37
-26 14 -31 1 -39 -53 -33 -19 2 -35 0 -35 -4 0 -4 24 -8 54 -8 44 0 55 -4 59
-17 4 -16 5 -16 6 -1 0 9 11 19 24 21 19 4 19 4 -5 6 -19 1 -29 8 -36 30 -8
22 -7 31 1 35 8 3 7 5 -2 5 -8 1 -20 9 -27 19 -12 15 -13 15 -8 0z"/>
<path d="M6455 559 c-31 -5 -34 -6 -12 -8 24 -1 26 -3 17 -21 -8 -15 -21 -20
-58 -21 l-47 -1 32 -11 c28 -11 30 -14 19 -29 -8 -11 -28 -19 -52 -19 -30 -2
-33 -3 -11 -6 17 -3 27 -11 27 -21 1 -15 2 -16 13 -1 9 12 24 14 67 10 30 -3
78 -3 105 0 45 5 46 6 13 7 -21 1 -38 5 -38 10 1 16 28 42 46 42 16 0 16 2 4
10 -12 8 -12 11 3 28 21 23 24 50 4 33 -8 -6 -16 -9 -18 -7 -10 8 -77 12 -114
5z m83 -15 c27 -6 30 -9 21 -25 -8 -15 -20 -19 -54 -17 -50 1 -52 4 -28 30 18
20 19 20 61 12z m-11 -76 c-12 -19 -24 -23 -66 -23 -28 -1 -51 1 -51 4 0 2 7
13 17 23 11 13 30 18 66 18 49 0 49 0 34 -22z"/>
<path d="M6775 552 c-6 -4 -10 -16 -10 -27 0 -12 -9 -22 -25 -26 -17 -5 -19
-7 -7 -8 30 -2 16 -35 -18 -42 l-30 -6 24 -10 c13 -5 36 -7 50 -4 19 4 21 6 9
9 -23 5 -23 17 0 40 10 10 16 24 14 30 -2 7 1 19 8 26 12 15 0 29 -15 18z"/>
</g>
</svg>
