<?xml version="1.0"?>
<svg width="1600" height="615" xmlns="http://www.w3.org/2000/svg" xmlns:svg="http://www.w3.org/2000/svg" xmlns:xlink="http://www.w3.org/1999/xlink" preserveAspectRatio="xMidYMid meet" version="1.0">
 <g class="layer">
  <title>Layer 1</title>
  <g id="svg_276">
   <g fill="#000000" id="svg_1" transform="translate(0.000000,615.000000) scale(0.100000,-0.100000)">
    <path d="m9615,6134c-27,-8 -140,-21 -250,-29c-375,-28 -557,-56 -652,-100c-63,-28 -166,-100 -210,-147c-33,-35 -73,-123 -73,-162c0,-13 -6,-41 -14,-63c-21,-59 -64,-317 -81,-488c-9,-82 -17,-155 -19,-161c-3,-8 -19,-9 -58,-2c-59,11 -196,5 -278,-13c-29,-6 -81,-24 -114,-40c-74,-35 -144,-39 -170,-10c-55,61 -245,104 -368,83c-65,-11 -182,-59 -230,-94c-22,-16 -24,-13 -33,48c-6,48 -5,52 16,57c12,3 29,2 37,-2c9,-5 28,-4 44,1c16,6 38,8 49,5c13,-4 36,4 58,18c36,24 37,24 115,9c64,-12 95,-13 170,-4c63,8 92,8 94,0c2,-6 14,-4 32,7c24,14 34,15 55,5c35,-16 76,-15 99,3c26,19 46,19 46,0c0,-13 7,-15 35,-9c26,5 44,1 70,-15c45,-26 50,-26 74,0c15,16 26,20 47,15c18,-5 32,-2 45,10c13,12 26,14 46,9c40,-10 106,-7 113,6c4,6 10,50 14,97c3,48 13,129 22,179c19,117 14,127 -67,113c-51,-8 -55,-7 -75,17c-16,21 -25,24 -51,19c-25,-6 -31,-4 -36,13c-4,16 -17,21 -66,27c-33,3 -66,13 -72,20c-19,24 -37,16 -68,-30c-17,-24 -36,-46 -42,-48c-6,-2 -38,1 -71,6c-50,9 -64,7 -92,-8c-32,-17 -35,-17 -59,-2c-15,10 -34,15 -49,11c-19,-5 -25,-1 -35,25l-12,32l-31,-19c-18,-10 -49,-33 -70,-50c-21,-18 -46,-33 -55,-33c-18,0 -54,37 -55,57c0,6 -4,15 -10,18c-11,7 -130,-23 -148,-37c-7,-6 -29,-8 -52,-4c-34,5 -40,4 -40,-12c0,-31 -23,-68 -53,-86c-22,-12 -28,-21 -23,-36c3,-11 9,-29 12,-40c4,-13 2,-20 -6,-20c-25,0 -80,-51 -80,-74c0,-13 -9,-31 -20,-41c-27,-24 -25,-45 3,-45c12,-1 33,-10 46,-21c22,-18 23,-20 7,-38c-20,-22 -12,-30 38,-40c30,-6 31,-9 37,-66c4,-44 2,-64 -9,-77c-8,-9 -11,-21 -8,-26c3,-5 -3,-12 -13,-15c-21,-5 -35,-71 -25,-123c3,-19 3,-34 -1,-34c-4,0 -45,23 -90,52c-79,49 -83,53 -82,87c0,20 6,45 14,56c19,28 16,55 -9,82c-20,22 -21,26 -9,56c8,18 16,51 18,75c4,35 0,49 -22,78c-35,46 -76,70 -131,79c-27,4 -54,16 -69,31c-13,13 -30,24 -38,24c-8,0 -19,17 -25,39c-16,52 -46,87 -94,112c-26,13 -38,25 -34,35c7,19 -3,44 -18,44c-7,0 -16,15 -21,33c-6,18 -20,36 -32,42c-14,6 -23,19 -23,31c0,27 -36,73 -66,84c-14,6 -34,6 -47,1c-18,-7 -26,-5 -35,10c-7,10 -19,19 -27,19c-8,0 -15,8 -15,18c0,23 -19,42 -41,42c-13,0 -16,9 -15,38c0,24 -9,54 -27,85c-32,53 -67,69 -96,43c-10,-9 -29,-16 -44,-16c-16,0 -30,-8 -37,-20c-6,-11 -17,-20 -25,-20c-8,0 -28,-18 -46,-40c-30,-37 -33,-38 -53,-25c-28,20 -43,19 -63,-5c-10,-11 -27,-20 -40,-20c-12,0 -28,-9 -37,-21c-13,-19 -17,-20 -49,-9c-42,16 -76,8 -116,-26c-17,-14 -31,-21 -31,-14c0,6 -11,22 -25,35c-25,26 -78,34 -90,15c-3,-5 -18,-10 -33,-10c-32,0 -46,-9 -55,-32c-3,-10 -16,-18 -27,-18c-49,0 -90,-50 -90,-110c0,-23 -4,-30 -20,-30c-12,0 -20,-7 -20,-16c0,-12 -6,-15 -27,-10c-39,10 -79,-11 -98,-51c-14,-28 -16,-58 -13,-149l3,-114l-27,-9c-24,-9 -28,-15 -28,-49c0,-26 -5,-42 -15,-46c-8,-3 -15,-12 -15,-21c0,-11 -10,-15 -36,-15c-47,0 -94,-45 -94,-89c0,-20 -7,-34 -20,-41c-18,-9 -27,-6 -56,20c-31,27 -42,31 -82,28c-38,-2 -49,-8 -57,-25c-6,-14 -18,-23 -33,-23c-13,0 -34,-12 -49,-26c-21,-21 -24,-32 -20,-60c4,-25 2,-34 -9,-34c-7,0 -19,-8 -25,-18c-10,-16 -22,-18 -94,-14c-113,6 -182,-15 -245,-74c-57,-53 -80,-110 -80,-194c0,-55 -1,-57 -24,-53c-16,3 -34,-5 -58,-26c-41,-36 -54,-86 -35,-134c11,-26 10,-36 -6,-66c-25,-49 -18,-129 18,-182c21,-32 23,-43 15,-60c-10,-17 -17,-19 -56,-13c-30,4 -44,3 -44,-5c0,-6 -7,-11 -15,-11c-31,0 -34,-34 -10,-94l23,-58l-23,6c-27,7 -55,-1 -55,-16c0,-20 -34,-37 -48,-26c-9,8 -16,8 -24,0c-7,-7 -20,-12 -29,-12c-9,0 -20,-7 -23,-16c-5,-14 -9,-14 -22,-3c-14,11 -18,11 -28,-3c-7,-9 -25,-18 -41,-20c-24,-2 -31,-9 -33,-28c-5,-40 -35,-53 -77,-36c-34,14 -36,14 -77,-17c-26,-20 -46,-45 -52,-66c-7,-26 -19,-37 -51,-51c-44,-19 -65,-54 -65,-106c0,-15 -6,-24 -15,-24c-9,0 -19,-8 -22,-17c-4,-9 -15,-25 -26,-36c-15,-15 -18,-29 -15,-68c4,-41 2,-49 -12,-49c-25,0 -62,-40 -57,-61c3,-12 -2,-20 -14,-24c-24,-8 -53,-50 -44,-64c3,-6 -3,-19 -15,-31c-20,-20 -28,-60 -11,-60c6,0 3,-16 -5,-36c-20,-48 -15,-88 12,-92c17,-2 20,-8 16,-33c-3,-21 1,-35 14,-45c18,-15 18,-15 -6,-8c-14,4 -48,8 -76,10c-28,1 -64,9 -80,16c-18,9 -38,12 -54,7c-42,-12 -97,-10 -109,5c-8,10 -8,21 -1,40c16,42 12,65 -14,91c-13,13 -26,39 -30,59c-4,20 -11,36 -16,36c-6,0 -10,12 -10,27c0,14 -7,34 -16,44c-12,14 -13,24 -6,53c13,45 6,71 -24,91c-13,8 -24,21 -24,29c0,13 -80,69 -117,80c-11,4 -27,13 -33,21c-7,8 -26,15 -42,15c-16,0 -41,6 -56,13c-62,31 -189,14 -205,-27c-7,-17 4,-27 56,-51c22,-10 43,-28 47,-39c5,-13 9,-15 9,-6c1,24 -11,37 -61,62c-28,14 -44,28 -40,34c20,31 143,40 191,15c11,-6 33,-11 50,-11c16,0 33,-5 37,-11c3,-6 23,-19 43,-28c62,-29 111,-62 111,-76c0,-7 12,-20 26,-30c24,-16 26,-21 20,-68c-5,-39 -3,-57 8,-72c9,-11 16,-32 16,-47c0,-16 4,-28 9,-28c11,0 22,-43 13,-51c-4,-4 -46,-9 -95,-11c-70,-4 -87,-2 -87,9c0,24 -51,83 -72,83c-12,0 -24,11 -32,31c-7,16 -27,39 -44,49c-18,11 -32,26 -32,35c0,8 -16,30 -35,49c-19,20 -35,31 -35,26c0,-5 11,-17 24,-28c13,-10 31,-34 39,-54c9,-22 24,-38 38,-42c14,-3 30,-20 39,-38c9,-21 23,-34 38,-36c13,-2 27,-14 32,-28c5,-13 14,-24 20,-24c13,0 13,-36 -2,-76c-9,-25 -9,-42 0,-70c17,-57 4,-67 -81,-59c-61,6 -71,5 -90,-13c-32,-30 -67,-41 -119,-35c-65,8 -86,0 -142,-52c-26,-25 -55,-45 -63,-45c-8,0 -36,-23 -64,-50c-27,-27 -56,-50 -63,-50c-7,0 -31,-13 -54,-29c-37,-27 -41,-35 -48,-87c-5,-43 -16,-71 -42,-108c-31,-41 -36,-57 -34,-96c1,-36 -4,-54 -23,-80c-29,-40 -48,-100 -39,-125c4,-9 -2,-41 -12,-70c-17,-52 -17,-56 0,-92c15,-32 16,-44 5,-98c-11,-55 -10,-65 4,-86c11,-15 17,-44 17,-80c0,-47 5,-63 25,-87c14,-17 25,-37 25,-47c0,-28 20,-55 40,-55c10,0 22,-9 25,-20c3,-11 12,-20 18,-20c7,0 34,-20 60,-45c27,-25 54,-45 61,-45c14,0 66,-51 66,-66c0,-25 63,-173 89,-209l30,-41l-20,-30c-10,-16 -19,-36 -19,-45c0,-9 -7,-23 -16,-30c-10,-8 -36,-55 -60,-106l-43,-93l-878,-3c-483,-1 249,-3 1627,-5l2506,-2l54,-55c34,-34 70,-60 93,-67c20,-6 37,-17 37,-25c0,-8 11,-25 25,-38c23,-24 29,-25 152,-25c164,1 356,15 383,30c11,6 25,23 31,36c8,23 13,25 42,18c59,-13 72,-20 72,-45c0,-20 14,-31 80,-64c43,-22 81,-45 83,-52c5,-18 -38,-41 -115,-63c-180,-50 -283,-107 -283,-158c0,-35 45,-77 102,-95c67,-21 164,-22 283,-2c92,15 211,20 239,9c8,-3 12,-12 10,-19c-7,-16 18,-30 68,-39c53,-10 267,13 308,32c45,22 47,51 5,65c-16,5 -46,16 -65,25c-35,15 -35,15 -10,22c14,5 51,8 83,9c75,1 112,21 127,66l12,35l64,0c70,0 81,-9 70,-55c-4,-16 -19,-30 -41,-39c-44,-19 -45,-43 -2,-54c44,-11 40,-33 -8,-52c-91,-35 -110,-66 -50,-81c30,-9 226,14 271,31c33,13 40,36 19,60c-18,20 -17,20 18,20c33,0 36,-2 42,-39c3,-22 12,-46 18,-55c17,-21 161,-33 487,-41c283,-6 595,11 639,35c23,12 24,15 17,99c-4,47 -9,101 -12,118l-6,33l478,0c264,0 484,4 490,8c17,11 34,48 34,74c0,29 -35,82 -113,173c-33,39 -68,79 -78,90c-9,11 -19,32 -23,48l-6,27l3437,2c1891,2 3126,5 2744,8l-694,5l-13,61c-6,33 -29,93 -49,133l-36,73l20,122c11,66 29,189 40,271c11,83 25,182 30,220c15,100 14,198 -3,220c-13,18 -39,18 -102,0c-20,-6 -21,-4 -13,47c4,29 11,68 15,87c7,31 6,33 -16,26c-20,-6 -22,-5 -16,11c4,11 9,27 11,37c2,10 11,32 20,49c8,17 15,36 15,43c0,7 9,20 20,30c11,10 20,25 20,34c0,8 11,27 25,41c27,29 25,60 -4,60c-9,-1 -50,-27 -91,-60c-41,-32 -77,-57 -81,-54c-9,5 14,123 29,152c7,12 10,22 7,22c-4,0 3,13 14,29c25,34 27,61 6,61c-19,0 -123,-80 -155,-119c-30,-37 -56,-42 -45,-8c8,24 20,98 30,187c8,60 28,128 47,159c9,15 9,23 -1,35c-17,21 -41,8 -104,-55c-26,-27 -53,-52 -60,-56c-6,-4 -31,-34 -55,-65c-74,-96 -156,-178 -170,-169c-16,10 -18,95 -3,134c6,16 11,43 11,60c0,18 4,38 9,45c10,17 -10,82 -26,82c-16,0 -77,-62 -108,-110c-13,-19 -44,-57 -69,-85c-25,-27 -46,-53 -46,-57c0,-19 -19,-5 -30,23c-10,24 -11,38 -2,63c6,17 14,51 18,76c4,25 14,57 22,71c8,15 12,34 9,44c-9,22 -42,12 -87,-29c-95,-85 -90,-83 -105,-63c-11,15 -7,38 20,145c19,70 39,153 45,185c6,31 15,57 20,57c5,0 12,9 15,21c4,12 12,18 21,15c18,-7 42,29 50,75c3,18 11,50 19,69c25,66 34,115 33,170c-1,30 4,72 11,93c7,21 10,45 7,53c-3,8 6,38 19,67c14,28 28,69 32,89c3,21 21,61 39,90c19,29 33,60 32,68c-6,27 -64,21 -104,-11c-35,-28 -38,-28 -56,-13c-17,16 -19,16 -36,1c-26,-23 -31,-21 -43,13c-14,39 -37,38 -78,-4c-21,-22 -46,-36 -70,-40c-20,-3 -48,-8 -62,-11c-20,-3 -31,2 -48,25c-12,17 -28,30 -36,30c-8,0 -31,-18 -52,-41c-37,-40 -38,-40 -54,-20c-10,12 -26,21 -36,21c-10,0 -23,8 -30,19c-6,10 -23,21 -38,25c-21,5 -34,-1 -68,-29l-42,-36l-18,26c-24,33 -35,32 -76,-10c-38,-39 -43,-41 -61,-20c-15,19 -44,19 -59,2c-9,-11 -19,-7 -51,24c-22,21 -40,45 -40,52c0,8 -6,20 -14,26c-11,9 -19,5 -40,-21l-27,-33l-22,28c-30,36 -50,34 -70,-8c-9,-19 -23,-35 -31,-35c-9,0 -19,-16 -26,-38c-9,-35 -13,-39 -42,-39c-20,0 -38,7 -45,17c-10,15 -95,50 -119,50c-3,0 -3,-21 1,-47c4,-27 9,-77 10,-113c2,-36 9,-87 15,-115c6,-27 13,-79 15,-115c13,-222 13,-250 5,-255c-6,-4 -10,-2 -10,4c0,28 -61,488 -70,524c-5,23 -17,102 -25,176c-16,142 -26,170 -95,280c-22,35 -49,89 -60,119c-23,60 -45,238 -56,454l-7,134l39,16c22,9 62,22 89,28c28,6 66,21 85,33c19,12 62,25 95,29c153,18 234,42 315,95c23,14 59,25 100,30c53,5 70,12 100,39c39,35 129,74 172,74c15,0 45,6 65,14c21,8 69,20 106,26c69,13 115,38 104,57c-4,6 -33,19 -65,28c-31,9 -70,21 -87,27c-33,13 -70,13 -245,4c-133,-8 -252,-10 -365,-8c-261,6 -371,3 -433,-14c-54,-15 -74,-16 -140,-6c-83,13 -96,11 -197,-32c-33,-14 -76,-26 -95,-26c-19,-1 -60,-14 -90,-30c-30,-17 -70,-30 -88,-30c-36,0 -102,-24 -102,-37c0,-5 -18,-33 -40,-62c-22,-29 -42,-63 -44,-75c-3,-11 -16,-79 -30,-151c-49,-244 -86,-467 -86,-511c0,-38 3,-44 25,-50c24,-6 25,-9 25,-84c0,-111 -7,-135 -56,-188c-38,-41 -43,-44 -44,-24c0,15 -6,22 -19,22c-11,0 -23,5 -27,11c-3,6 -15,9 -25,6c-10,-3 -22,-1 -25,5c-4,6 -24,7 -50,3c-30,-4 -44,-3 -44,5c0,8 -16,11 -47,8l-48,-3l-5,250c-3,138 -8,255 -12,260c-7,12 -33,341 -48,630c-12,209 -22,280 -52,370c-22,62 -158,286 -236,386c-41,54 -45,57 -99,63c-32,4 -149,36 -263,72c-197,62 -209,65 -323,68c-71,2 -123,8 -130,15c-13,13 -18,13 -82,-5zm-3583,-181c29,-33 41,-67 39,-110c-1,-35 2,-43 17,-43c25,0 42,-19 42,-48c0,-19 4,-22 21,-17c15,5 22,2 26,-14c4,-18 11,-20 47,-15c56,8 90,-18 90,-69c0,-31 3,-36 26,-39c20,-2 27,-11 34,-40c5,-21 15,-38 23,-38c13,0 17,-11 14,-42c-1,-11 10,-22 31,-31c49,-21 87,-65 99,-113c9,-36 16,-44 41,-49c17,-4 33,-15 35,-25c3,-13 19,-20 51,-25c67,-10 110,-33 138,-74c27,-41 32,-97 9,-127c-20,-27 -18,-61 5,-84c25,-25 25,-52 0,-75c-13,-12 -17,-23 -11,-34c9,-17 6,-32 -11,-67c-8,-18 -6,-26 11,-43c18,-18 19,-24 9,-46c-9,-19 -9,-28 0,-37c18,-18 15,-43 -8,-63c-12,-11 -18,-26 -15,-39c8,-34 -29,-83 -71,-95c-24,-7 -43,-7 -55,-1c-14,8 -24,4 -43,-15c-23,-23 -42,-30 -73,-26c-6,1 -13,-9 -15,-21c-5,-34 -61,-59 -100,-46c-16,6 -32,17 -35,24c-4,11 -15,13 -40,8c-27,-5 -41,-2 -63,14c-24,18 -30,19 -40,7c-16,-19 -54,-19 -70,0c-7,8 -18,32 -25,52c-9,26 -20,39 -35,41c-11,2 -25,14 -30,28c-7,19 -17,24 -43,24c-44,0 -62,15 -86,72l-20,46l-37,-13c-41,-14 -74,-7 -106,22c-15,13 -20,12 -47,-8c-27,-20 -33,-21 -61,-9c-28,12 -32,10 -56,-14c-19,-18 -37,-26 -61,-26c-27,0 -34,-4 -32,-17c5,-50 -3,-77 -29,-101c-24,-23 -28,-33 -24,-64c3,-31 -1,-42 -26,-68c-17,-16 -37,-30 -44,-30c-10,0 -13,-16 -13,-58c0,-82 -35,-134 -106,-159c-38,-13 -54,-26 -65,-48c-7,-16 -18,-37 -23,-45c-5,-8 -12,-26 -15,-40c-9,-39 -23,-54 -52,-55c-22,-1 -27,-7 -29,-31c-3,-42 -31,-91 -55,-99c-24,-7 -24,-13 -5,-39c19,-25 19,-69 0,-106c-9,-18 -11,-31 -5,-35c13,-8 13,-51 0,-76c-12,-22 -52,-27 -44,-5c3,8 1,17 -5,21c-6,3 -11,21 -11,40c0,19 -6,38 -13,42c-21,13 -36,57 -26,76c12,21 -4,53 -30,62c-10,3 -22,17 -25,30c-3,13 -15,26 -26,30c-10,3 -22,15 -25,26c-4,10 -11,19 -16,19c-5,0 -7,11 -3,24c6,27 -25,56 -62,56c-13,0 -24,8 -27,20c-4,15 -14,20 -41,20c-20,0 -36,4 -36,10c0,5 -12,12 -27,16c-48,10 -81,25 -87,40c-4,10 -25,13 -78,13c-75,-1 -118,7 -118,22c0,4 -16,16 -36,25c-28,13 -40,14 -60,5c-18,-8 -29,-8 -44,1c-16,10 -24,9 -50,-11c-18,-12 -34,-20 -37,-17c-3,3 -18,-3 -32,-13c-19,-13 -41,-17 -83,-15c-49,3 -59,0 -68,-16c-9,-17 -14,-18 -30,-7c-16,9 -24,9 -40,-1c-21,-13 -26,-6 -11,17c7,10 2,23 -14,43c-24,28 -45,85 -45,122c0,11 10,39 21,64c16,32 19,46 10,55c-14,14 -14,92 -1,117c14,26 49,44 81,42c26,-2 26,-1 31,77c4,62 10,88 32,125c33,56 97,100 170,117c52,11 158,9 187,-5c12,-5 18,-1 22,14c3,12 15,24 27,27c19,5 21,11 15,39c-5,28 -1,39 18,58c15,15 32,23 43,20c13,-3 24,4 36,26c13,23 24,30 48,30c39,0 82,-22 109,-56c17,-22 22,-24 27,-10c3,9 12,16 20,16c9,0 14,11 14,28c0,68 34,102 100,102c20,0 30,5 30,15c0,9 7,18 15,21c10,4 15,20 15,45c0,40 24,65 53,53c12,-4 13,2 6,38c-20,102 -6,241 26,268c17,14 51,17 83,6c18,-6 22,-4 22,13c0,14 6,21 20,21c16,0 20,7 20,30c0,60 41,110 90,110c13,0 24,9 30,26c9,22 15,25 40,22c18,-3 35,1 41,9c25,30 74,10 105,-43c10,-18 13,-17 48,14c40,35 75,40 116,17c34,-19 37,-19 44,11c6,23 11,26 36,21c23,-5 30,-2 35,12c8,27 28,32 60,15c15,-8 29,-14 30,-14c2,0 13,16 25,35c12,19 33,38 46,41c14,4 29,15 35,26c8,15 17,18 35,14c17,-5 26,-2 30,9c8,21 57,19 76,-2zm4147,-57c-3,-3 -18,12 -33,32l-29,37l34,-32c18,-18 31,-35 28,-37zm-632,-8c-2,-13 -4,-5 -4,17c-1,22 1,32 4,23c2,-10 2,-28 0,-40zm-508,-33c-33,-66 -46,-83 -30,-43c16,43 52,110 56,106c2,-2 -9,-30 -26,-63zm827,24c24,-47 45,-111 34,-104c-6,3 -10,12 -10,19c0,7 -11,35 -25,62c-27,53 -27,54 -20,54c2,0 12,-14 21,-31zm-1219,-98c-12,-27 -23,-45 -25,-41c-3,9 35,90 43,90c2,0 -6,-22 -18,-49zm1837,-58c14,-29 24,-53 21,-53c-5,0 -55,95 -55,106c0,12 6,2 34,-53zm-1265,0c-15,-56 -20,-63 -13,-18c6,39 11,55 19,55c2,0 -1,-17 -6,-37zm927,-35c35,-69 94,-228 85,-228c-4,0 -15,26 -25,58c-10,31 -34,91 -54,132c-20,41 -38,78 -40,83c-2,4 -1,7 2,7c3,0 18,-24 32,-52zm-467,-218c0,-37 -17,31 -22,90l-6,65l14,-70c8,-38 14,-77 14,-85zm-970,60c-11,-41 -17,-57 -14,-35c6,46 25,119 30,113c2,-1 -5,-37 -16,-78zm1668,-42c-3,-8 -6,-5 -6,6c-1,11 2,17 5,13c3,-3 4,-12 1,-19zm-1466,-79c-5,-30 -9,-42 -10,-28c-1,30 10,92 15,86c3,-2 0,-28 -5,-58zm1476,39c-3,-8 -6,-5 -6,6c-1,11 2,17 5,13c3,-3 4,-12 1,-19zm261,-19c-3,-20 -5,-19 -9,9c-3,20 -2,29 4,23c5,-5 7,-19 5,-32zm-1961,-26c-3,-10 -5,-2 -5,17c0,19 2,27 5,18c2,-10 2,-26 0,-35zm780,-30c-2,-16 -4,-5 -4,22c0,28 2,40 4,28c2,-13 2,-35 0,-50zm1196,-28c4,-32 3,-43 -3,-30c-8,19 -14,93 -6,84c2,-2 6,-26 9,-54zm-2186,-77c-3,-7 -5,-2 -5,12c0,14 2,19 5,13c2,-7 2,-19 0,-25zm780,-155c-2,-37 -3,-9 -3,62c0,72 1,102 3,68c2,-34 2,-93 0,-130zm1210,165c-3,-8 -6,-5 -6,6c-1,11 2,17 5,13c3,-3 4,-12 1,-19zm10,-55c-3,-10 -5,-4 -5,12c0,17 2,24 5,18c2,-7 2,-21 0,-30zm-2010,-35c-2,-13 -4,-3 -4,22c0,25 2,35 4,23c2,-13 2,-33 0,-45zm1540,40c-3,-8 -6,-5 -6,6c-1,11 2,17 5,13c3,-3 4,-12 1,-19zm10,-55c-3,-10 -5,-4 -5,12c0,17 2,24 5,18c2,-7 2,-21 0,-30zm481,-93c-1,-29 -2,-26 -8,15c-11,69 -10,126 1,65c4,-25 7,-61 7,-80zm-2041,43c-3,-10 -5,-4 -5,12c0,17 2,24 5,18c2,-7 2,-21 0,-30zm1576,-38c3,-37 2,-51 -3,-35c-8,25 -13,107 -6,99c2,-2 6,-31 9,-64zm-1052,-15c-5,-25 -9,-35 -10,-24c-1,28 11,92 16,79c1,-6 -1,-30 -6,-55zm796,-7c-3,-10 -5,-2 -5,17c0,19 2,27 5,18c2,-10 2,-26 0,-35zm-1180,-15c-3,-7 -5,-2 -5,12c0,14 2,19 5,13c2,-7 2,-19 0,-25zm950,-85c-2,-16 -4,-3 -4,27c0,30 2,43 4,28c2,-16 2,-40 0,-55zm960,15c-2,-13 -4,-3 -4,22c0,25 2,35 4,23c2,-13 2,-33 0,-45zm-1762,-93l-14,-140l5,110c5,107 13,179 20,173c1,-2 -3,-66 -11,-143zm-158,83c-2,-13 -4,-5 -4,17c-1,22 1,32 4,23c2,-10 2,-28 0,-40zm-1016,3c36,-12 84,-34 107,-51c55,-39 118,-41 187,-5c26,14 78,33 114,42c82,20 287,23 316,5c17,-11 14,-12 -25,-6c-93,15 -232,7 -300,-16c-100,-34 -103,-38 -98,-150c3,-52 8,-103 13,-112c5,-13 3,-18 -9,-18c-9,0 -16,3 -17,8c-9,113 -18,175 -26,183c-11,11 -118,18 -127,8c-4,-3 -16,-39 -27,-78c-22,-80 -59,-160 -83,-180c-9,-7 -14,-17 -11,-21c3,-5 0,-12 -6,-16c-8,-5 -9,-3 -4,6c4,7 4,11 -1,8c-82,-39 -93,-42 -174,-43c-73,0 -93,4 -141,27c-67,33 -131,114 -155,194c-9,31 -24,58 -35,64c-21,12 -27,60 -7,60c6,0 42,18 78,40c131,79 281,97 431,51zm3879,-21c11,-6 28,-6 42,-1c17,7 28,4 45,-11c21,-20 21,-20 98,1c71,20 79,20 95,6c10,-9 25,-15 34,-13c10,2 24,-9 34,-27c23,-41 30,-45 80,-45c31,0 42,-4 42,-15c0,-9 11,-20 25,-25c14,-5 25,-16 25,-24c0,-9 12,-16 28,-18l27,-3l12,-180c21,-329 34,-385 131,-543c55,-90 66,-128 81,-287c6,-55 17,-132 25,-170c7,-39 26,-173 42,-299l28,-228l-28,-114c-26,-107 -33,-122 -101,-222c-81,-119 -136,-178 -158,-169c-20,8 -56,120 -64,199c-4,44 0,96 12,160c30,160 8,167 -101,36c-84,-103 -102,-117 -115,-97c-9,15 -4,124 11,244c25,190 22,235 -14,222c-8,-3 -27,-28 -40,-56c-44,-86 -53,-81 -62,43c-4,47 -12,94 -19,103c-10,13 -40,18 -153,25c-158,9 -192,18 -192,48c0,26 14,32 190,76c135,34 220,62 143,48c-29,-6 -33,-3 -39,22c-6,22 -2,31 16,46c12,10 34,18 49,18c14,0 33,5 41,10c11,6 2,9 -30,7c-41,-2 -45,0 -48,24c-6,55 70,79 258,79c113,0 120,-1 134,-23c29,-43 56,-194 81,-452c24,-251 41,-385 51,-394c7,-7 5,21 -6,80c-5,30 -21,173 -35,317c-31,323 -57,446 -99,474c-17,12 -249,9 -307,-3c-67,-15 -93,-40 -86,-85c5,-27 2,-36 -15,-45c-17,-9 -19,-18 -15,-48l5,-37l-131,-34c-146,-38 -187,-62 -168,-97c14,-27 40,-32 201,-42c72,-5 136,-13 142,-19c6,-6 14,-49 19,-97c11,-130 37,-144 88,-49c14,27 31,48 36,46c11,-3 9,-68 -6,-197c-9,-68 -16,-93 -30,-103c-10,-7 -51,-51 -89,-98c-81,-95 -65,-91 -247,-78l-90,7l4,56c7,90 7,105 2,120c-3,11 15,17 76,26c151,23 235,57 235,95c0,36 -39,49 -185,61c-198,16 -183,9 -190,77c-16,155 -34,177 -81,95c-35,-60 -39,-63 -94,-63c-25,0 -62,-5 -84,-9l-39,-9l7,46c4,26 16,114 27,195c11,82 24,171 30,197c12,58 72,154 141,227c61,66 74,97 82,203c7,91 3,103 -31,114c-31,10 -30,32 7,241c64,352 82,431 97,422c5,-3 22,1 38,8c38,17 51,18 75,5zm-3144,-12c3,-3 2,-39 -2,-79c-6,-64 -8,-70 -20,-53c-7,10 -18,25 -24,32c-7,7 -9,27 -5,45l5,32l-13,-29c-7,-16 -21,-30 -30,-32c-15,-2 -17,4 -13,34l5,37l-10,-37c-6,-21 -16,-38 -21,-38c-6,0 -8,15 -4,38c5,33 4,34 -5,12c-6,-14 -14,-32 -19,-40c-4,-9 -28,-18 -58,-21c-96,-12 -153,-71 -106,-110c27,-22 231,-20 267,4c15,9 27,23 27,30c0,9 -2,9 -8,0c-12,-19 -78,-43 -117,-43c-28,0 -35,4 -35,19c0,26 -31,36 -47,15c-7,-9 -14,-21 -15,-25c-2,-5 -20,-4 -40,2c-26,7 -38,16 -38,28c0,45 73,71 198,71l83,0l15,-36c12,-28 13,-53 7,-117c-9,-95 -1,-92 -130,-55c-53,14 -83,28 -83,37c0,11 -3,11 -15,1c-10,-8 -28,-10 -53,-5c-20,4 -50,6 -65,6c-38,-2 -57,45 -57,142c0,88 9,99 97,128c48,16 80,19 190,16c73,-2 135,-6 139,-9zm2391,-75c-3,-10 -5,-2 -5,17c0,19 2,27 5,18c2,-10 2,-26 0,-35zm-1267,-19c52,-49 65,-84 31,-84c-23,0 -134,107 -126,121c13,20 49,7 95,-37zm797,9c-3,-10 -5,-4 -5,12c0,17 2,24 5,18c2,-7 2,-21 0,-30zm-893,-8c89,-60 147,-165 92,-165c-9,0 -45,27 -82,60c-36,33 -77,63 -90,66c-28,7 -30,20 -7,46c22,24 43,23 87,-7zm563,-17c58,-34 97,-79 141,-163c24,-44 27,-61 27,-150c0,-55 8,-147 18,-205c10,-58 25,-146 33,-197l14,-92l-25,-25c-17,-17 -49,-31 -91,-41c-84,-19 -124,-40 -124,-65c0,-14 -11,-22 -42,-30c-64,-16 -88,-28 -88,-44c0,-8 -21,-22 -47,-32c-64,-23 -76,-33 -62,-50c8,-9 5,-15 -10,-23c-11,-6 -22,-11 -25,-11c-3,0 -6,80 -7,178c0,97 -5,218 -10,267c-16,153 -23,395 -11,395c6,0 29,-29 51,-65c23,-35 53,-72 67,-81c24,-16 26,-16 47,5c18,18 22,32 21,84c-1,102 -31,139 -131,166c-24,7 -43,15 -43,19c1,38 79,56 154,37c28,-7 53,-12 54,-10c8,7 -103,35 -139,35c-59,0 -64,37 -8,60c30,13 126,9 163,-6c13,-5 17,-4 12,4c-3,6 -28,14 -54,18c-69,10 -85,20 -71,46c17,32 112,20 186,-24zm-2066,-18c4,-19 9,-61 12,-92c5,-49 3,-57 -11,-56c-20,1 -164,-47 -204,-68l-28,-14l30,46c29,46 47,94 70,182l11,43l57,-3c56,-3 56,-3 63,-38zm1224,8c10,-23 13,-24 60,-27c32,-1 31,-9 -3,-68c-15,-26 -36,-68 -47,-93c-10,-25 -22,-49 -27,-54c-4,-6 -8,52 -8,127c0,75 3,137 8,137c4,0 12,-10 17,-22zm1652,-75c-2,-21 -4,-6 -4,32c0,39 2,55 4,38c2,-18 2,-50 0,-70zm-3652,71c15,-10 29,-33 36,-57c14,-53 66,-134 112,-174c65,-57 210,-81 300,-49c44,16 48,12 10,-8c-47,-24 -122,-103 -172,-181l-47,-74l-22,68c-27,83 -94,174 -192,262l-70,63l0,76c0,68 4,90 17,90c2,0 15,-7 28,-16zm3182,-31c-3,-10 -5,-2 -5,17c0,19 2,27 5,18c2,-10 2,-26 0,-35zm-1830,-20c-3,-10 -5,-4 -5,12c0,17 2,24 5,18c2,-7 2,-21 0,-30zm488,-160c2,-151 1,-168 -5,-88c-10,126 -12,290 -4,282c3,-3 7,-90 9,-194zm399,165c26,-17 59,-48 73,-69c27,-42 25,-76 -4,-65c-9,4 -35,9 -58,12c-74,10 -91,-28 -75,-167c12,-104 35,-138 82,-123c21,6 51,60 67,122c22,78 45,47 62,-85l12,-90l-33,-67l-32,-68l11,-351c7,-194 13,-363 14,-375l2,-24l-294,2c-162,0 -298,3 -303,6c-4,3 -8,58 -9,122c-1,64 -4,155 -8,202l-6,85l72,215c103,310 213,594 262,678c40,69 43,72 80,72c25,0 53,-10 85,-32zm780,-20c3,-24 7,-72 10,-108l6,-65l-23,55c-13,30 -35,74 -50,97c-25,39 -36,65 -21,51c3,-3 17,-2 32,2c15,5 30,9 34,9c4,1 9,-18 12,-41zm-3154,-39c130,-84 310,-261 310,-305c0,-14 -86,-58 -175,-90c-22,-8 -87,-16 -145,-18c-85,-3 -129,-11 -228,-41c-181,-53 -348,-85 -453,-85c-49,0 -89,3 -89,8c0,4 13,48 28,97c26,85 30,90 57,93c17,2 36,8 43,14c9,8 17,6 30,-4c23,-21 54,-29 71,-19c9,6 26,0 49,-16c44,-29 76,-25 113,16c15,16 38,32 50,36c13,4 34,16 46,27c16,15 29,18 52,13c44,-10 100,20 118,63c8,19 12,41 8,50c-3,8 3,23 15,34c21,20 27,62 10,73c-6,3 -5,15 2,30c10,21 8,29 -10,48c-20,21 -21,37 -3,37c4,0 49,-27 101,-61zm3343,-108c3,-35 2,-59 -3,-55c-4,5 -10,56 -13,114c-5,109 6,68 16,-59zm-1866,57c-2,-18 -4,-6 -4,27c0,33 2,48 4,33c2,-15 2,-42 0,-60zm330,20c-2,-13 -4,-5 -4,17c-1,22 1,32 4,23c2,-10 2,-28 0,-40zm893,41c0,-4 -7,-12 -15,-19c-28,-23 -18,-47 27,-62l43,-15l-73,-18c-91,-22 -106,-35 -98,-89c19,-128 27,-209 24,-252c-3,-46 -5,-50 -38,-61c-32,-11 -33,-12 -8,-12c45,-1 58,22 58,102c0,40 -7,110 -15,157c-8,46 -12,93 -9,102c3,11 26,24 62,34c31,8 70,19 85,24c46,15 78,-9 40,-28c-10,-5 -40,-15 -68,-22c-27,-7 -56,-20 -62,-28c-17,-21 -16,-100 3,-252c8,-69 17,-237 20,-374c3,-137 7,-253 9,-256c3,-4 -19,-25 -47,-46c-55,-41 -62,-57 -28,-62c11,-2 20,-8 20,-13c0,-5 13,-9 30,-9c22,0 28,-4 24,-15c-3,-8 4,-28 15,-44c25,-34 26,-76 7,-163c-9,-38 -16,-159 -20,-309l-7,-246l26,-17c15,-10 29,-16 31,-13c2,2 -7,10 -21,17c-24,13 -25,18 -25,94c0,45 3,97 6,117c6,36 6,37 26,17c25,-25 60,-20 75,12c6,14 17,83 25,155c15,153 2,140 180,179c116,26 522,96 556,96c23,0 49,-57 33,-73c-14,-14 -14,-54 -1,-62c6,-4 2,-21 -10,-45c-20,-38 -28,-120 -12,-120c4,0 14,6 21,13c10,10 11,6 5,-18c-4,-16 -8,-32 -10,-34c-2,-2 2,-11 10,-20c12,-13 12,-24 4,-57c-14,-51 -5,-78 21,-69c19,6 19,4 4,-59c-13,-58 -13,-69 0,-96c11,-21 13,-39 7,-60c-8,-29 8,-58 25,-42c4,4 4,-4 0,-18c-12,-41 -11,-45 13,-44c19,1 22,-3 17,-20c-11,-41 -18,-158 -9,-164c24,-18 30,-54 28,-160c-1,-62 -5,-125 -9,-141c-5,-23 -1,-32 15,-44c20,-14 21,-18 10,-78c-10,-54 -9,-65 4,-74c13,-10 13,-17 1,-60c-10,-33 -12,-52 -5,-60c7,-8 5,-24 -5,-49c-8,-20 -13,-46 -10,-59c8,-34 -8,-49 -54,-49c-40,1 -41,0 -82,-71c-22,-40 -44,-78 -47,-85c-4,-7 -22,-23 -41,-35l-34,-21l7,34c6,33 17,52 86,147c41,56 49,111 57,363c5,176 3,210 -10,243c-25,59 -54,49 -94,-33l-32,-65l0,58c-1,62 -18,114 -45,136c-26,22 -53,-10 -77,-92c-11,-38 -22,-67 -25,-65c-2,3 -8,29 -14,58c-10,55 -33,90 -56,90c-23,0 -40,-41 -58,-132c-26,-141 -50,-195 -104,-231c-25,-18 -78,-55 -118,-83l-72,-52l-25,27c-55,59 -56,65 -59,253c-3,168 -2,177 18,200c34,37 56,88 50,114c-4,13 -19,36 -36,51c-26,25 -31,40 -44,132c-11,71 -21,110 -33,120c-15,14 -16,14 -5,0c6,-8 19,-64 28,-123c15,-99 20,-111 50,-142c41,-40 42,-60 9,-105c-58,-79 -60,-95 -48,-318l6,-122l39,-44l39,-45l-31,-63c-17,-34 -33,-80 -35,-102c-5,-35 -4,-34 10,12c31,112 65,150 215,245c30,20 67,48 82,64c30,33 60,121 83,238c8,44 20,83 26,87c20,12 37,-1 48,-34c17,-54 33,-232 30,-321c-2,-46 0,-82 4,-79c5,3 7,66 7,141c-2,139 3,167 55,295c14,33 42,20 61,-29c16,-42 16,-60 6,-202c-7,-87 -11,-175 -11,-197c2,-37 2,-35 9,15c5,30 8,87 9,126c1,63 6,81 44,155c23,46 47,85 54,87c31,9 38,-41 36,-243c-2,-240 -12,-324 -47,-374c-14,-20 -39,-56 -55,-80c-17,-24 -36,-61 -41,-82c-6,-23 -18,-40 -30,-44c-11,-4 -20,-15 -20,-26c0,-16 -5,-18 -25,-13c-16,4 -35,0 -51,-11c-23,-15 -25,-22 -20,-55c8,-49 -11,-152 -31,-167c-13,-10 -17,-40 -22,-137c-3,-68 -8,-126 -11,-128c-3,-2 -14,-8 -25,-14c-17,-10 -20,-20 -17,-78l3,-67l-255,2c-141,0 -259,5 -262,10c-3,5 -13,5 -23,0c-10,-6 -92,-9 -182,-8l-164,2l-3,88l-3,87l116,0c139,0 177,12 194,61c20,56 31,260 29,534c-1,143 -3,235 -5,204l-4,-57l-666,3c-504,2 -667,6 -673,15c-4,7 -10,40 -14,75c-3,34 -13,85 -22,114c-25,84 -58,92 -363,91c-212,0 -274,-9 -289,-38c-5,-9 -17,-70 -27,-134l-17,-118l-673,0c-370,1 -677,0 -682,-1c-36,-6 -35,-17 -29,564c3,309 8,614 11,677c2,63 7,182 10,264c4,91 11,161 20,182c20,48 62,65 182,75c118,9 2356,4 2829,-7c170,-3 317,-11 326,-15c25,-13 39,-45 48,-103l8,-51l1,43c2,62 -41,132 -80,132c-24,0 -27,24 -39,408l-12,342l32,67c30,62 32,72 26,137c-9,93 -24,147 -47,169c-23,22 -23,21 -3,55l16,27l-20,-22c-11,-13 -23,-23 -26,-23c-4,0 -1,10 5,23c11,20 11,21 -4,8c-14,-11 -17,-11 -17,0c-1,9 -8,6 -19,-8c-14,-17 -30,-23 -60,-23c-36,0 -41,3 -41,24c0,41 23,51 84,36c58,-14 76,-9 76,20c0,13 8,20 28,22c19,2 28,9 30,25c2,12 10,23 19,25c30,6 143,3 143,-3zm-3791,-80c22,-11 48,-18 58,-16c10,3 28,8 40,12c18,5 23,0 32,-28c15,-46 53,-79 92,-82c22,-1 35,-9 40,-22c4,-11 19,-23 33,-27c16,-4 26,-13 26,-25c0,-10 10,-30 21,-45c20,-26 21,-29 6,-69c-9,-23 -35,-109 -58,-192c-23,-82 -50,-169 -60,-192l-18,-42l-67,6l-67,6l-46,-52c-45,-51 -47,-51 -78,-39c-44,17 -62,1 -44,-38c14,-33 8,-41 -102,-129c-76,-60 -94,-69 -222,-104c-33,-9 -51,-23 -94,-81c-37,-48 -60,-70 -75,-70c-49,1 -101,20 -119,44c-10,15 -27,26 -38,26c-28,0 -32,20 -14,63c11,27 13,43 5,57c-7,13 -7,33 2,65c9,35 10,52 0,77c-10,28 -9,34 18,64c16,19 32,49 36,69c4,25 12,35 24,35c26,0 60,47 60,81c0,16 5,29 11,29c5,0 16,15 24,34c11,25 23,36 45,41c71,16 134,105 128,181c-3,39 0,45 23,54c32,14 59,59 59,100c0,20 10,44 25,62c14,16 28,47 31,69c4,21 10,36 15,33c10,-6 61,19 78,39c9,12 18,13 39,5c22,-9 35,-7 58,4c16,9 30,16 31,17c1,1 20,-8 42,-20zm2041,-6c0,25 80,25 81,0c0,-11 3,-13 6,-5c8,19 80,15 92,-5c6,-10 11,-12 11,-5c0,6 9,12 20,12c14,0 20,-7 20,-22c0,-20 1,-20 13,-5c10,14 17,15 50,5c20,-6 37,-15 37,-20c0,-5 4,-7 9,-4c15,10 41,-5 41,-23c0,-12 2,-13 9,-3c6,11 15,10 44,-4c21,-10 37,-24 37,-31c0,-8 4,-12 8,-9c5,3 19,-2 31,-10c16,-11 20,-22 15,-37c-5,-18 -4,-20 7,-10c10,11 18,8 41,-14c23,-22 25,-29 15,-41c-10,-13 -9,-14 3,-10c20,7 50,-20 43,-38c-3,-9 0,-14 6,-12c7,2 22,-15 34,-37c12,-22 25,-42 28,-45c3,-3 14,-20 23,-38c14,-28 15,-36 4,-50c-11,-13 -11,-15 4,-9c12,4 21,0 28,-13c6,-11 7,-20 3,-20c-4,0 -3,-4 3,-8c6,-4 28,-39 48,-79c25,-51 40,-71 50,-67c33,13 66,-207 66,-443l0,-113l-340,0c-313,0 -340,1 -349,18c-10,20 -31,253 -31,352c0,92 14,107 110,125c41,8 140,21 219,29c79,9 146,18 150,22c7,7 -77,0 -254,-22c-170,-21 -181,-23 -211,-51l-27,-25l7,-156c3,-87 9,-185 12,-219l7,-63l-390,0c-214,0 -445,-3 -513,-7l-123,-6l6,89c8,105 35,323 43,336c3,4 13,4 24,-2c25,-13 34,1 54,90c32,136 79,271 94,265c10,-3 11,1 7,16c-8,25 53,132 72,125c7,-3 10,1 6,10c-5,13 5,32 42,79c14,17 17,18 26,5c9,-13 10,-13 6,1c-3,10 6,27 22,43c31,30 41,32 41,11c0,-8 5,-15 10,-15c7,0 7,6 1,19c-9,15 -6,22 14,35c14,9 25,13 25,9c0,-5 4,-3 8,3c4,6 35,25 69,43c57,28 63,29 72,13c9,-15 10,-15 11,4c0,17 10,24 46,34c36,10 47,11 54,1c5,-9 9,-8 14,6c7,17 8,17 22,-1c12,-17 14,-18 14,-3zm677,-20c-3,-10 -5,-4 -5,12c0,17 2,24 5,18c2,-7 2,-21 0,-30zm1956,-98c4,-60 3,-69 -3,-35c-9,46 -13,127 -6,119c2,-2 6,-40 9,-84zm-1143,65c0,-5 -5,-10 -11,-10c-5,0 -7,5 -4,10c3,6 8,10 11,10c2,0 4,-4 4,-10zm-823,-77c-2,-16 -4,-3 -4,27c0,30 2,43 4,28c2,-16 2,-40 0,-55zm1217,55c11,-43 7,-86 -10,-92c-24,-9 -34,-7 -34,7c0,7 -6,22 -14,32c-14,19 -15,19 -34,2c-20,-18 -21,-18 -32,3c-15,27 -11,31 53,52c68,21 64,21 71,-4zm-375,-7c12,-8 12,-15 -3,-45c-22,-46 -59,-57 -84,-26c-17,21 -19,21 -35,5c-16,-15 -17,-14 -17,29l0,46l63,0c34,0 68,-4 76,-9zm702,-83c-9,-31 -9,-31 -10,-6c-1,30 11,67 16,51c2,-6 0,-26 -6,-45zm-721,-18c0,-21 -31,-70 -50,-80c-15,-8 -24,-6 -40,10c-30,30 -26,60 8,61c15,0 36,4 47,9c28,12 35,12 35,0zm400,-9c0,-11 -7,-27 -15,-35c-13,-13 -20,-13 -35,-3c-25,15 -33,34 -18,43c7,4 8,3 4,-4c-5,-8 1,-12 17,-12c14,0 27,7 31,15c8,21 16,19 16,-4zm762,-108c2,-40 0,-67 -4,-60c-4,7 -7,46 -7,87c1,88 7,75 11,-27zm-1795,-105c-2,-29 -3,-6 -3,52c0,58 1,81 3,53c2,-29 2,-77 0,-105zm-1667,28c0,-3 -4,-8 -10,-11c-5,-3 -10,-1 -10,4c0,6 5,11 10,11c6,0 10,-2 10,-4zm173,-10c7,-17 -20,-30 -29,-14c-4,7 -3,8 4,4c7,-4 12,-1 12,8c0,20 6,20 13,2zm3480,-46c3,-34 2,-47 -3,-35c-8,19 -14,103 -6,94c2,-2 6,-29 9,-59zm-441,0c3,-16 1,-30 -4,-30c-4,0 -8,14 -8,30c0,17 2,30 4,30c2,0 6,-13 8,-30zm-3562,-3c0,-7 -4,-6 -10,3c-8,12 -10,12 -10,-5c0,-16 -2,-17 -10,-5c-6,9 -5,17 3,22c14,8 27,1 27,-15zm167,-59c-3,-8 -6,-5 -6,6c-1,11 2,17 5,13c3,-3 4,-12 1,-19zm20,0c-3,-8 -6,-5 -6,6c-1,11 2,17 5,13c3,-3 4,-12 1,-19zm-677,-13c0,-8 -4,-15 -10,-15c-5,0 -7,7 -4,15c4,8 8,15 10,15c2,0 4,-7 4,-15zm17,-27c-3,-7 -5,-2 -5,12c0,14 2,19 5,13c2,-7 2,-19 0,-25zm989,0c-4,-13 -20,-72 -36,-133c-15,-60 -33,-111 -39,-113c-15,-5 -14,11 1,26c9,9 9,12 -1,12c-8,0 -11,6 -7,17c6,15 4,15 -14,-2c-24,-22 -27,-44 -3,-24c14,12 16,12 11,-1c-2,-8 -13,-15 -22,-15c-10,0 -24,-9 -32,-19c-7,-11 -17,-17 -20,-13c-4,3 8,24 26,47c17,22 27,40 21,40c-6,0 -11,-3 -11,-7c0,-14 -69,-89 -70,-76c0,6 11,25 25,41c14,17 25,34 25,38c0,5 -17,-11 -38,-36c-34,-38 -45,-45 -83,-47c-76,-5 -165,-41 -199,-79c-35,-40 -37,-55 -11,-78c26,-24 76,-36 154,-37c50,-1 67,-5 67,-15c0,-8 5,-14 11,-14c5,0 8,4 4,9c-3,5 -1,12 5,16c5,3 11,-2 11,-12c1,-17 2,-17 6,0c2,9 7,17 10,17c3,0 12,-8 19,-17c12,-16 12,-16 7,5c-4,16 -1,22 11,22c14,0 15,-13 10,-107c-4,-60 -10,-112 -14,-116c-4,-4 -90,-5 -192,-1l-186,7l-7,121c-3,67 -7,156 -8,199c-2,76 -1,80 28,104c33,27 266,182 303,202c13,7 21,15 19,18c-8,8 -264,-157 -316,-203c-45,-41 -46,-43 -46,-100c0,-33 4,-122 8,-200l8,-141l-213,-5c-187,-4 -219,-8 -260,-26c-73,-32 -80,-55 -88,-262l-6,-175l-22,47c-22,45 -53,164 -107,402c-22,95 -31,119 -46,123c-10,3 -19,8 -20,12c0,3 -8,72 -17,154c-18,144 -17,148 2,178c19,31 19,31 86,24c76,-8 93,2 105,56c6,27 10,30 34,25c14,-4 87,-9 161,-12c159,-7 285,11 525,75c105,28 171,40 220,40c39,0 95,7 125,15c83,21 94,20 86,-6zm-672,-33c3,-9 0,-15 -9,-15c-8,0 -15,7 -15,15c0,8 4,15 9,15c5,0 11,-7 15,-15zm3866,-60c18,11 224,14 237,3c7,-6 25,-7 40,-3c44,12 253,13 253,2c0,-6 18,-7 45,-4c27,4 47,2 51,-4c3,-6 15,-9 25,-6c10,3 22,1 25,-4c3,-5 14,-9 24,-9c33,0 27,-34 -17,-96c-24,-34 -49,-77 -57,-95c-16,-39 -37,-164 -61,-359c-9,-74 -21,-142 -26,-150c-28,-46 -41,-91 -45,-169c-3,-47 -12,-118 -20,-158c-8,-40 -14,-74 -14,-76c0,-3 -30,-15 -66,-28c-37,-13 -69,-29 -71,-36c-6,-14 17,-54 52,-93l23,-25l-33,-280c-19,-154 -43,-354 -55,-445c-11,-91 -24,-198 -28,-239c-5,-54 -11,-75 -22,-77c-8,-1 -23,-5 -32,-9c-20,-8 -23,2 -8,25c5,9 5,17 -1,21c-6,3 -6,16 2,35c6,16 13,52 14,79c1,28 6,67 10,88c6,30 5,37 -8,37c-13,0 -14,7 -9,38c11,61 8,107 -5,104c-12,-2 -18,11 -13,33c6,34 6,276 -1,280c-4,3 -6,12 -2,20c3,10 -1,15 -12,15c-16,0 -17,7 -12,58c3,31 9,74 13,96c7,36 6,38 -15,31c-21,-6 -22,-5 -16,29c6,30 4,36 -9,36c-15,0 -16,7 -10,45c4,30 3,45 -5,45c-14,0 -14,60 -1,118c12,51 6,66 -21,52c-23,-13 -25,3 -7,62c9,32 9,41 -1,48c-10,5 -11,20 -6,50c7,40 6,43 -14,37c-17,-4 -21,-1 -21,21c0,15 9,47 20,71c15,32 17,47 9,57c-8,9 -7,23 2,49c11,31 11,38 -1,46c-13,8 -10,13 13,32l27,23l-28,21c-18,13 -41,20 -61,19c-18,-1 -34,1 -37,5c-2,4 -49,5 -104,3c-83,-3 -100,-1 -100,11c0,21 -33,19 -130,-9c-61,-18 -86,-22 -91,-14c-6,9 -25,8 -76,-2c-84,-16 -240,-22 -248,-9c-4,5 -17,9 -30,9c-23,0 -37,19 -39,55c-1,14 -8,20 -26,21c-30,1 -70,14 -70,23c0,3 23,21 50,40c53,36 56,41 39,58c-9,9 -3,17 22,32c22,13 34,29 34,42c0,17 12,26 53,42c35,13 52,25 52,37c0,13 17,22 65,35c50,13 65,21 65,36c0,27 34,45 123,64c44,10 77,22 77,29c0,23 62,42 115,35c28,-3 76,-1 110,6c51,11 62,11 72,-2c6,-8 17,-12 23,-8zm-4617,-192c9,-3 24,0 32,7c9,7 17,11 19,9c8,-10 16,-149 8,-149c-5,0 -19,11 -32,25c-13,14 -30,23 -37,21c-23,-9 -44,5 -38,25c3,10 1,28 -5,39c-13,25 -4,44 19,35c9,-4 24,-10 34,-12zm1287,-21c0,-19 -7,-30 -22,-37c-13,-6 -29,-28 -39,-55l-17,-45l-98,0c-139,0 -180,21 -158,79c8,20 65,55 117,72c23,7 81,13 130,13l87,1l0,-28zm5553,-4l27,-33l28,34l29,34l11,-31c6,-18 18,-32 26,-32c8,0 23,-13 33,-30c20,-34 29,-37 54,-14c16,15 20,14 50,-3c24,-13 33,-15 36,-5c3,6 11,12 18,12c7,0 21,12 30,27l18,26l27,-33l27,-33l41,41c40,40 42,41 71,26c16,-8 32,-22 35,-30c4,-10 12,-14 22,-10c11,4 22,-1 31,-14c21,-30 37,-25 77,23l37,42l29,-34c26,-30 32,-33 67,-27c21,4 50,7 64,7c18,0 39,13 63,39c42,46 52,49 62,18c12,-43 24,-50 50,-33c19,12 27,13 43,3c17,-10 26,-8 60,20c26,21 41,28 44,19c4,-9 7,-9 18,1c7,6 17,12 21,12c16,0 7,-27 -23,-68c-17,-24 -35,-59 -41,-80c-5,-20 -10,-41 -11,-47c-2,-5 -9,-20 -15,-32c-7,-13 -10,-23 -6,-23c3,0 -1,-11 -10,-25c-10,-15 -14,-34 -10,-49c3,-14 -1,-37 -10,-55c-10,-18 -14,-41 -10,-55c3,-13 0,-34 -6,-46c-9,-18 -9,-24 0,-30c9,-5 8,-20 -6,-61c-9,-30 -21,-62 -25,-71c-5,-10 -9,-29 -9,-43c0,-34 -27,-85 -45,-85c-8,0 -19,-9 -25,-21c-20,-37 -19,-16 6,96c27,128 30,171 9,182c-12,7 -13,16 -4,47c13,48 -4,90 -33,83c-10,-3 -18,-1 -18,4c0,5 -8,13 -17,16c-10,4 -23,14 -30,22c-9,13 -14,13 -24,4c-9,-9 -18,-8 -37,7c-33,26 -47,25 -71,-6l-21,-26l-10,26c-12,33 -39,33 -70,1c-21,-23 -24,-23 -36,-7c-12,16 -15,15 -43,-12c-24,-23 -34,-27 -43,-18c-9,9 -15,9 -26,0c-11,-10 -18,-8 -34,12c-20,24 -20,24 -34,5c-14,-19 -15,-19 -38,10c-24,29 -24,30 -45,11c-17,-16 -23,-17 -37,-5c-12,10 -20,10 -35,1c-16,-10 -21,-10 -25,3c-10,26 -38,16 -68,-25c-17,-22 -33,-40 -37,-40c-4,0 -14,12 -24,26c-13,20 -23,25 -43,21c-21,-4 -35,2 -60,26c-29,29 -35,30 -54,18c-20,-12 -24,-11 -36,8c-20,29 -39,26 -57,-9c-10,-20 -20,-27 -31,-23c-10,4 -17,-1 -21,-15c-3,-13 -10,-19 -19,-15c-8,3 -14,0 -14,-6c0,-19 32,-12 37,8c3,13 11,17 24,14c15,-4 22,2 30,26c13,37 21,39 42,9c13,-20 18,-21 36,-11c26,16 42,9 70,-28c19,-25 25,-28 43,-18c18,10 25,7 51,-21l31,-33l15,24c9,13 26,35 39,49c21,24 22,24 37,6c12,-16 17,-17 30,-6c13,11 19,10 36,-6c20,-18 21,-18 38,5l18,23l21,-28c18,-25 23,-27 41,-17c17,11 22,10 35,-8c11,-16 18,-19 32,-11c9,5 26,7 36,4c14,-3 27,4 43,24c21,25 24,27 30,12c10,-25 24,-22 56,8c29,28 49,25 49,-7c0,-27 26,-24 46,6c20,30 35,32 60,4c12,-14 25,-18 41,-14c17,4 23,1 23,-11c0,-10 5,-14 15,-10c8,3 19,-2 23,-11c6,-9 16,-14 25,-10c21,8 30,-23 22,-73c-8,-48 -8,-55 4,-55c5,0 13,-3 17,-7c8,-9 -43,-279 -92,-483c-18,-77 -40,-173 -49,-214c-18,-86 -24,-98 -37,-80c-8,11 -9,10 -4,-4c5,-16 -26,-74 -59,-108c-8,-9 -15,-21 -15,-27c0,-16 -60,-52 -86,-52c-18,0 -20,5 -18,48c4,66 9,94 23,121c11,19 10,26 -3,39c-14,14 -21,10 -75,-47c-34,-35 -58,-67 -56,-71c9,-14 -69,-110 -87,-110c-10,0 -18,6 -19,13c0,10 -2,10 -6,0c-5,-15 -43,-18 -43,-4c0,5 -8,7 -18,4c-10,-2 -34,0 -53,5c-25,6 -33,13 -31,28c2,19 2,19 -13,0c-12,-16 -18,-17 -27,-8c-9,9 -6,18 16,41c55,58 14,89 -70,52c-26,-12 -52,-21 -58,-21c-6,0 -24,18 -40,40c-16,22 -32,38 -34,35c-2,-2 10,-22 27,-43c17,-22 31,-43 31,-46c0,-13 -23,-5 -46,17c-26,24 -30,56 -13,89c8,15 8,19 0,14c-7,-4 -11,1 -11,13c0,58 131,121 264,127c120,5 182,14 200,27c22,16 35,76 36,158c0,36 3,100 6,142l7,77l78,0c93,0 171,15 200,39c28,23 19,65 -17,84l-26,14l26,20c14,12 26,24 26,27c0,4 -16,-5 -35,-20c-45,-34 -57,-26 -15,10c41,34 27,34 -17,0c-19,-14 -37,-24 -39,-21c-3,3 7,14 22,26c15,11 22,21 16,21c-6,0 -14,-4 -17,-10c-10,-17 -25,-11 -18,7c5,12 -7,6 -32,-15c-22,-17 -46,-32 -55,-32c-10,1 -5,8 13,21c15,11 27,26 27,32c0,6 -15,-4 -34,-22l-33,-32l-76,7c-56,5 -81,3 -92,-6c-21,-18 -30,-5 -17,24c14,31 46,40 227,61c133,16 178,25 124,25c-41,0 -272,-30 -311,-41c-26,-7 -43,-19 -53,-39l-15,-29l-247,0c-137,-1 -273,-4 -304,-7l-56,-6l-6,38c-11,62 -8,91 8,98c10,4 15,18 13,48l-1,43l-6,-45c-3,-25 -10,-44 -16,-43c-6,2 -10,-27 -10,-70c-1,-72 -12,-137 -24,-137c-25,1 -32,24 -37,116c-8,147 -11,184 -23,242c-5,29 -10,79 -10,110c0,31 -4,70 -10,85c-6,16 -11,37 -11,47c0,17 2,18 43,2c23,-8 54,-26 68,-40c17,-15 29,-20 34,-13c3,6 17,8 31,5c25,-6 27,-4 38,48c4,16 12,27 18,25c7,-1 21,15 31,36c10,20 22,37 25,37c4,0 19,-14 35,-32zm-2423,-313c0,-12 17,-14 98,-13c53,1 102,-1 107,-4c6,-3 27,-4 48,-3c20,2 37,0 37,-4c0,-3 -75,-15 -167,-25c-93,-10 -204,-24 -248,-32c-173,-29 -322,-45 -377,-39l-56,7l5,36c7,45 9,48 26,34c9,-8 24,-9 47,-2c18,5 39,6 47,1c8,-4 57,1 110,11c73,14 98,16 104,7c5,-9 30,-6 96,14c104,30 123,32 123,12zm-4499,-69c57,-38 78,-43 96,-25c9,9 19,8 39,-5c14,-10 35,-16 45,-13c19,5 19,0 17,-91c-2,-54 1,-109 5,-123c6,-20 4,-31 -9,-44c-12,-11 -19,-38 -22,-75l-4,-58l-79,-6c-43,-4 -139,-16 -211,-26c-73,-10 -136,-16 -140,-12c-4,4 -10,20 -14,36c-6,27 -6,28 15,16c28,-14 53,-6 49,17c-2,15 4,17 36,14c37,-3 38,-2 32,23c-3,14 -23,53 -43,88c-23,39 -32,63 -25,66c18,6 14,33 -9,72c-12,19 -22,48 -24,65c-1,16 -5,38 -9,48c-5,10 -4,17 3,17c6,0 11,7 11,15c0,8 5,15 10,15c6,0 10,7 10,15c0,12 14,14 83,11c77,-3 88,-6 138,-40zm3936,12c-3,-7 -5,-2 -5,12c0,14 2,19 5,13c2,-7 2,-19 0,-25zm-4382,-29c2,-3 27,-68 56,-145c126,-342 119,-322 103,-328c-36,-14 -66,-5 -99,29c-29,31 -32,41 -28,75c4,25 2,40 -5,40c-7,0 -9,13 -5,35c4,26 2,36 -11,41c-9,3 -16,12 -16,19c0,7 -7,18 -15,25c-11,9 -14,23 -9,45c5,26 2,36 -15,47c-13,10 -19,21 -15,31c3,10 -3,25 -18,39c-13,13 -22,32 -20,44c3,19 7,20 48,14c24,-4 46,-9 49,-11zm5983,-71c6,-61 15,-95 25,-103c8,-6 80,-16 160,-23c162,-13 200,-23 195,-50c-7,-38 -90,-63 -333,-100c-49,-8 -53,-10 -22,-11c30,-1 39,-6 47,-27c14,-35 -3,-64 -38,-64c-15,0 -34,-5 -42,-10c-11,-8 -5,-10 25,-8c40,3 40,3 40,-32l0,-35l-75,2c-41,1 -127,8 -190,15l-114,13l-9,45c-12,64 -1,250 16,293c22,51 56,69 143,75c80,5 87,9 126,81c9,17 21,31 26,31c5,0 14,-41 20,-92zm-5231,-212c15,-55 37,-114 48,-130c18,-28 20,-42 15,-135l-5,-105l-75,-64c-41,-35 -110,-95 -152,-133c-78,-70 -78,-70 -78,-41c0,19 13,47 33,74c18,24 63,82 100,131c78,103 107,155 107,196c0,42 -34,71 -83,71l-40,0l6,56c3,31 13,64 23,75c14,16 15,25 6,62c-16,60 -4,185 17,189c12,3 20,-13 33,-72c10,-41 30,-120 45,-174zm3655,212c15,-26 15,-274 1,-322c-12,-41 -29,-43 -47,-7c-26,49 -20,257 9,339c7,19 23,14 37,-10zm3688,-103c-7,-8 -17,-15 -22,-15c-6,0 -5,7 2,15c7,8 17,15 22,15c6,0 5,-7 -2,-15zm-187,-21c32,-6 37,-10 37,-33c0,-36 22,-64 46,-60c11,2 27,22 39,47l20,43l50,-6c60,-8 94,-23 109,-48c25,-41 -72,-77 -208,-77l-73,0l-9,53c-8,46 -13,54 -44,69c-37,19 -29,22 33,12zm-7995,-177c69,-127 75,-131 164,-123c40,3 111,13 158,21c112,19 342,45 405,45c139,0 124,-79 -55,-310c-60,-76 -90,-123 -90,-140c0,-24 37,-409 60,-625c5,-55 21,-181 35,-280c13,-99 29,-223 35,-275c15,-126 69,-548 75,-582l5,-28l-111,0l-110,0l-52,40c-29,21 -71,47 -92,56c-58,24 -157,98 -183,137c-47,71 -47,87 3,339c25,128 57,291 71,362c27,136 27,187 0,64c-8,-40 -29,-149 -46,-243c-17,-93 -43,-221 -57,-284c-39,-174 -24,-222 97,-316c81,-63 170,-152 170,-172c0,-20 -35,-8 -79,26c-18,14 -44,34 -57,44c-13,10 -24,15 -24,10c1,-4 25,-27 54,-51c78,-62 106,-132 54,-132c-12,0 -43,14 -70,31c-28,16 -52,28 -55,25c-3,-2 14,-15 36,-28c22,-13 39,-27 38,-33c-4,-11 -164,-13 -318,-5c-115,7 -140,21 -223,121c-127,154 -131,167 -146,548c-5,140 -12,257 -16,260c-3,3 -4,-55 0,-129c3,-74 8,-200 12,-280c8,-201 17,-237 85,-337c16,-23 29,-44 29,-47c0,-3 -79,-6 -176,-6l-176,0l6,32c11,65 45,345 51,428c8,104 30,323 49,490c8,69 22,195 31,280c8,85 24,227 35,315c10,88 21,207 25,265c13,238 16,290 27,388c17,161 46,175 93,45c75,-208 105,-202 136,26c14,98 25,135 38,127c5,-4 32,-48 59,-99zm7238,47c36,-81 35,-81 414,-114c89,-8 129,-15 142,-27c47,-42 6,-71 -124,-89c-149,-21 -171,-25 -165,-30c2,-3 54,1 115,9c132,18 162,14 162,-19c0,-32 -18,-39 -147,-59c-62,-10 -113,-20 -113,-24c0,-4 46,1 103,11c127,22 146,22 154,3c10,-27 -27,-53 -110,-80c-101,-33 -153,-59 -167,-84c-5,-11 -10,-44 -10,-74c0,-50 -2,-55 -25,-61c-13,-3 -30,-16 -36,-29c-7,-12 -23,-32 -36,-44c-12,-12 -23,-28 -23,-36c0,-8 -11,-22 -25,-31c-18,-12 -25,-25 -25,-49c0,-26 -7,-37 -35,-55c-21,-13 -35,-30 -35,-42c0,-24 18,-25 64,-6l34,14l17,-46c10,-26 26,-61 36,-78c22,-36 23,-70 8,-175l-12,-76l-71,4c-49,3 -85,12 -117,29c-35,18 -61,24 -103,23c-45,-1 -61,3 -80,20c-15,14 -35,21 -64,21c-29,0 -42,4 -42,14c0,18 -22,26 -71,26c-21,0 -39,2 -39,4c0,2 15,48 34,102c148,428 231,686 271,847c49,199 69,257 86,257c5,0 21,-25 35,-56zm-416,-43c0,-10 -7,-54 -16,-97c-26,-126 -16,-197 60,-432l65,-203l-35,-97c-20,-53 -49,-137 -66,-187c-17,-49 -36,-93 -42,-97c-6,-4 -28,-8 -48,-8c-27,0 -38,4 -38,15c0,8 -6,14 -12,12c-9,-1 -13,10 -13,33l0,35l-78,-3c-72,-3 -78,-1 -73,15c14,45 -23,52 -141,27c-27,-5 -33,-3 -33,10c0,25 -31,19 -132,-25c-65,-28 -98,-37 -108,-31c-8,5 -24,6 -35,1c-39,-15 -65,-10 -77,16c-6,14 -17,25 -25,25c-8,0 -44,-29 -82,-64l-67,-63l-56,4c-54,3 -55,3 -81,-35c-14,-21 -41,-70 -60,-108c-21,-41 -50,-81 -73,-98l-37,-29l7,79c3,43 17,167 31,274c13,107 38,311 55,454l32,258l-30,32c-16,17 -35,41 -41,54c-11,21 -9,24 24,38c20,8 65,23 100,32c61,16 72,15 247,-6c101,-12 245,-25 321,-28c159,-8 143,-15 249,114c33,39 64,72 70,72c7,0 8,-22 3,-65c-13,-122 17,-137 92,-48c122,144 143,162 143,124zm-7947,-34c-10,-16 20,-38 43,-33c13,4 26,2 29,-4c3,-5 15,-10 26,-10c10,0 28,-9 40,-21c13,-13 38,-22 66,-25c26,-3 51,-11 58,-20c9,-13 20,-15 56,-8c24,5 51,8 59,9c8,0 21,4 28,9c8,5 18,4 25,-3c14,-14 54,-14 62,-1c3,6 15,10 25,10c10,0 25,6 33,14c8,9 24,12 36,9c11,-3 28,0 36,7c13,11 18,10 29,-5c7,-10 18,-15 23,-12c6,4 13,0 17,-8c3,-8 12,-15 19,-15c8,0 19,-11 25,-25c6,-14 18,-25 27,-25c17,0 18,-16 9,-109l-7,-61l-58,0c-56,0 -59,1 -65,28c-11,44 -33,82 -49,82c-23,0 -38,-40 -33,-91c3,-27 1,-46 -4,-43c-4,3 -8,11 -8,17c0,7 -9,27 -20,45c-17,27 -24,32 -35,22c-15,-13 -20,-32 -64,-295c-47,-274 -51,-297 -68,-329l-15,-30l-27,32c-31,38 -49,41 -55,10c-7,-31 -15,-149 -26,-363c-5,-99 -16,-274 -25,-390c-8,-115 -15,-289 -15,-385c0,-96 -3,-192 -6,-213c-6,-35 -9,-37 -42,-37l-35,0l7,207c4,115 11,273 16,353c5,80 10,182 10,228c0,78 1,83 24,94c14,6 28,18 31,27c3,9 12,153 20,321c16,337 40,583 61,617c8,12 44,39 81,59c79,44 78,43 71,49c-7,8 -165,-93 -172,-110c-13,-36 -46,-421 -55,-656c-6,-140 -13,-263 -16,-271c-4,-9 -13,-19 -21,-22c-12,-5 -14,32 -14,243c0,137 -3,256 -6,265c-9,23 -27,20 -54,-9c-28,-29 -45,-32 -55,-7c-8,21 -8,428 1,568c5,82 4,106 -10,132c-17,33 -43,41 -64,20c-19,-19 -14,-33 6,-15c26,23 31,22 46,-15c11,-27 12,-82 4,-288c-9,-241 -6,-377 8,-414c9,-24 34,-20 66,11c21,20 31,24 36,16c9,-14 7,-534 -1,-658c-5,-67 -23,-473 -30,-680l-2,-60l-540,0c-474,0 -540,2 -538,15c1,8 14,119 28,245c14,127 35,291 45,365c22,152 46,401 55,565c3,61 10,166 15,235c5,69 14,217 20,330c14,259 23,328 49,353c17,17 22,18 36,7c26,-21 42,-70 79,-237c19,-85 38,-158 41,-162c9,-9 -3,55 -37,198c-32,132 -32,197 -2,222c28,23 48,-3 71,-92c30,-117 91,-288 114,-321c24,-33 51,-43 79,-28c13,7 52,76 101,178c142,295 151,308 187,286c27,-18 30,-93 11,-284c-21,-199 -21,-205 -13,-198c3,4 14,85 24,181c9,96 21,180 24,185c8,13 -12,101 -27,120c-5,6 -20,12 -33,12c-30,0 -71,-55 -110,-146c-24,-56 -31,-65 -48,-60c-12,3 -66,6 -122,6l-100,0l-12,38l-11,37l5,-38c4,-26 2,-37 -5,-32c-6,3 -12,18 -12,33c-1,23 -3,22 -9,-8c-7,-38 -12,-32 -29,35c-10,38 -9,40 28,75c21,19 43,44 48,54c6,11 19,21 29,22c65,10 77,14 93,28c10,9 27,16 39,16c11,0 24,5 28,11c4,8 9,8 17,0c16,-16 49,-14 75,5c13,9 29,13 37,10c8,-3 25,-2 37,3c28,10 138,9 131,-2zm6857,-78c0,-17 -5,-29 -13,-29c-9,0 -12,11 -9,35c5,41 22,37 22,-6zm-8371,-12c17,-43 36,-50 111,-43c55,5 76,3 94,-10c16,-10 35,-13 58,-9c44,8 101,-15 88,-35c-6,-8 -10,-30 -10,-47c0,-32 9,-39 47,-34c9,1 8,-7 -2,-33c-19,-44 -19,-66 -1,-66c8,0 17,-21 25,-57c9,-47 8,-67 -4,-108c-9,-27 -13,-60 -10,-73c3,-12 -3,-39 -15,-62c-24,-46 -26,-86 -5,-94c8,-3 15,-14 15,-25c0,-11 6,-22 13,-24c30,-13 -21,-5 -58,8c-49,18 -77,19 -92,4c-9,-9 -18,-8 -37,5c-24,15 -26,15 -61,-15c-29,-26 -38,-29 -50,-19c-8,7 -15,18 -15,25c0,27 -30,40 -63,27c-27,-10 -34,-9 -52,8c-26,24 -48,25 -66,4c-10,-12 -24,-14 -70,-9c-37,4 -59,3 -63,-4c-9,-14 -65,-14 -121,1c-40,11 -47,10 -73,-9c-24,-18 -35,-20 -81,-12c-37,6 -60,5 -75,-3c-11,-7 -34,-12 -51,-12c-26,-1 -30,-5 -33,-33c-2,-17 -10,-37 -18,-43c-8,-7 -14,-30 -14,-54c0,-23 -4,-46 -10,-52c-6,-6 -7,-40 -1,-94c5,-55 4,-94 -2,-110c-6,-14 -12,-47 -14,-75c-1,-27 -5,-81 -8,-120c-3,-38 -6,-93 -8,-121c-1,-28 -8,-58 -15,-67c-9,-10 -11,-28 -7,-50c9,-46 -8,-55 -46,-23c-17,14 -37,26 -45,26c-8,0 -14,6 -14,13c0,13 -63,67 -78,67c-6,0 -12,7 -16,15c-3,8 -16,19 -29,24c-17,7 -27,20 -31,44c-3,18 -17,44 -31,57c-21,20 -25,33 -25,82c0,36 -6,68 -16,82c-13,21 -13,32 -2,85c11,56 10,65 -6,96c-18,33 -18,37 -2,79c10,25 18,71 19,104c2,48 7,66 31,97c24,31 29,47 27,85c-2,40 3,54 32,92c26,33 36,59 41,101c8,65 19,78 90,113c28,15 62,39 74,55c13,16 38,37 55,45c18,9 51,35 75,58c42,40 45,41 115,42c102,1 102,1 136,30c28,24 36,25 94,19c67,-7 83,-1 107,45c12,22 32,27 123,29c62,1 68,-1 76,-22zm9726,-114c-4,-10 -22,-72 -41,-138c-34,-117 -100,-314 -108,-322c-2,-3 -18,41 -35,96c-17,55 -34,107 -37,116c-4,10 0,15 15,15c23,0 90,77 160,183c45,67 59,83 46,50zm-7565,-161c55,-203 72,-252 86,-260c12,-7 12,-25 -1,-127c-23,-192 -104,-942 -110,-1035c-6,-76 -32,-302 -51,-432l-7,-48l-178,0l-179,0l0,183c0,100 7,283 15,407c8,124 22,342 30,485c16,283 21,325 36,325c5,0 14,-11 21,-24c14,-31 33,-39 51,-21c20,20 40,107 83,365c39,233 47,270 62,270c11,0 41,-83 78,-214c15,-55 30,-94 32,-88c2,7 -4,34 -13,60c-20,56 -36,249 -23,275c17,33 35,1 68,-121zm1370,-538c-10,-716 -2,-1011 27,-1089c26,-70 54,-83 200,-97c65,-5 123,-12 129,-13c9,-3 8,-20 -2,-67c-16,-75 -17,-88 -4,-68c5,8 12,38 16,66c3,28 9,55 12,61c4,6 52,8 123,5l116,-4l-81,-79l-81,-78l-272,-1c-150,0 -273,2 -273,5c0,3 -9,69 -19,148c-11,78 -29,219 -41,312c-11,94 -34,271 -50,395c-34,261 -53,433 -76,686c-16,169 -16,183 0,205c14,21 278,250 283,246c1,-1 -2,-286 -7,-633zm-2451,551c7,-31 23,-67 35,-82c40,-46 69,-18 110,110c3,9 12,17 20,17c12,0 11,-8 -6,-47c-12,-27 -34,-72 -50,-100l-30,-53l-56,6c-32,4 -60,9 -64,13c-9,8 -58,156 -58,175c0,12 11,16 43,16l44,0l12,-55zm10101,49c0,-3 -6,-15 -12,-27c-7,-12 -18,-47 -24,-77c-7,-30 -19,-80 -29,-110c-25,-82 -28,-107 -16,-115c16,-9 58,20 80,56c10,16 41,54 70,84c28,30 51,59 51,63c0,15 89,106 97,98c12,-12 6,-115 -10,-176c-17,-64 -10,-128 15,-144c15,-9 27,-1 74,49c31,33 79,90 106,128c28,37 54,67 58,67c3,0 32,25 63,56c39,39 62,54 73,50c15,-6 15,-8 0,-31c-9,-13 -16,-31 -16,-40c0,-8 -4,-23 -9,-33c-10,-19 -29,-122 -35,-192c-2,-25 -7,-60 -11,-77c-6,-28 -5,-33 12,-33c11,0 38,19 61,43c72,75 142,125 142,101c0,-3 -9,-22 -19,-42c-32,-62 -40,-84 -51,-146c-6,-36 -6,-64 -1,-69c8,-8 39,7 76,36c50,38 105,77 109,77c15,0 4,-41 -14,-50c-11,-6 -20,-19 -20,-30c0,-10 -5,-22 -11,-25c-13,-8 -59,-109 -69,-150c-4,-16 -9,-37 -11,-45c-3,-10 3,-14 17,-13c20,2 21,-1 13,-40c-4,-23 -10,-59 -14,-79c-5,-33 -10,-38 -55,-53c-56,-19 -75,-14 -60,15c8,14 6,21 -4,27c-8,4 -16,19 -18,33c-2,17 -10,26 -25,28c-16,2 -23,10 -23,24c0,19 -5,20 -50,16c-41,-4 -51,-2 -55,13c-8,24 -25,28 -76,18c-64,-12 -117,-11 -121,3c-4,10 -15,10 -54,1c-68,-17 -135,-15 -156,4c-13,12 -23,13 -47,5c-16,-6 -47,-8 -68,-5c-21,3 -55,1 -75,-5c-32,-9 -41,-7 -69,14c-18,13 -36,21 -40,18c-5,-3 -19,2 -31,10c-27,19 -61,20 -91,5c-18,-10 -23,-8 -35,10c-17,24 -35,27 -51,7c-10,-12 -39,-21 -94,-29c-19,-2 -104,-91 -112,-118c-3,-9 -12,-20 -19,-22c-8,-3 -17,-20 -21,-37c-7,-30 -9,-32 -43,-25c-21,4 -41,10 -46,15c-10,10 29,146 45,155c5,4 9,16 9,29c0,12 11,37 24,55c14,19 28,48 32,65c3,17 16,42 29,56c12,14 25,37 29,52c3,14 27,57 52,95c25,37 52,79 59,93c17,31 73,90 86,90c12,0 12,-33 -1,-46c-6,-6 -12,-50 -15,-98c-3,-48 -7,-92 -10,-96c-3,-4 1,-12 8,-18c9,-8 21,-3 43,16c40,35 124,136 124,149c0,6 6,16 14,22c8,7 35,43 61,82c26,38 51,69 55,69c4,0 31,23 60,50c29,28 61,50 71,50c11,0 19,-3 19,-6zm-8965,-90c5,-40 14,-64 31,-81l24,-24l-31,3c-30,3 -33,7 -50,68c-23,82 -23,90 0,90c15,0 20,-10 26,-56zm8771,-32c-18,-16 -19,-16 -12,1c3,10 6,24 6,30c0,8 4,7 12,-1c10,-10 8,-16 -6,-30zm-9837,-98c6,-6 -31,-44 -42,-44c-13,0 -57,40 -57,52c0,8 89,1 99,-8zm1121,-13c0,-31 -12,-81 -20,-81c-7,0 -30,68 -30,89c0,6 11,11 25,11c18,0 25,-5 25,-19zm8880,-51c0,-4 -9,-15 -19,-24c-26,-23 -37,-4 -20,36c12,28 13,29 26,12c7,-10 13,-21 13,-24zm-783,14c3,-9 -3,-24 -15,-37c-18,-18 -25,-19 -47,-9c-31,14 -32,35 -2,50c32,16 57,14 64,-4zm-202,-28c31,-34 52,-82 40,-94c-12,-12 -135,63 -135,82c0,15 32,46 48,46c8,0 29,-15 47,-34zm108,1c7,-17 -19,-77 -33,-77c-6,0 -8,-4 -5,-10c3,-5 2,-17 -3,-26c-6,-11 -12,-13 -16,-6c-3,6 -2,13 4,17c6,4 5,19 -5,42c-19,44 -20,40 13,57c34,19 39,19 45,3zm47,-46c14,-28 12,-112 -4,-159c-14,-38 -13,-48 20,-169c19,-70 34,-143 34,-160c0,-32 -2,-33 -40,-33c-43,0 -60,-18 -60,-64c0,-34 -32,-43 -80,-21c-34,15 -40,16 -68,1c-28,-14 -32,-14 -53,2c-21,18 -21,21 -11,98c19,136 18,143 -21,225c-20,42 -37,81 -37,88c0,13 47,34 60,26c4,-3 15,7 25,21c12,19 23,24 38,20c25,-6 48,10 41,28c-7,18 25,29 42,15c20,-16 37,1 59,56c18,48 38,57 55,26zm-220,-11c10,-10 28,-37 40,-60c19,-37 19,-40 3,-40c-10,0 -27,7 -37,15c-11,8 -29,15 -41,15c-27,0 -45,18 -45,45c0,45 46,59 80,25zm314,-35c25,-4 46,-11 46,-15c0,-4 11,-5 25,-2c19,3 25,0 25,-14c1,-18 1,-18 11,-1c5,9 16,17 24,17c12,0 12,-6 0,-41c-8,-22 -26,-54 -40,-71c-14,-16 -25,-39 -25,-50c0,-12 -11,-36 -25,-54c-14,-18 -25,-41 -25,-51c0,-10 -7,-28 -15,-40c-8,-12 -19,-38 -23,-59c-7,-36 -9,-32 -41,90c-31,118 -33,133 -22,176c7,26 12,66 13,89c0,30 4,41 13,37c7,-2 33,-8 59,-11zm-244,-10c10,-12 10,-15 -3,-15c-8,0 -17,7 -21,15c-3,8 -2,15 3,15c5,0 14,-7 21,-15zm620,7c0,-10 -41,-35 -47,-28c-11,11 7,36 27,36c11,0 20,-3 20,-8zm-755,-43c19,-17 35,-37 35,-45c0,-17 -1,-17 -36,1c-16,8 -37,15 -46,15c-21,0 -24,30 -6,48c15,15 12,17 53,-19zm49,-5c20,-8 21,-24 2,-24c-8,0 -16,7 -20,15c-6,17 -4,18 18,9zm-10110,-35c12,-15 24,-19 39,-14c43,13 61,11 65,-10c10,-50 38,-57 78,-20c30,28 44,31 62,13c8,-8 18,-9 34,-1c24,11 56,11 73,1c6,-3 24,-9 41,-12c27,-6 33,-13 39,-43c5,-29 10,-34 28,-31c20,4 23,0 23,-33l1,-37l-111,-4c-61,-3 -112,-5 -113,-4c0,0 -4,18 -8,39l-7,37l43,1c24,0 62,4 84,9c30,7 18,8 -42,3c-62,-4 -83,-2 -83,7c0,10 -3,10 -15,0c-12,-10 -15,-9 -16,6c0,18 -1,18 -8,-1c-8,-19 -8,-19 -19,0c-11,20 -11,20 -12,0l-1,-20l-9,20c-7,17 -9,17 -9,3c-1,-10 -5,-18 -11,-18c-5,0 -11,8 -11,18c-1,16 -2,16 -6,-1c-3,-12 -8,-15 -16,-9c-8,7 -16,5 -25,-4c-10,-11 -10,-14 0,-14c19,0 53,-113 37,-119c-19,-6 -59,-48 -59,-61c0,-27 58,-68 105,-76c49,-7 247,1 296,12c25,6 27,3 32,-38c2,-23 0,-62 -6,-86c-6,-29 -6,-47 0,-53c6,-6 8,-37 6,-73c-4,-40 -2,-66 5,-70c7,-4 8,-15 3,-29c-13,-36 -12,-166 2,-174c12,-8 18,-34 19,-85c1,-44 -98,-192 -167,-249c-33,-27 -62,-49 -65,-49c-3,0 -17,33 -33,74c-39,106 -97,177 -161,199c-5,2 -13,107 -16,235c-5,161 -10,236 -19,246c-8,9 -34,16 -64,18c-34,2 -51,7 -50,15c16,82 33,267 28,304c-10,70 -30,84 -122,82c-41,0 -108,-4 -149,-8c-73,-7 -74,-6 -75,17l-2,23l-4,-22c-6,-32 -23,-29 -23,5c0,19 -3,23 -9,13c-5,-7 -6,-22 -4,-32c3,-10 0,-19 -6,-19c-6,0 -12,15 -12,33l-2,32l-6,-35l-7,-35l-11,30l-11,30l-2,-30c-2,-30 -2,-30 -10,-5l-8,25l-1,-27c-1,-16 -5,-28 -11,-28c-5,0 -11,12 -11,28l-2,27l-4,-27c-3,-20 -12,-29 -41,-37l-37,-10l39,2c37,2 40,0 49,-33c6,-24 5,-36 -3,-38c-30,-10 -80,-66 -80,-89c0,-39 44,-71 108,-79c80,-10 282,11 336,35c79,34 99,103 43,145c-24,18 -45,21 -148,24l-119,4l0,27c0,27 2,28 68,34c95,10 225,8 241,-2c31,-20 31,-170 0,-327l-10,-52l-76,-7c-106,-10 -155,-26 -170,-55c-8,-15 -12,-60 -11,-115l1,-90l6,103c4,76 10,105 21,112c27,17 113,31 226,37c106,6 112,5 123,-15c12,-22 29,-562 18,-562c-4,0 -21,9 -39,20c-59,36 -83,18 -59,-44c5,-13 2,-25 -10,-37c-14,-14 -16,-24 -9,-48l9,-31l-45,0c-40,0 -44,2 -44,24c0,14 -5,28 -11,32c-6,3 -8,17 -4,31c8,34 -3,63 -25,63c-14,0 -20,9 -22,31c-5,49 -28,57 -74,25c-64,-43 -64,-42 -64,116c0,78 -2,139 -6,136c-10,-11 -5,-271 6,-282c8,-8 25,-3 61,17c54,30 69,28 69,-8c0,-36 -15,-69 -51,-109c-17,-20 -29,-39 -26,-42c4,-5 16,8 78,89c11,13 22,18 34,14c21,-9 15,-40 -21,-111c-13,-27 -22,-51 -20,-53c3,-3 14,14 26,36c40,80 56,17 17,-67c-21,-45 -23,-58 -16,-118c5,-36 6,-71 3,-75c-7,-11 -424,-12 -424,-1c0,18 50,173 89,276c56,145 86,204 129,249c20,20 31,37 25,37c-15,0 -69,-64 -91,-108c-10,-20 -34,-75 -52,-122c-18,-47 -35,-87 -37,-89c-7,-9 -95,84 -119,125c-43,74 -73,176 -69,244c2,33 8,67 14,74c7,8 12,31 12,52c0,22 2,68 4,104c2,36 6,94 8,130c2,36 9,74 15,86c8,14 8,46 2,105c-4,49 -4,91 1,101c5,9 9,34 9,56c0,22 6,45 14,52c8,6 16,24 18,38c2,22 7,26 26,24c13,-2 34,4 47,12c20,13 33,14 76,5c46,-10 54,-9 80,10c34,25 37,25 98,5c43,-14 52,-14 85,0c23,10 53,13 84,10c34,-4 53,-1 67,10c27,21 37,20 59,-5zm10047,-9c25,0 3,-20 -50,-44c-65,-29 -71,-30 -71,-16c0,16 83,71 98,65c7,-3 18,-5 23,-5zm-9903,-155c5,-16 13,-39 18,-49c5,-14 4,-17 -5,-12c-13,8 -27,39 -37,84c-9,35 9,18 24,-23zm37,-53c-6,-6 -35,67 -35,87c1,9 10,-6 20,-33c11,-28 18,-52 15,-54zm12,56c13,-47 9,-65 -5,-27c-19,50 -23,69 -15,69c5,0 14,-19 20,-42zm27,-13l6,-40l-14,35c-17,41 -20,68 -7,55c5,-6 12,-28 15,-50zm19,18c9,-51 2,-53 -11,-3c-5,22 -6,40 -2,40c4,0 10,-17 13,-37zm-657,-41c-10,-9 -15,2 -21,39l-5,34l15,-34c9,-18 14,-36 11,-39zm18,35c4,-19 3,-26 -4,-22c-5,3 -10,18 -10,32c0,32 5,28 14,-10zm26,1c0,-25 -3,-29 -10,-18c-13,20 -13,50 0,50c6,0 10,-15 10,-32zm-103,-13c6,-20 7,-35 2,-35c-5,0 -9,1 -9,3c0,1 -4,17 -9,35c-13,44 3,41 16,-3zm23,21c0,-8 3,-23 6,-33c5,-12 4,-15 -3,-8c-16,15 -26,55 -14,55c6,0 11,-6 11,-14zm11303,-47c39,11 49,11 68,-3c13,-9 32,-16 43,-16c11,0 30,-10 42,-21c20,-19 27,-20 55,-10c40,14 82,14 95,1c6,-6 21,-6 41,2c25,10 37,9 57,-1c32,-17 111,-18 160,-2c31,11 40,11 46,1c6,-10 30,-11 98,-6c86,6 91,5 97,-14c6,-18 12,-20 56,-14c42,6 49,4 49,-10c0,-9 11,-21 25,-26c18,-7 25,-17 25,-35c0,-14 4,-25 9,-25c5,0 8,-14 6,-32c-3,-41 -37,-52 -106,-35l-49,13l22,22c13,12 17,22 11,22c-6,0 -18,-11 -27,-25c-9,-14 -24,-25 -33,-25c-13,0 -14,3 -5,12c22,22 12,32 -11,10c-28,-26 -42,-28 -33,-5c6,16 5,16 -12,0c-12,-11 -48,-21 -100,-27c-127,-14 -178,-54 -130,-102c11,-11 17,-22 15,-25c-3,-3 -46,1 -95,8l-90,13l26,52c24,50 25,53 9,78c-10,14 -34,34 -55,45c-52,27 -226,76 -357,101c-60,12 -116,23 -122,25c-7,3 -13,1 -13,-4c0,-5 44,-16 98,-25c204,-36 413,-103 438,-142c15,-22 14,-27 -5,-68c-32,-65 -35,-66 -128,-49c-80,15 -82,15 -71,38c14,32 3,71 -26,90c-36,24 -199,55 -291,56c-106,1 -142,-15 -135,-60c1,-9 -4,-12 -15,-7c-9,3 -21,6 -26,6c-10,0 10,51 26,65c7,6 19,25 29,43c9,17 20,32 24,32c4,0 16,14 25,30c12,20 26,30 42,30c13,0 27,5 30,10c3,6 19,10 34,10c16,0 34,7 42,16c11,14 14,13 30,-7c16,-21 19,-22 62,-10zm-11093,-18c0,-34 24,-63 45,-55c8,3 20,21 27,40c15,41 39,44 74,8c44,-43 14,-100 -66,-125c-56,-17 -280,-32 -329,-23c-52,11 -87,49 -76,83c15,47 156,97 283,100c40,1 42,0 42,-28zm632,-17c17,-66 58,-67 73,-1c6,25 9,28 12,12c3,-11 9,-24 13,-30c5,-5 10,-28 11,-50c4,-38 3,-39 -36,-48c-22,-6 -102,-10 -177,-11c-124,-1 -139,1 -165,20c-66,49 -22,93 124,124c117,25 135,23 145,-16zm5210,-64c18,-8 32,-26 38,-49c20,-69 39,-237 50,-426c5,-104 15,-275 21,-380c11,-201 53,-522 95,-733c15,-70 27,-158 28,-197l1,-70l-35,-11c-71,-23 -392,-35 -685,-24c-309,10 -390,17 -404,34c-25,31 -13,188 34,441c18,99 39,216 45,260c11,75 66,349 125,619c14,65 39,203 56,305c39,246 34,229 72,240c51,16 526,8 559,-9zm5022,-94c9,-38 35,-40 54,-5c17,30 17,31 82,24c175,-16 259,-60 231,-121c-11,-25 -15,-26 -60,-20c-41,5 -222,47 -333,77c-44,11 -53,44 -15,59c32,13 34,12 41,-14zm1456,-5c15,-30 12,-88 -15,-296c-60,-455 -113,-735 -140,-735c-3,0 -11,16 -19,35c-23,54 -39,46 -70,-38c-12,-33 -25,-49 -40,-53c-43,-10 -949,2 -991,14c-44,12 -224,49 -325,66l-65,11l-8,45c-32,186 -30,168 -24,250c3,36 2,70 -3,75c-20,26 -17,65 7,87c21,20 24,29 18,64c-5,35 -2,46 25,79c34,43 37,57 25,105c-5,21 0,28 24,43c16,9 33,26 36,37c4,14 19,22 45,26c98,16 90,57 -17,89c-56,17 -87,21 -152,17l-81,-5l0,30c0,36 16,53 50,53c15,0 107,-20 206,-45c346,-88 640,-140 784,-139c59,1 279,63 540,153c80,27 153,50 162,50c10,1 22,-8 28,-18zm-355,-60c22,-9 12,-13 -198,-76c-104,-31 -122,-34 -145,-23c-30,15 -39,42 -22,63c18,22 38,18 42,-7c5,-37 47,-31 67,9c13,26 23,32 56,36c73,7 180,6 200,-2zm-6777,-138l-3,-28l-110,1c-60,1 -370,3 -688,5c-317,2 -577,7 -577,12c0,4 0,11 0,17c0,14 72,16 748,18l633,2l-3,-27zm1890,19c182,-2 192,-3 192,-21c0,-18 -9,-20 -87,-23c-49,-2 -350,-2 -670,0l-583,3l0,22l0,22l478,-1c262,0 564,-2 670,-2zm-2278,-318c0,-44 -12,-58 -24,-28c-8,21 -8,69 0,77c14,14 24,-6 24,-49zm-110,-4c0,-27 -4,-50 -10,-50c-5,0 -10,23 -10,50c0,28 5,50 10,50c6,0 10,-22 10,-50zm66,-32c-14,-136 -50,-880 -48,-978c1,-14 -4,-42 -9,-62c-7,-29 -16,-40 -37,-45l-27,-7l29,-6c16,-3 34,-12 39,-21c15,-24 -16,-68 -54,-76c-46,-9 -45,-23 3,-23c56,0 171,19 182,30c4,4 -3,18 -18,31c-14,12 -26,26 -26,31c0,4 33,7 73,6l72,-1l-63,-6l-64,-6l32,-24c28,-20 30,-25 18,-38c-31,-30 -295,-55 -300,-28c-1,6 26,23 60,40c78,37 84,52 32,72c-45,18 -50,28 -17,37c58,15 59,23 77,521c10,295 29,594 39,613c0,1 4,2 7,2c4,0 3,-28 0,-62zm-122,15c-11,-26 -19,-96 -25,-232c-5,-108 -16,-254 -24,-326c-30,-247 -55,-420 -66,-453c-14,-43 -57,-62 -141,-62c-109,0 -119,-32 -22,-65c32,-11 59,-24 58,-30c0,-5 -17,-18 -37,-28c-54,-27 -326,-38 -346,-13c-7,9 -10,16 -6,16c4,0 2,7 -5,15c-17,20 -152,20 -284,-1c-103,-17 -189,-15 -257,5c-42,13 -89,56 -89,81c0,46 109,106 275,150c155,41 165,71 43,130c-45,22 -84,42 -86,45c-3,2 1,12 8,21c17,20 7,27 -67,43c-30,7 -53,15 -50,17c5,6 107,-16 127,-27c8,-4 15,-19 15,-33c0,-21 12,-31 75,-63c54,-27 76,-44 78,-59c4,-30 -38,-61 -107,-80c-89,-24 -224,-75 -254,-96c-61,-44 -7,-110 101,-124c34,-4 94,-2 147,6c110,15 306,24 340,16c18,-5 25,-13 25,-31c0,-29 4,-29 140,-26c90,2 180,18 180,31c0,5 -13,11 -28,15c-16,3 -43,18 -61,33c-29,24 -31,29 -18,46c11,15 33,20 106,26c50,5 98,13 105,19c15,13 16,17 55,281c34,227 48,365 60,580c8,150 20,210 40,210c6,0 3,-17 -5,-37zm4696,-8c20,-24 112,-73 164,-87c47,-13 48,-12 73,16c17,20 27,26 32,17c4,-6 21,-14 37,-16c16,-3 44,-8 63,-11c20,-3 52,2 81,12c53,19 80,10 80,-26c0,-10 7,-23 15,-30c8,-7 15,-18 15,-25c0,-24 25,-35 57,-26c38,11 63,-3 63,-34c0,-13 5,-27 11,-30c6,-4 8,-22 4,-46c-6,-37 -5,-39 32,-56c21,-9 46,-24 55,-31c17,-14 17,-16 0,-44c-16,-28 -16,-30 3,-43c36,-25 56,-49 51,-62c-3,-7 -1,-15 5,-18c5,-4 7,-10 4,-15c-5,-8 -753,-12 -767,-4c-11,7 44,157 66,179c18,17 56,25 246,49c124,16 232,33 240,38c10,5 3,7 -20,3c-72,-10 -258,-34 -355,-47c-120,-15 -134,-25 -164,-122c-37,-118 28,-105 -524,-106c-266,0 -486,2 -489,5c-10,11 29,122 51,144c11,11 21,33 21,48c0,20 14,42 53,79c28,28 79,89 112,137c33,48 67,87 76,87c8,0 26,-11 39,-25c14,-14 33,-25 45,-24c11,2 34,-1 51,-5c44,-10 101,15 109,47c6,21 14,26 53,29c25,2 71,-1 103,-6c48,-8 61,-7 83,7c14,9 32,17 39,17c8,0 22,9 32,20c22,24 38,25 55,5zm-8910,-144c50,-52 81,-122 135,-303c24,-79 30,-111 21,-114c-6,-2 -79,-3 -161,-2l-150,3l3,40c2,25 -5,59 -17,89c-31,70 -27,88 9,49c44,-48 48,-40 6,11c-39,48 -56,84 -56,122c0,31 5,30 60,-6c60,-40 72,-38 19,3c-40,30 -78,101 -63,116c3,3 28,-7 56,-22c58,-32 80,-26 60,18c-33,71 9,69 78,-4zm355,17c-4,-13 -12,-44 -18,-71c-13,-55 -5,-68 42,-69c24,-1 30,-5 27,-17c-3,-9 -8,-49 -11,-89c-4,-41 -10,-86 -14,-100l-8,-27l-8,25c-7,23 -74,171 -96,213c-8,14 0,34 33,87c43,69 67,90 53,48zm-559,-200c5,-7 7,-25 6,-39c-1,-15 2,-38 7,-52c9,-22 7,-25 -21,-31c-17,-3 -52,-6 -79,-6c-48,0 -49,1 -49,30c0,17 9,49 20,70c19,38 23,40 65,40c24,0 47,-5 51,-12zm12059,-70c19,-40 37,-94 41,-121l6,-48l-126,2c-69,1 -126,5 -126,9c0,21 43,101 53,97c6,-2 16,-19 22,-38c20,-59 37,-42 63,69c14,56 27,102 29,102c2,0 19,-33 38,-72zm-6163,11c6,-4 5,-16 -5,-35c-8,-16 -22,-53 -31,-81c-17,-50 -20,-53 -51,-53l-33,0l-11,75c-17,114 -21,107 55,103c36,-1 70,-5 76,-9zm650,-96c69,-92 99,-146 86,-158c-2,-2 -44,16 -93,40c-49,25 -93,45 -97,45c-12,0 -10,-31 11,-111c19,-77 18,-149 -4,-149c-6,0 -24,23 -40,51c-32,59 -126,159 -150,159c-13,0 -14,-12 -9,-82c5,-73 3,-87 -16,-116c-17,-28 -23,-32 -35,-22c-8,7 -15,22 -15,34c0,25 -45,92 -104,154c-53,56 -76,55 -151,-8c-83,-68 -90,-67 -85,20c3,54 59,218 79,232c14,10 84,13 282,13l263,0l78,-102zm156,92c8,-3 12,-30 12,-90l0,-85l-44,0c-44,0 -45,1 -108,83c-36,45 -67,87 -71,93c-4,8 24,10 96,7c56,-3 108,-6 115,-8zm-1883,-37c-2,-18 -16,-103 -30,-188c-14,-85 -31,-180 -38,-210l-12,-55l-116,-2l-115,-2l4,97c6,147 27,156 124,57c36,-36 70,-65 76,-65c20,0 30,34 42,138c12,115 5,157 -35,212l-26,35l58,6c32,3 62,6 66,7c4,1 5,-13 2,-30zm-465,5c0,-10 -7,-67 -15,-128c-13,-99 -17,-112 -42,-134c-65,-55 -99,-91 -115,-120c-11,-20 -25,-31 -39,-31c-21,0 -22,3 -16,60c4,36 18,83 36,119c17,32 27,61 24,64c-3,4 -48,-16 -99,-44c-51,-28 -98,-48 -104,-44c-18,11 19,64 106,151c109,109 134,124 207,124c48,0 57,-3 57,-17zm130,-133l0,-150l-35,-70c-19,-39 -42,-70 -50,-70c-37,0 -42,129 -13,347l12,93l43,0l43,0l0,-150zm218,114c44,-53 53,-103 41,-210c-11,-97 -18,-134 -27,-134c-3,0 -36,30 -74,66c-61,59 -72,66 -98,60c-30,-5 -30,-5 -30,42c0,26 3,84 7,130l6,82l73,0c71,0 73,-1 102,-36zm-1538,-65c74,-45 120,-103 120,-154l0,-27l-26,31c-14,17 -30,31 -34,31c-5,0 5,-13 21,-29c36,-36 37,-65 4,-87c-21,-14 -70,-19 -261,-27l-235,-9l-25,23c-46,43 -36,47 129,41c206,-7 209,-7 221,9c6,8 23,13 37,11c15,-2 31,4 39,13c11,13 11,22 -4,51c-16,35 -16,35 4,29c13,-4 22,-1 26,9c6,17 -9,46 -45,84c-27,28 -16,28 29,1zm7465,-10c88,-17 169,-35 180,-39c11,-4 -65,-7 -168,-7l-189,0l-9,24c-14,36 -11,53 9,53c9,0 89,-14 177,-31zm-4797,-99c-10,-54 1,-90 28,-90c8,0 43,23 77,50c34,28 69,50 77,50c36,-1 143,-128 160,-190c19,-72 57,-63 85,19c13,39 13,57 4,100c-6,29 -9,55 -6,58c11,10 110,-93 139,-144c37,-66 51,-78 68,-58c19,23 17,102 -4,173c-11,34 -16,65 -13,69c8,8 79,-23 127,-54c19,-13 45,-23 57,-23c35,0 222,-227 207,-251c-6,-10 -382,-10 -764,0l-245,6l-17,100c-9,55 -20,130 -24,168l-7,67l30,0l30,0l-9,-50zm-1823,20c-10,-11 -22,-17 -28,-13c-5,3 -70,-55 -143,-130c-127,-129 -134,-139 -134,-176c0,-30 5,-43 19,-51c12,-6 121,-10 285,-10c219,0 266,-2 266,-14c0,-25 -26,-35 -101,-42c-41,-3 -86,-10 -101,-16c-54,-20 -43,-71 23,-98c16,-7 29,-16 29,-20c0,-12 -68,-20 -172,-20c-89,0 -98,2 -98,19c0,35 -24,43 -142,43c-62,0 -133,-5 -158,-11c-25,-6 -92,-11 -150,-11c-126,0 -190,22 -190,64c0,20 11,30 63,55c34,17 102,42 150,56c116,33 155,52 172,85c20,38 2,59 -84,99c-63,29 -70,35 -61,51c14,26 -20,47 -98,61c-53,10 -60,14 -65,37c-3,15 -9,35 -12,45c-7,16 15,17 370,17c376,0 378,0 360,-20zm165,-14c0,-2 -12,-27 -27,-56c-34,-66 -44,-157 -18,-176c24,-18 41,-8 69,40c14,24 45,59 70,80c46,37 46,37 46,12c0,-14 -5,-59 -11,-101l-11,-75l-142,-2c-174,-2 -419,3 -426,9c-2,2 56,63 129,136c74,73 130,123 126,112c-28,-74 5,-80 105,-21c72,42 90,51 90,42zm302,-183c-6,-95 -4,-93 -78,-93c-56,0 -65,2 -60,16c3,9 6,29 6,45c0,16 5,29 10,29c6,0 10,-8 10,-18c0,-24 35,-56 50,-47c7,4 23,32 36,61c13,30 25,54 26,54c2,0 2,-21 0,-47zm-192,-123c-9,-17 -26,-19 -218,-22c-200,-3 -336,3 -348,15c-18,18 32,22 290,24c278,2 286,1 276,-17zm178,3c-3,-15 -16,-19 -66,-21c-57,-3 -62,-1 -62,18c0,18 6,20 66,20c57,0 65,-2 62,-17zm272,-3c0,-19 -7,-20 -115,-20c-108,0 -115,1 -115,20c0,19 7,20 115,20c108,0 115,-1 115,-20zm1798,-12c199,-2 301,-6 299,-13c-4,-12 -478,-22 -794,-17c-198,3 -203,4 -203,24c0,21 2,21 198,14c108,-3 333,-7 500,-8zm-1812,-94c-3,-26 -6,-55 -6,-65c0,-16 -8,-19 -59,-19c-33,0 -66,-3 -75,-6c-22,-8 -20,-31 4,-51c28,-25 25,-30 -20,-37c-22,-3 -58,-9 -80,-12l-40,-6l30,30c33,33 38,63 15,82c-11,9 -12,16 -5,25c5,7 13,33 16,59l7,46l110,0l110,0l-7,-46z" id="svg_2"/>
    <path d="m7320,4974c-45,-8 -145,-46 -172,-66c-23,-16 -28,-27 -28,-63c0,-100 75,-222 165,-267c61,-32 170,-36 222,-10c89,46 149,142 168,269c6,38 4,45 -21,68c-49,46 -242,86 -334,69zm234,-35c37,-11 78,-30 91,-43c21,-21 22,-27 13,-81c-17,-113 -72,-196 -154,-236c-95,-45 -243,-3 -308,89c-60,84 -83,193 -48,225c28,25 123,59 187,67c77,9 133,3 219,-21z" id="svg_3"/>
    <path d="m7433,4885c-18,-35 -22,-37 -75,-41c-97,-6 -148,-36 -148,-86c0,-46 43,-58 200,-58c157,0 189,12 190,67c0,14 -11,29 -27,40c-16,9 -30,18 -32,19c-1,2 4,13 13,26c9,12 16,27 16,33c0,5 -9,-3 -20,-20c-11,-16 -29,-31 -40,-31c-25,-2 -25,-2 0,46c11,22 16,40 11,40c-5,0 -12,-10 -15,-22c-7,-28 -34,-64 -41,-56c-3,2 2,19 11,37c9,18 14,35 11,38c-3,3 -12,-11 -20,-30c-8,-19 -20,-38 -26,-41c-15,-10 -14,0 5,35c8,17 13,33 10,36c-2,3 -13,-12 -23,-32zm92,-73c53,-15 60,-20 63,-44c4,-38 -38,-58 -121,-58c-58,0 -65,2 -75,25c-6,14 -19,25 -27,25c-8,0 -21,-11 -27,-25c-13,-29 -34,-31 -83,-11c-54,23 -42,68 25,95c39,15 179,11 245,-7z" id="svg_4"/>
    <path d="m7529,4883c-21,-43 -22,-50 -4,-28c25,30 37,55 27,55c-5,0 -15,-12 -23,-27z" id="svg_5"/>
    <path d="m7197,4815c3,-8 9,-12 14,-9c12,7 11,11 -5,17c-10,4 -13,1 -9,-8z" id="svg_6"/>
    <path d="m7340,4669c47,-4 108,-4 135,0c39,7 20,9 -85,8c-133,0 -134,0 -50,-8z" id="svg_7"/>
    <path d="m11722,4796c-19,-52 -33,-58 -137,-62c-116,-4 -204,-19 -224,-39c-40,-40 63,-65 264,-64c124,1 153,7 169,32c9,15 7,22 -10,36l-22,17l29,39c16,21 26,41 23,44c-4,3 -9,0 -12,-8c-8,-23 -60,-76 -67,-69c-4,4 4,21 19,38c14,17 26,39 26,48c0,9 -13,-5 -30,-31c-33,-53 -63,-66 -33,-14c25,42 34,67 25,67c-5,0 -14,-15 -20,-34zm12,-86c35,-8 55,-23 56,-42c0,-14 -76,-28 -150,-28c-68,0 -76,2 -85,23c-14,30 -49,34 -68,6c-14,-19 -22,-21 -64,-15c-26,3 -51,10 -56,15c-12,12 16,31 64,40c59,12 255,13 303,1z" id="svg_8"/>
    <path d="m11425,4763c-22,-3 -44,-8 -49,-13c-6,-6 5,-7 25,-4c19,3 68,9 109,13l75,8l-60,0c-33,0 -78,-2 -100,-4z" id="svg_9"/>
    <path d="m11650,4610l-75,-6l82,-2c46,-1 85,2 88,8c3,6 0,9 -7,8c-7,-1 -47,-4 -88,-8z" id="svg_10"/>
    <path d="m8226,4894c-4,-14 -5,-28 -3,-31c3,-2 8,8 11,23c4,14 5,28 3,31c-3,2 -8,-8 -11,-23z" id="svg_11"/>
    <path d="m7930,4809c0,-6 5,-7 10,-4c6,3 10,1 10,-5c0,-6 5,-8 10,-5c16,10 11,21 -10,22c-11,1 -20,-3 -20,-8z" id="svg_12"/>
    <path d="m8020,4688c0,-10 132,-9 190,1c33,6 14,8 -72,7c-65,0 -118,-4 -118,-8z" id="svg_13"/>
    <path d="m6914,4618c4,-12 1,-15 -11,-11c-10,4 -14,2 -10,-4c8,-13 47,-24 47,-14c0,4 -7,16 -16,27c-13,15 -15,16 -10,2z" id="svg_14"/>
    <path d="m7040,4453c0,-13 14,-28 29,-31c9,-2 11,3 7,13c-3,9 -6,19 -6,21c0,2 -7,4 -15,4c-8,0 -15,-3 -15,-7z" id="svg_15"/>
    <path d="m6870,4420c0,-6 -4,-8 -10,-5c-5,3 -10,2 -10,-4c0,-5 5,-13 10,-16c6,-3 10,-1 10,5c0,6 5,8 10,5c6,-3 10,-2 10,4c0,5 -4,13 -10,16c-5,3 -10,1 -10,-5z" id="svg_16"/>
    <path d="m6635,4360c-4,-13 -2,-27 5,-34c10,-8 11,-8 5,3c-4,7 -3,16 3,20c6,4 7,12 3,20c-7,10 -10,8 -16,-9z" id="svg_17"/>
    <path d="m6267,4299c-9,-6 -17,-20 -16,-32c0,-21 1,-21 9,-2c6,14 9,15 10,5c1,-9 5,-5 11,9c11,29 9,32 -14,20z" id="svg_18"/>
    <path d="m10290,3329c-44,-37 -74,-40 -40,-4c13,14 21,25 19,25c-3,0 -20,-11 -39,-25c-22,-16 -47,-25 -70,-25c-49,0 -178,-34 -228,-59c-76,-39 -103,-100 -62,-141c16,-16 33,-20 83,-20c74,0 216,30 286,61c52,22 101,68 101,95c0,7 11,21 26,30c14,9 23,22 20,29c-2,7 1,18 7,24c21,21 -4,11 -39,-15c-19,-15 -37,-24 -40,-21c-3,3 11,17 31,32c19,15 33,30 31,33c-3,2 -22,-10 -42,-26c-21,-17 -42,-28 -47,-25c-6,3 3,17 18,29c16,13 27,25 25,28c-3,2 -21,-9 -40,-25zm75,-49c-10,-11 -23,-20 -28,-20c-6,0 -2,9 8,20c10,11 23,20 28,20c6,0 2,-9 -8,-20zm-56,-11c54,-51 -26,-116 -187,-153c-92,-21 -92,-21 -92,13c0,16 -7,37 -16,45c-21,21 -46,7 -81,-45c-24,-37 -28,-38 -47,-26c-29,20 -31,48 -5,80c45,58 191,106 325,106c68,1 84,-2 103,-20z" id="svg_19"/>
    <path d="m9531,3114c1,-65 5,-166 9,-224c5,-66 6,-24 2,115c-2,121 -6,222 -8,224c-2,2 -3,-49 -3,-115z" id="svg_20"/>
    <path d="m10340,3165c-7,-9 -8,-15 -2,-15c5,0 12,7 16,15c3,8 4,15 2,15c-2,0 -9,-7 -16,-15z" id="svg_21"/>
    <path d="m10365,3159c-11,-17 1,-21 15,-4c8,9 8,15 2,15c-6,0 -14,-5 -17,-11z" id="svg_22"/>
    <path d="m10180,3095c-36,-13 -93,-27 -127,-30c-35,-4 -63,-11 -63,-16c0,-5 10,-7 23,-5c12,3 40,8 62,11c53,8 163,44 170,56c4,5 5,9 3,8c-2,0 -32,-11 -68,-24z" id="svg_23"/>
    <path d="m9554,2690c0,-52 1,-74 3,-47c2,26 2,68 0,95c-2,26 -3,4 -3,-48z" id="svg_24"/>
    <path d="m9555,2145c0,-214 1,-301 2,-192c2,109 2,285 0,390c-1,106 -2,17 -2,-198z" id="svg_25"/>
    <path d="m9715,1550c-4,-23 -5,-43 -2,-46c2,-3 7,14 11,37c4,23 5,44 2,46c-2,2 -7,-14 -11,-37z" id="svg_26"/>
    <path d="m9700,1479c0,-8 -9,-74 -20,-148c-11,-74 -18,-136 -16,-138c2,-3 9,26 15,64c24,154 32,225 27,231c-3,3 -6,-1 -6,-9z" id="svg_27"/>
    <path d="m9652,1145c0,-16 2,-22 5,-12c2,9 2,23 0,30c-3,6 -5,-1 -5,-18z" id="svg_28"/>
    <path d="m9635,1060c-4,-28 -5,-53 -2,-56c2,-3 7,19 11,47c4,28 5,53 3,56c-3,2 -8,-19 -12,-47z" id="svg_29"/>
    <path d="m9622,965c0,-16 2,-22 5,-12c2,9 2,23 0,30c-3,6 -5,-1 -5,-18z" id="svg_30"/>
    <path d="m9605,875c-3,-31 -5,-59 -2,-61c3,-3 8,20 12,51c3,31 5,59 2,61c-3,3 -8,-20 -12,-51z" id="svg_31"/>
    <path d="m9592,775c0,-16 2,-22 5,-12c2,9 2,23 0,30c-3,6 -5,-1 -5,-18z" id="svg_32"/>
    <path d="m5656,4599c-34,-27 -34,-65 2,-116c89,-132 235,-243 318,-243c45,0 68,30 60,76c-4,20 -3,34 1,31c5,-3 31,-2 59,2l49,9l-70,2l-70,3l52,6c28,4 55,10 60,15c4,5 -12,6 -37,4c-25,-3 -56,-2 -70,2c-22,7 -20,8 15,10c22,1 49,5 60,10c13,6 -4,7 -46,3c-44,-4 -69,-2 -73,6c-5,7 5,11 31,12c21,0 47,4 58,9c13,5 -2,8 -48,8c-37,-1 -70,2 -74,6c-3,3 11,6 33,7c77,2 92,16 17,17l-72,0l-62,51c-101,85 -151,103 -193,70zm102,-17c90,-48 252,-214 267,-273c7,-29 -15,-59 -44,-59c-26,0 -31,9 -21,36c5,13 7,31 4,39c-9,22 -54,18 -80,-6c-22,-21 -25,-21 -48,-5c-75,48 -196,190 -196,228c0,57 52,75 118,40z" id="svg_33"/>
    <path d="m5635,4461c4,-7 3,-16 -4,-21c-9,-5 -8,-10 4,-20c13,-11 15,-10 9,6c-4,10 16,-6 44,-36c28,-30 51,-50 51,-45c0,6 -25,37 -56,70c-31,33 -53,54 -48,46z" id="svg_34"/>
    <path d="m5911,4220c9,-5 36,-12 60,-15c42,-5 41,-4 -11,10c-65,17 -70,17 -49,5z" id="svg_35"/>
    <path d="m5935,4190c11,-5 29,-8 40,-8c16,0 15,2 -5,8c-34,11 -60,11 -35,0z" id="svg_36"/>
    <path d="m7765,4590c3,-5 8,-10 11,-10c2,0 4,5 4,10c0,6 -5,10 -11,10c-5,0 -7,-4 -4,-10z" id="svg_37"/>
    <path d="m8012,4575c0,-16 2,-22 5,-12c2,9 2,23 0,30c-3,6 -5,-1 -5,-18z" id="svg_38"/>
    <path d="m7601,4533c0,-5 4,-17 9,-28c8,-18 9,-17 9,8c1,15 -3,27 -9,27c-5,0 -10,-3 -9,-7z" id="svg_39"/>
    <path d="m7937,4526c-4,-10 -5,-21 -2,-24c9,-9 17,6 13,25c-3,17 -4,17 -11,-1z" id="svg_40"/>
    <path d="m8147,4513c-4,-3 -7,-11 -7,-17c0,-6 5,-5 12,2c6,6 9,14 7,17c-3,3 -9,2 -12,-2z" id="svg_41"/>
    <path d="m7802,4475c0,-16 2,-22 5,-12c2,9 2,23 0,30c-3,6 -5,-1 -5,-18z" id="svg_42"/>
    <path d="m8170,4449c0,-5 5,-7 10,-4c6,3 10,8 10,11c0,2 -4,4 -10,4c-5,0 -10,-5 -10,-11z" id="svg_43"/>
    <path d="m8011,4434c0,-11 3,-14 6,-6c3,7 2,16 -1,19c-3,4 -6,-2 -5,-13z" id="svg_44"/>
    <path d="m8286,4434c-5,-14 -4,-15 9,-4c17,14 19,20 6,20c-5,0 -12,-7 -15,-16z" id="svg_45"/>
    <path d="m7731,4415c0,-11 4,-27 9,-35c9,-13 10,-13 9,0c0,8 -4,24 -9,35l-9,20l0,-20z" id="svg_46"/>
    <path d="m7525,4370c3,-5 8,-10 11,-10c2,0 4,5 4,10c0,6 -5,10 -11,10c-5,0 -7,-4 -4,-10z" id="svg_47"/>
    <path d="m8177,4343c-4,-3 -7,-13 -7,-22c1,-13 3,-13 11,2c11,19 8,33 -4,20z" id="svg_48"/>
    <path d="m8375,4320c-4,-12 -5,-24 -2,-27c3,-2 8,5 12,17c4,12 5,24 2,27c-3,2 -8,-5 -12,-17z" id="svg_49"/>
    <path d="m8285,4320c-3,-5 -1,-10 4,-10c6,0 11,5 11,10c0,6 -2,10 -4,10c-3,0 -8,-4 -11,-10z" id="svg_50"/>
    <path d="m8436,4265c-9,-26 -7,-32 5,-12c6,10 9,21 6,23c-2,3 -7,-2 -11,-11z" id="svg_51"/>
    <path d="m7401,4254c0,-11 3,-14 6,-6c3,7 2,16 -1,19c-3,4 -6,-2 -5,-13z" id="svg_52"/>
    <path d="m8260,4139c0,-5 5,-7 10,-4c6,3 10,8 10,11c0,2 -4,4 -10,4c-5,0 -10,-5 -10,-11z" id="svg_53"/>
    <path d="m8578,3866c-27,-33 -27,-33 -130,-38c-119,-5 -190,-30 -210,-73c-18,-39 5,-55 96,-66c90,-11 219,2 268,27c56,28 61,52 22,91l-25,25l22,24c12,13 18,24 14,24c-5,0 -19,-12 -31,-27c-12,-16 -25,-25 -28,-22c-4,3 3,18 15,33c12,15 19,29 17,31c-2,2 -16,-11 -30,-29zm26,-58c30,-13 42,-43 26,-63c-15,-18 -102,-45 -142,-45c-24,0 -28,4 -28,28c0,33 -30,65 -57,60c-10,-1 -27,-22 -38,-46c-19,-41 -22,-43 -58,-38c-50,6 -70,22 -56,47c14,28 50,48 100,58c66,13 225,13 253,-1z" id="svg_54"/>
    <path d="m7435,3880c5,-8 17,-25 28,-37c11,-13 17,-26 13,-30c-4,-5 -21,8 -37,27c-15,19 -29,30 -29,24c0,-6 11,-21 25,-34l26,-24l-31,-24c-36,-28 -40,-65 -7,-86c59,-40 336,-46 412,-10c62,29 57,87 -10,118c-63,30 -148,40 -243,27l-87,-11l-33,37c-19,21 -31,31 -27,23zm349,-72c45,-11 89,-51 84,-76c-4,-24 -62,-49 -130,-57l-58,-6l0,38c0,44 -14,63 -45,63c-27,0 -51,-26 -61,-64c-7,-28 -7,-28 -63,-22c-59,7 -101,28 -101,49c0,19 39,53 75,67c67,27 211,30 299,8z" id="svg_55"/>
    <path d="m7826,3663c-4,-4 -41,-10 -84,-14l-77,-7l77,2c46,1 82,6 90,14c6,6 10,12 7,12c-3,0 -9,-3 -13,-7z" id="svg_56"/>
    <path d="m8295,3659c22,-4 58,-8 80,-7l40,0l-40,9c-22,4 -58,8 -80,7l-40,0l40,-9z" id="svg_57"/>
    <path d="m6110,3859c-102,-26 -175,-48 -163,-48c26,-1 341,77 363,90c28,16 -8,8 -200,-42z" id="svg_58"/>
    <path d="m6387,3865c-16,-25 -33,-45 -39,-45c-5,0 0,15 11,34c31,49 25,55 -8,9c-25,-35 -36,-41 -78,-47c-132,-20 -228,-64 -258,-119c-18,-33 -18,-36 -1,-62c25,-38 59,-47 168,-43c91,3 98,2 101,-17c4,-18 4,-17 6,3c1,26 18,29 24,5c4,-17 5,-17 6,0c0,9 4,17 7,17c4,0 13,-8 21,-17c13,-17 14,-17 8,3c-4,17 1,23 37,33c101,31 168,80 168,124c0,29 -45,67 -80,67c-35,0 -37,11 -12,48c47,67 27,56 -24,-14c-27,-37 -43,-25 -17,13c28,39 35,53 29,53c-3,0 -19,-21 -36,-46c-39,-56 -54,-50 -16,6c14,22 23,40 19,40c-5,0 -21,-20 -36,-45zm121,-74c36,-19 46,-48 27,-77c-16,-25 -71,-64 -90,-64c-6,0 -16,14 -22,30c-20,52 -74,30 -92,-36c-9,-34 -41,-43 -162,-43c-126,-1 -174,30 -143,91c24,47 94,82 215,108c57,12 240,6 267,-9z" id="svg_59"/>
    <path d="m6790,3621c24,-9 127,-15 119,-7c-2,2 -35,6 -74,9c-44,4 -61,3 -45,-2z" id="svg_60"/>
    <path d="m6085,3560c41,-10 125,-12 125,-2c0,4 -35,8 -77,9c-54,0 -69,-2 -48,-7z" id="svg_61"/>
    <path d="m12703,3253c42,-2 112,-2 155,0c42,1 7,3 -78,3c-85,0 -120,-2 -77,-3z" id="svg_62"/>
    <path d="m13236,2785c4,-8 8,-15 10,-15c2,0 4,7 4,15c0,8 -4,15 -10,15c-5,0 -7,-7 -4,-15z" id="svg_63"/>
    <path d="m13340,2770c0,-5 5,-10 11,-10c5,0 7,5 4,10c-3,6 -8,10 -11,10c-2,0 -4,-4 -4,-10z" id="svg_64"/>
    <path d="m13332,2680c0,-19 2,-27 5,-17c2,9 2,25 0,35c-3,9 -5,1 -5,-18z" id="svg_65"/>
    <path d="m13252,2680c0,-14 2,-19 5,-12c2,6 2,18 0,25c-3,6 -5,1 -5,-13z" id="svg_66"/>
    <path d="m13471,2688c0,-9 -4,-25 -7,-35c-5,-14 -4,-15 5,-7c7,7 11,22 8,35c-2,13 -5,16 -6,7z" id="svg_67"/>
    <path d="m13420,2655c0,-8 4,-15 10,-15c5,0 7,7 4,15c-4,8 -8,15 -10,15c-2,0 -4,-7 -4,-15z" id="svg_68"/>
    <path d="m13201,2643c0,-4 4,-17 9,-28c8,-19 9,-19 9,2c1,12 -3,25 -9,28c-5,3 -10,3 -9,-2z" id="svg_69"/>
    <path d="m13062,2620c0,-14 2,-19 5,-12c2,6 2,18 0,25c-3,6 -5,1 -5,-13z" id="svg_70"/>
    <path d="m12936,2605c-3,-8 -1,-15 4,-15c6,0 10,7 10,15c0,8 -2,15 -4,15c-2,0 -6,-7 -10,-15z" id="svg_71"/>
    <path d="m12997,2613c-4,-3 -7,-11 -7,-17c0,-6 5,-5 12,2c6,6 9,14 7,17c-3,3 -9,2 -12,-2z" id="svg_72"/>
    <path d="m12831,2592c-6,-12 -11,-27 -11,-34c1,-7 8,0 16,15c9,16 13,31 11,34c-3,2 -10,-4 -16,-15z" id="svg_73"/>
    <path d="m13272,2585c0,-16 2,-22 5,-12c2,9 2,23 0,30c-3,6 -5,-1 -5,-18z" id="svg_74"/>
    <path d="m13104,2575c1,-33 16,-33 16,0c0,14 -4,25 -9,25c-5,0 -8,-11 -7,-25z" id="svg_75"/>
    <path d="m13462,2575c0,-16 2,-22 5,-12c2,9 2,23 0,30c-3,6 -5,-1 -5,-18z" id="svg_76"/>
    <path d="m12883,2573c-3,-10 -8,-22 -10,-28c-3,-5 3,-1 11,9c16,20 21,36 11,36c-3,0 -8,-8 -12,-17z" id="svg_77"/>
    <path d="m13332,2570c0,-14 2,-19 5,-12c2,6 2,18 0,25c-3,6 -5,1 -5,-13z" id="svg_78"/>
    <path d="m13361,2574c0,-11 3,-14 6,-6c3,7 2,16 -1,19c-3,4 -6,-2 -5,-13z" id="svg_79"/>
    <path d="m13162,2550c0,-14 2,-19 5,-12c2,6 2,18 0,25c-3,6 -5,1 -5,-13z" id="svg_80"/>
    <path d="m12947,2546c-4,-10 -7,-25 -6,-34c0,-11 4,-9 10,7c5,13 8,29 6,35c-2,5 -6,2 -10,-8z" id="svg_81"/>
    <path d="m13006,2545c-3,-8 -1,-15 4,-15c6,0 10,7 10,15c0,8 -2,15 -4,15c-2,0 -6,-7 -10,-15z" id="svg_82"/>
    <path d="m13412,2540c0,-14 2,-19 5,-12c2,6 2,18 0,25c-3,6 -5,1 -5,-13z" id="svg_83"/>
    <path d="m12746,2533c-6,-14 -5,-15 5,-6c7,7 10,15 7,18c-3,3 -9,-2 -12,-12z" id="svg_84"/>
    <path d="m13071,2524c0,-11 3,-14 6,-6c3,7 2,16 -1,19c-3,4 -6,-2 -5,-13z" id="svg_85"/>
    <path d="m13201,2508c-1,-16 4,-28 9,-28c12,0 12,8 0,35c-8,18 -9,17 -9,-7z" id="svg_86"/>
    <path d="m12837,2503c-4,-3 -7,-16 -6,-27c0,-19 1,-19 10,3c10,24 8,36 -4,24z" id="svg_87"/>
    <path d="m12766,2475c-3,-9 -6,-22 -5,-28c0,-7 5,-1 10,12c5,13 8,26 5,28c-2,2 -6,-3 -10,-12z" id="svg_88"/>
    <path d="m13142,2455c0,-16 2,-22 5,-12c2,9 2,23 0,30c-3,6 -5,-1 -5,-18z" id="svg_89"/>
    <path d="m13431,2464c0,-11 3,-14 6,-6c3,7 2,16 -1,19c-3,4 -6,-2 -5,-13z" id="svg_90"/>
    <path d="m12965,2440c-4,-17 -5,-34 -2,-36c3,-3 8,9 12,26c4,17 5,34 2,36c-3,3 -8,-9 -12,-26z" id="svg_91"/>
    <path d="m13105,2460c3,-5 8,-10 11,-10c2,0 4,5 4,10c0,6 -5,10 -11,10c-5,0 -7,-4 -4,-10z" id="svg_92"/>
    <path d="m13342,2450c0,-14 2,-19 5,-12c2,6 2,18 0,25c-3,6 -5,1 -5,-13z" id="svg_93"/>
    <path d="m13021,2430c0,-33 1,-34 10,-11c6,16 6,28 -1,35c-7,7 -10,-1 -9,-24z" id="svg_94"/>
    <path d="m13058,2387c-3,-19 -2,-25 4,-19c6,6 8,18 6,28c-3,14 -5,12 -10,-9z" id="svg_95"/>
    <path d="m13101,2383c0,-6 -4,-20 -7,-30c-5,-14 -4,-15 5,-7c7,7 11,20 8,30c-3,11 -5,14 -6,7z" id="svg_96"/>
    <path d="m13332,2360c0,-14 2,-19 5,-12c2,6 2,18 0,25c-3,6 -5,1 -5,-13z" id="svg_97"/>
    <path d="m5510,3413c0,-6 9,-22 20,-36c24,-30 25,-41 5,-57c-11,-9 -12,-16 -4,-26c26,-31 295,-68 337,-45c38,20 27,47 -25,65c-26,9 -56,16 -67,16c-11,0 -36,15 -55,33c-33,31 -34,31 -18,5c25,-39 10,-35 -30,10c-20,22 -30,28 -23,15c5,-12 15,-25 20,-28c6,-3 10,-12 10,-18c-1,-7 -16,6 -35,28c-19,22 -35,35 -35,29c0,-6 9,-19 20,-29c11,-10 20,-23 20,-29c-1,-6 -19,9 -40,34c-22,25 -40,40 -40,34c0,-6 7,-17 16,-24c20,-17 37,-50 26,-50c-5,0 -22,18 -37,40c-15,22 -32,40 -37,40c-5,0 5,-18 22,-40c17,-22 27,-40 22,-40c-6,0 -24,19 -41,42c-17,23 -31,37 -31,31zm233,-89c37,-5 47,-11 49,-28c4,-27 34,-33 59,-11c17,17 19,17 25,1c4,-9 3,-20 -1,-24c-12,-12 -166,-4 -244,12c-81,17 -105,31 -81,46c17,11 125,13 193,4z" id="svg_98"/>
    <path d="m5793,3217c-18,-6 -33,-14 -33,-18c0,-4 20,-1 45,8c25,8 45,17 45,19c0,6 -21,3 -57,-9z" id="svg_99"/>
    <path d="m5805,3190c-13,-6 -15,-9 -5,-9c8,0 22,4 30,9c18,12 2,12 -25,0z" id="svg_100"/>
    <path d="m5160,2802c0,-7 12,-36 26,-65c31,-61 13,-48 -27,20c-16,26 -29,44 -29,38c0,-14 57,-112 70,-120c5,-3 10,-1 10,5c0,6 4,8 10,5c6,-4 5,-11 -3,-20c-16,-17 -31,-5 -74,63c-18,28 -36,52 -39,52c-8,0 24,-56 51,-89c15,-17 25,-36 23,-43c-3,-7 -24,14 -47,45c-24,31 -45,57 -48,57c-7,0 14,-34 46,-74c17,-22 29,-42 25,-45c-6,-6 -46,36 -76,79c-9,14 -17,20 -17,14c-1,-7 16,-33 37,-59c38,-47 38,-49 20,-67c-22,-22 -23,-61 -3,-78c50,-42 446,50 490,114c59,84 -72,114 -276,62l-90,-22l-20,27c-11,15 -28,47 -39,71c-11,24 -20,37 -20,30zm436,-106c18,-14 18,-17 4,-43c-9,-15 -32,-36 -51,-45c-107,-50 -381,-104 -417,-82c-56,36 20,105 164,150c88,27 114,27 114,-3c0,-27 29,-63 50,-63c24,0 40,29 40,69c0,29 2,31 38,31c21,0 47,-6 58,-14z" id="svg_101"/>
    <path d="m5421,2529c-14,-5 -59,-15 -100,-21c-42,-6 -70,-13 -64,-15c19,-7 150,16 186,31c36,16 16,20 -22,5z" id="svg_102"/>
    <path d="m5681,2454c0,-11 3,-14 6,-6c3,7 2,16 -1,19c-3,4 -6,-2 -5,-13z" id="svg_103"/>
    <path d="m5733,2425c0,-22 2,-30 4,-17c2,12 2,30 0,40c-3,9 -5,-1 -4,-23z" id="svg_104"/>
    <path d="m5583,2410c0,-25 2,-35 4,-22c2,12 2,32 0,45c-2,12 -4,2 -4,-23z" id="svg_105"/>
    <path d="m5142,2385c0,-16 2,-22 5,-12c2,9 2,23 0,30c-3,6 -5,-1 -5,-18z" id="svg_106"/>
    <path d="m5398,2350c2,-16 6,-30 8,-30c2,0 4,14 4,30c0,17 -4,30 -8,30c-5,0 -7,-13 -4,-30z" id="svg_107"/>
    <path d="m5460,2330c0,-16 4,-30 8,-30c5,0 7,14 4,30c-2,17 -6,30 -8,30c-2,0 -4,-13 -4,-30z" id="svg_108"/>
    <path d="m5682,2320c0,-19 2,-27 5,-17c2,9 2,25 0,35c-3,9 -5,1 -5,-18z" id="svg_109"/>
    <path d="m4940,2303c0,-20 3,-33 6,-30c11,10 13,67 3,67c-5,0 -9,-16 -9,-37z" id="svg_110"/>
    <path d="m5214,2270c-1,-17 3,-30 7,-30c5,0 9,14 9,30c0,39 -15,39 -16,0z" id="svg_111"/>
    <path d="m5010,2245c0,-14 4,-25 9,-25c4,0 6,11 3,25c-2,14 -6,25 -8,25c-2,0 -4,-11 -4,-25z" id="svg_112"/>
    <path d="m5312,2235c0,-16 2,-22 5,-12c2,9 2,23 0,30c-3,6 -5,-1 -5,-18z" id="svg_113"/>
    <path d="m5582,2240c0,-14 2,-19 5,-12c2,6 2,18 0,25c-3,6 -5,1 -5,-13z" id="svg_114"/>
    <path d="m4852,2190c0,-19 2,-27 5,-17c2,9 2,25 0,35c-3,9 -5,1 -5,-18z" id="svg_115"/>
    <path d="m5122,2165c0,-16 2,-22 5,-12c2,9 2,23 0,30c-3,6 -5,-1 -5,-18z" id="svg_116"/>
    <path d="m5400,2156c0,-14 4,-27 10,-31c5,-3 8,7 7,25c-2,36 -17,41 -17,6z" id="svg_117"/>
    <path d="m5493,2145c0,-22 2,-30 4,-17c2,12 2,30 0,40c-3,9 -5,-1 -4,-23z" id="svg_118"/>
    <path d="m5722,2155c0,-16 2,-22 5,-12c2,9 2,23 0,30c-3,6 -5,-1 -5,-18z" id="svg_119"/>
    <path d="m4912,2120c0,-19 2,-27 5,-17c2,9 2,25 0,35c-3,9 -5,1 -5,-18z" id="svg_120"/>
    <path d="m5652,2120c0,-19 2,-27 5,-17c2,9 2,25 0,35c-3,9 -5,1 -5,-18z" id="svg_121"/>
    <path d="m5193,2070c0,-25 2,-35 4,-22c2,12 2,32 0,45c-2,12 -4,2 -4,-23z" id="svg_122"/>
    <path d="m5017,2073c-4,-3 -7,-20 -6,-37l1,-31l9,34c10,33 8,47 -4,34z" id="svg_123"/>
    <path d="m5300,2033c0,-10 5,-25 10,-33c7,-11 10,-7 10,18c0,17 -4,32 -10,32c-5,0 -10,-8 -10,-17z" id="svg_124"/>
    <path d="m5731,2003c-1,-17 4,-35 9,-38c12,-7 12,22 0,50c-7,17 -9,15 -9,-12z" id="svg_125"/>
    <path d="m5101,1994c0,-11 3,-14 6,-6c3,7 2,16 -1,19c-3,4 -6,-2 -5,-13z" id="svg_126"/>
    <path d="m5643,1960c0,-30 2,-43 4,-27c2,15 2,39 0,55c-2,15 -4,2 -4,-28z" id="svg_127"/>
    <path d="m5522,1960c0,-19 2,-27 5,-17c2,9 2,25 0,35c-3,9 -5,1 -5,-18z" id="svg_128"/>
    <path d="m4920,1948c0,-19 2,-20 10,-8c13,19 13,30 0,30c-5,0 -10,-10 -10,-22z" id="svg_129"/>
    <path d="m5427,1964c-4,-4 -7,-23 -6,-43l1,-36l9,33c11,36 9,58 -4,46z" id="svg_130"/>
    <path d="m4833,1890c0,-25 2,-35 4,-22c2,12 2,32 0,45c-2,12 -4,2 -4,-23z" id="svg_131"/>
    <path d="m5286,1908c-3,-13 -5,-39 -5,-58c1,-28 3,-25 10,19c9,55 6,80 -5,39z" id="svg_132"/>
    <path d="m5166,1901c-4,-7 -5,-15 -2,-18c9,-9 19,4 14,18c-4,11 -6,11 -12,0z" id="svg_133"/>
    <path d="m5592,1880c0,-14 2,-19 5,-12c2,6 2,18 0,25c-3,6 -5,1 -5,-13z" id="svg_134"/>
    <path d="m5782,1870c0,-14 2,-19 5,-12c2,6 2,18 0,25c-3,6 -5,1 -5,-13z" id="svg_135"/>
    <path d="m5093,1815c0,-27 2,-38 4,-22c2,15 2,37 0,50c-2,12 -4,0 -4,-28z" id="svg_136"/>
    <path d="m4981,1810c-1,-8 -4,-26 -7,-40c-5,-22 -4,-23 6,-7c6,10 9,28 7,40c-2,12 -5,15 -6,7z" id="svg_137"/>
    <path d="m5403,1765c0,-22 2,-30 4,-17c2,12 2,30 0,40c-3,9 -5,-1 -4,-23z" id="svg_138"/>
    <path d="m5722,1770c0,-19 2,-27 5,-17c2,9 2,25 0,35c-3,9 -5,1 -5,-18z" id="svg_139"/>
    <path d="m5232,1745c0,-16 2,-22 5,-12c2,9 2,23 0,30c-3,6 -5,-1 -5,-18z" id="svg_140"/>
    <path d="m4880,1720c0,-16 2,-30 4,-30c2,0 6,14 8,30c3,17 1,30 -4,30c-4,0 -8,-13 -8,-30z" id="svg_141"/>
    <path d="m5586,1723c9,-38 14,-42 14,-10c0,14 -5,29 -10,32c-7,4 -8,-3 -4,-22z" id="svg_142"/>
    <path d="m4790,1711c0,-17 2,-31 4,-31c8,0 13,51 5,56c-5,3 -9,-9 -9,-25z" id="svg_143"/>
    <path d="m5666,1690c8,-56 14,-64 14,-19c0,19 -5,41 -10,49c-7,10 -8,1 -4,-30z" id="svg_144"/>
    <path d="m5346,1694c-8,-22 -7,-74 2,-74c4,0 8,20 8,45c2,48 0,54 -10,29z" id="svg_145"/>
    <path d="m5787,1642c7,-69 11,-74 12,-15c1,28 -3,54 -8,57c-5,3 -6,-16 -4,-42z" id="svg_146"/>
    <path d="m5178,1635c-2,-25 0,-45 4,-45c5,0 8,20 8,45c0,25 -2,45 -4,45c-2,0 -6,-20 -8,-45z" id="svg_147"/>
    <path d="m5072,1640c0,-19 2,-27 5,-17c2,9 2,25 0,35c-3,9 -5,1 -5,-18z" id="svg_148"/>
    <path d="m4828,1610c-3,-16 -1,-30 4,-30c4,0 8,6 8,14c0,8 3,21 6,30c3,9 2,16 -4,16c-5,0 -12,-13 -14,-30z" id="svg_149"/>
    <path d="m4972,1605c0,-16 2,-22 5,-12c2,9 2,23 0,30c-3,6 -5,-1 -5,-18z" id="svg_150"/>
    <path d="m4781,1603c0,-12 -4,-30 -7,-40c-5,-14 -4,-15 5,-7c7,6 11,24 8,40c-3,21 -4,23 -6,7z" id="svg_151"/>
    <path d="m5742,1595c0,-16 2,-22 5,-12c2,9 2,23 0,30c-3,6 -5,-1 -5,-18z" id="svg_152"/>
    <path d="m5622,1499c6,-16 12,-28 15,-26c7,7 -8,57 -18,57c-4,0 -3,-14 3,-31z" id="svg_153"/>
    <path d="m5281,1508c0,-9 -4,-25 -7,-35c-5,-14 -4,-15 5,-7c7,7 11,22 8,35c-2,13 -5,16 -6,7z" id="svg_154"/>
    <path d="m5546,1475c8,-50 14,-58 14,-19c0,16 -5,36 -11,44c-7,11 -8,4 -3,-25z" id="svg_155"/>
    <path d="m4762,1440c0,-19 2,-27 5,-17c2,9 2,25 0,35c-3,9 -5,1 -5,-18z" id="svg_156"/>
    <path d="m5750,1439c5,-19 11,-43 14,-54c3,-11 3,0 0,25c-3,25 -9,49 -14,54c-6,6 -6,-4 0,-25z" id="svg_157"/>
    <path d="m5015,1447c-4,-10 -5,-21 -1,-24c10,-10 18,4 13,24c-4,17 -4,17 -12,0z" id="svg_158"/>
    <path d="m5112,1410c0,-19 2,-27 5,-17c2,9 2,25 0,35c-3,9 -5,1 -5,-18z" id="svg_159"/>
    <path d="m5371,1430c-1,-8 -4,-26 -7,-40c-5,-22 -4,-23 6,-7c6,10 9,28 7,40c-2,12 -5,15 -6,7z" id="svg_160"/>
    <path d="m4831,1423c0,-6 -4,-20 -7,-30c-5,-14 -4,-15 5,-7c7,7 11,20 8,30c-3,11 -5,14 -6,7z" id="svg_161"/>
    <path d="m5816,1333c10,-40 14,-41 14,-5c0,18 -5,32 -10,32c-6,0 -8,-11 -4,-27z" id="svg_162"/>
    <path d="m4762,1295c0,-16 2,-22 5,-12c2,9 2,23 0,30c-3,6 -5,-1 -5,-18z" id="svg_163"/>
    <path d="m4798,1290c-3,-16 -1,-30 4,-30c4,0 8,14 8,30c0,17 -2,30 -4,30c-2,0 -6,-13 -8,-30z" id="svg_164"/>
    <path d="m5620,1272c0,-23 5,-42 10,-42c7,0 8,14 4,38c-9,51 -14,53 -14,4z" id="svg_165"/>
    <path d="m5551,1284c0,-11 3,-14 6,-6c3,7 2,16 -1,19c-3,4 -6,-2 -5,-13z" id="svg_166"/>
    <path d="m5492,1265c0,-16 2,-22 5,-12c2,9 2,23 0,30c-3,6 -5,-1 -5,-18z" id="svg_167"/>
    <path d="m5182,1200c0,-19 2,-27 5,-17c2,9 2,25 0,35c-3,9 -5,1 -5,-18z" id="svg_168"/>
    <path d="m5710,1189c11,-38 26,-55 17,-19c-4,14 -7,31 -7,38c0,6 -4,12 -9,12c-6,0 -6,-12 -1,-31z" id="svg_169"/>
    <path d="m5331,1203c0,-6 -4,-20 -7,-30c-5,-14 -4,-15 5,-7c7,7 11,20 8,30c-3,11 -5,14 -6,7z" id="svg_170"/>
    <path d="m5833,1155c0,-22 2,-30 4,-17c2,12 2,30 0,40c-3,9 -5,-1 -4,-23z" id="svg_171"/>
    <path d="m4752,1130c0,-19 2,-27 5,-17c2,9 2,25 0,35c-3,9 -5,1 -5,-18z" id="svg_172"/>
    <path d="m4830,1130c0,-16 5,-30 10,-30c6,0 10,14 10,30c0,17 -4,30 -10,30c-5,0 -10,-13 -10,-30z" id="svg_173"/>
    <path d="m5523,1115c0,-27 2,-38 4,-22c2,15 2,37 0,50c-2,12 -4,0 -4,-28z" id="svg_174"/>
    <path d="m5452,1120c0,-14 2,-19 5,-12c2,6 2,18 0,25c-3,6 -5,1 -5,-13z" id="svg_175"/>
    <path d="m5630,1095c0,-14 4,-25 9,-25c4,0 6,11 3,25c-2,14 -6,25 -8,25c-2,0 -4,-11 -4,-25z" id="svg_176"/>
    <path d="m5886,1053c9,-38 14,-42 14,-10c0,14 -5,29 -10,32c-7,4 -8,-3 -4,-22z" id="svg_177"/>
    <path d="m4768,1010c-3,-16 -1,-30 4,-30c4,0 8,14 8,30c0,17 -2,30 -4,30c-2,0 -6,-13 -8,-30z" id="svg_178"/>
    <path d="m5030,1033c0,-4 5,-15 10,-23c8,-13 10,-13 10,2c0,9 -4,20 -10,23c-5,3 -10,3 -10,-2z" id="svg_179"/>
    <path d="m5757,1003c8,-50 13,-55 13,-10c0,20 -4,38 -9,42c-6,3 -7,-10 -4,-32z" id="svg_180"/>
    <path d="m5262,995c0,-16 2,-22 5,-12c2,9 2,23 0,30c-3,6 -5,-1 -5,-18z" id="svg_181"/>
    <path d="m5841,968c0,-27 4,-48 9,-48c11,0 11,21 0,65c-7,27 -8,25 -9,-17z" id="svg_182"/>
    <path d="m5466,975c4,-8 8,-15 10,-15c2,0 4,7 4,15c0,8 -4,15 -10,15c-5,0 -7,-7 -4,-15z" id="svg_183"/>
    <path d="m5631,965c1,-11 5,-31 9,-45c8,-24 8,-24 9,5c0,17 -4,37 -9,45c-8,12 -10,11 -9,-5z" id="svg_184"/>
    <path d="m4833,935c0,-22 2,-30 4,-17c2,12 2,30 0,40c-3,9 -5,-1 -4,-23z" id="svg_185"/>
    <path d="m5180,872c0,-5 7,-15 15,-22c8,-7 15,-8 15,-2c0,5 -7,15 -15,22c-8,7 -15,8 -15,2z" id="svg_186"/>
    <path d="m4712,830c0,-19 2,-27 5,-17c2,9 2,25 0,35c-3,9 -5,1 -5,-18z" id="svg_187"/>
    <path d="m5771,853c0,-4 4,-17 9,-28c8,-19 9,-19 9,2c1,12 -3,25 -9,28c-5,3 -10,3 -9,-2z" id="svg_188"/>
    <path d="m5881,823c-1,-12 4,-25 9,-28c12,-7 12,2 0,30c-8,19 -9,19 -9,-2z" id="svg_189"/>
    <path d="m4820,811c0,-6 5,-13 10,-16c6,-3 10,1 10,9c0,9 -4,16 -10,16c-5,0 -10,-4 -10,-9z" id="svg_190"/>
    <path d="m5376,775c4,-8 11,-15 16,-15c6,0 5,6 -2,15c-7,8 -14,15 -16,15c-2,0 -1,-7 2,-15z" id="svg_191"/>
    <path d="m10943,2794c-7,-3 -10,-13 -7,-22c5,-14 2,-13 -10,2c-9,11 -16,16 -16,12c0,-13 71,-135 82,-143c6,-3 -3,20 -21,51c-18,31 -31,59 -28,62c2,3 23,-21 46,-53c22,-32 41,-54 41,-48c0,5 -18,35 -41,68c-23,32 -40,60 -38,62c2,2 26,-17 52,-41c65,-60 73,-56 12,6c-27,28 -52,50 -55,49c-3,0 -10,-3 -17,-5z" id="svg_192"/>
    <path d="m10901,2732c12,-29 23,-51 25,-49c7,6 -18,71 -33,87c-8,9 -5,-6 8,-38z" id="svg_193"/>
    <path d="m11639,2693c-41,-60 -38,-57 -45,-51c-3,3 4,21 15,39c12,19 21,39 21,44c0,6 -14,-11 -30,-37c-17,-27 -35,-48 -41,-48c-11,0 -7,9 23,53c11,15 16,27 11,27c-5,0 -19,-18 -33,-40c-30,-49 -50,-54 -21,-5c11,19 17,35 12,35c-4,0 -16,-16 -27,-35c-10,-19 -24,-35 -32,-35c-10,0 -9,7 3,30c21,41 12,38 -13,-3c-17,-30 -26,-35 -71,-40c-78,-9 -157,-37 -196,-70c-40,-33 -43,-47 -14,-73c57,-51 543,-14 608,47c28,26 27,45 -4,73c-22,21 -23,25 -10,36c8,7 15,17 15,23c0,6 -10,1 -23,-11c-35,-33 -45,-26 -12,8c16,17 24,30 19,30c-6,0 -20,-13 -32,-30c-13,-16 -27,-30 -33,-30c-6,0 0,15 15,34c39,51 32,56 -10,7c-46,-53 -58,-46 -14,9c17,22 28,40 23,40c-4,0 -21,-18 -37,-40c-17,-22 -36,-40 -44,-40c-10,0 -8,9 10,33c34,44 41,57 31,57c-4,0 -21,-20 -36,-45c-16,-25 -33,-45 -39,-45c-11,0 -5,12 29,58c14,18 23,36 20,38c-3,3 -20,-16 -38,-43zm87,-74c89,-16 119,-52 70,-84c-59,-39 -408,-79 -529,-61c-87,13 -95,56 -17,96c54,27 64,25 79,-15c22,-61 52,-44 76,42c4,16 15,23 43,26c81,8 221,6 278,-4z" id="svg_194"/>
    <path d="m11921,2665c0,-11 4,-29 9,-40l9,-20l0,20c0,11 -4,29 -9,40l-9,20l0,-20z" id="svg_195"/>
    <path d="m11911,2535c0,-11 4,-29 9,-40l9,-20l0,20c0,11 -4,29 -9,40l-9,20l0,-20z" id="svg_196"/>
    <path d="m10900,2453c0,-25 2,-44 4,-42c8,10 13,89 5,89c-5,0 -9,-21 -9,-47z" id="svg_197"/>
    <path d="m11996,2453c9,-38 14,-42 14,-10c0,14 -5,29 -10,32c-7,4 -8,-3 -4,-22z" id="svg_198"/>
    <path d="m11052,2440c0,-19 2,-27 5,-17c2,9 2,25 0,35c-3,9 -5,1 -5,-18z" id="svg_199"/>
    <path d="m11505,2440l-110,-6l115,-1c63,0 129,3 145,7l30,8l-35,-1c-19,-1 -84,-4 -145,-7z" id="svg_200"/>
    <path d="m10977,2434c-4,-4 -7,-17 -7,-28c1,-19 1,-20 11,-3c11,19 8,43 -4,31z" id="svg_201"/>
    <path d="m11117,2416c-4,-10 -5,-21 -2,-24c9,-9 17,6 13,25c-3,17 -4,17 -11,-1z" id="svg_202"/>
    <path d="m11821,2405c0,-11 4,-27 9,-35c9,-13 10,-13 9,0c0,8 -4,24 -9,35l-9,20l0,-20z" id="svg_203"/>
    <path d="m11326,2344c-4,-14 -5,-29 -2,-31c3,-3 8,7 12,21c3,15 4,29 1,32c-2,3 -8,-7 -11,-22z" id="svg_204"/>
    <path d="m11935,2331c5,-34 12,-48 19,-40c2,2 -3,20 -10,39l-14,35l5,-34z" id="svg_205"/>
    <path d="m11042,2330c0,-14 2,-19 5,-12c2,6 2,18 0,25c-3,6 -5,1 -5,-13z" id="svg_206"/>
    <path d="m10827,2310c-3,-11 -1,-23 4,-26c5,-3 9,6 9,20c0,31 -6,34 -13,6z" id="svg_207"/>
    <path d="m11711,2310c0,-14 4,-34 9,-45c8,-18 9,-18 9,5c0,14 -4,34 -9,45c-8,18 -9,18 -9,-5z" id="svg_208"/>
    <path d="m11201,2280c0,-25 4,-52 9,-60c13,-19 13,56 0,85c-7,15 -9,9 -9,-25z" id="svg_209"/>
    <path d="m11610,2308c0,-7 5,-20 10,-28c8,-12 10,-9 10,13c0,15 -4,27 -10,27c-5,0 -10,-6 -10,-12z" id="svg_210"/>
    <path d="m10927,2276c-5,-21 -6,-41 -3,-44c12,-11 17,7 14,44l-3,39l-8,-39z" id="svg_211"/>
    <path d="m11471,2263c-1,-17 4,-35 9,-38c11,-7 11,9 0,45c-8,24 -8,24 -9,-7z" id="svg_212"/>
    <path d="m11941,2213c11,-34 19,-42 19,-20c0,7 -7,22 -15,33c-13,17 -14,16 -4,-13z" id="svg_213"/>
    <path d="m11323,2175c0,-27 2,-38 4,-22c2,15 2,37 0,50c-2,12 -4,0 -4,-28z" id="svg_214"/>
    <path d="m11780,2200c0,-8 5,-22 10,-30c9,-13 10,-13 10,0c0,8 -5,22 -10,30c-9,13 -10,13 -10,0z" id="svg_215"/>
    <path d="m11142,2180c0,-14 2,-19 5,-12c2,6 2,18 0,25c-3,6 -5,1 -5,-13z" id="svg_216"/>
    <path d="m11521,2190c0,-8 4,-24 9,-35c5,-13 9,-14 9,-5c0,8 -4,24 -9,35c-5,13 -9,14 -9,5z" id="svg_217"/>
    <path d="m11601,2163c-1,-12 4,-25 9,-28c12,-7 12,2 0,30c-8,19 -9,19 -9,-2z" id="svg_218"/>
    <path d="m12013,2166c4,-10 7,-22 7,-27c0,-5 4,-9 9,-9c12,0 2,38 -12,47c-7,4 -8,0 -4,-11z" id="svg_219"/>
    <path d="m11718,2125c2,-14 9,-28 15,-32c7,-4 8,0 4,11c-4,10 -7,24 -7,32c0,8 -4,14 -9,14c-4,0 -6,-11 -3,-25z" id="svg_220"/>
    <path d="m10892,2115c0,-16 2,-22 5,-12c2,9 2,23 0,30c-3,6 -5,-1 -5,-18z" id="svg_221"/>
    <path d="m11420,2120c0,-11 4,-20 9,-20c5,0 7,9 4,20c-3,11 -7,20 -9,20c-2,0 -4,-9 -4,-20z" id="svg_222"/>
    <path d="m11916,2115c3,-16 11,-34 16,-40c6,-6 7,1 2,20c-3,17 -11,35 -16,40c-6,6 -7,-1 -2,-20z" id="svg_223"/>
    <path d="m10953,2053c-1,-56 -1,-57 7,-18c11,52 12,75 2,75c-5,0 -9,-26 -9,-57z" id="svg_224"/>
    <path d="m11020,2080c0,-11 2,-20 4,-20c2,0 6,9 9,20c3,11 1,20 -4,20c-5,0 -9,-9 -9,-20z" id="svg_225"/>
    <path d="m11840,2091c0,-5 5,-13 10,-16c6,-3 10,-2 10,4c0,5 -4,13 -10,16c-5,3 -10,2 -10,-4z" id="svg_226"/>
    <path d="m11170,2069c0,-11 5,-17 10,-14c6,3 10,13 10,21c0,8 -4,14 -10,14c-5,0 -10,-9 -10,-21z" id="svg_227"/>
    <path d="m10827,2073c-4,-3 -6,-29 -6,-57l1,-51l9,54c9,54 8,67 -4,54z" id="svg_228"/>
    <path d="m10892,1980c0,-14 2,-19 5,-12c2,6 2,18 0,25c-3,6 -5,1 -5,-13z" id="svg_229"/>
    <path d="m11961,1995c1,-19 18,-51 18,-35c0,8 -4,22 -9,30c-5,8 -9,11 -9,5z" id="svg_230"/>
    <path d="m10772,1850c0,-19 2,-27 5,-17c2,9 2,25 0,35c-3,9 -5,1 -5,-18z" id="svg_231"/>
    <path d="m3573,2833c8,-14 186,-24 223,-13c21,6 -2,9 -83,9c-61,1 -119,4 -129,8c-11,4 -15,2 -11,-4z" id="svg_232"/>
    <path d="m4730,2775c-22,-8 -28,-13 -15,-13c11,0 36,6 55,13c22,8 28,13 15,13c-11,0 -36,-6 -55,-13z" id="svg_233"/>
    <path d="m3650,2730c0,-6 30,-10 73,-9c65,1 68,2 32,10c-56,11 -105,11 -105,-1z" id="svg_234"/>
    <path d="m4755,2710c-16,-7 -13,-9 18,-9c20,-1 37,4 37,9c0,12 -27,12 -55,0z" id="svg_235"/>
    <path d="m2095,1800l-90,-6l100,-1c55,0 114,3 130,7c28,7 27,8 -10,7c-22,0 -80,-4 -130,-7z" id="svg_236"/>
    <path d="m2753,1803c31,-2 83,-2 115,0c31,2 5,3 -58,3c-63,0 -89,-1 -57,-3z" id="svg_237"/>
    <path d="m2517,1664c-12,-12 -8,-52 6,-57c22,-8 39,8 35,34c-3,23 -27,37 -41,23z" id="svg_238"/>
    <path d="m2530,1564c0,-8 5,-12 10,-9c6,4 8,11 5,16c-9,14 -15,11 -15,-7z" id="svg_239"/>
    <path d="m13930,1850c-20,-4 31,-7 118,-7c83,0 152,4 152,8c0,11 -219,10 -270,-1z" id="svg_240"/>
    <path d="m13870,1770c-8,-5 -10,-10 -5,-10c6,0 17,5 25,10c8,5 11,10 5,10c-5,0 -17,-5 -25,-10z" id="svg_241"/>
    <path d="m13672,1455c-6,-49 -16,-142 -21,-205c-11,-122 -29,-306 -36,-380c-4,-43 -4,-44 5,-10c9,36 22,145 40,360c6,69 16,164 22,211c6,48 8,93 6,100c-3,8 -10,-26 -16,-76z" id="svg_242"/>
    <path d="m13837,1470c-57,-393 -89,-651 -83,-657c5,-6 13,35 21,112c3,33 22,169 41,303c19,134 34,253 31,265c-2,14 -6,5 -10,-23z" id="svg_243"/>
    <path d="m11090,1109c-19,-4 48,-6 150,-6c183,1 178,4 -15,9c-55,2 -116,0 -135,-3z" id="svg_244"/>
    <path d="m11407,1053c-21,-19 -42,-32 -45,-28c-4,4 3,14 16,22c12,9 22,20 22,25c0,5 -14,-2 -30,-16c-25,-21 -37,-24 -63,-18c-18,4 -79,7 -137,7c-120,0 -170,-17 -196,-67c-14,-27 -14,-32 0,-54c9,-13 29,-30 44,-38c44,-22 176,-39 329,-40c136,-1 142,0 167,23c14,14 26,32 26,41c0,27 -40,71 -78,87l-34,14l28,31l29,31l-36,-26c-48,-36 -72,-34 -29,2c19,16 33,31 30,34c-3,3 -22,-10 -43,-30zm-32,-44c94,-24 143,-51 151,-85c14,-56 -53,-79 -206,-70c-206,13 -309,35 -332,70c-13,19 -9,49 9,68c24,27 43,23 43,-10c0,-40 21,-65 51,-60c18,2 32,18 54,61l30,58l60,-6c33,-4 96,-15 140,-26z" id="svg_245"/>
    <path d="m11995,1070c-17,-5 14,-6 70,-3c55,3 102,7 104,9c8,7 -144,2 -174,-6z" id="svg_246"/>
    <path d="m11556,955c9,-14 19,-24 21,-21c7,7 -16,46 -28,46c-5,0 -2,-11 7,-25z" id="svg_247"/>
    <path d="m11580,971c0,-5 5,-13 10,-16c6,-3 10,-2 10,4c0,5 -4,13 -10,16c-5,3 -10,2 -10,-4z" id="svg_248"/>
    <path d="m12151,936c-19,-20 -34,-24 -106,-28c-102,-7 -158,-31 -163,-71c-2,-19 4,-30 24,-44c41,-27 286,-32 338,-8c50,24 59,60 22,91l-26,23l25,17c14,9 23,19 21,21c-3,3 -18,-4 -34,-16c-17,-12 -38,-21 -48,-21c-15,0 -14,3 6,25c13,14 19,25 13,25c-5,0 -18,-9 -28,-20c-10,-11 -27,-20 -38,-20c-20,0 -20,1 3,25c13,14 21,25 18,25c-2,0 -14,-11 -27,-24zm88,-57c31,-11 48,-40 35,-60c-23,-38 -228,-53 -334,-26c-53,14 -66,45 -28,71c31,22 58,20 58,-3c0,-10 8,-29 18,-41l17,-21l26,20c15,11 32,35 39,52l13,31l63,-6c34,-3 76,-11 93,-17z" id="svg_249"/>
    <path d="m12312,850c0,-14 2,-19 5,-12c2,6 2,18 0,25c-3,6 -5,1 -5,-13z" id="svg_250"/>
    <path d="m12331,844c0,-11 3,-14 6,-6c3,7 2,16 -1,19c-3,4 -6,-2 -5,-13z" id="svg_251"/>
    <path d="m7071,578c-1,-12 -9,-18 -27,-18c-14,0 -23,-4 -19,-10c3,-5 12,-7 19,-4c8,3 17,1 20,-4c10,-17 -4,-41 -27,-45c-22,-4 -22,-4 1,-6c27,-1 31,-38 5,-43c-36,-8 20,-14 62,-7l40,6l-37,2c-31,1 -38,5 -38,21c0,17 7,20 43,22l42,1l-37,4c-30,3 -38,9 -38,24c0,10 7,19 15,19c8,0 15,5 15,10c0,6 -6,10 -14,10c-8,0 -17,8 -19,18c-4,16 -5,16 -6,0z" id="svg_252"/>
    <path d="m7170,453c0,-30 9,-27 15,6c2,11 0,21 -6,21c-5,0 -9,-12 -9,-27z" id="svg_253"/>
    <path d="m8450,609c-21,-4 -26,-7 -12,-8c12,0 25,-1 28,0c11,1 24,-25 24,-48c0,-21 -4,-23 -60,-23c-41,0 -60,4 -60,13c0,8 -3,9 -8,1c-4,-6 -14,-14 -22,-17c-12,-4 -11,-6 3,-6c9,-1 17,-7 17,-15c0,-8 3,-21 6,-29c4,-11 -2,-17 -18,-20c-22,-4 -22,-4 -1,-6c12,0 24,-9 26,-18c4,-17 5,-17 6,0c1,14 11,17 64,17c56,0 65,-3 76,-22l11,-23l-6,23c-5,20 -2,22 38,22c24,0 48,-4 54,-9c5,-6 14,-4 22,5c10,11 10,14 -2,14c-8,0 -19,14 -25,30c-7,22 -7,30 2,30c8,0 8,3 -1,9c-8,5 -34,6 -58,3c-45,-5 -49,-2 -56,43c-2,16 4,21 32,25l35,6l-40,5c-22,2 -56,1 -75,-2zm52,-119l5,-30l-64,0c-48,0 -63,3 -63,14c0,8 -3,21 -6,30c-5,14 4,16 59,16c64,0 65,0 69,-30zm97,0l10,-30l-45,0c-24,0 -44,3 -44,8c0,4 -3,17 -6,30c-6,20 -3,22 34,22c36,0 41,-3 51,-30z" id="svg_254"/>
    <path d="m8993,613c15,-2 37,-2 50,0c12,2 0,4 -28,4c-27,0 -38,-2 -22,-4z" id="svg_255"/>
    <path d="m8778,603c6,-2 18,-2 25,0c6,3 1,5 -13,5c-14,0 -19,-2 -12,-5z" id="svg_256"/>
    <path d="m9004,575c3,-8 9,-21 12,-29c3,-9 -2,-16 -13,-19c-13,-3 -10,-5 8,-6c17,-1 30,-9 37,-26c18,-38 15,-43 -20,-48c-29,-3 -28,-4 9,-5c32,-2 45,-7 53,-23c7,-11 14,-18 17,-15c3,3 0,12 -7,21c-11,13 -7,15 33,15c25,0 49,-4 52,-10c3,-5 11,-10 16,-10c6,0 8,4 4,9c-3,5 5,12 17,14c18,3 17,5 -7,6c-21,1 -36,11 -53,34l-22,32l22,7c20,5 19,6 -8,7c-22,1 -34,8 -44,26c-7,14 -17,25 -22,25c-5,0 -1,-11 8,-25l16,-25l-36,0c-29,0 -38,5 -51,30c-16,31 -32,42 -21,15zm144,-90l22,-35l-45,0c-39,0 -46,3 -60,30c-20,40 -20,40 23,40c31,0 40,-6 60,-35z" id="svg_257"/>
    <path d="m8816,538c4,-12 -1,-18 -18,-21c-22,-4 -22,-4 3,-6c17,-1 30,-9 37,-26c14,-31 1,-39 -53,-33c-19,2 -35,0 -35,-4c0,-4 24,-8 54,-8c44,0 55,-4 59,-17c4,-16 5,-16 6,-1c0,9 11,19 24,21c19,4 19,4 -5,6c-19,1 -29,8 -36,30c-8,22 -7,31 1,35c8,3 7,5 -2,5c-8,1 -20,9 -27,19c-12,15 -13,15 -8,0z" id="svg_258"/>
    <path d="m6455,559c-31,-5 -34,-6 -12,-8c24,-1 26,-3 17,-21c-8,-15 -21,-20 -58,-21l-47,-1l32,-11c28,-11 30,-14 19,-29c-8,-11 -28,-19 -52,-19c-30,-2 -33,-3 -11,-6c17,-3 27,-11 27,-21c1,-15 2,-16 13,-1c9,12 24,14 67,10c30,-3 78,-3 105,0c45,5 46,6 13,7c-21,1 -38,5 -38,10c1,16 28,42 46,42c16,0 16,2 4,10c-12,8 -12,11 3,28c21,23 24,50 4,33c-8,-6 -16,-9 -18,-7c-10,8 -77,12 -114,5zm83,-15c27,-6 30,-9 21,-25c-8,-15 -20,-19 -54,-17c-50,1 -52,4 -28,30c18,20 19,20 61,12zm-11,-76c-12,-19 -24,-23 -66,-23c-28,-1 -51,1 -51,4c0,2 7,13 17,23c11,13 30,18 66,18c49,0 49,0 34,-22z" id="svg_259"/>
    <path d="m6775,552c-6,-4 -10,-16 -10,-27c0,-12 -9,-22 -25,-26c-17,-5 -19,-7 -7,-8c30,-2 16,-35 -18,-42l-30,-6l24,-10c13,-5 36,-7 50,-4c19,4 21,6 9,9c-23,5 -23,17 0,40c10,10 16,24 14,30c-2,7 1,19 8,26c12,15 0,29 -15,18z" id="svg_260"/>
   </g>
   <use id="svg_264" transform="matrix(0.510722 0 0 0.510722 722.564 296.564)" xlink:href="#svg_263"/>
   <use id="svg_275" transform="matrix(0.718024 0 0 0.573796 705.41 296.492)" xlink:href="#svg_274"/>
  </g>
 </g>
 <defs>
  <symbol height="226.88px" id="svg_263" version="1.1" width="226.88px" xmlns="http://www.w3.org/2000/svg" xmlns:svgjs="http://svgjs.dev/svgjs" xmlns:xlink="http://www.w3.org/1999/xlink">
   <style>@media (prefers-color-scheme: light) { :root { filter: none; } }
@media (prefers-color-scheme: dark) { :root { filter: none; } }</style>
  </symbol>
  <symbol height="226.88px" id="svg_274" preserveAspectRatio="none" viewBox="93.011 101.654 275.392 240.314" width="226.88px" xmlns="http://www.w3.org/2000/svg" xmlns:bx="https://boxy-svg.com">

   <g id="svg_272">
    <path d="m178.65,181.69c5.62,-22.56 19.67,-33.84 42.16,-33.84c33.72,0 37.94,25.38 54.8,29.61c11.24,2.82 21.08,-1.41 29.51,-12.69c-5.62,22.55 -19.67,33.83 -42.16,33.83c-33.72,0 -37.94,-25.37 -54.8,-29.6c-11.24,-2.82 -21.08,1.4 -29.51,12.69zm-42.16,50.75c5.63,-22.56 19.68,-33.84 42.16,-33.84c33.72,0 37.94,25.38 54.8,29.61c11.25,2.82 21.08,-1.41 29.51,-12.69c-5.62,22.55 -19.67,33.83 -42.15,33.83c-33.73,0 -37.94,-25.37 -54.81,-29.6c-11.24,-2.82 -21.08,1.41 -29.51,12.69z" fill="rgb(255, 255, 255)" id="svg_273"/>
   </g>
   <path d="m340.42,257.39c0,13.91 -11.29,25.21 -25.21,25.21l-151.26,0l-50.42,50.41l0,-201.67c0,-13.93 11.3,-25.21 25.21,-25.21l176.47,0c13.92,0 25.21,11.28 25.21,25.21l0,126.05z" id="svg_271" stroke="rgb(255, 255, 255)" stroke-width="4px"/>
   <path d="m172.2,180.16l0,17.98" fill="none" id="svg_270" stroke="rgb(255, 255, 255)" stroke-linecap="round" stroke-width="17px"/>
   <path d="m196.17,156.18l0,65.94" fill="none" id="svg_269" stroke="rgb(255, 255, 255)" stroke-linecap="round" stroke-width="17px"/>
   <path d="m220.15,138.2l0,107.89" fill="none" id="svg_268" stroke="rgb(255, 255, 255)" stroke-linecap="round" stroke-width="17px"/>
   <path d="m244.12,168.17l0,41.96" fill="none" id="svg_267" stroke="rgb(255, 255, 255)" stroke-linecap="round" stroke-width="17px"/>
   <path d="m268.1,150.19l0,77.92" fill="none" id="svg_266" stroke="rgb(255, 255, 255)" stroke-linecap="round" stroke-width="17px"/>
   <path d="m292.07,180.16l0,17.98" fill="none" id="svg_265" stroke="rgb(255, 255, 255)" stroke-linecap="round" stroke-width="17px"/>
  </symbol>
 </defs>
</svg>