<svg width="1240" height="1156" viewBox="0 0 1240 1156" fill="none" xmlns="http://www.w3.org/2000/svg">
<g clip-path="url(#clip0_5067_64774)">
<path d="M117.981 162.227C429.089 172.287 740.198 182.346 1051.28 192.406C1056.22 192.565 1061.34 192.776 1065.8 194.968C1076.71 200.354 1079.48 214.85 1080.9 227.313C1105.99 445.595 1131.04 663.903 1156.13 882.185C826.958 885.75 497.764 889.341 168.595 892.906C158.668 893.011 148.054 892.906 139.869 887.07C128.542 878.991 125.902 863.069 124.265 848.89C117.189 788.187 110.112 727.484 103.036 666.755C93.9009 588.256 98.4951 523.091 91.4454 444.354C82.4419 343.543 106.099 253.268 117.981 162.227Z" fill="#000000"/>
<path d="M107.367 507.988C171.448 396.484 246.063 290.63 329.999 192.17C332.797 188.896 336.019 185.384 340.402 184.909C344.309 184.46 347.953 186.572 351.253 188.658C381.67 207.986 408.786 232.119 431.255 259.79C442.872 274.101 453.882 289.891 470.569 298.314C480.998 303.568 492.853 305.469 504.286 308.11C556.274 320.124 603.905 349.115 637.516 389.249" stroke="white" stroke-width="3" stroke-miterlimit="10"/>
<path d="M450.448 281.202C462.224 266.415 471.28 254.269 483.056 239.483C488.522 232.645 494.198 225.595 502.014 221.396C513.605 215.191 528.258 216.327 540.377 221.528C552.496 226.73 562.556 235.443 572.088 244.342C604.062 274.152 633.713 308.081 673.898 326.379" stroke="white" stroke-width="3" stroke-miterlimit="10"/>
<path d="M206.905 348.612C225.308 335.859 243.711 323.08 262.114 310.327C268.821 305.68 276.134 300.821 284.399 300.9C291.765 300.953 298.392 304.94 304.597 308.795C322.34 319.832 340.056 330.869 357.799 341.879C362.869 345.048 368.361 348.322 374.381 348.216C388.955 348.005 395.424 330.103 407.939 322.895C418.923 316.558 433.128 319.436 444.771 324.585C456.415 329.707 467.293 336.942 479.861 339.239C492.059 341.483 504.654 338.817 516.43 334.988C524.298 332.427 533.486 324.057 527.809 318.195" stroke="white" stroke-width="3" stroke-miterlimit="10"/>
<path d="M450.448 281.204C456.125 287.858 465.894 291 474.581 288.994C488.838 285.667 498.132 270.379 512.68 268.689C516.799 268.214 520.945 268.9 525.037 269.587C533.935 271.092 543.15 272.702 550.543 277.693C554.582 280.412 557.935 284.056 562.239 286.38C567.81 289.39 574.385 289.918 580.748 290.393C583.335 290.578 586.16 290.71 588.326 289.284C589.54 288.466 590.385 287.225 591.151 285.984C594.081 281.152 596.194 275.871 597.303 270.379" stroke="white" stroke-width="3" stroke-miterlimit="10"/>
<path d="M828.332 238.85C828.516 237.371 828.701 235.919 828.886 234.44C830.127 235.497 830.945 237.028 831.157 238.665C829.678 238.137 828.094 237.873 826.536 237.899C828.648 237.767 830.734 237.266 832.662 236.394C831.368 237.847 829.705 238.982 827.883 239.668C827.777 239.721 828.2 240.038 828.332 238.85Z" fill="white"/>
<path d="M896.239 283.395C896.952 281.045 897.638 278.668 898.351 276.318C898.8 278.246 899.223 280.173 899.671 282.074C897.612 281.89 895.553 281.731 893.493 281.546C896.609 281.229 899.645 280.068 902.153 278.167C900.305 280.121 898.51 282.074 896.239 283.395Z" fill="white"/>
<path d="M725.544 206.903C725.676 204.21 725.808 201.516 725.94 198.823C726.31 200.038 726.679 201.358 726.336 202.573C725.993 203.814 724.646 204.843 723.458 204.368C725.465 203.259 727.682 202.52 729.953 202.256C728.95 203.153 727.92 204.051 726.917 204.949C726.732 205.107 726.653 205.371 726.521 205.556C726.389 205.767 726.072 205.9 725.887 205.741C725.702 205.583 726.045 205.239 725.544 206.903Z" fill="white"/>
<path d="M646.758 260.845C647.233 259.155 647.682 257.465 648.157 255.775C649.082 256.277 649.821 257.096 650.243 258.046C650.349 258.257 650.428 258.495 650.349 258.733C650.243 259.076 649.821 259.208 649.478 259.287C647.788 259.604 646.045 259.472 644.435 258.891C646.256 258.442 648.078 257.967 649.9 257.518C650.587 257.333 651.379 257.175 652.012 257.492C649.953 259.023 647.867 260.528 645.808 262.06C646.045 261.928 646.468 261.875 646.758 260.845Z" fill="white"/>
<path d="M403.583 193.04C403.636 190.32 403.847 187.6 404.19 184.907C404.269 187.072 405.405 189.185 407.147 190.478C405.484 191.984 402.87 191.429 400.731 190.795C403.213 189.581 405.695 188.393 408.177 187.178C408.732 187.6 408.441 188.472 408.045 189.053C406.936 190.769 405.537 192.3 403.926 193.541C404.032 193.33 404.137 193.119 403.583 193.04Z" fill="white"/>
<path d="M454.753 233.914C456.337 231.881 457.552 229.584 458.318 227.128C459.321 228.475 460.113 229.953 460.667 231.537C458.529 232.646 455.783 232.435 453.855 231.036C456.153 230.613 458.476 230.323 460.826 230.138C461.169 230.112 461.644 230.191 461.671 230.56C461.671 230.719 461.565 230.877 461.433 230.983C459.823 232.62 457.658 233.676 455.36 233.914C455.202 233.94 455.044 233.94 454.938 233.808C454.832 233.65 455.017 233.438 454.753 233.914Z" fill="white"/>
<path d="M271.937 185.277C271.885 183.719 271.805 182.135 271.753 180.577C272.201 182.267 272.809 183.904 273.574 185.462C272.571 184.96 271.568 184.432 270.538 183.93C271.647 183.666 272.756 183.429 273.865 183.165C273.02 184.194 272.201 185.224 271.937 185.277Z" fill="white"/>
<path d="M194.998 285.824C195.262 283.289 195.235 280.728 194.945 278.193C196.186 280.068 198.034 281.467 199.829 282.814C197.717 283.527 195.341 283.501 193.255 282.735C195.394 282.233 197.506 281.599 199.565 280.834C197.611 282.233 195.816 283.897 194.998 285.824Z" fill="white"/>
<path d="M164.345 177.198C164.609 175.799 164.846 174.373 165.11 172.974C164.477 174.452 165.163 176.38 166.589 177.145C165.269 177.251 163.922 176.776 162.972 175.852C164.107 175.614 165.269 175.588 166.404 175.799C165.823 176.485 165.137 177.066 164.345 177.198Z" fill="white"/>
<path d="M121.704 345.629C122.285 342.54 122.126 339.292 121.281 336.256C121.097 339.213 124.45 340.982 127.275 341.986C124.186 343.2 121.176 344.679 118.298 346.369C121.73 346.474 125.136 344.256 126.456 341.061C124.344 342.593 122.786 344.811 121.704 345.629Z" fill="white"/>
<path d="M1071.82 307.08C1072.67 305.76 1073.77 304.598 1075.04 303.674C1075.57 304.519 1076.07 305.39 1076.6 306.235C1074.8 306.129 1072.96 306.393 1071.27 306.974C1072.88 306.209 1074.65 305.76 1076.44 305.628C1075.2 306.948 1073.99 308.242 1071.82 307.08Z" fill="white"/>
<path d="M937.006 200.619C937.27 198.797 937.534 197.002 937.798 195.18C938.722 196.289 938.273 198.084 937.217 199.061C936.161 200.038 934.683 200.408 933.283 200.751C935.554 199.325 938.036 198.216 940.623 197.477C939.937 198.454 939.224 199.431 937.006 200.619Z" fill="white"/>
<path d="M664.237 910.992C685.175 854.646 717.413 798.141 774.787 763.657C817.402 738.072 870.208 726.85 914.222 702.981C930.856 693.977 946.619 682.623 954.514 667.467C966.025 645.393 958.685 619.465 945.748 597.919C929.695 571.198 905.219 548.068 875.436 531.46C859.568 522.615 842.247 515.565 827.224 505.769C812.201 495.947 799.237 482.56 796.755 466.77C792.081 437.224 824.795 412.642 857.693 401.051C937.563 372.877 1030.37 387.215 1110.37 415.124" stroke="#000000" stroke-width="3" stroke-miterlimit="10"/>
<path d="M1115.07 375.886C1111.59 391.834 1108.1 407.782 1104.64 423.731C1107.84 415.308 1093.16 412.456 1083.81 408.284C1051.86 394.105 1020.55 390.778 985.959 385.735C964.308 382.567 936.506 386.738 914.565 387.689C867.726 389.696 822.761 411.769 797.916 444.933C793.586 450.715 796.279 474.057 802.008 479.628C835.751 512.369 889.376 527.842 921.35 561.797C947.463 589.548 968.823 611.437 957.681 661.42C952.559 684.444 922.248 701.158 898.485 710.848C820.464 742.665 767.103 753.464 718.099 814.458C672.659 870.989 675.748 888.098 658.243 935.124C542.808 923.295 445.486 949.145 336.653 923.005C334.382 922.45 331.979 921.816 330.527 920.285C328.388 918.014 329.128 914.74 330.078 911.968C347.451 859.74 389.696 815.144 439.915 780.74C490.134 746.335 548.274 721.093 606.387 696.854C652.276 677.711 700.937 658.542 752.185 660.469C768.899 661.103 785.533 663.981 802.193 662.951C837.468 660.786 872.478 632.93 862.92 604.519C857.64 588.782 841.111 577.877 826.906 566.603C789.81 537.136 736.423 489.239 740.119 462.544C744.898 427.929 759.261 415.968 772.41 404.271C790.602 388.059 809.296 371.609 832.689 360.968C885.231 337.099 959.556 340.215 1018.04 350.723C1051.94 356.823 1077.05 360.202 1115.07 375.886Z" fill="#000000" stroke="white" stroke-width="3" stroke-miterlimit="10"/>
<path d="M1206.69 411.796C1204.15 419.928 1201.59 428.061 1199.06 436.193L1206.69 411.796Z" fill="white"/>
<path d="M478.489 915.347C493.513 875.846 523.243 842.155 560.524 822.299C563.666 820.609 566.993 818.998 570.557 818.814C573.356 818.655 576.102 819.394 578.769 820.187C588.802 823.197 598.518 827.316 607.654 832.438C578.504 862.063 554.847 897.075 538.213 935.15C524.457 935.15 510.543 935.15 497.236 931.664C489.473 929.605 481.262 925.644 478.489 915.347Z" stroke="white" stroke-width="3" stroke-miterlimit="10"/>
<path d="M633.608 764.951C661.517 743.51 691.009 721.357 725.782 715.76C730.297 723.892 735.973 731.391 742.548 737.939C734.917 737.675 727.577 740.632 720.66 743.854C699.379 753.729 679.471 766.535 661.701 781.849C656.262 781.532 650.929 779.473 646.731 775.987C642.691 772.66 638.572 767.723 633.608 764.951Z" stroke="white" stroke-width="3" stroke-miterlimit="10"/>
<path d="M780.702 703.693C794.009 694.769 809.719 690.122 825.139 685.606C829.944 684.207 834.723 682.808 839.528 681.408C841.324 687.508 844.228 693.29 848.057 698.412C837.654 705.145 825.508 708.631 813.548 712.01C808.425 713.463 803.303 714.915 798.181 716.367C793.983 717.555 783.976 720.882 783.976 720.882C783.976 720.882 778.88 713.727 780.702 703.693Z" stroke="white" stroke-width="3" stroke-miterlimit="10"/>
<path d="M1108.23 389.748C1104.3 387.161 1099.73 385.392 1094.98 384.6C1093.87 388.455 1092.73 392.31 1091.63 396.165C1097.43 396.429 1103.16 397.96 1108.18 400.6C1109.76 397.115 1112.27 392.415 1108.23 389.748Z" stroke="white" stroke-width="3" stroke-miterlimit="10"/>
<path d="M1061.02 375.305C1064.59 375.596 1068.12 376.388 1071.5 377.629C1070.76 380.454 1069.55 383.147 1067.97 385.603C1060.92 382.487 1053.02 381.405 1045.39 382.487C1046.69 379.213 1046.76 375.49 1045.63 372.163C1051.57 371.899 1057.56 372.744 1061.02 375.305Z" stroke="white" stroke-width="3" stroke-miterlimit="10"/>
<path d="M939.674 358.988C939.674 358.988 939.991 358.988 939.701 358.751C930.935 357.589 921.905 358.275 913.43 360.757C913.562 363.371 914.063 365.959 914.935 368.441C918.129 366.619 922.169 367.305 925.813 368.071C930.513 369.048 935.212 370.025 939.912 371.002C939.859 367.781 939.78 364.559 939.674 358.988Z" stroke="white" stroke-width="3" stroke-miterlimit="10"/>
<path d="M883.066 366.46C874.591 367.437 866.247 369.127 858.221 371.45C860.227 374.038 861.574 376.942 862.102 379.926C869.31 375.807 878.366 373.695 887.264 374.091C886.287 371.899 885.733 369.602 883.066 366.46Z" stroke="white" stroke-width="3" stroke-miterlimit="10"/>
<path d="M819.751 388.217C812.358 390.25 805.731 395.689 801.691 402.977C804.517 405.221 807.447 407.307 810.484 409.182C810.457 408.812 811.593 402.686 813.995 400.627C817.48 397.617 821.415 395.267 825.56 393.63C826.51 393.26 827.725 392.441 827.382 391.359C827.223 390.857 826.774 390.567 826.326 390.303C824.266 389.115 822.127 387.557 819.751 388.217Z" stroke="white" stroke-width="3" stroke-miterlimit="10"/>
<path d="M776.451 428.194C773.731 431.019 771.936 434.9 770.827 438.94C769.718 442.98 769.243 447.231 768.768 451.456C771.778 451.535 774.787 452.485 777.428 454.175C776.557 453.621 776.688 452.116 776.952 451.007C778.906 442.927 782.444 435.402 787.25 429.171C783.474 428.907 779.751 427.745 776.345 425.817C776.134 426.319 775.923 426.794 776.451 428.194Z" stroke="white" stroke-width="3" stroke-miterlimit="10"/>
<path d="M773.572 486.045C775.922 482.216 779.302 479.022 783.262 476.883C782.364 477.517 782.972 478.942 783.632 479.84C791.051 489.636 798.629 499.59 808.609 506.746C804.596 508.779 801.216 512.053 799.104 516.014C794.246 510.469 788.041 506.297 782.443 501.518C776.82 496.686 770.8 490.507 773.572 486.045Z" stroke="white" stroke-width="3" stroke-miterlimit="10"/>
<path d="M871.899 565.732C869.179 567.95 866.75 570.537 864.69 573.362C869.153 576.109 872.928 579.831 876.651 583.502C884.519 591.238 892.915 600.242 892.889 611.279C898.17 609.193 903.45 607.133 908.731 605.047C909.734 604.651 910.764 604.229 911.53 603.463C913.642 601.324 912.665 597.733 911.292 595.067C906.487 585.693 898.724 578.247 891.094 570.96C888.929 568.9 886.658 566.761 883.806 565.811C878.71 564.121 873.271 566.577 871.899 565.732Z" stroke="white" stroke-width="3" stroke-miterlimit="10"/>
<path d="M898.618 629.127C903.846 629.022 909.073 629.339 914.248 630.051C915.437 630.21 916.678 630.421 917.681 631.081C920.084 632.665 920.295 636.098 919.846 638.923C917.918 650.963 908.889 660.548 899.674 668.548C896.77 671.083 893.68 673.618 890.01 674.806C886.657 671.928 883.304 669.05 879.951 666.172C879.317 665.644 878.657 665.01 878.631 664.165C878.604 663.241 879.396 662.555 880.083 661.974C891.225 652.891 900.888 640.481 898.618 629.127Z" stroke="white" stroke-width="3" stroke-miterlimit="10"/>
<path d="M760.926 325.111C761.48 332.61 761.084 338.155 761.691 346.419C762.959 363.767 763.17 378.738 763.83 396.27C763.856 396.825 763.962 397.432 764.332 397.855C765.414 399.228 767.342 397.855 769.164 397.432C769.956 397.247 770.193 396.429 770.114 395.637C769.296 386.686 770.589 377.365 769.718 368.044C768.055 349.878 767.659 331.633 769.48 313.467C765.731 313.494 763.777 312.754 760.926 314.18C760.741 316.82 760.767 323.263 760.926 325.111Z" fill="white" stroke="#000000" stroke-width="3" stroke-miterlimit="10"/>
<path d="M771.065 313.072C781.864 317.667 793.402 320.043 804.94 320.122C799 327.806 791.501 333.694 784.082 339.503C779.593 343.014 775.105 346.526 770.616 350.038" fill="white"/>
<path d="M771.065 313.072C781.864 317.667 793.402 320.043 804.94 320.122C799 327.806 791.501 333.694 784.082 339.503C779.593 343.014 775.105 346.526 770.616 350.038" stroke="#000000" stroke-width="3" stroke-miterlimit="10"/>
<path d="M781.89 320.491C780.913 319.382 779.144 319.065 777.85 319.778C777.163 320.174 776.662 320.781 776.16 321.389C775.658 321.996 775.183 322.656 774.972 323.422C774.761 324.188 774.84 325.085 775.394 325.64C775.817 326.062 776.45 326.247 777.031 326.406C778.932 326.934 781.018 327.726 781.863 329.521C782.602 331.105 782.048 333.112 780.754 334.274C779.46 335.436 777.533 335.779 775.843 335.33C774.655 335.013 773.441 334.168 773.388 332.954" stroke="#000000" stroke-width="3" stroke-miterlimit="10" stroke-linecap="round"/>
<path d="M777.665 317.033C777.771 324.664 777.903 332.295 778.035 339.899L777.665 317.033Z" fill="white"/>
<path d="M777.665 317.033C777.771 324.664 777.903 332.295 778.035 339.899" stroke="#000000" stroke-width="3" stroke-miterlimit="10" stroke-linecap="round"/>
<path d="M653.858 479.022C652.089 537.374 655.151 596.071 662.914 653.288C667.614 653.262 672.313 653.262 677.04 653.235C671.337 643.783 670.597 629.947 670.148 617.194C668.485 571.119 666.848 525.07 665.185 478.995C661.356 481.688 657.211 483.484 653.013 484.276" fill="white"/>
<path d="M653.858 479.022C652.089 537.374 655.151 596.071 662.914 653.288C667.614 653.262 672.313 653.262 677.04 653.235C671.337 643.783 670.597 629.947 670.148 617.194C668.485 571.119 666.848 525.07 665.185 478.995C661.356 481.688 657.211 483.484 653.013 484.276" stroke="#000000" stroke-width="3" stroke-miterlimit="10"/>
<path d="M664.605 487.945C682.718 493.701 700.408 501.121 717.412 510.072C701.676 519.789 685.438 528.502 668.777 536.133" fill="white"/>
<path d="M664.605 487.945C682.718 493.701 700.408 501.121 717.412 510.072C701.676 519.789 685.438 528.502 668.777 536.133" stroke="#000000" stroke-width="3" stroke-miterlimit="10"/>
<path d="M684.592 501.148C681.873 500.382 678.783 501.385 676.909 503.709C676.143 504.66 675.536 505.98 675.905 507.221C676.117 507.934 676.645 508.515 677.252 508.884C678.81 509.861 680.737 509.676 682.48 510.125C684.83 510.759 686.863 512.66 687.76 515.116C688.289 516.541 688.421 518.258 687.681 519.551C687.18 520.423 686.361 521.004 685.49 521.426C681.846 523.222 677.305 522.482 674.295 519.604" fill="white"/>
<path d="M684.592 501.148C681.873 500.382 678.783 501.385 676.909 503.709C676.143 504.66 675.536 505.98 675.905 507.221C676.117 507.934 676.645 508.515 677.252 508.884C678.81 509.861 680.737 509.676 682.48 510.125C684.83 510.759 686.863 512.66 687.76 515.116C688.289 516.541 688.421 518.258 687.681 519.551C687.18 520.423 686.361 521.004 685.49 521.426C681.846 523.222 677.305 522.482 674.295 519.604" stroke="#000000" stroke-width="3" stroke-miterlimit="10" stroke-linecap="round"/>
<path d="M678.096 497.689C679.205 502.257 679.205 507.036 679.442 511.736C679.654 516.172 680.076 520.608 680.683 525.018" fill="white"/>
<path d="M678.096 497.689C679.205 502.257 679.205 507.036 679.442 511.736C679.654 516.172 680.076 520.608 680.683 525.018" stroke="#000000" stroke-width="3" stroke-miterlimit="10" stroke-linecap="round"/>
<path d="M661.199 668.919C655.126 662.819 650.294 655.664 647.021 647.98C652.935 649.749 659.008 651.624 663.628 655.4C665.054 656.561 666.295 657.908 667.615 659.175C666.532 653.182 665.476 646.898 667.721 641.194C669.701 646.977 671.655 652.759 673.635 658.542C675.193 653.34 676.856 647.98 680.711 643.888C679.549 650.99 678.414 658.066 677.252 665.169C677.067 664.879 676.882 664.562 676.724 664.271" fill="white"/>
<path d="M661.199 668.919C655.126 662.819 650.294 655.664 647.021 647.98C652.935 649.749 659.008 651.624 663.628 655.4C665.054 656.561 666.295 657.908 667.615 659.175C666.532 653.182 665.476 646.898 667.721 641.194C669.701 646.977 671.655 652.759 673.635 658.542C675.193 653.34 676.856 647.98 680.711 643.888C679.549 650.99 678.414 658.066 677.252 665.169C677.067 664.879 676.882 664.562 676.724 664.271" stroke="#000000" stroke-width="3" stroke-miterlimit="10"/>
<path d="M688.077 657.486C692.777 644.072 697.688 630.95 702.784 618.091C701.516 628.124 700.275 638.184 699.008 648.218C698.77 650.119 698.559 652.284 699.061 653.287C700.011 655.215 702.097 651.281 703.391 648.059C705.635 642.462 708.117 637.234 710.731 632.507C709.596 641.406 708.962 650.145 708.909 658.41C710.784 655.32 712.395 651.149 713.398 646.766C714.111 648.244 713.952 651.175 714.084 653.604C714.216 656.033 715.008 658.304 716.249 657.09C716.962 656.403 717.517 654.872 718.071 653.525C719.919 648.957 722.216 645.129 724.566 642.673C724.54 647.294 725.094 651.413 726.151 654.528" fill="white"/>
<path d="M688.077 657.486C692.777 644.072 697.688 630.95 702.784 618.091C701.516 628.124 700.275 638.184 699.008 648.218C698.77 650.119 698.559 652.284 699.061 653.287C700.011 655.215 702.097 651.281 703.391 648.059C705.635 642.462 708.117 637.234 710.731 632.507C709.596 641.406 708.962 650.145 708.909 658.41C710.784 655.32 712.395 651.149 713.398 646.766C714.111 648.244 713.952 651.175 714.084 653.604C714.216 656.033 715.008 658.304 716.249 657.09C716.962 656.403 717.517 654.872 718.071 653.525C719.919 648.957 722.216 645.129 724.566 642.673C724.54 647.294 725.094 651.413 726.151 654.528" stroke="#000000" stroke-width="3" stroke-miterlimit="10"/>
<path d="M770.431 677.157C736.873 687.745 704.106 701.37 672.581 717.872C701.73 735.748 731.856 751.775 762.721 765.822" fill="white"/>
<path d="M770.431 677.157C736.873 687.745 704.106 701.37 672.581 717.872C701.73 735.748 731.856 751.775 762.721 765.822" stroke="#000000" stroke-width="3" stroke-miterlimit="10"/>
<path d="M790.313 660.76C793.587 768.145 789.943 830.538 775.554 935.863C766.841 935.837 764.992 936.339 756.279 936.312C766.841 918.939 759.316 938.504 760.161 915.057C763.223 830.3 766.286 745.543 769.349 660.786C776.478 665.777 784.108 660.549 791.924 661.974" fill="white"/>
<path d="M790.313 660.76C793.587 768.145 789.943 830.538 775.554 935.863C766.841 935.837 764.992 936.339 756.279 936.312C766.841 918.939 759.316 938.504 760.161 915.057C763.223 830.3 766.286 745.543 769.349 660.786C776.478 665.777 784.108 660.549 791.924 661.974" stroke="#000000" stroke-width="3" stroke-miterlimit="10"/>
<path d="M749.256 701.635C744.029 700.209 738.088 702.084 734.497 706.335C732.992 708.104 731.857 710.533 732.57 712.777C732.992 714.098 734.022 715.154 735.157 715.84C738.167 717.636 741.89 717.292 745.243 718.137C749.758 719.299 753.666 722.811 755.408 727.326C756.438 729.94 756.702 733.108 755.276 735.511C754.326 737.122 752.715 738.178 751.078 738.944C744.081 742.244 735.315 740.898 729.533 735.617" stroke="#000000" stroke-width="3" stroke-miterlimit="10" stroke-linecap="round"/>
<path d="M745.4 695.085C743.341 703.481 743.314 712.274 742.892 720.935C742.496 729.12 741.73 737.279 740.595 745.385" stroke="#000000" stroke-width="3" stroke-miterlimit="10" stroke-linecap="round"/>
<path d="M1074.41 209.728C1107.7 438.255 1132.76 667.97 1149.55 898.292C1111.66 871.941 1060.76 881.79 1014.92 887.044C978.566 891.19 941.893 893.804 905.324 892.246C694.759 883.321 554.162 890.345 373.3 892.932C363.373 893.064 343.623 888.47 334.065 891.111C323.662 893.989 300.744 892.932 289.946 892.932C222.512 892.932 194.234 902.042 139.896 887.071C134.563 885.618 132.952 868.509 127.566 869.644C109.665 873.393 57.7298 895.731 69.6112 909.62C81.4926 923.508 155.21 918.94 180.267 922.822C208.624 927.205 251.687 929.344 290.025 929.344C328.626 929.344 358.303 928.789 396.799 931.324C428.536 933.41 451.586 938.136 483.243 935.126C510.65 932.512 556.459 937.529 583.892 935.126C604.302 933.331 626.56 936.763 647.022 937.714C672.079 938.875 693.465 934.281 724.146 934.36C871.766 934.677 1019.39 934.968 1166.98 935.284C1180.95 935.311 1196.68 934.572 1205.98 924.168C1214.19 914.927 1214.4 901.25 1213.79 888.893C1209.07 791.594 1183.48 696.46 1174.48 599.478C1171.36 565.813 1170.25 531.989 1169.14 498.192C1167.3 442.163 1165.45 386.16 1163.63 330.13C1161.33 260.212 1159.03 190.268 1154.99 120.429C1154.65 114.436 1153.99 107.835 1149.58 103.795C1144.56 99.227 1136.88 99.8079 1130.15 100.706C1104.09 104.138 1078 107.571 1051.94 111.003C1048.9 111.399 1045.58 111.927 1043.49 114.172C1041.01 116.838 1041.09 120.931 1041.35 124.548C1043.73 158.689 1047.87 192.724 1074.41 209.728Z" fill="white"/>
<path d="M1136.67 125.314C954.17 107.122 779.539 15.6316 596.143 19.2489C429.776 22.523 254.143 120.852 87.7764 124.126C91.8953 172.656 86.2978 221.979 71.4592 268.345C66.601 283.474 60.7659 298.34 57.5184 313.918C52.1849 339.424 54.0331 365.802 54.6932 391.863C57.2279 491.644 42.2573 591.319 46.0066 691.047C48.8053 765.718 62.0597 839.57 75.2877 913.131C95.0636 906.24 114.84 899.348 134.642 892.457C92.3177 663.771 82.3109 415.125 114.813 184.855C115.869 177.356 112.279 167.217 117.982 162.253C123.896 157.104 155.923 160.748 163.738 161.065C190.59 162.227 271.305 167.455 298.183 167.455C507.692 167.455 617.477 177.436 827.725 184.855C892.149 187.126 1000.38 187.892 1070.03 185.964C1087.16 185.489 1105.14 184.776 1119.88 176.01C1134.56 167.191 1144.3 147.493 1136.67 125.314Z" fill="white"/>
<path d="M101.215 108.31C431.968 131.545 764.383 131.334 1095.11 107.676C1108.42 106.725 1122.65 105.933 1134.16 112.693C1152.59 123.492 1156.1 148.18 1157.63 169.488C1175.37 416.577 1193.12 663.639 1210.83 910.728C837.89 944.948 461.988 946.691 88.7264 915.956C81.888 915.402 74.4159 914.53 69.5841 909.646C64.9636 904.946 64.0923 897.817 63.485 891.242C39.3261 629.948 41.6496 366.224 101.215 108.31Z" stroke="#000000" stroke-width="3" stroke-miterlimit="10"/>
<path d="M568.709 999.077C537.157 1004.15 505.606 1009.22 474.027 1014.29C467.823 1015.29 461.248 1016.45 456.469 1020.57C452.113 1024.35 449.948 1030.02 447.968 1035.44C440.601 1055.58 433.261 1075.73 425.895 1095.9C503.546 1121.83 587.35 1120.83 669.173 1117.87C738.376 1115.36 807.552 1111.64 876.623 1106.7C867.091 1078.74 857.533 1050.78 848.002 1022.81C846.312 1017.85 844.411 1012.62 840.292 1009.4C836.252 1006.26 830.84 1005.65 825.744 1005.2C733.518 996.806 640.051 987.618 568.709 999.077Z" fill="white" stroke="#000000" stroke-width="3" stroke-miterlimit="10"/>
<path d="M594.611 943.864C587.72 975.602 579.033 1023.89 569.026 1053.55C579.139 1068.76 589.172 1067.62 607.681 1069.71C621.489 1071.26 641.609 1071.26 657.688 1071.95C670.494 1072.5 683.299 1073.03 696.105 1073.59C706.006 1074.01 716.567 1074.25 725.043 1067.99C719.947 1026.98 712.58 986.401 703.049 946.584C702.574 944.577 702.019 942.438 700.752 941.012C699.616 939.771 698.085 939.243 696.606 938.794C675.457 932.457 653.332 933.54 631.575 934.649C618.928 935.309 606.308 935.969 594.611 943.864Z" fill="white" stroke="#000000" stroke-width="3" stroke-miterlimit="10"/>
<path d="M425.922 1095.85C423.149 1106.96 426.212 1128.4 427.928 1129.01C451.929 1137.54 567.231 1151.82 592.684 1152.69C755.776 1158.32 868.94 1141.21 874.326 1136.22C880.531 1125.47 878.947 1115.81 876.28 1105.59" stroke="#000000" stroke-width="3" stroke-miterlimit="10"/>
<path d="M255.517 726.716C348.244 633.985 407.097 586.405 481.58 504.42C490.056 495.1 510.703 476.538 522.056 471.046C530.875 466.768 540.776 465.448 550.466 463.89C577.82 459.507 604.778 452.827 631.022 444.008C644.62 439.44 665.241 436.377 663.868 422.093C663.129 414.568 650.191 412.429 642.64 412.138C648.184 411.109 654.891 407.254 657.848 402.474C661.122 397.141 661.201 389.748 659.828 385.787C656.66 376.599 646.521 375.173 641.874 375.727C667.168 367.78 695.869 358.565 720.555 348.848C723.064 347.845 725.889 346.551 726.681 343.963C727.288 341.93 729.084 335.118 727.948 333.322C721.849 323.817 706.509 326.035 695.235 325.48C675.829 324.53 658.64 325.903 639.445 328.807C630.309 330.207 617.742 332.477 610.058 332.821C591.814 333.666 588.117 307.631 570.005 305.096C557.806 303.38 539.43 314.285 529.819 321.995C448.444 387.187 382.305 448.761 307.267 508.856C264.203 543.34 220.796 570.061 180.268 607.475" fill="white"/>
<path d="M624.553 416.866C629.332 415.625 634.137 414.358 638.916 413.117C642.877 412.087 646.917 411.031 650.428 409.077C656.501 405.724 660.673 399.677 661.359 393.288C661.914 388.218 660.197 382.832 656.184 379.293C652.144 375.755 640.633 376.653 640.633 376.653L635.51 377.023C661.782 368.072 688.079 359.094 714.35 350.143C717.994 348.902 721.717 347.609 724.674 345.338C727.631 343.067 729.717 339.529 729.057 336.07C728.186 331.528 723.063 328.703 718.179 327.33C710.891 325.271 703.155 325.112 695.525 325.165C647.075 325.482 599.206 334.116 554.479 342.697C550.519 341.8 546.532 340.902 542.571 340.004" stroke="#000000" stroke-width="3" stroke-miterlimit="10"/>
<path d="M649.16 411.136C654.942 412.033 661.015 414.674 663.127 419.638C664.87 423.783 663.338 428.615 660.408 432.153C657.45 435.691 653.252 438.2 649.081 440.523C643.219 443.771 637.173 446.86 630.678 448.946C617.555 453.171 603.113 453.197 595.561 457.211C568.366 468.406 539.534 461.805 514.398 477.04C501.408 484.909 488.206 495.523 479.203 507.748C453.829 542.232 422.172 571.54 390.752 600.611C344.362 643.491 297.998 686.398 251.607 729.278" stroke="#000000" stroke-width="3" stroke-miterlimit="10"/>
<path d="M614.838 332.082C604.488 329.178 596.804 321.521 588.672 315.025C580.54 308.53 570.111 302.721 559.497 304.701C554.427 305.652 549.965 308.319 545.688 310.959C525.621 323.475 509.172 339.159 487.865 354.869C387.348 428.959 298.686 519.155 197.853 592.822" stroke="#000000" stroke-width="3" stroke-miterlimit="10"/>
<path d="M637.49 376.125C623.549 379.32 609.74 383.175 596.169 387.611" stroke="#000000" stroke-width="3" stroke-miterlimit="10"/>
<path d="M728.845 322.232C730.429 317.691 732.726 313.414 735.657 309.611" stroke="white" stroke-width="3" stroke-miterlimit="10" stroke-linecap="round"/>
<path d="M734.76 329.838C738.615 328.914 742.47 328.016 746.324 327.092" stroke="white" stroke-width="3" stroke-miterlimit="10" stroke-linecap="round"/>
<path d="M735.711 346.42C738.351 348.427 741.018 350.433 743.658 352.414" stroke="white" stroke-width="3" stroke-miterlimit="10" stroke-linecap="round"/>
<path d="M27.5494 500.884C27.5494 500.884 146.522 573.733 179.077 586.142C212.53 598.922 246.115 611.332 279.198 625.036C340.189 650.331 399.359 680.035 456.099 713.832C462.832 717.846 469.67 721.965 477.274 723.866C488.839 726.744 500.958 724.236 512.655 722.018C539.612 716.895 566.095 711.139 593.448 709.027C603.402 708.261 614.993 710.057 623.205 715.733C631.416 721.41 628.459 733.635 620.063 739.022C629.277 739.418 638.703 747.603 639.918 756.765C641.132 765.901 630.439 771.261 621.647 774.034C645.859 771.578 679.998 770.443 704.051 774.192C708.17 774.826 715.22 776.78 716.989 780.555C719.761 786.47 707.932 794.761 702.071 797.665C685.595 805.85 667.773 812.531 649.608 815.514C631.495 818.498 618.769 809.547 608.525 837.773C605.805 845.245 597.778 854.724 592.366 860.533C585.791 867.609 568.313 860.269 558.755 858.843C492.562 848.915 445.327 819.792 387.002 798.378C280.756 759.406 117.135 689.171 1.35742 661.394C3.02082 601.774 27.5494 500.884 27.5494 500.884Z" fill="white"/>
<path d="M597.778 740.844C602.346 740.395 606.94 739.947 611.508 739.498C615.31 739.128 619.138 738.758 622.887 739.366C629.33 740.448 635.086 744.62 638.016 750.323C640.313 754.838 640.789 760.383 638.624 765.03C636.459 769.678 631.336 773.084 626.188 772.714C627.64 771.315 630.148 771.024 630.148 771.024L621.673 774.087C647.548 773.559 673.397 773.031 699.272 772.503C702.863 772.424 706.533 772.371 709.886 773.48C713.265 774.589 716.328 777.15 717.015 780.582C717.912 785.097 714.506 789.428 710.81 792.332C705.292 796.662 698.664 799.435 692.09 801.943C650.241 817.918 605.91 825.997 564.299 833.1C561.21 835.265 558.12 837.43 555.031 839.595" fill="white"/>
<path d="M597.778 740.844C602.346 740.395 606.94 739.947 611.508 739.498C615.31 739.128 619.138 738.758 622.887 739.366C629.33 740.448 635.086 744.62 638.016 750.323C640.313 754.838 640.789 760.383 638.624 765.03C636.459 769.678 631.336 773.084 626.188 772.714C627.64 771.315 630.148 771.024 630.148 771.024L621.673 774.087C647.548 773.559 673.397 773.031 699.272 772.503C702.863 772.424 706.533 772.371 709.886 773.48C713.265 774.589 716.328 777.15 717.015 780.582C717.912 785.097 714.506 789.428 710.81 792.332C705.292 796.662 698.664 799.435 692.09 801.943C650.241 817.918 605.91 825.997 564.299 833.1C561.21 835.265 558.12 837.43 555.031 839.595" stroke="#000000" stroke-width="3" stroke-miterlimit="10"/>
<path d="M621.04 737.887C625.713 735.115 629.964 730.626 629.991 725.319C629.991 720.883 626.954 716.949 623.126 714.652C619.297 712.354 614.782 711.457 610.347 710.717C604.116 709.661 597.805 708.869 591.442 709.107C578.61 709.608 566.174 714.414 558.227 713.252C530.768 712.011 505.685 729.86 478.542 724.183C464.522 721.253 451.637 712.407 439.465 704.116C405.141 680.696 367.622 665.619 330.051 649.275C274.631 625.142 219.184 601.009 161.255 574.869C127.327 556.544 93.3728 538.22 59.4447 519.869C47.2729 513.294 35.0482 506.693 24.0381 498.323" stroke="#000000" stroke-width="3" stroke-miterlimit="10"/>
<path d="M620.063 822.617C612.195 828.795 608.366 838.459 603.693 847.199C599.019 855.939 594.927 862.592 585.052 864.309C580.326 865.127 572.907 863.12 568.26 862.091C546.451 857.232 524.932 854.011 500.932 846.882C391.913 797.586 280.228 755.577 164.608 719.509C126.112 704.274 87.5901 689.065 49.0943 673.83C33.7013 667.757 17.9122 661.578 1.35742 661.42" stroke="#000000" stroke-width="3" stroke-miterlimit="10"/>
<path d="M623.626 774.22C610.478 775.936 597.197 777.019 583.89 777.467" stroke="#000000" stroke-width="3" stroke-miterlimit="10"/>
<path d="M718.678 770.022C721.952 766.299 725.727 762.999 729.82 760.227" stroke="white" stroke-width="3" stroke-miterlimit="10" stroke-linecap="round"/>
<path d="M725.147 778.708C730.296 778.549 735.445 778.364 740.593 778.206" stroke="white" stroke-width="3" stroke-miterlimit="10" stroke-linecap="round"/>
<path d="M722.375 791.46C725.015 794.47 727.656 797.48 730.27 800.49" stroke="white" stroke-width="3" stroke-miterlimit="10" stroke-linecap="round"/>
<path d="M1084.89 28.9651C1068.84 55.9501 1052.78 82.9614 1036.7 109.946C1015.03 146.41 993.325 182.874 971.753 219.391C951.502 253.69 931.7 288.332 919.026 330.42C916.465 338.949 911.501 343.384 905.587 350.038C897.587 358.989 888.082 363.927 876.86 368.178C856.82 375.782 840.213 382.515 821.123 392.311C805.941 400.1 782.786 410.107 778.271 426.531C777.083 430.887 776.871 435.851 779.274 439.68C781.677 443.509 794.033 445.964 797.704 443.324C791.895 450.294 783.895 459.589 787.089 467.615C790.284 475.642 801.717 480.289 808.001 474.375C807.103 485.491 793.136 491.564 783.789 497.69C769.795 506.878 760.29 514.905 742.442 525.467C736.897 528.741 735.128 539.144 740.514 542.682C742.864 544.24 749.227 546.775 752.026 546.432C765.756 544.768 775.446 544.557 788.594 540.227C809.03 533.52 829.097 531.249 842.853 516.859C861.731 529.005 890.379 553.561 911.343 525.836C915.356 520.503 930.379 502.944 934.657 497.822C961.852 465.107 971.199 447.364 991.952 410.213C999.846 396.06 1008.06 378.159 1017.43 364.93C1087.87 265.704 1150.79 181.528 1212.79 85.2585C1179.6 46.6822 1135.74 17.3737 1087.4 1.47852C1085.5 13.598 1079.19 25.0045 1084.89 28.9651Z" fill="white"/>
<path d="M812.833 434.902C808.793 437.147 804.727 439.391 800.688 441.635C797.334 443.484 793.928 445.385 791.182 448.104C786.456 452.804 784.027 459.96 784.846 466.825C785.506 472.264 788.225 477.571 792.687 480.529C797.123 483.486 803.275 483.644 807.341 480.291C805.361 479.842 803.117 481.03 803.117 481.03L811.882 478.891C790.153 493.387 768.396 507.883 746.667 522.405C743.657 524.412 740.594 526.472 738.429 529.455C736.264 532.439 735.155 536.531 736.554 540.043C738.376 544.664 743.63 546.644 748.356 547.12C755.406 547.859 762.429 546.539 769.321 545.007C813.044 535.29 851.197 517.943 892.861 499.302C896.32 497.744 900.439 499.645 904.214 499.83" fill="white"/>
<path d="M812.833 434.902C808.793 437.147 804.727 439.391 800.688 441.635C797.334 443.484 793.928 445.385 791.182 448.104C786.456 452.804 784.027 459.96 784.846 466.825C785.506 472.264 788.225 477.571 792.687 480.529C797.123 483.486 803.275 483.644 807.341 480.291C805.361 479.842 803.117 481.03 803.117 481.03L811.882 478.891C790.153 493.387 768.396 507.883 746.667 522.405C743.657 524.412 740.594 526.472 738.429 529.455C736.264 532.439 735.155 536.531 736.554 540.043C738.376 544.664 743.63 546.644 748.356 547.12C755.406 547.859 762.429 546.539 769.321 545.007C813.044 535.29 851.197 517.943 892.861 499.302C896.32 497.744 900.439 499.645 904.214 499.83" stroke="#000000" stroke-width="3" stroke-miterlimit="10" stroke-linecap="round"/>
<path d="M791.896 445.7C786.457 445.885 780.384 444.274 777.374 439.442C774.866 435.429 775.156 430.069 777.031 425.765C778.905 421.461 782.126 418.029 785.4 414.781C789.968 410.213 794.747 405.83 800.16 402.371C811.091 395.4 824.108 392.575 830.048 386.898C852.095 369.868 884.412 373.142 903.713 352.23C913.667 341.431 918.446 325.852 923.832 311.251C939.014 270.087 961.034 233.174 982.896 196.525C1015.16 142.476 1047.45 88.427 1079.72 34.3779" stroke="#000000" stroke-width="3" stroke-miterlimit="10"/>
<path d="M840.689 522.141C850.696 523.197 859.304 529.191 868.782 533.125C878.842 537.27 886.129 538.221 896.136 537.323C900.625 536.927 904.664 534.577 907.938 530.933C923.252 513.876 937.299 495.578 953.167 475.168C1015.58 367.202 1084.36 264.332 1154.41 171.046C1180.5 133.157 1208.2 96.3758 1237.42 60.8359" stroke="#000000" stroke-width="3" stroke-miterlimit="10"/>
<path d="M810.326 480.236C822.208 474.163 833.799 467.483 845.099 460.169" stroke="#000000" stroke-width="3" stroke-miterlimit="10"/>
<path d="M715.352 522.535C718.758 524.278 722.032 526.232 725.174 528.37" stroke="white" stroke-width="3" stroke-miterlimit="10" stroke-linecap="round"/>
<path d="M712 543.843C716.673 543.738 721.347 543.342 725.994 542.655" stroke="white" stroke-width="3" stroke-miterlimit="10" stroke-linecap="round"/>
<path d="M723.961 563.302C727.024 560.239 730.298 557.361 733.73 554.694" stroke="white" stroke-width="3" stroke-miterlimit="10" stroke-linecap="round"/>
</g>
<defs>
<clipPath id="clip0_5067_64774">
<rect width="1239" height="1155" fill="white" transform="translate(0.5 0.5)"/>
</clipPath>
</defs>
</svg>
