<?xml version="1.0" standalone="no"?>
<!DOCTYPE svg PUBLIC "-//W3C//DTD SVG 20010904//EN"
 "http://www.w3.org/TR/2001/REC-SVG-20010904/DTD/svg10.dtd">
<svg version="1.0" xmlns="http://www.w3.org/2000/svg"
 width="400.000000pt" height="400.000000pt" viewBox="0 0 400.000000 400.000000"
 preserveAspectRatio="xMidYMid meet">

<g transform="translate(0.000000,400.000000) scale(0.100000,-0.100000)"
fill="#000000" stroke="none">
<path d="M1890 3440 c0 -15 -7 -20 -25 -20 l-25 0 0 -164 c0 -119 -3 -166 -12
-174 -7 -5 -55 -28 -105 -50 -80 -34 -93 -37 -93 -22 0 12 17 25 53 40 73 31
113 64 125 102 9 27 9 29 -1 14 -34 -52 -56 -71 -111 -97 l-61 -29 -6 102 -5
103 -2 -104 c-2 -79 -6 -109 -18 -122 -9 -10 -17 -37 -20 -61 l-3 -43 8 38 c4
21 14 43 21 50 13 12 13 8 -4 -63 -6 -21 -5 -22 3 -5 9 18 10 17 10 -7 1 -16
-3 -28 -8 -28 -27 0 -41 15 -41 41 0 28 -2 29 -45 29 l-45 0 0 -81 c0 -72 2
-81 20 -86 28 -7 28 -53 0 -53 -20 0 -21 -5 -18 -82 l3 -83 43 -3 c37 -3 42
-1 42 17 0 16 6 21 25 21 25 0 25 0 25 -99 0 -85 -3 -102 -21 -125 -37 -47
-15 -38 25 10 21 25 59 60 84 78 l45 33 34 -44 c19 -25 33 -46 31 -48 -3 -3
-37 -18 -149 -67 -23 -10 -25 -14 -13 -26 20 -20 17 -29 -11 -36 -14 -4 -25
-14 -26 -24 -1 -11 -4 -8 -9 8 -8 25 -8 25 -9 2 -1 -29 -21 -19 -22 11 -1 17
-3 15 -9 -8 l-8 -30 -2 30 c-1 18 -4 23 -7 13 -6 -23 -23 -23 -23 0 0 28 21
42 64 43 39 1 39 2 11 8 -32 8 -80 -9 -88 -31 -2 -8 -20 4 -46 32 -40 43 -41
47 -41 112 l0 68 -45 0 c-43 0 -45 -1 -45 -30 0 -28 -2 -30 -20 -20 -11 6 -20
20 -20 30 0 17 -7 20 -42 20 -58 0 -65 7 -66 63 0 26 -7 59 -16 72 -9 13 -16
38 -16 55 0 25 -4 30 -24 30 -19 0 -23 4 -19 20 3 11 14 25 25 31 16 9 18 20
16 87 l-3 77 -30 3 c-16 1 -47 7 -67 14 l-38 11 0 124 0 123 280 0 c273 0 280
0 280 20 0 16 -7 20 -35 20 -28 0 -35 4 -35 20 0 19 -7 20 -190 20 -183 0
-190 -1 -190 -20 0 -16 -7 -20 -35 -20 -24 0 -35 -5 -35 -15 0 -9 -9 -15 -25
-15 l-25 0 0 -130 0 -130 -26 0 c-14 0 -33 -4 -43 -9 -15 -8 -19 -3 -29 36 -7
25 -22 59 -33 75 -25 35 -88 68 -129 68 -65 0 -146 -52 -170 -110 l-11 -27
-37 18 c-76 39 -165 10 -202 -66 -11 -23 -20 -49 -20 -58 0 -13 -5 -14 -30 -5
-63 21 -140 -15 -166 -78 -44 -105 28 -219 133 -212 39 3 42 1 58 -34 22 -50
66 -80 123 -84 l47 -3 -43 8 c-53 9 -91 37 -119 87 -20 36 -25 38 -62 35 -54
-3 -97 21 -122 71 -36 70 -14 146 54 189 31 20 77 21 118 4 13 -5 18 1 23 27
20 106 118 157 208 109 l36 -20 31 50 c56 90 160 113 239 52 36 -27 71 -92 72
-132 0 -18 4 -22 18 -15 9 4 41 10 70 12 49 4 54 2 87 -31 35 -35 49 -39 18
-5 -15 17 -15 18 9 18 22 0 26 -5 32 -46 9 -67 7 -104 -4 -104 -5 0 -11 21
-11 48 -2 43 -2 42 -9 -18 -3 -36 -12 -76 -19 -88 -14 -26 -15 -25 17 -41 74
-39 82 -163 14 -224 -47 -43 -139 -40 -184 5 -16 16 -22 18 -29 7 -5 -8 -9
-17 -9 -21 0 -18 -65 -78 -95 -88 -92 -30 -185 45 -230 184 -5 18 -8 17 -38
-11 -18 -17 -41 -36 -52 -42 -19 -11 -19 -12 3 -6 14 4 22 2 22 -7 1 -7 9 2
18 21 9 19 22 36 28 38 28 9 19 -52 -31 -232 -124 -446 -151 -698 -99 -955 9
-47 17 -91 17 -97 0 -7 5 -13 10 -13 5 0 7 7 3 15 -24 63 -40 204 -39 350 0
191 14 284 85 569 39 158 57 216 76 238 l25 29 28 -31 c32 -35 101 -69 140
-70 24 0 28 -7 55 -97 l30 -96 32 89 c18 49 46 111 62 137 29 45 33 47 64 42
43 -9 104 17 137 57 l27 32 73 -36 c47 -23 103 -64 152 -109 l79 -72 -66 -17
c-80 -20 -116 -50 -116 -97 0 -40 11 -63 55 -118 44 -56 48 -72 29 -122 l-17
-44 -13 30 c-14 33 -46 57 -84 64 -14 2 -19 2 -12 0 8 -3 11 -10 9 -17 -6 -15
-34 -122 -42 -160 -4 -20 -9 -26 -17 -18 -7 7 -4 35 11 93 23 92 21 122 -3 38
-26 -94 -30 -130 -15 -140 15 -10 46 -12 37 -3 -6 5 14 103 33 162 13 39 23
40 54 6 49 -53 20 -155 -47 -170 -18 -4 -27 -9 -21 -11 7 -3 26 2 43 10 16 9
30 14 30 12 0 -1 -7 -22 -15 -45 -8 -24 -14 -45 -12 -47 2 -2 28 65 58 148 49
139 68 173 87 154 4 -3 -13 -63 -36 -132 -56 -162 -56 -162 -42 -139 12 17 13
17 29 -6 38 -56 470 -588 519 -641 30 -31 61 -57 69 -57 18 0 16 -27 -3 -34
-36 -14 -84 37 -354 374 -112 140 -220 273 -240 296 l-38 41 -72 -201 c-84
-231 -113 -294 -165 -354 -56 -65 -63 -37 -11 42 31 47 67 130 120 278 42 116
74 213 72 215 -2 2 -12 -19 -21 -47 -15 -45 -20 -51 -39 -45 -122 38 -242 45
-340 20 -198 -52 -365 -226 -406 -423 -18 -85 -8 -220 20 -297 30 -81 101
-185 158 -235 53 -46 165 -105 220 -117 22 -5 -91 -10 -283 -13 -176 -3 431
-5 1350 -5 919 0 1510 1 1315 3 l-355 3 74 25 c210 71 349 250 376 484 6 49
-6 155 -22 196 -4 12 29 14 218 16 123 1 196 3 162 5 l-62 4 -21 57 c-49 130
-49 206 -5 492 19 116 15 250 -8 335 l-14 50 68 0 c73 0 103 14 143 69 30 39
29 114 -3 156 l-23 32 35 37 c46 48 57 71 57 124 0 115 -122 180 -237 127
l-43 -19 0 22 c-1 63 -85 165 -127 154 -17 -4 -17 -5 0 -6 53 -3 116 -89 117
-158 l0 -32 46 24 c114 61 234 1 234 -116 0 -51 -25 -97 -69 -130 l-30 -22 27
-34 c55 -73 21 -185 -64 -213 -21 -7 -60 -10 -89 -7 -49 5 -55 3 -81 -25 -56
-59 -134 -73 -210 -39 -23 11 -50 33 -60 50 -12 21 -24 29 -34 25 -35 -14 -80
-16 -114 -4 -50 16 -76 53 -76 108 0 38 5 49 36 78 19 19 33 40 31 47 -4 9 -6
9 -6 -1 -1 -7 -14 -25 -31 -38 -43 -37 -57 -91 -35 -138 29 -60 116 -92 180
-67 16 7 27 0 53 -30 18 -20 49 -43 68 -49 35 -12 104 -9 151 5 20 7 22 3 25
-41 5 -77 -9 -164 -46 -301 -62 -225 -68 -330 -26 -465 l18 -58 -82 1 -81 0
-34 72 c-25 53 -54 91 -108 144 l-73 73 31 55 c24 42 29 61 24 85 -7 31 -39
61 -65 59 -8 0 -3 -5 11 -10 15 -6 32 -23 39 -39 11 -26 9 -35 -10 -72 -16
-31 -280 -483 -295 -506 -1 -1 -18 1 -38 5 -33 7 -157 98 -157 116 0 4 52 7
115 7 113 0 115 -1 105 -20 -22 -41 -1 -18 26 28 15 26 34 58 42 72 l14 25
-19 -24 c-18 -22 -23 -23 -53 -12 -18 6 -54 10 -79 10 l-46 -1 50 -8 c76 -11
97 -20 93 -38 -3 -15 -22 -17 -138 -20 l-135 -2 -92 82 -92 83 27 27 c127 127
382 166 543 82 l30 -15 -27 -47 c-15 -26 -27 -48 -28 -49 -1 -1 -26 7 -56 17
-56 20 -193 27 -217 12 -7 -4 19 -6 56 -4 44 3 88 -2 122 -12 77 -23 84 -28
69 -57 -29 -55 8 -1 61 89 35 59 53 98 46 101 -7 1 -41 14 -77 28 -169 67
-409 25 -539 -92 -21 -19 -43 -35 -48 -35 -11 0 -78 68 -72 74 2 2 49 33 105
69 l101 66 276 17 c295 19 301 18 310 -29 l4 -22 2 22 c2 37 -25 53 -87 53
-31 0 -154 -7 -272 -15 -118 -8 -220 -15 -227 -15 -6 0 -59 -32 -118 -70 -59
-39 -112 -69 -118 -67 -12 4 185 141 226 157 17 7 18 9 5 9 -10 1 -67 -33
-127 -74 -60 -41 -113 -75 -118 -75 -10 0 -73 62 -73 71 0 3 38 29 85 58 47
29 115 80 151 114 l66 61 20 -27 c24 -33 38 -34 118 -1 169 68 350 173 350
201 0 23 -65 143 -137 252 -47 72 -53 86 -40 95 8 6 24 17 34 24 10 7 3 5 -15
-4 -38 -18 -56 -14 -72 15 -10 20 -8 21 62 21 55 0 69 -3 58 -11 -16 -12 -15
-11 60 17 19 7 42 13 50 14 12 0 15 8 12 35 l-4 35 50 0 c46 0 50 -2 50 -25 0
-22 -5 -25 -42 -27 l-41 -1 40 -4 c22 -3 43 -10 47 -16 4 -7 8 12 8 41 0 30 7
69 16 88 28 58 104 82 151 49 21 -15 21 -15 12 17 -27 95 8 178 92 220 59 30
60 37 2 13 -19 -8 -37 -15 -39 -15 -2 0 -4 18 -4 41 0 32 -4 42 -19 46 -16 4
-21 16 -24 52 l-3 46 -2 -47 -2 -48 -150 0 -150 0 0 -50 0 -50 150 0 c143 0
150 -1 150 -20 0 -19 -7 -20 -151 -20 l-150 0 3 -52 3 -53 138 -3 c113 -2 137
-5 137 -17 0 -13 -23 -15 -140 -15 l-140 0 0 -55 0 -55 55 0 c42 0 55 -3 55
-15 0 -12 -13 -15 -55 -15 l-55 0 0 -34 c0 -32 -13 -46 -41 -46 -5 0 -9 18 -9
40 l0 40 -150 0 c-125 0 -150 2 -150 15 0 12 26 15 153 18 l152 3 -167 2 -168
2 0 45 0 45 159 0 160 0 4 -42 4 -43 1 48 2 47 -150 0 c-125 0 -150 2 -150 15
0 12 26 15 153 18 l152 3 -167 2 -168 2 0 45 0 45 159 0 160 0 4 -42 4 -43 1
48 2 47 -150 0 c-143 0 -150 1 -150 20 0 18 8 20 153 23 l152 3 -167 2 -168 2
0 40 0 40 159 0 160 0 4 -37 4 -38 1 43 2 42 -149 0 -150 0 -4 48 -3 47 -2
-47 c-2 -35 -6 -48 -17 -48 -11 0 -15 -12 -15 -50 0 -38 4 -50 15 -50 8 0 15
-9 15 -20 0 -11 -7 -20 -15 -20 -12 0 -15 -13 -15 -55 0 -42 3 -55 15 -55 8 0
15 -7 15 -15 0 -8 -7 -15 -15 -15 -12 0 -15 -13 -15 -55 0 -42 3 -55 15 -55 8
0 15 -7 15 -15 0 -8 -7 -15 -15 -15 -8 0 -15 -8 -15 -17 0 -29 -66 43 -81 89
-7 22 -30 65 -51 94 -36 52 -36 54 -15 54 13 0 32 6 43 14 16 12 17 19 8 44
-11 28 -10 30 20 39 59 17 36 78 -34 89 -33 5 -36 9 -32 30 2 14 20 36 38 51
41 31 44 64 9 99 -56 55 -185 85 -215 49 -7 -8 -19 -15 -26 -15 -11 0 -14 24
-14 115 l0 115 -30 0 c-23 0 -30 4 -30 20 0 19 -7 20 -170 20 -163 0 -170 -1
-170 -20z m330 -5 c0 -13 -24 -15 -160 -15 -136 0 -160 2 -160 15 0 13 24 15
160 15 136 0 160 -2 160 -15z m60 -139 c0 -66 -4 -117 -10 -121 -5 -3 -10 -11
-10 -17 0 -6 8 -4 18 5 27 25 63 21 108 -13 69 -50 118 -137 94 -165 -10 -13
-17 -8 -41 29 -54 80 -145 136 -175 106 -6 -6 -11 31 -13 107 -1 65 -5 121 -7
125 -3 5 -23 8 -45 8 l-39 0 0 -314 0 -315 -27 -21 -28 -22 -3 336 -2 336 -40
0 -40 0 0 -373 0 -373 -30 -22 -30 -23 0 396 0 395 -40 0 -40 0 0 -114 c0 -89
-3 -116 -15 -126 -13 -11 -15 5 -15 139 l0 151 215 0 215 0 0 -114z m-330
-337 l0 -390 -30 21 -30 22 1 369 0 369 30 0 29 0 0 -391z m140 52 l0 -340
-30 -21 -30 -21 0 360 0 361 30 0 30 0 0 -339z m146 187 c-8 -212 -8 -243 -1
-326 8 -77 -1 -98 -47 -123 -17 -9 -18 7 -18 296 l0 305 36 0 35 0 -5 -152z
m-736 97 c0 -13 -27 -15 -180 -15 -153 0 -180 2 -180 15 0 13 27 15 180 15
153 0 180 -2 180 -15z m70 -35 c0 -6 -90 -10 -250 -10 -160 0 -250 4 -250 10
0 6 90 10 250 10 160 0 250 -4 250 -10z m906 -69 c41 -19 84 -63 84 -87 0 -17
-29 -46 -40 -39 -5 3 -12 -4 -15 -15 -6 -19 -10 -17 -34 22 -31 49 -89 103
-122 113 -17 6 -19 9 -8 16 23 15 92 10 135 -10z m-596 -322 c0 -188 -3 -240
-12 -237 -18 6 -24 444 -7 464 6 8 13 14 15 14 2 0 4 -108 4 -241z m489 205
c5 -5 12 -59 16 -119 l7 -110 -41 0 c-33 0 -41 3 -41 17 0 10 -6 18 -13 18
-41 0 -76 84 -63 153 5 29 12 35 44 43 45 11 80 11 91 -2z m-529 -214 l0 -211
-22 12 c-12 6 -43 34 -69 61 -44 46 -47 53 -41 86 14 81 11 87 -36 90 l-43 3
3 41 3 42 95 42 c52 23 98 42 103 43 4 1 7 -94 7 -209z m595 110 c0 -7 -6 -15
-12 -17 -8 -3 -13 4 -13 17 0 13 5 20 13 18 6 -3 12 -11 12 -18z m937 -36 c2
-34 -1 -49 -14 -61 -16 -15 -18 -15 -18 0 0 8 8 18 18 20 9 3 -58 5 -150 6
l-168 1 0 40 0 40 164 0 164 0 4 -46z m-1812 1 c0 -18 -5 -25 -19 -25 -24 0
-35 -30 -26 -70 5 -23 3 -30 -9 -30 -13 0 -16 13 -16 75 l0 75 35 0 c31 0 35
-3 35 -25z m106 -45 c34 0 44 -4 44 -16 0 -14 -13 -15 -89 -12 -92 3 -108 8
-96 29 5 7 23 9 53 5 25 -3 64 -6 88 -6z m614 -40 c0 -16 -7 -30 -15 -34 -12
-4 -15 4 -15 41 0 39 2 44 15 33 8 -7 15 -25 15 -40z m45 -16 c54 14 85 -3
161 -86 32 -35 61 -97 89 -193 38 -132 37 -139 -36 -176 -34 -16 -62 -29 -64
-27 -1 2 -17 29 -35 62 l-33 58 36 68 c21 37 37 73 37 80 0 7 -14 -14 -30 -48
-53 -105 -167 -194 -319 -249 -36 -13 -56 -22 -43 -19 23 5 24 4 21 -82 -2
-48 0 -101 4 -118 l8 -32 -108 -55 c-187 -96 -317 -201 -357 -287 -14 -31 -22
-75 -26 -139 l-5 -95 -112 138 c-62 76 -113 144 -113 151 0 8 16 58 35 112 47
132 46 144 -15 209 -70 74 -69 121 3 139 22 6 31 3 43 -14 13 -18 25 -21 84
-21 39 0 72 -5 76 -11 4 -8 9 -8 18 1 20 20 -16 31 -86 26 -42 -3 -70 -1 -74
6 -12 19 20 28 79 22 55 -6 61 -5 84 20 13 14 29 24 35 20 6 -4 6 1 -1 14 -15
29 -14 42 7 49 61 21 190 88 256 133 73 48 236 202 236 221 0 5 -42 -33 -92
-84 -51 -51 -129 -117 -172 -145 -75 -49 -81 -51 -98 -35 -22 20 -108 188
-108 212 0 9 9 22 19 28 19 12 47 -5 211 -125 16 -12 24 -8 67 30 69 61 170
138 175 133 2 -2 26 18 52 45 27 28 52 50 56 50 4 0 6 10 5 23 -1 13 -1 15 2
4 3 -14 11 -17 28 -13z m1000 -11 c-3 -10 -9 -30 -12 -45 l-5 -28 -134 0 -134
0 0 45 0 45 146 0 c135 0 146 -1 139 -17z m-1609 -79 c25 -24 25 -26 8 -45
-21 -23 -34 -25 -34 -4 0 8 5 15 11 15 8 0 8 5 -1 15 -7 8 -9 15 -4 15 4 0 -1
7 -12 15 -11 9 -14 14 -6 15 7 0 24 -12 38 -26z m-576 -19 c0 -13 -4 -14 -20
-5 -11 6 -20 13 -20 15 0 3 9 5 20 5 11 0 20 -7 20 -15z m384 -7 c3 -13 6 -38
6 -56 0 -20 6 -35 15 -38 30 -12 16 -34 -20 -34 l-35 0 0 75 c0 57 3 75 14 75
7 0 16 -10 20 -22z m1790 -26 c3 -5 -17 -7 -45 -4 -48 4 -51 3 -89 -37 -36
-37 -44 -41 -90 -41 l-50 0 0 45 0 45 134 0 c74 0 137 -4 140 -8z m-1570 -154
c5 -12 1 -20 -16 -29 -13 -6 -40 -25 -60 -41 l-38 -30 0 86 c0 84 1 86 24 86
18 0 25 7 30 33 l7 32 23 -60 c13 -33 26 -68 30 -77z m1226 -18 l0 -40 -142 0
c-154 0 -178 8 -178 57 l0 23 160 0 160 0 0 -40z m-1550 -62 l0 -62 -30 29
c-22 21 -30 38 -30 62 0 30 3 33 30 33 l30 0 0 -62z m-821 6 c-16 -20 -21 -12
-13 21 6 23 8 25 16 11 6 -11 6 -22 -3 -32z m2051 -20 c0 -7 -7 -14 -15 -18
-10 -4 -17 3 -21 22 -3 15 -8 36 -10 47 -4 16 1 13 20 -10 14 -16 26 -35 26
-41z m-1692 28 l23 -18 -35 -58 c-19 -32 -45 -88 -57 -124 l-22 -65 -27 84
-27 84 33 17 c32 18 74 66 74 87 0 15 11 13 38 -7z m1448 -77 c30 -68 30 -69
-1 -85 -30 -16 -31 -34 -5 -102 11 -28 19 -52 17 -53 -1 -1 -36 -8 -77 -15
-41 -7 -103 -21 -138 -32 -34 -10 -67 -16 -72 -13 -11 7 -12 157 -2 192 5 16
34 36 97 67 50 24 104 56 120 70 17 14 31 25 33 26 2 0 14 -25 28 -55z m-966
-118 c0 -7 -16 -19 -36 -26 -71 -26 -64 -96 19 -166 22 -19 39 -36 36 -37 -49
-31 -52 -31 -47 -4 3 14 2 23 -2 21 -10 -6 -54 44 -74 82 -29 59 -16 105 37
128 41 18 67 19 67 2z m2203 -282 c0 -74 -7 -156 -22 -249 -33 -198 -25 -312
34 -449 7 -16 1 -18 -65 -15 l-73 3 -15 40 c-11 29 -16 79 -16 180 -1 134 1
147 43 310 37 142 44 185 44 260 -1 79 2 93 20 113 l22 24 13 -54 c7 -29 14
-102 15 -163z m-1164 29 l55 -115 -50 -50 c-63 -65 -216 -167 -328 -220 l-88
-41 38 -31 c58 -45 140 -133 199 -211 l52 -68 -48 -45 -48 -45 -47 22 c-83 36
-240 148 -293 207 -28 31 -60 77 -72 102 -51 108 0 263 132 405 120 128 168
157 323 191 120 26 114 30 175 -101z m-497 -68 c-72 -76 -129 -169 -154 -249
-23 -77 -20 -124 13 -191 17 -35 20 -59 20 -170 -1 -71 -3 -131 -5 -133 -2 -2
-52 56 -111 129 l-107 132 4 106 c5 136 29 185 136 273 70 57 227 157 246 157
5 0 -14 -24 -42 -54z m-468 -424 c130 -162 135 -170 154 -247 29 -113 38 -135
61 -135 12 0 21 -9 25 -26 4 -15 6 -27 4 -28 -2 -2 -20 -13 -41 -25 -61 -37
-73 -81 -21 -81 17 0 24 -5 24 -20 0 -24 7 -24 85 -5 76 18 85 18 85 0 0 -8
16 -32 35 -54 84 -93 225 -64 271 55 16 41 20 45 47 42 28 -3 32 -8 43 -52 22
-85 73 -175 138 -240 70 -72 133 -111 226 -143 l65 -22 -785 0 -785 0 73 24
c228 78 376 282 377 520 0 102 -14 162 -61 255 -37 76 -95 144 -164 195 l-48
36 20 59 c11 33 24 60 29 60 5 0 69 -75 143 -168z m712 111 c-39 -143 -37
-137 -53 -120 -13 13 -14 22 -3 66 11 46 29 70 53 71 5 0 6 -8 3 -17z m445
-398 c125 -105 122 -102 115 -114 -8 -12 -160 113 -403 332 -142 128 -163 153
-147 170 4 3 82 -65 174 -152 92 -87 210 -193 261 -236z m-507 358 c-12 -50
-17 -53 -48 -28 l-29 24 34 14 c47 21 50 21 43 -10z m-1004 -16 c97 -23 95
-14 38 -167 -55 -148 -126 -270 -156 -270 -11 0 -27 -9 -37 -20 -28 -31 -10
-74 32 -78 34 -3 66 28 56 54 -3 8 12 33 34 57 57 62 79 103 124 228 22 62 43
118 47 125 12 21 112 -64 160 -135 102 -154 115 -336 35 -501 -128 -263 -448
-362 -702 -218 -182 104 -285 335 -241 538 31 137 136 279 256 342 103 55 238
72 354 45z m1149 -71 l74 -75 -29 -45 -30 -46 -24 32 c-13 18 -41 52 -63 75
-38 41 -38 41 -26 87 6 25 14 46 18 46 4 0 40 -33 80 -74z m863 -60 c30 -30
69 -82 87 -115 l32 -61 -64 0 c-64 0 -64 0 -93 41 -15 22 -43 53 -62 69 l-34
28 27 46 c15 25 33 46 40 46 7 0 37 -24 67 -54z m-1143 -141 c48 -35 52 -40
46 -69 -13 -63 -15 -66 -49 -66 -19 0 -49 -11 -70 -25 l-37 -25 -25 27 c-23
26 -24 34 -20 93 3 36 6 94 6 129 l0 64 48 -45 c27 -25 72 -62 101 -83z m493
7 l48 -42 -99 0 c-123 0 -128 6 -68 97 l22 32 25 -22 c14 -13 46 -42 72 -65z
m588 4 l31 -41 -72 -3 c-98 -4 -108 7 -68 71 29 47 29 47 54 31 14 -9 39 -35
55 -58z m-1366 -81 l56 -70 -31 -8 c-17 -5 -37 -6 -44 -4 -6 3 -20 34 -29 69
-10 34 -20 72 -23 83 -7 26 1 18 71 -70z m370 16 c10 -15 -6 -72 -21 -78 -21
-8 -23 -1 -11 45 10 41 21 52 32 33z m296 -61 c-1 -12 -71 -100 -80 -100 -13
0 -13 26 1 52 10 18 8 24 -14 40 l-26 19 32 29 32 30 28 -32 c15 -18 27 -35
27 -38z m262 -3 c78 -64 85 -73 65 -79 -20 -5 -19 -6 6 -7 19 -1 27 -6 27 -20
0 -17 -12 -20 -92 -28 l-93 -9 134 1 c118 1 135 3 147 20 7 10 11 28 8 39 -6
26 18 62 35 52 7 -5 17 -19 22 -33 5 -14 12 -23 16 -20 3 3 -4 25 -15 47 l-20
42 20 34 c11 20 28 34 39 34 26 0 78 -74 85 -122 4 -21 11 -41 16 -44 20 -12
-17 106 -43 140 l-20 26 70 0 c67 0 71 -1 85 -29 8 -15 22 -61 30 -102 l16
-74 -5 60 c-2 33 -11 79 -19 103 l-15 42 63 0 c73 0 72 2 86 -101 36 -253
-132 -499 -380 -560 -223 -54 -463 59 -566 266 -19 39 -37 86 -40 107 l-6 36
58 7 c92 10 102 12 56 14 -40 1 -41 2 -30 21 9 14 25 20 53 22 38 1 38 1 7 5
-28 4 -31 7 -21 19 9 11 8 18 -2 31 -8 9 -13 24 -11 34 2 10 -13 36 -34 58
l-36 41 108 0 109 -1 87 -72z m-402 -68 l0 -57 -35 -4 c-28 -3 -36 0 -41 17
-4 11 -24 36 -45 56 -36 34 -38 37 -28 72 l10 36 69 -32 69 -32 1 -56z m-226
-15 c-7 -31 -15 -58 -17 -61 -8 -7 -60 23 -81 46 -12 13 -16 25 -10 31 19 18
70 40 95 40 l26 0 -13 -56z m47 41 c-1 -35 -25 -105 -35 -102 -12 4 -11 18 5
80 6 21 15 37 20 35 6 -2 10 -8 10 -13z m-257 -20 c28 -43 21 -61 -31 -79 -53
-18 -83 -20 -83 -6 0 5 13 16 30 25 26 14 28 18 20 41 -6 14 -8 30 -4 35 11
18 52 9 68 -16z m307 2 c18 -14 53 -66 48 -71 -7 -6 -109 -15 -109 -10 0 3 5
25 11 50 12 45 23 52 50 31z m299 -18 c0 -22 -77 -89 -101 -88 l-24 1 25 10
c14 6 37 28 52 49 27 38 48 50 48 28z m-560 -85 c0 -36 -3 -44 -19 -44 -23 0
-35 26 -15 34 8 3 14 19 14 36 0 18 4 29 10 25 6 -3 10 -26 10 -51z m63 -26
c-2 -5 -15 -8 -29 -8 -20 0 -24 5 -24 31 l0 31 29 -24 c15 -13 26 -26 24 -30z
m327 32 c0 -16 -7 -20 -30 -20 -33 0 -43 25 -12 33 34 9 42 7 42 -13z m-74
-16 c-3 -9 -6 -27 -6 -40 0 -33 -64 -101 -103 -110 -68 -16 -128 3 -166 52
-32 41 -27 60 17 68 21 3 52 2 70 -3 40 -12 69 -4 75 19 5 18 28 25 91 29 22
1 27 -2 22 -15z m-366 -33 c0 -10 -13 -15 -67 -26 -26 -5 -33 -3 -33 9 0 8 10
17 23 19 42 8 77 7 77 -2z"/>
<path d="M2300 3066 c0 -2 9 -6 20 -9 11 -3 18 -1 14 4 -5 9 -34 13 -34 5z"/>
<path d="M2276 3014 c-8 -21 -8 -34 2 -34 4 0 8 11 8 25 2 29 -1 32 -10 9z"/>
<path d="M2308 3023 c7 -3 16 -2 19 1 4 3 -2 6 -13 5 -11 0 -14 -3 -6 -6z"/>
<path d="M2308 2943 c16 -3 22 -10 18 -19 -3 -9 -1 -12 4 -9 21 13 10 35 -17
34 -25 -2 -26 -2 -5 -6z"/>
<path d="M2483 2690 c0 -30 2 -43 4 -27 2 15 2 39 0 55 -2 15 -4 2 -4 -28z"/>
<path d="M2028 2293 c6 -2 18 -2 25 0 6 3 1 5 -13 5 -14 0 -19 -2 -12 -5z"/>
<path d="M1723 2283 c9 -2 25 -2 35 0 9 3 1 5 -18 5 -19 0 -27 -2 -17 -5z"/>
<path d="M1953 2283 c9 -2 25 -2 35 0 9 3 1 5 -18 5 -19 0 -27 -2 -17 -5z"/>
<path d="M1331 1350 c15 -19 39 -62 55 -95 26 -53 29 -71 29 -155 0 -78 -4
-104 -23 -145 -34 -74 -71 -123 -121 -161 -24 -19 -39 -34 -34 -34 16 0 89 62
122 103 69 87 97 228 66 333 -18 63 -61 139 -97 170 -20 17 -19 15 3 -16z"/>
<path d="M697 1286 c-54 -82 -61 -247 -15 -347 27 -59 86 -132 122 -151 12 -6
0 12 -26 39 -81 87 -111 165 -109 282 0 68 7 98 35 164 19 42 15 48 -7 13z"/>
<path d="M1242 1254 c2 -5 13 -27 23 -49 14 -28 20 -61 20 -110 -1 -79 -14
-112 -73 -177 -26 -29 -31 -38 -15 -29 56 29 106 127 106 206 0 61 -27 144
-53 160 -7 4 -11 4 -8 -1z"/>
<path d="M821 1237 c-20 -25 -41 -99 -41 -146 0 -25 10 -66 21 -91 19 -43 84
-120 101 -120 5 0 -8 16 -28 36 -20 21 -45 55 -55 78 -25 56 -25 157 1 214 20
44 20 51 1 29z"/>
<path d="M931 1176 c-22 -26 -30 -74 -19 -112 10 -38 48 -84 70 -84 7 0 2 7
-11 16 -46 33 -63 111 -36 164 17 32 15 39 -4 16z"/>
<path d="M1160 1105 c0 -30 -7 -60 -16 -73 -9 -13 -14 -26 -11 -29 3 -3 15 10
26 28 22 36 27 84 11 109 -7 11 -10 1 -10 -35z"/>
<path d="M2633 1103 c15 -2 37 -2 50 0 12 2 0 4 -28 4 -27 0 -38 -2 -22 -4z"/>
<path d="M2533 1093 c15 -2 37 -2 50 0 12 2 0 4 -28 4 -27 0 -38 -2 -22 -4z"/>
<path d="M2513 1043 c15 -2 37 -2 50 0 12 2 0 4 -28 4 -27 0 -38 -2 -22 -4z"/>
<path d="M2700 1023 c0 -18 57 -61 89 -68 16 -3 43 0 60 7 32 13 31 13 -28 13
-52 0 -63 4 -90 29 -17 17 -31 25 -31 19z"/>
<path d="M2589 965 c39 -82 126 -135 221 -134 30 0 69 6 85 14 l30 15 -35 -8
c-124 -26 -221 15 -303 128 -15 21 -14 19 2 -15z"/>
<path d="M2461 926 c-1 -5 13 -32 31 -59 40 -63 134 -132 206 -153 71 -21 204
-15 247 10 17 9 22 15 11 11 -123 -38 -209 -32 -316 22 -70 36 -120 83 -167
159 -6 10 -12 15 -12 10z"/>
<path d="M2113 1003 c15 -2 37 -2 50 0 12 2 0 4 -28 4 -27 0 -38 -2 -22 -4z"/>
<path d="M1070 3106 l0 -86 45 0 46 0 -3 83 -3 82 -42 3 -43 3 0 -85z m80 -1
l0 -75 -35 0 -35 0 0 75 0 75 35 0 35 0 0 -75z"/>
<path d="M1210 3105 l0 -85 40 0 40 0 0 85 0 85 -40 0 -40 0 0 -85z m70 0 l0
-75 -30 0 -30 0 0 75 0 75 30 0 30 0 0 -75z"/>
<path d="M1344 3177 c-3 -8 -4 -45 -2 -83 l3 -69 43 -3 42 -3 0 85 0 86 -40 0
c-25 0 -43 -5 -46 -13z m76 -72 l0 -75 -30 0 -30 0 0 75 0 75 30 0 30 0 0 -75z"/>
<path d="M1487 3183 c-4 -3 -7 -42 -7 -85 l0 -78 45 0 45 0 0 85 0 85 -38 0
c-21 0 -42 -3 -45 -7z m73 -78 l0 -75 -35 0 -35 0 0 75 0 75 35 0 35 0 0 -75z"/>
<path d="M2721 3098 c1 -17 2 -19 6 -5 4 16 26 17 279 17 237 0 274 -2 274
-15 0 -8 4 -15 9 -15 5 0 7 9 4 20 -5 19 -14 20 -289 20 l-284 0 1 -22z"/>
<path d="M1210 2885 l0 -85 40 0 40 0 0 85 0 85 -40 0 -40 0 0 -85z m70 0 l0
-75 -30 0 -30 0 0 75 0 75 30 0 30 0 0 -75z"/>
<path d="M1344 2957 c-3 -8 -4 -45 -2 -83 l3 -69 43 -3 42 -3 0 85 0 86 -40 0
c-25 0 -43 -5 -46 -13z m76 -72 l0 -75 -30 0 -30 0 0 75 0 75 30 0 30 0 0 -75z"/>
<path d="M1210 2665 l0 -85 40 0 40 0 0 85 0 85 -40 0 -40 0 0 -85z m70 0 l0
-75 -30 0 -30 0 0 75 0 75 30 0 30 0 0 -75z"/>
<path d="M1342 2668 l3 -83 43 -3 42 -3 0 85 0 86 -45 0 -46 0 3 -82z m78 -3
l0 -75 -30 0 -30 0 0 75 0 75 30 0 30 0 0 -75z"/>
<path d="M1482 2448 l3 -83 43 -3 42 -3 0 85 0 86 -45 0 -46 0 3 -82z m78 -3
l0 -75 -35 0 -35 0 0 75 0 75 35 0 35 0 0 -75z"/>
<path d="M485 2413 c-15 -43 -34 -89 -41 -103 -29 -57 -144 -434 -165 -540
-14 -73 -22 -157 -23 -230 -1 -127 11 -270 24 -270 4 0 3 21 -2 48 -16 80 -12
308 7 417 23 132 78 317 164 554 39 107 70 196 68 198 -2 2 -17 -32 -32 -74z"/>
<path d="M216 2386 c-40 -40 -114 -171 -103 -182 3 -3 13 15 22 41 23 59 75
132 112 156 58 39 133 10 163 -61 7 -17 15 -29 17 -26 8 8 -37 85 -59 100 -12
9 -42 16 -65 16 -38 0 -49 -6 -87 -44z"/>
<path d="M2938 1763 c23 -2 61 -2 85 0 23 2 4 4 -43 4 -47 0 -66 -2 -42 -4z"/>
<path d="M2778 1753 c18 -2 45 -2 60 0 15 2 0 4 -33 4 -33 0 -45 -2 -27 -4z"/>
<path d="M2618 1743 c17 -2 47 -2 65 0 17 2 3 4 -33 4 -36 0 -50 -2 -32 -4z"/>
<path d="M3110 1620 c-6 -11 -8 -20 -6 -20 3 0 10 9 16 20 6 11 8 20 6 20 -3
0 -10 -9 -16 -20z"/>
<path d="M2849 1211 c7 -5 10 -14 7 -20 -4 -6 -5 -11 -2 -11 3 0 10 9 16 20 9
17 8 20 -12 20 -17 0 -19 -3 -9 -9z"/>
</g>
</svg>
