<?xml version="1.0" encoding="utf-8"?>
<svg xmlns="http://www.w3.org/2000/svg" viewBox="0 106.955 493.375 226.881" width="493.375px" height="226.881px" xmlns:bx="https://boxy-svg.com"><defs><style bx:fonts="Finger Paint">@import url(https://fonts.googleapis.com/css2?family=Finger+Paint%3Aital%2Cwght%400%2C400&amp;display=swap);</style></defs><g id="object-0"><g id="object-2" transform="matrix(1, 0, 0, 1, 152.959747, 0.822242)"><path d="M 178.65 181.685 C 184.274 159.13 198.324 147.85 220.805 147.85 C 254.531 147.85 258.746 173.226 275.609 177.455 C 286.852 180.277 296.686 176.047 305.118 164.768 C 299.499 187.322 285.448 198.601 262.962 198.601 C 229.237 198.601 225.021 173.226 208.159 168.996 C 196.921 166.175 187.08 170.404 178.65 181.685 Z M 136.493 232.437 C 142.118 209.882 156.167 198.601 178.65 198.601 C 212.374 198.601 216.59 223.978 233.452 228.207 C 244.697 231.028 254.531 226.8 262.962 215.519 C 257.343 238.073 243.293 249.354 220.805 249.354 C 187.08 249.354 182.865 223.978 166.003 219.749 C 154.765 216.927 144.924 221.156 136.493 232.437 Z" style="fill: rgb(255, 255, 255);" id="object-1"/></g><path d="M 493.375 258.209 C 493.375 272.125 482.093 283.419 468.166 283.419 L 316.911 283.419 L 266.494 333.836 L 266.494 132.164 C 266.494 118.235 277.787 106.955 291.702 106.955 L 468.166 106.955 C 482.093 106.955 493.375 118.235 493.375 132.164 L 493.375 258.209 Z" style=""/><path d="M 325.16 180.982 L 325.16 198.963" style="fill: none; stroke-linecap: round; stroke-width: 17px; stroke: rgb(255, 255, 255);"/><path d="M 349.134 157.007 L 349.134 222.938" style="fill: none; stroke-linecap: round; stroke-width: 17px; stroke: rgb(255, 255, 255);"/><path d="M 373.109 139.027 L 373.109 246.912" style="fill: none; stroke-linecap: round; stroke-width: 17px; stroke: rgb(255, 255, 255);"/><path d="M 397.083 168.994 L 397.083 210.95" style="fill: none; stroke-linecap: round; stroke-width: 17px; stroke: rgb(255, 255, 255);"/><path d="M 421.058 151.014 L 421.058 228.931" style="fill: none; stroke-linecap: round; stroke-width: 17px; stroke: rgb(255, 255, 255);"/><path d="M 445.032 180.982 L 445.032 198.963" style="fill: none; stroke-linecap: round; stroke-width: 17px; stroke: rgb(255, 255, 255);"/><text style="font-family: &quot;Finger Paint&quot;; font-size: 117.3px; stroke-linecap: round; stroke-linejoin: round; stroke-opacity: 0.95; stroke-width: 13px; white-space: pre;" x="0" y="241.546">Flow</text></g></svg>