<svg width="927" height="1413" viewBox="0 0 927 1413" fill="none" xmlns="http://www.w3.org/2000/svg">
<path d="M554.142 84.4385C492.245 161.66 432.987 240.998 377.142 325.205C459.466 326.161 541.79 327.139 624.114 328.095C655.097 328.459 686.216 328.823 716.743 334.079C716.743 334.079 623.614 190.215 624.41 190.602C612.49 172.331 600.548 154.084 588.628 135.814C587.559 134.175 586.489 132.537 585.42 130.899C583.464 127.919 581.508 124.915 579.551 121.935C570.93 108.738 562.309 95.5417 553.71 82.368C552.982 83.847 554.279 85.9174 554.142 84.4385Z" stroke="#000000" stroke-width="2" stroke-miterlimit="10" stroke-linecap="round" stroke-linejoin="round"/>
<path d="M481.804 324.614C502.891 244.479 526.39 164.96 553.482 85.963C559.875 128.578 566.54 171.171 573.819 213.65C580.257 251.214 587.217 288.801 598.546 325.205" stroke="#000000" stroke-width="2" stroke-miterlimit="10" stroke-linecap="round" stroke-linejoin="round"/>
<path d="M670.064 405.59C686.989 382.041 701.206 360.335 716.106 335.444" stroke="#000000" stroke-width="2" stroke-miterlimit="10" stroke-linecap="round" stroke-linejoin="round"/>
<path d="M374.366 326.548C380.44 335.262 383.374 345.705 387.105 355.648C391.382 367.07 390.745 361.882 398.16 378.719C398.752 380.061 404.007 389.322 405.007 390.368C406.509 391.984 408.67 395.692 410.239 397.239C411.809 398.787 416.495 401.699 414.766 403.064" stroke="#000000" stroke-width="2" stroke-miterlimit="10" stroke-linecap="round" stroke-linejoin="round"/>
<path d="M926 375.238C876.001 352.258 819.518 359.903 765.56 370.733C742.13 375.443 717.062 381.085 695.042 371.825" stroke="#000000" stroke-width="2" stroke-miterlimit="10" stroke-linecap="round" stroke-linejoin="round"/>
<path d="M206.442 391.21C255.6 382.496 303.37 413.371 353.279 414.804C403.483 416.238 449.82 387.979 499.684 381.904C532.554 377.9 565.811 383.679 598.159 390.801C647.135 401.585 695.61 415.464 745.473 420.788C795.336 426.112 841.969 435.919 886.509 412.871C893.152 409.435 909.621 397.604 909.621 397.604" stroke="#000000" stroke-width="2" stroke-miterlimit="10" stroke-linecap="round" stroke-linejoin="round"/>
<path d="M329.849 415.282C248.639 498.556 170.705 585.039 95.4102 673.705C114.7 697.686 122.98 727.173 143.158 750.381C143.158 750.381 143.977 750.313 143.067 750.335C143.089 758.981 143.658 767.627 143.681 776.273C143.726 801.892 143.772 827.603 140.61 853.017C139.245 863.984 137.312 875.019 138.244 886.031" stroke="#000000" stroke-width="2" stroke-miterlimit="10" stroke-linecap="round" stroke-linejoin="round"/>
<path d="M388.743 1081.84C379.689 1077.02 371.477 1070.78 363.334 1064.59C354.644 1057.99 345.954 1051.4 337.265 1044.8C270.091 993.787 202.894 942.753 137.949 888.921" stroke="#000000" stroke-width="2" stroke-miterlimit="10" stroke-linecap="round" stroke-linejoin="round"/>
<path d="M388.743 1081.84C400.617 1108.96 410.581 1133.69 419.657 1161.86C432.6 1202.02 445.544 1242.2 455.507 1283.04C459.375 1286.88 465.221 1287.68 470.612 1288.59C484.033 1290.82 497.136 1294.89 509.442 1300.65C526.935 1337.8 545.247 1374.57 566.244 1412C588.423 1382.83 617.244 1359.51 645.747 1336.48C674.478 1313.28 703.208 1290.07 732.757 1265.5C757.075 1215.3 777.752 1163.36 794.882 1110.89C798.931 1110.03 802.661 1108.12 806.278 1106.12C827.274 1094.58 846.564 1079.97 865.354 1063.34C870.996 1050.21 877.683 1037.54 885.35 1025.48C888.352 1020.77 891.605 1015.81 891.81 1010.58C887.351 905.507 886.032 800.3 888.125 696.48C898.884 674.228 910.076 652.158 925.067 631.044C914.239 606.722 899.521 584.174 881.619 564.47C878.753 561.33 875.75 558.213 872.11 556.006C868.175 553.663 863.671 552.48 859.258 551.251C839.695 545.745 820.723 538.146 802.73 528.658C777.093 494.961 756.688 459.672 741.106 420.311" stroke="#000000" stroke-width="2" stroke-miterlimit="10" stroke-linecap="round" stroke-linejoin="round"/>
<path d="M427.823 400.789C443.246 377.877 464.22 341.132 481.804 324.614C497.045 339.426 509.442 362.041 519.747 380.607" stroke="#000000" stroke-width="2" stroke-miterlimit="10" stroke-linecap="round" stroke-linejoin="round"/>
<path d="M562.582 383.998C569.679 376.421 571.499 369.322 577.208 360.654C580.53 355.625 584.237 350.847 587.945 346.092C588.787 345.023 589.629 343.93 590.47 342.861C592.29 340.54 594.11 338.197 596.316 336.24C596.999 333.578 598.068 331.007 599.478 328.641C599.478 328.641 597.113 329.096 597.568 328.527C602.595 334.579 607.622 340.631 612.649 346.661C615.88 350.529 619.087 354.419 622.317 358.287C630.188 367.752 638.059 377.217 646.407 386.25C653.618 394.031 660.488 398.468 668.359 405.567" stroke="#000000" stroke-width="2" stroke-miterlimit="10" stroke-linecap="round" stroke-linejoin="round"/>
<path d="M385.9 359.584C339.676 348.163 291.087 346.433 244.181 354.488C209.149 360.517 175.21 371.893 140.269 378.355C105.306 384.84 68.1131 386.114 35.2881 372.485" stroke="#000000" stroke-width="2" stroke-miterlimit="10" stroke-linecap="round" stroke-linejoin="round"/>
<path d="M242.452 508.044C243.839 516.485 245.227 524.904 246.615 533.345C248.298 543.629 250.004 553.959 253.371 563.81C253.894 565.358 256.032 567.064 256.714 565.585" stroke="#000000" stroke-width="2" stroke-miterlimit="10" stroke-linecap="round" stroke-linejoin="round"/>
<path d="M254.804 566.814C264.995 558.418 276.027 551.137 287.06 543.879C329.303 516.03 371.568 488.204 414.288 457.761C434.921 481.242 455.53 504.699 476.162 528.18C484.852 538.077 493.542 547.975 501.299 558.6C507.668 567.337 513.378 576.506 519.565 585.357C532.122 603.309 546.635 619.872 562.786 634.662" stroke="#000000" stroke-width="2" stroke-miterlimit="10" stroke-linecap="round" stroke-linejoin="round"/>
<path d="M372 819.139C418.724 761.825 475.526 713.772 530.052 663.83C540.175 654.57 550.252 645.173 558.851 634.48" stroke="#000000" stroke-width="2" stroke-miterlimit="10" stroke-linecap="round" stroke-linejoin="round"/>
<path d="M369.976 820.982C309.421 793.61 250.323 763.054 189.427 728.72C204.281 754.112 204.531 785.92 218.703 811.699C253.189 812.768 287.674 813.86 322.16 814.93C337.742 815.43 353.484 815.931 369.976 820.982Z" stroke="#000000" stroke-width="2" stroke-miterlimit="10" stroke-linecap="round" stroke-linejoin="round"/>
<path d="M222.161 812.313C194.613 839.502 167.794 864.302 137.926 888.921L222.161 812.313Z" fill="#000000"/>
<path d="M222.161 812.313C194.613 839.502 167.794 864.302 137.926 888.921" stroke="#000000" stroke-width="2" stroke-miterlimit="10" stroke-linecap="round" stroke-linejoin="round"/>
<path d="M436.217 1207.23C455.371 1188.87 470.544 1175.69 491.813 1159.88C507.008 1170.48 522.181 1181.11 537.308 1191.78C547.34 1198.85 557.531 1206.09 565.038 1215.81C566.835 1218.13 568.541 1220.74 568.723 1223.68C568.905 1226.29 567.881 1228.82 566.903 1231.28C556.826 1256.53 550.184 1283.18 547.249 1310.21" stroke="#000000" stroke-width="2" stroke-miterlimit="10" stroke-linecap="round" stroke-linejoin="round"/>
<path d="M568.086 1224.22C591.13 1208.59 616.516 1196.42 646.407 1188.75C656.826 1199.17 659.578 1202.18 668.245 1208.07C679.96 1216.03 690.447 1224.31 700.933 1233.85C706.62 1238.99 712.285 1244.15 717.972 1249.3C724.728 1255.42 722.089 1252.94 732.758 1265.52C731.234 1264.4 731.597 1268.34 730.073 1267.25" stroke="#000000" stroke-width="2" stroke-miterlimit="10" stroke-linecap="round" stroke-linejoin="round"/>
<path d="M697.248 594.003C735.874 578.759 764.627 543.788 804.072 530.888C799.317 572.889 802.275 615.754 812.784 656.709C838.375 645.037 865.786 637.392 893.721 634.161C903.411 633.046 913.534 632.318 921.928 627.358" stroke="#000000" stroke-width="2" stroke-miterlimit="10" stroke-linecap="round" stroke-linejoin="round"/>
<path d="M346.75 778.73C400.003 750.608 445.771 708.448 478.187 657.687C485.216 646.675 491.813 634.593 491.858 621.533C491.904 610.339 487.127 599.759 482.441 589.589C480.098 584.492 477.664 579.282 473.774 575.232C467.609 568.816 458.533 566.108 449.684 565.153C420.089 561.967 389.311 577.325 372.865 603.696C350.708 577.257 312.014 566.04 279.144 576.529C273.161 578.44 267.247 581.102 262.879 585.585C256.078 592.547 254.008 602.717 252.301 612.296C250.186 624.127 248.139 636.277 250.391 648.086C252.984 661.76 261.037 673.705 268.976 685.127C292.224 718.618 316.518 751.973 346.75 778.73Z" stroke="#000000" stroke-width="2" stroke-miterlimit="10" stroke-linecap="round" stroke-linejoin="round"/>
<path d="M315.518 659.849C320.386 651.817 329.849 648.29 338.789 645.424C355.622 640.009 374.093 639.645 390.995 644.832C395.999 646.356 401.208 648.632 403.984 653.091C405.963 656.277 406.44 660.167 406.645 663.899C406.782 666.197 406.827 668.517 406.19 670.724C405.053 674.638 401.891 677.618 398.479 679.848C387.992 686.742 374.889 688.062 362.355 688.494C351.846 688.858 341.314 688.722 330.827 688.107C325.481 687.789 320.113 687.356 314.972 685.832C311.423 684.785 307.715 682.897 306.305 679.484C304.508 675.116 308.17 670.338 310.627 666.288C313.402 661.714 316.587 659.28 315.518 659.849Z" stroke="#000000" stroke-width="2" stroke-miterlimit="10" stroke-linecap="round" stroke-linejoin="round"/>
<path d="M355.758 641.647C355.281 631.749 355.167 621.852 355.417 611.932C355.417 611.682 355.531 611.363 355.804 611.318C356.077 611.272 356.213 611.773 355.94 611.773" stroke="#000000" stroke-width="2" stroke-miterlimit="10" stroke-linecap="round" stroke-linejoin="round"/>
<path d="M333.807 612.819C333.17 620.146 336.855 627.244 336.787 634.593C336.787 635.64 336.696 636.709 336.878 637.733C337.219 639.69 338.516 641.51 338.197 643.467C337.811 643.49 337.401 643.512 337.014 643.512" stroke="#000000" stroke-width="2" stroke-miterlimit="10" stroke-linecap="round" stroke-linejoin="round"/>
<path d="M308.17 612.387C309.399 625.492 318.566 636.596 321.182 649.496C321.273 649.951 321.364 650.406 321.683 650.748C322.001 651.066 322.615 651.157 322.865 650.77" stroke="#000000" stroke-width="2" stroke-miterlimit="10" stroke-linecap="round" stroke-linejoin="round"/>
<path d="M406.418 694.933C414.562 693.477 421.249 687.447 425.799 680.531C426.823 678.983 427.778 677.368 428.984 675.957" stroke="#000000" stroke-width="2" stroke-miterlimit="10" stroke-linecap="round" stroke-linejoin="round"/>
<path d="M405.099 683.511C409.421 681.623 412.969 678.051 414.835 673.728" stroke="#000000" stroke-width="2" stroke-miterlimit="10" stroke-linecap="round" stroke-linejoin="round"/>
<path d="M187.903 366.797C161.447 363.862 137.334 350.369 111.334 344.613C93.8406 340.745 75.5969 340.449 57.9901 343.726C48.891 345.432 39.6326 348.276 32.8311 354.556" stroke="#000000" stroke-width="2" stroke-miterlimit="10" stroke-linecap="round" stroke-linejoin="round"/>
<path d="M807.234 1006.03C807.234 1006.03 806.733 1006.53 803.662 1007.53C829.617 1007.1 855.595 1008.83 881.255 1012.67C884.781 1013.19 888.625 1013.72 891.719 1011.94" fill="#000000"/>
<path d="M807.234 1006.03C807.234 1006.03 806.733 1006.53 803.662 1007.53C829.617 1007.1 855.595 1008.83 881.255 1012.67C884.781 1013.19 888.625 1013.72 891.719 1011.94" stroke="#000000" stroke-width="2" stroke-miterlimit="10" stroke-linecap="round" stroke-linejoin="round"/>
<path d="M575.502 66.6461C583.418 53.7454 591.971 41.2543 601.116 29.2183L575.502 66.6461Z" fill="#000000"/>
<path d="M575.502 66.6461C583.418 53.7454 591.971 41.2543 601.116 29.2183" stroke="#000000" stroke-width="2" stroke-miterlimit="10" stroke-linecap="round" stroke-linejoin="round"/>
<path d="M552.459 53.3586C554.392 41.2998 551.845 16.8864 551.845 16.8864L551.276 1.5285" stroke="#000000" stroke-width="2" stroke-miterlimit="10" stroke-linecap="round" stroke-linejoin="round"/>
<path d="M506.008 36.2488C513.333 40.3215 520.02 45.5545 525.73 51.6977C529.324 55.5656 532.691 59.9114 537.422 62.2776" fill="#000000"/>
<path d="M506.008 36.2488C513.333 40.3215 520.02 45.5545 525.73 51.6977C529.324 55.5656 532.691 59.9114 537.422 62.2776" stroke="#000000" stroke-width="2" stroke-miterlimit="10" stroke-linecap="round" stroke-linejoin="round"/>
<path d="M547.272 1310.21C551.275 1331.55 552.39 1338.17 554.801 1351.02C558.623 1371.34 562.422 1391.68 566.243 1412C559.169 1401.44 552.663 1390.52 546.794 1379.26C542.722 1371.45 538.946 1363.51 535.17 1355.57C529.71 1344.08 524.251 1332.57 518.769 1321.08C514.469 1312.05 507.713 1307.04 503.414 1298.01" fill="#000000"/>
<path d="M547.272 1310.21C551.275 1331.55 552.39 1338.17 554.801 1351.02C558.623 1371.34 562.422 1391.68 566.243 1412C559.169 1401.44 552.663 1390.52 546.794 1379.26C542.722 1371.45 538.946 1363.51 535.17 1355.57C529.71 1344.08 524.251 1332.57 518.769 1321.08C514.469 1312.05 507.713 1307.04 503.414 1298.01" stroke="#000000" stroke-width="2" stroke-miterlimit="10" stroke-linecap="round" stroke-linejoin="round"/>
<path d="M95.0688 675.844C111.129 669.359 125.323 659.052 139.336 648.859C177.234 621.283 215.109 593.684 253.007 566.108C241.474 596.096 229.94 626.152 215.951 655.071C213.38 660.372 210.719 665.65 208.603 671.157C206.738 675.98 205.282 680.94 203.849 685.9C199.891 699.506 195.91 713.112 191.952 726.718C189.882 726.035 187.834 729.039 189.199 730.723C173.48 736.797 158.285 744.283 143.886 753.043C143.544 747.764 140.382 743.145 137.357 738.8C122.116 716.844 107.762 694.273 95.0688 675.844Z" fill="#000000" stroke="#000000" stroke-width="2" stroke-miterlimit="10" stroke-linecap="round" stroke-linejoin="round"/>
<path d="M294.499 486.861C297.593 483.722 299.776 479.763 301.323 475.622C301.937 474.006 302.483 472.3 303.621 471.003C304.781 469.706 306.737 468.933 308.284 469.752C310.513 470.912 310.286 474.188 309.376 476.532C308.466 478.875 307.238 481.537 308.42 483.744C309.808 486.315 313.379 486.361 316.291 486.429C319.203 486.52 322.911 487.84 322.843 490.752C322.797 493.096 320.204 494.506 317.906 494.961C315.609 495.416 313.038 495.485 311.309 497.077C308.921 499.262 309.421 503.039 309.399 506.269C309.376 509.5 307.556 513.573 304.349 513.186C303.916 513.141 303.507 513.004 303.143 512.799C300.641 511.389 301.005 507.794 300.413 504.972C299.708 501.651 296.796 498.67 293.407 498.738C290.154 498.807 287.606 501.4 284.945 503.243C282.283 505.086 278.143 506.087 276.119 503.539C274.981 502.106 275.027 499.967 275.914 498.351C276.801 496.736 278.371 495.621 280.031 494.848C281.76 494.051 283.944 493.3 284.331 491.435C284.672 489.751 283.307 488.249 282.169 486.975C280.918 485.565 279.804 483.949 279.554 482.083C279.303 480.218 280.236 478.102 281.988 477.51C284.331 476.714 286.651 478.739 288.129 480.741C289.631 482.743 291.223 485.132 294.499 486.861Z" fill="#000000" stroke="#000000" stroke-width="2" stroke-miterlimit="10" stroke-linecap="round" stroke-linejoin="round"/>
<path d="M567.813 1223.38C590.993 1267.29 605.233 1310.96 618.632 1358.76C616.63 1350.18 629.641 1345.97 637.125 1341.35C673.34 1318.99 706.665 1291.96 735.987 1261.11C679.004 1246.79 621.998 1232.51 567.813 1223.38Z" fill="#000000" stroke="#000000" stroke-width="2" stroke-miterlimit="10" stroke-linecap="round" stroke-linejoin="round"/>
<path d="M675.501 495.849C678.64 486.315 681.779 476.782 684.919 467.249C685.919 464.2 686.966 461.06 689.104 458.671C691.242 456.282 694.768 454.826 697.726 456.077C699.773 456.919 701.138 458.853 702.23 460.787C704.459 464.769 705.937 469.183 706.506 473.711C706.87 476.577 706.893 479.558 707.962 482.243C710.624 489.046 718.653 491.753 725.751 493.46C732.848 495.166 740.878 497.373 744.199 503.88C745.155 505.723 745.61 507.885 745.246 509.932C744.722 512.799 742.63 515.166 740.241 516.849C735.874 519.966 730.505 521.286 725.728 523.721C720.951 526.155 716.447 530.501 716.492 535.87C716.515 539.283 718.38 542.378 719.586 545.586C721.156 549.772 721.565 554.573 719.836 558.714C718.108 562.855 713.99 566.108 709.509 565.995C703.936 565.858 699.75 561.012 696.725 556.325C693.699 551.638 690.742 546.336 685.578 544.289C684.805 543.993 683.986 543.765 683.167 543.925C681.552 544.243 680.665 545.927 679.891 547.383C673.84 558.85 661.716 566.882 648.795 567.951C646.793 568.111 644.473 567.997 643.267 566.381C642.517 565.403 642.403 564.083 642.357 562.855C642.084 555.938 643.267 548.976 645.815 542.56C648.477 535.848 652.639 528.453 649.5 521.946C648.386 519.625 646.452 517.805 644.632 515.985C641.539 512.89 638.604 509.614 635.874 506.178C632.894 502.447 630.028 497.874 631.074 493.209C632.599 486.52 641.425 484.199 648.022 486.111C654.618 488.022 660.123 492.641 666.538 495.052C668.586 495.826 670.86 496.372 672.93 495.644C675.023 494.893 676.593 492.481 675.501 495.849Z" fill="#000000" stroke="#000000" stroke-width="2" stroke-miterlimit="10" stroke-linecap="round" stroke-linejoin="round"/>
<path d="M607.508 438.558C608.19 439.991 610.124 440.515 611.648 440.037C613.172 439.559 614.332 438.33 615.288 437.034C617.039 434.667 618.29 431.914 618.927 429.025C619.564 426.158 619.746 422.904 621.884 420.902C622.203 420.606 622.612 420.333 623.067 420.379C623.5 420.424 623.841 420.788 624.091 421.13C625.865 423.564 625.934 426.772 626.389 429.73C626.843 432.688 628.095 435.987 630.938 436.988C632.872 437.671 635.01 437.079 637.057 436.829C640.833 436.397 644.769 437.261 647.999 439.286C648.841 439.809 649.659 440.446 650.137 441.311C651.411 443.586 649.819 446.544 647.658 448C645.497 449.456 642.835 450.002 640.538 451.277C638.24 452.528 636.193 455.008 636.807 457.556C637.239 459.308 638.763 460.514 639.719 462.039C640.924 463.904 641.243 466.202 641.311 468.409C641.402 471.185 641.106 474.097 639.582 476.418C638.035 478.716 634.964 480.172 632.394 479.103C629.641 477.943 628.641 474.666 627.162 472.072C625.774 469.661 623.704 467.636 621.247 466.316C620.406 465.861 619.496 465.474 618.541 465.474C616.402 465.474 614.742 467.363 613.786 469.274C612.831 471.185 612.217 473.347 610.693 474.848C608.236 477.305 604.323 477.305 600.843 477.123C599.501 477.055 598.045 476.964 596.976 476.122C594.951 474.507 595.497 471.344 596.339 468.887C597.271 466.202 598.318 463.586 599.501 461.015C600.274 459.354 601.116 457.602 600.888 455.782C600.752 454.644 600.183 453.575 599.569 452.619C596.111 447.181 590.47 442.926 588.855 436.67C588.491 435.236 588.354 433.666 588.923 432.278C589.469 430.89 590.856 429.776 592.335 429.867C593.222 429.912 594.041 430.39 594.815 430.845C599.796 433.871 604.71 436.943 607.508 438.558Z" fill="#000000" stroke="#000000" stroke-width="2" stroke-miterlimit="10" stroke-linecap="round" stroke-linejoin="round"/>
<path d="M381.236 642.784C378.984 648.222 379.143 654.32 379.348 660.213C379.37 660.918 379.393 661.623 379.666 662.26C379.916 662.875 380.394 663.398 380.895 663.853C383.124 665.81 386.081 666.674 388.993 667.243C389.766 667.402 390.608 667.516 391.313 667.152C391.95 666.834 392.314 666.174 392.678 665.537C394.884 661.578 397.091 657.596 399.298 653.637C399.934 652.5 400.571 651.294 400.48 650.02C400.389 648.677 399.502 647.471 398.388 646.72C397.273 645.97 395.976 645.537 394.68 645.128C390.267 643.717 385.694 642.284 381.077 642.693C380.804 642.716 380.485 642.807 380.462 643.08C380.44 643.285 381.008 643.171 381.236 642.784Z" fill="#000000" stroke="#000000" stroke-width="2" stroke-miterlimit="10" stroke-linecap="round" stroke-linejoin="round"/>
<path d="M463.947 767.149C463.333 767.9 463.242 767.946 463.72 767.309C464.197 766.649 464.698 766.012 465.244 765.375C463.47 767.604 465.881 764.419 466.518 763.896C466.7 763.737 466.791 763.668 466.836 763.646C467.155 763.236 468.042 762.804 468.36 762.394C468.656 762.098 468.429 761.825 468.747 761.552C469.361 760.574 470.021 759.641 470.817 758.822C470.863 758.776 470.885 758.777 470.908 758.731C471.09 758.458 471.249 758.162 471.431 757.889C472.364 756.433 473.524 755.136 474.616 753.794C474.98 753.361 475.321 752.906 475.685 752.474C475.708 752.451 475.708 752.429 475.731 752.406C475.776 752.338 475.799 752.292 475.867 752.201C477.027 750.586 478.165 748.97 479.302 747.355C466.449 744.306 454.325 742.668 440.972 745.466C434.625 753.748 428.347 757.73 421.818 764.26C435.535 764.942 449.798 765.489 463.356 767.9C463.583 767.65 463.742 767.377 463.947 767.149Z" fill="#000000" stroke="#000000" stroke-width="2" stroke-miterlimit="10" stroke-linecap="round" stroke-linejoin="round"/>
<path d="M509.079 790.63C509.466 790.402 509.875 790.175 510.262 789.902C511.604 788.992 512.946 788.173 514.357 787.354C517.405 785.602 520.589 784.1 523.638 782.371C522.523 782.985 524.821 781.483 525.025 781.347C525.617 780.937 526.185 780.482 526.777 780.073C528.233 779.026 529.757 777.934 531.326 777.069C531.872 776.774 532.464 776.501 533.055 776.273C531.463 773.657 529.62 771.222 527.459 768.992C519.02 760.301 507.691 755.409 495.976 751.792C495.339 752.497 494.68 753.179 494.043 753.885C493.838 754.112 493.633 754.34 493.451 754.59C493.633 754.362 493.815 754.135 493.997 753.907C493.747 753.998 493.247 754.931 493.065 755.182C492.541 755.91 492.018 756.661 491.518 757.389C490.085 759.527 488.515 761.575 486.9 763.577C486.286 764.351 485.672 765.147 485.012 765.898C484.989 765.944 484.944 766.034 484.853 766.216C484.58 766.672 484.238 767.104 483.92 767.513C483.42 768.173 482.919 768.924 482.35 769.516C482.237 769.629 482.168 769.675 482.123 769.72C482.123 769.743 482.1 769.743 482.1 769.766C481.918 770.085 481.759 770.426 481.577 770.744C481.281 771.268 480.917 771.723 480.508 772.155C489.402 775.249 497.682 779.64 504.825 786.125C506.304 787.536 507.76 789.037 509.079 790.63Z" fill="#000000" stroke="#000000" stroke-width="2" stroke-miterlimit="10" stroke-linecap="round" stroke-linejoin="round"/>
<path d="M367.633 842.096C368.065 842.642 368.475 843.234 368.793 843.825C368.998 844.235 369.157 844.667 369.339 845.1C369.339 845.1 369.339 845.1 369.339 845.122C369.339 845.122 369.362 845.168 369.385 845.19C369.453 845.282 369.521 845.373 369.589 845.464C370.09 845.782 370.545 846.328 370.977 846.715C373.161 848.603 375.231 850.628 377.346 852.608C377.437 852.699 377.574 852.79 377.688 852.904C378.165 853.154 378.598 853.472 379.03 853.791C379.098 853.837 379.212 853.928 379.416 854.064C381.1 855.202 382.487 856.544 383.921 857.955C384.421 858.455 384.944 858.933 385.399 859.456C385.809 859.934 386.173 860.435 386.537 860.935C395.317 859.707 404.166 858.956 413.038 858.432C413.015 858.341 412.992 858.25 412.947 858.159C412.833 857.841 412.742 857.522 412.628 857.181C412.628 857.158 412.628 857.158 412.606 857.136C412.446 856.772 412.264 856.43 412.105 856.066C411.15 853.95 410.285 852.016 410.035 849.673C409.99 849.218 409.967 848.785 409.967 848.33C409.899 848.171 409.83 847.989 409.762 847.784C409.694 847.307 409.648 846.92 409.603 846.601C409.58 846.556 409.58 846.51 409.557 846.419C409.557 846.396 409.557 846.351 409.535 846.328C408.238 844.781 407.26 843.143 406.896 841.118C402.528 841.209 398.161 841.232 393.816 841.163C384.967 841.027 375.959 840.572 367.178 841.345C367.36 841.618 367.519 841.846 367.633 842.096Z" fill="#000000" stroke="#000000" stroke-width="2" stroke-miterlimit="10" stroke-linecap="round" stroke-linejoin="round"/>
<path d="M394.658 934.016C394.862 933.948 395.044 933.902 395.158 933.88C396.523 933.652 397.91 933.857 399.275 933.72C402.346 933.425 405.645 932.014 408.761 931.4C412.287 930.694 415.79 930.103 419.339 929.579C425.799 928.647 432.191 927.213 438.538 925.552C437.628 924.005 436.695 922.503 435.649 921.093C425.344 906.895 410.058 897.498 393.497 891.128C390.267 892.447 386.969 893.608 383.67 894.563C377.119 896.452 370.408 897.794 364.039 900.183C360.991 901.321 357.829 901.867 354.803 903.005C353.416 903.528 351.914 903.915 350.413 904.233C353.893 906.167 357.465 907.987 360.854 909.785C373.138 916.337 384.626 924.437 394.658 934.016Z" fill="#000000" stroke="#000000" stroke-width="2" stroke-miterlimit="10" stroke-linecap="round" stroke-linejoin="round"/>
<path d="M314.995 987.621C312.743 984.299 310.354 981.137 307.92 977.951C302.961 971.467 299.458 963.936 294.363 957.611C293.157 956.132 291.815 954.835 290.746 953.242C289.995 952.104 289.404 950.807 288.608 949.738C288.403 949.465 288.198 949.215 288.016 948.964C270.023 950.671 253.394 957.337 241.861 971.876C259.172 984.527 275.641 998.474 292.952 1011.1C301.983 1007.28 306.738 998.838 315.95 995.425C317.179 994.97 318.43 994.606 319.704 994.356C318.18 992.103 316.474 989.783 314.995 987.621Z" fill="#000000" stroke="#000000" stroke-width="2" stroke-miterlimit="10" stroke-linecap="round" stroke-linejoin="round"/>
<path d="M383.625 995.289C383.034 993.013 381.965 991.261 381.168 988.781C380.713 987.371 380.509 985.96 380.349 984.481C380.304 984.049 380.167 981.683 380.213 982.115C380.054 980.59 379.53 979.157 379.417 977.61C379.349 976.882 379.394 975.221 379.349 974.948C379.098 972.673 378.211 970.397 377.642 968.19C377.369 967.144 377.074 966.12 376.778 965.096C354.258 959.044 332.101 951.035 308.899 948.964C307.17 948.805 305.418 948.692 303.689 948.623C309.081 954.607 312.902 961.842 317.861 968.168C320.273 971.262 322.889 974.22 325.209 977.405C327.461 980.454 329.485 983.821 331.919 986.597C334.058 989.032 335.718 991.944 337.538 994.72C340.109 995.152 342.656 995.653 345.181 996.13C357.306 998.406 369.59 999.839 381.919 1000.43C382.965 1000.48 384.012 1000.52 385.081 1000.54C384.603 998.77 384.08 997.041 383.625 995.289Z" fill="#000000" stroke="#000000" stroke-width="2" stroke-miterlimit="10" stroke-linecap="round" stroke-linejoin="round"/>
<path d="M443.861 937.611C442.314 938.021 440.767 938.43 439.198 938.703C435.535 939.363 431.918 940.364 428.233 940.933C424.685 941.479 421.113 941.798 417.587 942.389C413.766 943.049 409.944 943.959 406.259 945.188C405.94 945.301 405.622 945.392 405.326 945.506C408.079 948.896 410.717 952.81 410.467 957.155C410.149 962.616 405.121 966.893 399.798 968.099C397.433 968.645 394.999 968.691 392.587 968.486C392.86 969.51 393.111 970.534 393.315 971.558C393.861 974.379 393.975 976.29 394.43 978.657C394.726 980.181 394.726 981.682 394.908 983.23C394.908 983.298 395.226 984.527 395.294 984.731C395.567 985.414 396.796 987.211 397.182 988.44C397.592 989.714 397.819 991.079 398.183 992.353C398.934 994.947 399.685 997.541 400.435 1000.16C412.651 999.043 424.434 995.63 433.351 987.484C446.682 975.244 449.343 955.153 443.861 937.611Z" fill="#000000" stroke="#000000" stroke-width="2" stroke-miterlimit="10" stroke-linecap="round" stroke-linejoin="round"/>
<path d="M335.969 894.313C336.515 894.268 337.015 894.222 337.424 894.131C339.085 893.744 340.404 893.335 342.11 893.175C343.089 893.084 343.362 892.971 344.203 892.675C345.705 892.152 347.229 891.742 348.753 891.219C350.072 890.786 351.187 889.922 352.529 889.467C355.213 888.534 357.943 887.942 360.559 886.736C363.357 885.44 366.36 884.507 369.385 883.665C366.883 882.709 364.654 881.344 363.38 879.069C361.15 875.019 363.152 869.695 366.746 866.76C367.315 866.282 367.952 865.872 368.566 865.508C368.134 865.167 367.679 864.849 367.269 864.484C366.769 864.052 366.337 863.552 365.882 863.051C363.721 860.753 361.514 858.501 359.512 856.066C358.079 854.337 356.896 852.494 356.237 850.31C356.169 850.082 356.123 849.855 356.078 849.65C355.918 849.4 355.782 849.127 355.668 848.854C355.395 848.603 355.168 848.307 354.917 848.012C354.849 847.943 354.758 847.898 354.667 847.83C354.212 847.58 353.757 847.284 353.348 846.965C352.916 846.715 352.529 846.396 352.142 845.987C352.142 846.01 352.119 845.987 351.983 845.828C352.028 845.896 352.097 845.919 352.142 845.987C352.119 845.919 351.528 845.19 351.119 844.69C350.641 844.849 350.163 845.008 349.708 845.19C335.832 850.537 323.958 864.758 326.96 879.319C328.212 885.349 331.556 890.195 335.969 894.313Z" fill="#000000"/>
<path d="M352.142 845.987C352.529 846.396 352.916 846.715 353.348 846.965C353.757 847.284 354.212 847.58 354.667 847.83C354.758 847.898 354.849 847.943 354.917 848.012C355.168 848.307 355.395 848.603 355.668 848.854C355.782 849.127 355.918 849.4 356.078 849.65C356.123 849.855 356.169 850.082 356.237 850.31C356.896 852.494 358.079 854.337 359.512 856.066C361.514 858.501 363.721 860.753 365.882 863.051C366.337 863.552 366.769 864.052 367.269 864.484C367.679 864.849 368.134 865.167 368.566 865.508C367.952 865.872 367.315 866.282 366.746 866.76C363.152 869.695 361.15 875.019 363.38 879.069C364.654 881.344 366.883 882.709 369.385 883.665C366.36 884.507 363.357 885.44 360.559 886.736C357.943 887.942 355.213 888.534 352.529 889.467C351.187 889.922 350.072 890.786 348.753 891.219C347.229 891.742 345.705 892.152 344.203 892.675C343.362 892.971 343.089 893.084 342.11 893.175C340.404 893.335 339.085 893.744 337.424 894.131C337.015 894.222 336.515 894.268 335.969 894.313C331.556 890.195 328.212 885.349 326.96 879.319C323.958 864.758 335.832 850.537 349.708 845.19C350.163 845.008 350.641 844.849 351.119 844.69C351.528 845.19 352.119 845.919 352.142 845.987ZM352.142 845.987C352.142 846.01 352.119 845.987 351.983 845.828C352.028 845.896 352.097 845.919 352.142 845.987Z" stroke="#000000" stroke-width="2" stroke-miterlimit="10" stroke-linecap="round" stroke-linejoin="round"/>
<path d="M422.774 841.391C422.865 842.073 422.91 842.551 422.956 842.87C422.979 842.892 422.979 842.938 423.001 842.961C422.979 842.802 422.979 842.597 422.956 842.324C423.001 842.46 423.047 842.597 423.092 842.733C423.229 843.029 423.32 843.37 423.388 843.689C423.866 844.713 424.139 845.828 424.252 847.147C424.275 847.375 424.275 847.58 424.298 847.807C424.525 848.171 424.776 848.558 424.844 848.672C425.094 849.104 425.322 849.536 425.549 849.991C426.14 851.129 426.618 852.312 427.119 853.472C427.278 853.882 427.437 854.291 427.596 854.701C427.619 854.747 427.619 854.792 427.642 854.838C427.96 854.997 428.62 856.226 428.802 856.499C429.03 856.863 429.257 857.227 429.439 857.613C440.017 857.136 450.594 856.68 461.104 855.725C460.603 854.701 460.126 853.7 459.693 852.653C459.648 852.54 459.284 851.22 459.034 850.833C459.443 851.811 459.421 851.766 458.966 850.742C458.988 850.765 459.011 850.81 459.034 850.833C458.897 850.537 458.738 850.128 458.511 849.627C458.465 849.468 458.42 849.286 458.374 849.127C458.215 848.581 458.078 848.035 457.919 847.489C457.692 846.738 457.26 845.941 457.874 847.056C457.601 846.578 457.578 846.487 457.646 846.533C457.123 845.828 456.532 845.168 456.099 844.417C455.28 843.006 454.871 841.391 454.462 839.821C454.371 839.48 454.143 839.047 454.098 838.911C453.825 838.524 453.552 838.137 453.483 838.024C453.324 837.751 453.21 837.455 453.074 837.159C442.906 838.729 432.692 839.821 422.433 840.481C422.546 840.799 422.683 841.072 422.774 841.391Z" fill="#000000"/>
<path d="M459.034 850.833C459.284 851.22 459.648 852.54 459.693 852.653C460.126 853.7 460.603 854.701 461.104 855.725C450.594 856.68 440.017 857.136 429.439 857.613C429.257 857.227 429.03 856.863 428.802 856.499C428.62 856.226 427.96 854.997 427.642 854.838C427.619 854.792 427.619 854.747 427.596 854.701C427.437 854.291 427.278 853.882 427.119 853.472C426.618 852.312 426.14 851.129 425.549 849.991C425.322 849.536 425.094 849.104 424.844 848.672C424.776 848.558 424.525 848.171 424.298 847.807C424.275 847.58 424.275 847.375 424.252 847.147C424.139 845.828 423.866 844.713 423.388 843.689C423.32 843.37 423.229 843.029 423.092 842.733C423.047 842.597 423.001 842.46 422.956 842.324C422.979 842.597 422.979 842.802 423.001 842.961C422.979 842.938 422.979 842.892 422.956 842.87C422.91 842.551 422.865 842.073 422.774 841.391C422.683 841.072 422.546 840.799 422.433 840.481C432.692 839.821 442.906 838.729 453.074 837.159C453.21 837.455 453.324 837.751 453.483 838.024C453.552 838.137 453.825 838.524 454.098 838.911C454.143 839.047 454.371 839.48 454.462 839.821C454.871 841.391 455.28 843.006 456.099 844.417C456.532 845.168 457.123 845.828 457.646 846.533C457.578 846.487 457.601 846.578 457.874 847.056C457.26 845.941 457.692 846.738 457.919 847.489C458.078 848.035 458.215 848.581 458.374 849.127C458.42 849.286 458.465 849.468 458.511 849.627C458.738 850.128 458.897 850.537 459.034 850.833ZM459.034 850.833C459.443 851.811 459.421 851.766 458.966 850.742C458.988 850.765 459.011 850.81 459.034 850.833Z" stroke="#000000" stroke-width="2" stroke-miterlimit="10" stroke-linecap="round" stroke-linejoin="round"/>
<path d="M507.851 843.894C507.35 843.393 506.964 842.892 506.645 842.346C506.44 842.096 506.258 841.823 506.076 841.573C505.713 841.323 505.326 841.072 504.985 840.731C504.348 840.117 503.847 839.343 503.324 838.615C503.096 838.433 502.846 838.274 502.619 838.069C501.959 837.546 501.322 837 500.753 836.385C500.435 836.044 500.185 835.657 499.889 835.293C499.889 835.316 499.844 835.248 499.753 835.134C499.275 834.929 498.797 834.724 498.342 834.474C497.432 833.973 496.818 833.359 496.181 832.631C496.022 832.449 495.681 832.131 495.385 831.835C494.816 831.562 494.27 831.266 493.702 830.811C493.611 830.743 493.565 830.697 493.497 830.652C493.451 830.629 493.406 830.583 493.338 830.561C492.837 830.265 492.337 829.992 491.836 829.719C491.518 829.56 491.268 829.332 490.995 829.127C489.812 829.491 488.606 829.833 487.446 830.128C480.986 831.789 474.503 833.223 467.951 834.52C468.042 834.747 468.429 835.566 468.634 836.021C468.452 835.521 468.52 835.657 468.838 836.454C468.861 836.476 468.861 836.476 468.884 836.499C469.726 837.318 470.453 838.319 471.022 839.343C471.682 840.526 472.16 841.823 472.637 843.097C472.774 843.461 472.91 843.825 473.047 844.189C473.047 844.189 473.047 844.212 473.069 844.235C472.956 843.712 473.797 846.009 473.979 846.578C474.161 847.147 474.07 847.056 473.957 846.806C474.252 847.602 475.049 848.672 475.299 849.195C475.822 850.264 476.231 851.243 476.391 852.426C476.413 852.585 476.436 852.699 476.436 852.835C476.482 853.063 476.527 853.45 476.595 853.882C481.987 853.063 487.355 852.062 492.678 850.765C498.388 849.354 504.097 847.557 509.489 845.19C508.897 844.781 508.351 844.371 507.851 843.894Z" fill="#000000" stroke="#000000" stroke-width="2" stroke-miterlimit="10" stroke-linecap="round" stroke-linejoin="round"/>
<path d="M507.009 821.573C507.305 821.71 507.6 821.824 507.896 821.983C509.761 823.075 510.99 824.622 512.491 826.078C512.491 826.078 512.491 826.078 512.514 826.078C513.355 826.465 514.083 827.102 514.743 827.785C515.107 828.172 515.471 828.581 515.789 829.036C516.79 829.719 517.677 830.583 518.383 831.516C518.633 831.812 518.838 832.131 519.042 832.449C520.521 833.359 521.749 834.656 522.818 836.067C523.114 836.203 523.41 836.317 523.706 836.454C523.751 836.476 523.774 836.522 523.819 836.545C524.843 835.68 525.867 834.815 526.799 833.883C538.15 822.643 542.04 805.26 538.446 789.788C538.173 789.97 536.763 790.721 536.558 790.835C535.671 791.358 534.807 791.859 533.942 792.427C532.054 793.656 530.166 794.521 528.21 795.545C528.21 795.545 526.686 796.386 526.504 796.477C525.366 797.046 524.206 797.569 523.046 798.07C524.365 797.501 521.954 798.593 521.749 798.707C520.908 799.117 520.043 799.503 519.202 799.936C517.837 800.618 516.495 801.369 515.152 802.12C515.607 804.168 515.744 806.261 515.471 808.377C514.697 813.906 511.445 818.206 507.009 821.573Z" fill="#000000" stroke="#000000" stroke-width="2" stroke-miterlimit="10" stroke-linecap="round" stroke-linejoin="round"/>
<path d="M585.943 737.685C622.863 688.221 659.76 638.734 696.68 589.27C755.255 623.422 813.808 657.573 872.383 691.725C876.364 694.045 880.459 696.48 883.12 700.234C886.783 705.422 887.078 712.179 887.215 718.527C887.806 742.781 888.398 767.035 888.989 791.29C889.49 811.994 889.922 833.2 883.28 852.812C877.069 871.128 865.081 886.782 854.481 902.959C833.03 935.677 816.629 971.694 806.005 1009.37C805.528 1006.94 809.782 1007.73 811.397 1009.6C827.957 1028.55 844.517 1047.51 861.078 1066.44C792.334 1115.4 721.748 1153.53 645.065 1188.75C649.978 1147.96 634.305 1111.78 627.936 1071.19C620.179 1021.79 622.067 971.421 618.518 921.547C614.06 858.91 601.048 797.205 585.943 737.685Z" fill="#000000" stroke="#000000" stroke-width="2" stroke-miterlimit="10" stroke-linecap="round" stroke-linejoin="round"/>
<path d="M604.323 838.797C572.317 876.975 549.547 922.867 538.514 971.466C517.154 963.662 505.143 941.524 488.31 926.212C482.896 921.297 476.253 916.815 468.974 917.225C472.477 940.682 485.876 978.838 480.484 985.391C474.001 987.757 471.226 981.728 468.201 978.656C465.653 976.085 461.172 973.514 458.942 976.381C457.987 977.587 458.032 979.293 458.237 980.818C460.557 999.156 479.12 1027.19 475.298 1032.76C470.362 1037.2 453.528 1030.53 442.632 1029.42C441.404 1029.28 440.084 1029.17 438.97 1029.74C435.649 1031.4 437.241 1036.54 439.743 1039.29C446.363 1046.6 455.758 1050.58 464.607 1054.92C475.343 1060.2 485.671 1066.32 495.452 1073.22C499.979 1076.42 504.893 1080.79 504.415 1086.32C503.824 1093.01 495.407 1098.33 497.659 1104.68C503.391 1106.68 508.76 1099.2 514.788 1100.06C521.84 1101.06 522.773 1111.69 528.96 1115.24C532.713 1117.4 537.468 1116.4 541.585 1115.03C556.485 1110.07 570.042 1101.16 580.484 1089.44C586.99 1082.13 594.314 1072.9 604.005 1074.17C609.533 1074.9 614.059 1079.22 616.562 1084.2C619.064 1089.19 619.883 1094.83 620.656 1100.34C624.956 1130.76 629.232 1161.15 633.532 1191.57C636.011 1190.5 638.491 1189.44 640.97 1188.37C631.325 1134.19 621.657 1079.9 617.381 1025.05C616.129 1008.96 615.333 992.808 615.72 976.654C615.97 966.097 616.721 955.562 616.562 945.005C616.357 933.697 615.106 922.458 613.832 911.241C610.897 885.849 608.031 860.525 604.323 838.797Z" fill="#000000" stroke="#000000" stroke-width="2" stroke-miterlimit="10" stroke-linecap="round" stroke-linejoin="round"/>
<path d="M618 922C617.5 919 615.478 892.618 614.5 888.5C613.704 885.178 606.795 839.301 607 834.5C615.963 834.477 630.028 860.846 635.601 867.854C641.174 874.861 657.485 899.047 659.418 901.231C679.414 923.597 681.097 921.709 691.948 949.671C693.54 953.767 695.678 958.386 699.932 959.478C702.434 960.138 705.073 959.341 707.462 958.34C728.003 949.74 737.944 926.987 752.457 910.082C756.369 905.532 761.692 901.004 767.607 901.982C775.659 903.325 778.526 914.018 776.114 921.822C773.726 929.627 768.084 936.088 765.559 943.87C763.034 951.651 765.491 962.345 773.453 964.074C776.683 964.779 780.482 963.937 783.007 966.076C784.212 967.1 784.872 968.647 785.464 970.103C787.579 975.245 789.354 981.957 785.236 985.666C783.143 987.554 780.163 987.941 777.388 988.373C769.153 989.67 760.282 992.651 756.119 999.863C749.454 1011.35 758.234 1026.12 755.323 1039.09C753.094 1049.08 743.107 1056.74 732.871 1056.36C728.89 1056.2 724.204 1055.22 721.52 1058.16C717.607 1062.46 722.68 1069.3 721.565 1075.01C720.701 1079.54 715.878 1082.43 711.283 1082.66C706.688 1082.89 702.252 1081.09 697.998 1079.32C688.217 1075.24 678.413 1071.17 668.631 1067.1C666.72 1066.3 664.787 1065.5 662.717 1065.25C656.87 1064.53 651.229 1068.55 648.386 1073.72C645.542 1078.88 639.832 1090.51 639.65 1096.4C638.558 1130.85 643.881 1154.88 652.617 1187.23C648.09 1186.32 646.55 1187.77 642 1188.5C640.5 1169 637.239 1155.44 634.509 1136.49C633.736 1131.08 633.213 1125.62 632.69 1120.16C628.868 1079.86 624.5 1062.89 620.679 1022.59C619.86 1014.02 619.478 980.526 619 978C618.204 966.647 620.319 962.308 619 951C618.932 950.431 618.818 942.523 619 942C619.182 941.477 619 938 619 937C618.955 936.75 618 927.5 618 922Z" fill="white" stroke="white" stroke-width="2" stroke-miterlimit="10" stroke-linecap="round" stroke-linejoin="round"/>
<path d="M664.196 661.35C663.263 655.162 666.471 648.563 671.907 645.492C677.344 642.42 684.669 643.08 689.469 647.084C690.811 644.218 692.221 641.283 694.541 639.144C696.862 637.005 700.388 635.845 703.277 637.142C704.71 637.779 705.938 638.985 707.485 639.189C710.215 639.531 712.171 636.755 713.923 634.616C717.062 630.794 723.249 628.268 726.775 631.727C730.142 635.026 729.232 642.033 733.69 643.535C734.782 643.899 735.965 643.808 737.103 643.694C741.948 643.262 746.793 642.83 751.638 642.397C752.753 652.75 764.286 660.622 774.318 657.869C775.66 657.505 777.093 656.982 778.412 657.482C779.14 657.755 779.709 658.324 780.255 658.916C787.967 667.357 790.605 680.758 800.91 685.65C802.07 684.74 803.23 683.83 804.39 682.92C805.778 685.422 807.166 687.925 808.553 690.428C807.575 691.861 805.801 692.453 804.413 693.5C803.048 694.546 802.116 696.753 803.389 697.914C804.095 698.551 805.141 698.573 806.096 698.573C809.622 698.505 813.171 698.437 816.697 698.369C817.402 699.665 816.128 701.19 814.786 701.804C813.444 702.419 811.852 702.76 811.01 703.966C809.463 706.218 811.874 709.153 814.331 710.359C816.788 711.565 819.859 712.566 820.632 715.183C818.198 720.234 811.169 722.099 809.463 727.446C808.394 730.791 809.782 734.34 810.35 737.799C810.896 741.257 809.964 745.671 806.597 746.604C802.229 747.833 796.997 742.304 793.653 745.375C792.448 746.467 792.175 748.31 791.037 749.471C788.808 751.723 784.873 750.062 782.78 747.673C780.687 745.284 779.209 742.144 776.32 740.825C771.861 738.777 766.857 742.167 763.376 745.648C759.919 749.129 756.029 753.27 751.138 752.952C745.61 752.588 742.221 746.809 740.446 741.576C737.421 740.802 737.762 747.286 734.737 748.06C733.918 748.265 733.076 747.969 732.325 747.65C728.094 745.808 724.546 742.486 722.407 738.39C719.132 738.913 717.881 743.032 715.105 744.875C712.535 746.581 708.963 745.967 706.416 744.215C703.868 742.463 702.116 739.824 700.433 737.23C698.067 743.328 692.949 748.31 686.784 750.517C683.713 751.609 679.596 751.723 677.867 748.947C676.821 747.286 677.048 745.148 676.866 743.191C676.366 737.685 672.089 732.725 666.698 731.428C664.696 730.95 662.49 730.905 660.784 729.722C658.463 728.106 657.872 724.807 658.645 722.099C659.419 719.392 661.261 717.117 663.058 714.955C658.259 711.997 652.913 709.972 647.363 709.017C647.59 701.918 649.091 694.865 651.776 688.289C648.341 687.334 644.701 687.061 641.152 687.516C642.722 677.186 651.298 668.29 661.58 666.356C661.785 664.285 661.898 662.283 664.196 661.35Z" fill="white" stroke="white" stroke-width="2" stroke-miterlimit="10" stroke-linecap="round" stroke-linejoin="round"/>
<path d="M746.429 769.971C741.72 768.787 736.488 769.925 732.69 772.974C731.575 773.861 730.528 775.044 730.392 776.455C730.278 777.684 730.87 778.844 731.006 780.073C731.234 782.257 730.028 784.373 730.074 786.58C730.142 789.31 732.257 791.654 734.714 792.814C737.171 793.974 739.992 794.179 742.721 794.316C744.177 794.384 745.747 794.407 746.952 793.61C748.021 792.905 748.59 791.677 749.113 790.516C750.638 787.172 752.139 783.827 753.663 780.482C754.027 779.686 754.391 778.89 754.482 778.025C754.823 775.158 752.298 772.769 749.773 771.358C747.726 770.175 745.383 769.197 746.429 769.971Z" fill="white" stroke="white" stroke-width="2" stroke-miterlimit="10" stroke-linecap="round" stroke-linejoin="round"/>
<path d="M718.677 808.309C716.925 806.443 713.809 806.238 711.648 807.603C709.487 808.968 708.372 811.653 708.577 814.201C708.668 815.43 709.077 816.681 709.919 817.592C712.262 820.117 716.447 818.957 719.496 817.341C720.178 816.977 720.929 816.545 721.202 815.817C721.452 815.157 721.293 814.406 721.111 813.724C720.428 811.039 719.746 808.354 719.041 805.669C718.313 805.806 717.608 806.238 718.677 808.309Z" fill="white" stroke="white" stroke-width="2" stroke-miterlimit="10" stroke-linecap="round" stroke-linejoin="round"/>
<path d="M696.908 830.651C695.474 830.765 694.11 830.174 692.677 829.946C691.266 829.741 689.515 830.128 688.991 831.448C688.718 832.13 688.855 832.904 688.969 833.609C689.242 835.202 689.537 836.84 690.447 838.16C691.357 839.48 693.04 840.412 694.587 839.934C696.271 839.388 697.044 837.523 697.567 835.839C698.159 833.973 698.705 831.88 697.863 830.105C697.044 828.353 694.178 827.58 696.908 830.651Z" fill="white" stroke="white" stroke-width="2" stroke-miterlimit="10" stroke-linecap="round" stroke-linejoin="round"/>
<path d="M601.777 864.257C605.075 863.37 608.374 865.622 610.717 868.079C613.06 870.559 615.471 874.655 618.656 875.838C618.724 875.36 618.474 873.722 618.542 873.244" stroke="white" stroke-width="2" stroke-miterlimit="10" stroke-linecap="round" stroke-linejoin="round"/>
<path d="M592.109 896.656C595.362 899.205 598.615 901.776 601.868 904.324C606.849 908.237 621.363 915.564 620.862 913.698C620.498 912.356 621.977 912.97 622.272 914.29" stroke="white" stroke-width="2" stroke-miterlimit="10" stroke-linecap="round" stroke-linejoin="round"/>
<path d="M609.693 933.675C613.446 936.496 617.677 938.908 622.272 940.887" stroke="white" stroke-width="2" stroke-miterlimit="10" stroke-linecap="round" stroke-linejoin="round"/>
<path d="M578.733 925.211C582.623 944.164 596.795 960.659 614.925 967.348C617.7 968.372 621.158 970.056 620.839 973.014" stroke="white" stroke-width="2" stroke-miterlimit="10" stroke-linecap="round" stroke-linejoin="round"/>
<path d="M574.889 941.684C578.142 942.935 581.986 942.639 585.012 940.91" stroke="white" stroke-width="2" stroke-miterlimit="10" stroke-linecap="round" stroke-linejoin="round"/>
<path d="M578.916 956.313C583.078 956.245 587.218 955.426 591.086 953.902" stroke="white" stroke-width="2" stroke-miterlimit="10" stroke-linecap="round" stroke-linejoin="round"/>
<path d="M601.186 986.369C600.958 985.96 601.754 985.846 602.164 986.051C606.668 988.44 611.172 990.829 601.186 986.369Z" stroke="white" stroke-width="2" stroke-miterlimit="10" stroke-linecap="round" stroke-linejoin="round"/>
<path d="M607.191 989.191C611.126 990.419 614.971 991.989 618.656 993.9C618.633 993.332 617.996 992.877 607.191 989.191Z" stroke="white" stroke-width="2" stroke-miterlimit="10" stroke-linecap="round" stroke-linejoin="round"/>
<path d="M557.351 961.387C562.765 972.377 568.201 983.412 575.39 993.309C582.578 1003.21 591.677 1012.01 602.801 1017.13C607.873 1019.47 613.356 1021.04 617.928 1024.25" stroke="white" stroke-width="2" stroke-miterlimit="10" stroke-linecap="round" stroke-linejoin="round"/>
<path d="M550.753 976.404C553.824 979.953 559.261 981.182 563.56 979.293" stroke="white" stroke-width="2" stroke-miterlimit="10" stroke-linecap="round" stroke-linejoin="round"/>
<path d="M560.012 995.448C562.446 995.63 564.584 997.018 566.882 997.837C569.156 998.656 572.114 998.678 560.012 995.448Z" stroke="white" stroke-width="2" stroke-miterlimit="10" stroke-linecap="round" stroke-linejoin="round"/>
<path d="M577.346 996.563C580.166 992.285 581.122 986.779 579.893 981.796" stroke="white" stroke-width="2" stroke-miterlimit="10" stroke-linecap="round" stroke-linejoin="round"/>
<path d="M568.178 998.314C571.841 998.587 575.503 998.519 579.165 998.11" stroke="white" stroke-width="2" stroke-miterlimit="10" stroke-linecap="round" stroke-linejoin="round"/>
<path d="M484.694 946.507C490.563 957.406 496.409 968.281 502.278 979.18C506.236 986.529 510.217 993.923 515.358 1000.48C519.521 1005.78 524.389 1010.44 529.257 1015.11C533.738 1019.41 538.606 1023.93 544.725 1025.03C547.955 1025.62 551.277 1025.19 554.552 1024.98C580.894 1023.34 614.424 1046.46 627.618 1069.33" stroke="white" stroke-width="2" stroke-miterlimit="10" stroke-linecap="round" stroke-linejoin="round"/>
<path d="M501.3 972.991C504.803 969.055 503.324 961.638 507.942 959.089" stroke="white" stroke-width="2" stroke-miterlimit="10" stroke-linecap="round" stroke-linejoin="round"/>
<path d="M486.741 986.142C494.134 987.985 501.527 989.805 508.943 991.648" stroke="white" stroke-width="2" stroke-miterlimit="10" stroke-linecap="round" stroke-linejoin="round"/>
<path d="M544.748 1026.98C544.794 1023.66 546.227 1020.48 546.386 1017.15C546.523 1014.49 545.84 1011.87 545.158 1009.3C543.816 1004.21 542.474 999.043 539.994 994.378C537.06 988.804 532.646 984.117 529.553 978.634" stroke="white" stroke-width="2" stroke-miterlimit="10" stroke-linecap="round" stroke-linejoin="round"/>
<path d="M503.438 1031.19C509.307 1031.4 515.153 1031.62 521.022 1031.83C528.324 1032.1 535.763 1032.35 542.769 1030.28C547.387 1028.92 551.641 1026.6 556.167 1024.93" stroke="white" stroke-width="2" stroke-miterlimit="10" stroke-linecap="round" stroke-linejoin="round"/>
<path d="M471.705 994.879C474.139 999.589 479.212 1002.21 483.989 1004.53C487.447 1006.21 490.927 1007.89 494.544 1009.26C504.507 1012.97 515.472 1013.97 525.936 1012.1" stroke="white" stroke-width="2" stroke-miterlimit="10" stroke-linecap="round" stroke-linejoin="round"/>
<path d="M462.879 1040.09C480.258 1047.28 498.661 1052.01 517.36 1054.1C527.596 1055.24 537.969 1055.58 548.16 1054.17C559.762 1052.58 570.954 1048.73 582.532 1046.94C594.111 1045.14 605.553 1047.48 615.425 1053.79" stroke="white" stroke-width="2" stroke-miterlimit="10" stroke-linecap="round" stroke-linejoin="round"/>
<path d="M575.139 1067.35C579.393 1061.5 585.239 1057.08 590.38 1052.03C595.544 1046.98 600.23 1040.84 575.139 1067.35Z" stroke="white" stroke-width="2" stroke-miterlimit="10" stroke-linecap="round" stroke-linejoin="round"/>
<path d="M534.193 1097.92C540.631 1092.1 545.363 1084.61 549.252 1076.83C553.233 1068.85 556.418 1060.47 558.738 1051.87" stroke="white" stroke-width="2" stroke-miterlimit="10" stroke-linecap="round" stroke-linejoin="round"/>
<path d="M513.151 1084.59C520.795 1076.7 527.096 1067.48 531.668 1057.47" stroke="white" stroke-width="2" stroke-miterlimit="10" stroke-linecap="round" stroke-linejoin="round"/>
<path d="M486.742 1047.37C485.058 1043.61 482.783 1040.11 480.054 1037.04" stroke="white" stroke-width="2" stroke-miterlimit="10" stroke-linecap="round" stroke-linejoin="round"/>
</svg>
