<svg
                                            width="18"
                                            height="18"
                                            viewBox="0 0 18 18"
                                            fill="none"
                                            xmlns="http://www.w3.org/2000/svg"
                                            xmlns:xlink="http://www.w3.org/1999/xlink"
                                        >
                                            <mask
                                                id="mask0_2002_911"
                                                x="0"
                                                y="1"
                                                width="18"
                                                height="16"
                                            >
                                                <path
                                                    d="M16.5307 7.36546C16.2687 8.17231 15.9542 8.96028 15.5889 9.72405C14.8792 11.2183 14.0294 12.6621 12.9394 13.8996C11.9098 15.0698 10.5507 16.2007 8.96791 16.4364C5.51396 16.9485 3.00998 12.599 1.92548 9.87277C1.51638 8.84849 1.08395 7.79621 0.938435 6.68496C0.817632 5.76173 0.927456 4.09908 2.12041 3.96157C2.89742 3.87037 3.47811 4.58735 3.94074 5.12193C4.48986 5.75331 4.91542 6.47731 5.39316 7.16201C6.0672 8.12876 7.19701 9.46726 8.50255 9.3031C9.4635 9.18107 10.2117 8.30551 10.688 7.50857C11.4087 6.30473 11.9235 4.96899 12.6909 3.79461C13.262 2.91347 14.1104 1.88922 15.1771 1.65911C15.9637 1.48793 16.5595 1.89202 16.8244 2.64127C17.2541 3.82968 17.1251 5.13175 16.8244 6.33279C16.7393 6.68169 16.6414 7.02592 16.5307 7.36546Z"
                                                    fill="black"
                                                ></path>
                                            </mask>
                                            <g mask="url(#mask0_2002_911)">
                                                <path
                                                    d="M17.7978 0.862061H0.204102V17.2277H17.7978V0.862061Z"
                                                    fill="url(#pattern0_2002_911)"
                                                ></path>
                                            </g>
                                            <defs>
                                                <pattern
                                                    id="pattern0_2002_911"
                                                    patternContentUnits="objectBoundingBox"
                                                    width="1"
                                                    height="1"
                                                >
                                                    <use
                                                        xlink:href="#image0_2002_911"
                                                        transform="scale(0.00374532 0.00411523)"
                                                    ></use>
                                                </pattern>
                                                <image
                                                    id="image0_2002_911"
                                                    width="267"
                                                    height="243"
                                                    preserveAspectRatio="none"
                                                    xlink:href="/assets/images/image_1757030813688394726.png"
                                                ></image>
                                            </defs>
                                        </svg>